<svg width="281" height="166" viewBox="0 0 281 166" fill="none" xmlns="http://www.w3.org/2000/svg">
<rect y="0.375" width="281" height="165" rx="5" fill="#88BED1"/>
<path d="M127.359 41.3284C127.785 41.3271 128.212 41.3255 128.638 41.3236C129.79 41.3195 130.943 41.321 132.095 41.3239C133.304 41.3262 134.513 41.3241 135.723 41.3227C137.753 41.321 139.783 41.3232 141.813 41.3275C144.156 41.3324 146.499 41.3308 148.842 41.3258C150.859 41.3217 152.875 41.3212 154.891 41.3235C156.093 41.3249 157.295 41.3251 158.497 41.3221C159.628 41.3195 160.758 41.3213 161.889 41.3266C162.303 41.3278 162.716 41.3274 163.13 41.3254C165.76 41.3138 167.663 41.4975 169.972 42.8223C172.302 45.3698 172.009 48.788 171.99 52.0271C171.992 52.5761 171.993 53.1251 171.995 53.6741C171.999 55.1579 171.996 56.6416 171.991 58.1255C171.987 59.6819 171.989 61.2384 171.99 62.7949C171.991 65.4078 171.987 68.0207 171.98 70.6336C171.972 73.6505 171.971 76.6672 171.975 79.684C171.978 82.5919 171.976 85.4997 171.972 88.4076C171.97 89.6426 171.97 90.8776 171.972 92.1125C171.973 93.5677 171.97 95.0228 171.964 96.4779C171.962 97.0106 171.962 97.5433 171.963 98.0759C171.979 104.456 171.979 104.456 170.028 106.436C168.198 107.842 166.028 108.282 163.77 108.133C163.784 108.309 163.798 108.485 163.812 108.666C163.975 112.41 162.434 116.249 159.973 119.04C156.511 122.764 152.474 124.802 147.354 125.079C143.307 125.194 138.985 124.041 135.945 121.195C135.403 120.66 134.873 120.114 134.357 119.553C133.609 118.899 133.609 118.899 132.622 119.025C132.061 119.16 132.061 119.16 131.488 119.298C131.023 119.394 130.558 119.488 130.092 119.581C129.335 119.74 128.578 119.901 127.822 120.065C119.57 121.787 108.134 121.911 100.701 117.186C99.4113 115.961 98.6711 114.97 98.569 113.153C98.5677 112.887 98.5664 112.622 98.5651 112.348C98.563 112.041 98.5608 111.735 98.5586 111.42C98.5578 111.085 98.557 110.751 98.5562 110.407C98.5542 110.053 98.5523 109.7 98.5503 109.336C98.5444 108.166 98.5409 106.996 98.5379 105.825C98.5367 105.422 98.5354 105.019 98.5342 104.615C98.5285 102.72 98.5242 100.824 98.5218 98.9288C98.5188 96.7432 98.511 94.5577 98.4989 92.3722C98.4899 90.681 98.4855 88.9899 98.4845 87.2987C98.4838 86.2894 98.4805 85.2802 98.4736 84.2709C98.4663 83.1447 98.4666 82.0187 98.4686 80.8925C98.4648 80.5595 98.461 80.2265 98.457 79.8834C98.4719 77.6753 98.7767 76.6284 100.297 75.024C102.903 72.9825 106.109 72.2232 109.276 71.5268C109.497 71.475 109.718 71.4232 109.946 71.3698C111.737 71.0069 113.487 70.9918 115.305 71.0044C115.7 71.0058 115.7 71.0058 116.103 71.0072C116.748 71.0097 117.393 71.0135 118.038 71.0175C118.035 70.7211 118.033 70.4247 118.03 70.1193C118.005 67.3181 117.988 64.517 117.976 61.7157C117.97 60.2757 117.961 58.8358 117.948 57.3959C117.935 56.0048 117.927 54.6137 117.924 53.2226C117.922 52.6933 117.918 52.1641 117.911 51.635C117.849 46.298 117.849 46.298 119.233 44.1613C119.341 43.9874 119.448 43.8136 119.558 43.6344C121.411 41.0184 124.513 41.3146 127.359 41.3284Z" fill="#324864"/>
<path d="M140.83 28.3756C141.06 28.3763 141.291 28.3769 141.528 28.3776C144.932 28.393 148.206 28.5197 151.515 29.3752C151.754 29.4335 151.993 29.4919 152.239 29.552C163.262 32.2871 173.304 38.2739 180.21 47.4805C180.426 47.7544 180.642 48.0282 180.865 48.3103C188.661 58.3849 192.068 71.1207 190.708 83.7967C190.025 89.2425 188.558 94.447 186.188 99.3824C186.093 99.582 185.999 99.7816 185.901 99.9873C183.776 104.398 181.046 108.419 177.644 111.922C177.209 112.37 176.781 112.825 176.354 113.28C169.417 120.571 160.468 124.984 150.787 127.238C150.48 127.31 150.48 127.31 150.167 127.384C139.715 129.664 128.178 127.901 118.636 123.221C118.454 123.132 118.272 123.043 118.085 122.951C117.067 122.45 116.055 121.936 115.049 121.411C115.049 121.311 115.049 121.211 115.049 121.109C118.6 120.959 118.6 120.959 122.223 120.807C122.223 120.707 122.223 120.608 122.223 120.505C122.647 120.461 122.647 120.461 123.08 120.416C125.629 120.13 128.095 119.704 130.583 119.067C131.774 118.775 132.717 118.544 133.88 118.997C134.512 119.535 134.512 119.535 135.169 120.222C138.496 123.37 142.654 124.895 147.173 124.804C152.111 124.456 155.816 122.846 159.287 119.298C159.459 119.131 159.631 118.965 159.808 118.793C162.494 115.961 163.483 111.923 163.77 108.133C164.225 108.056 164.225 108.056 164.688 107.978C165.092 107.904 165.496 107.83 165.9 107.756C166.099 107.723 166.298 107.69 166.503 107.656C168.153 107.345 169.383 106.715 170.57 105.474C171.484 103.86 171.63 102.159 171.622 100.337C171.624 99.9939 171.624 99.9939 171.626 99.6437C171.63 98.8816 171.629 98.1197 171.629 97.3576C171.63 96.8092 171.633 96.2608 171.635 95.7124C171.64 94.2261 171.641 92.7397 171.642 91.2534C171.642 90.3238 171.644 89.3943 171.645 88.4647C171.651 85.2193 171.653 81.9738 171.653 78.7283C171.652 75.7072 171.659 72.6862 171.668 69.6652C171.676 67.0678 171.679 64.4705 171.679 61.8731C171.679 60.3234 171.68 58.7738 171.687 57.2241C171.692 55.766 171.692 54.308 171.688 52.8499C171.687 52.3163 171.689 51.7828 171.692 51.2493C171.769 46.6913 171.769 46.6913 169.655 42.8033C167.388 41.5261 165.086 41.6591 162.554 41.6643C162.127 41.663 161.701 41.6614 161.275 41.6596C160.121 41.6556 158.967 41.6554 157.814 41.6562C156.849 41.6565 155.884 41.655 154.919 41.6536C152.642 41.6502 150.365 41.6501 148.088 41.6519C145.743 41.6537 143.397 41.65 141.052 41.6436C139.035 41.6383 137.017 41.6365 135 41.6374C133.797 41.638 132.594 41.6372 131.39 41.633C130.259 41.6292 129.127 41.6298 127.995 41.6337C127.581 41.6344 127.167 41.6336 126.753 41.6311C123.184 41.5576 123.184 41.5576 120.123 43.2052C119.99 43.4025 119.857 43.5997 119.719 43.8029C119.582 43.9977 119.444 44.1926 119.301 44.3934C118.431 45.9918 118.247 47.5013 118.242 49.2986C118.239 49.5343 118.236 49.77 118.233 50.0129C118.223 50.7867 118.218 51.5606 118.213 52.3345C118.208 52.8732 118.202 53.4118 118.196 53.9505C118.18 55.3643 118.169 56.7781 118.157 58.1919C118.145 59.6362 118.13 61.0804 118.115 62.5247C118.086 65.3556 118.061 68.1865 118.038 71.0174C117.648 71.0364 117.258 71.0554 116.856 71.075C116.339 71.101 115.823 71.1271 115.306 71.1533C114.921 71.1718 114.921 71.1718 114.529 71.1908C112.746 71.2821 111.022 71.4583 109.277 71.8473C108.907 71.9264 108.907 71.9264 108.531 72.0071C105.351 72.7188 102.249 73.5599 99.805 75.8455C99.601 76.0016 99.3969 76.1578 99.1866 76.3186C98.3695 77.3575 98.4383 78.3278 98.4463 79.5995C98.4432 79.8557 98.4401 80.1119 98.4369 80.3759C98.4281 81.2217 98.4277 82.0673 98.4273 82.9132C98.4228 83.5001 98.4178 84.0869 98.4123 84.6738C98.3992 86.2176 98.3933 87.7613 98.3888 89.3052C98.3829 90.8809 98.3704 92.4565 98.3584 94.0322C98.3359 97.1232 98.3209 100.214 98.3105 103.305C97.5921 102.607 97.1605 101.995 96.7249 101.085C96.6005 100.825 96.4761 100.565 96.348 100.297C96.2188 100.02 96.0897 99.7433 95.9567 99.4579C95.8233 99.1723 95.6899 98.8866 95.5525 98.5924C90.3625 87.2857 89.5023 74.0807 93.5281 62.2665C93.5939 62.0669 93.6598 61.8672 93.7276 61.6615C95.9977 54.8345 99.779 48.8185 104.769 43.6866C105.158 43.284 105.538 42.8724 105.917 42.4603C114.694 33.1311 128.307 28.3119 140.83 28.3756Z" fill="#CBF7DC"/>
<path d="M125.542 43.7425C125.901 43.7395 126.26 43.7365 126.63 43.7334C127.02 43.7348 127.41 43.7361 127.812 43.7375C128.23 43.7358 128.648 43.7337 129.066 43.7313C130.198 43.7258 131.33 43.7262 132.462 43.7279C133.408 43.7288 134.355 43.727 135.301 43.7252C137.534 43.721 139.767 43.7214 142 43.7249C144.301 43.7283 146.602 43.7241 148.903 43.716C150.881 43.7093 152.86 43.7073 154.838 43.7091C156.018 43.7101 157.198 43.7094 158.379 43.7042C159.489 43.6995 160.599 43.7007 161.709 43.7064C162.309 43.708 162.909 43.7037 163.508 43.6992C165.534 43.7159 166.945 43.7616 168.553 45.0665C169.305 46.1567 169.237 47.306 169.233 48.5851C169.235 48.8192 169.236 49.0533 169.238 49.2945C169.242 50.0795 169.243 50.8645 169.243 51.6496C169.245 52.2122 169.248 52.7748 169.25 53.3374C169.257 54.8661 169.259 56.3948 169.261 57.9235C169.262 58.8782 169.264 59.833 169.266 60.7877C169.273 64.1176 169.277 67.4474 169.278 70.7772C169.279 73.8828 169.288 76.9883 169.301 80.0939C169.311 82.7591 169.316 85.4243 169.316 88.0895C169.316 89.6819 169.319 91.2741 169.327 92.8664C169.335 94.3637 169.336 95.8608 169.331 97.3581C169.331 97.9078 169.333 98.4575 169.337 99.0072C169.343 99.7574 169.34 100.507 169.335 101.257C169.341 101.584 169.341 101.584 169.347 101.917C169.327 103.095 169.181 103.57 168.43 104.493C167.284 105.416 166.473 105.458 165.041 105.436C164.802 105.434 164.563 105.431 164.317 105.428C164.047 105.423 164.047 105.423 163.771 105.418C163.687 105.111 163.604 104.805 163.518 104.489C162.143 99.6439 160.083 95.776 155.701 93.0833C154.253 92.2791 152.821 91.6391 151.217 91.235C150.998 91.1798 150.779 91.1246 150.554 91.0677C147.243 90.5325 143.943 90.8605 140.755 91.8385C140.258 91.9421 139.76 92.043 139.261 92.1403C139.261 91.9522 139.261 91.7641 139.262 91.5703C139.262 89.6071 139.251 87.6443 139.232 85.6812C139.226 84.9492 139.224 84.2172 139.225 83.4852C139.226 82.4311 139.215 81.3776 139.202 80.3235C139.205 79.9978 139.208 79.6721 139.211 79.3365C139.175 77.4564 138.955 76.374 137.62 75.0221C134.244 72.1549 128.474 71.5963 124.271 71.1235C123.758 71.0636 123.758 71.0636 123.234 71.0025C122.399 70.9053 121.564 70.8097 120.729 70.7157C120.701 67.5994 120.68 64.4832 120.667 61.3669C120.661 59.9198 120.652 58.4728 120.639 57.0257C120.626 55.6288 120.618 54.2319 120.615 52.8348C120.613 52.3023 120.609 51.7698 120.602 51.2374C120.594 50.4904 120.593 49.7438 120.593 48.9968C120.589 48.7776 120.585 48.5584 120.58 48.3325C120.592 46.7986 120.927 45.9176 121.924 44.7647C123.173 44.0153 124.096 43.7459 125.542 43.7425Z" fill="#FDFDFD"/>
<path d="M127.359 41.3284C127.785 41.3271 128.212 41.3255 128.638 41.3236C129.79 41.3195 130.943 41.321 132.095 41.3239C133.304 41.3262 134.513 41.3241 135.723 41.3227C137.753 41.321 139.783 41.3232 141.813 41.3275C144.156 41.3324 146.499 41.3308 148.842 41.3258C150.859 41.3217 152.875 41.3212 154.891 41.3235C156.093 41.3249 157.295 41.3251 158.497 41.3221C159.628 41.3195 160.758 41.3213 161.889 41.3266C162.303 41.3278 162.716 41.3274 163.13 41.3254C165.76 41.3138 167.663 41.4975 169.972 42.8223C172.302 45.3698 172.009 48.788 171.99 52.0271C171.992 52.5761 171.993 53.1251 171.995 53.6741C171.999 55.1579 171.996 56.6416 171.991 58.1255C171.987 59.6819 171.989 61.2384 171.99 62.7949C171.991 65.4078 171.987 68.0207 171.98 70.6336C171.972 73.6505 171.971 76.6672 171.975 79.684C171.978 82.5919 171.976 85.4997 171.972 88.4076C171.97 89.6426 171.97 90.8775 171.972 92.1125C171.973 93.5677 171.97 95.0228 171.964 96.4779C171.962 97.0106 171.962 97.5433 171.963 98.0759C171.979 104.456 171.979 104.456 170.028 106.436C168.198 107.842 166.028 108.282 163.77 108.133C163.777 108.344 163.784 108.555 163.791 108.772C163.796 109.047 163.802 109.322 163.807 109.604C163.814 109.878 163.821 110.151 163.828 110.432C163.77 111.151 163.77 111.151 163.172 111.755C162.97 112.271 162.786 112.794 162.612 113.32C162.126 114.722 161.557 115.927 160.781 117.186C160.682 116.987 160.584 116.788 160.482 116.583C160.581 116.383 160.679 116.184 160.781 115.979C160.386 116.079 159.992 116.178 159.585 116.281C159.585 116.48 159.585 116.679 159.585 116.884C159.388 116.884 159.191 116.884 158.988 116.884C159.585 115.074 159.585 115.074 159.804 114.423C159.88 114.196 159.956 113.969 160.034 113.735C160.14 113.418 160.14 113.418 160.249 113.095C160.326 112.852 160.403 112.608 160.482 112.358C160.641 111.86 160.641 111.86 160.803 111.351C161.683 107.834 161.163 103.929 159.548 100.703C157.389 97.1067 154.485 94.6845 150.477 93.5561C146.194 92.7085 142.243 93.4824 138.57 95.798C135.439 98.0049 133.489 101.361 132.684 105.116C132.642 105.572 132.611 106.03 132.59 106.488C132.577 106.743 132.564 106.997 132.552 107.26C132.54 107.523 132.528 107.787 132.516 108.058C132.497 108.46 132.497 108.46 132.477 108.87C132.445 109.53 132.415 110.189 132.385 110.849C132.287 110.849 132.188 110.849 132.086 110.849C131.545 108.801 131.657 106.571 132.086 104.512C131.692 104.413 131.297 104.313 130.891 104.211C130.891 104.011 130.891 103.812 130.891 103.607C130.693 104.005 130.496 104.404 130.293 104.814C130.392 103.918 130.49 103.022 130.592 102.098C130.388 102.157 130.185 102.215 129.975 102.275C124.1 103.868 117.482 104.284 111.462 103.305C111.166 103.007 111.166 103.007 110.864 102.702C114.612 102.702 118.361 102.702 122.222 102.702C122.124 102.503 122.025 102.304 121.924 102.098C122.219 101.999 122.515 101.899 122.82 101.797C122.526 101.433 122.526 101.433 121.968 101.465C121.73 101.469 121.491 101.472 121.245 101.476C120.981 101.478 120.717 101.481 120.444 101.484C120.162 101.487 119.879 101.491 119.588 101.495C117.257 101.512 114.976 101.464 112.658 101.193C112.658 101.093 112.658 100.994 112.658 100.891C113.088 100.885 113.088 100.885 113.528 100.878C121.215 100.817 121.215 100.817 128.798 99.6843C129.145 99.6112 129.492 99.538 129.849 99.4627C131.992 98.8979 132.995 98.002 134.251 96.1764C134.746 95.5011 135.131 95.1657 135.823 94.7242C136.73 93.785 136.679 93.4715 136.682 92.197C136.653 91.6746 136.619 91.1525 136.57 90.6316C136.329 90.8014 136.329 90.8014 136.084 90.9746C128.605 95.905 117.259 95.8919 108.818 94.1046C106.202 93.4805 103.782 92.5329 101.598 90.9334C101.5 90.7342 101.401 90.5351 101.299 90.3299C102.296 90.8328 103.292 91.3357 104.288 91.8387C104.19 91.3408 104.091 90.8429 103.989 90.3299C105.273 89.9559 106.03 90.1296 107.277 90.5751C110.827 91.8412 114.498 91.952 118.225 91.933C118.448 91.9324 118.671 91.9319 118.901 91.9313C124.383 91.9086 131.085 91.7255 135.548 88.0455C136.318 87.2623 136.564 86.8036 136.628 85.6963C136.621 85.3147 136.614 84.9331 136.607 84.5399C136.602 84.156 136.596 83.7721 136.591 83.3765C136.584 83.0821 136.577 82.7876 136.57 82.4842C136.271 82.6593 136.271 82.6593 135.966 82.8379C131.581 85.3393 126.959 86.5155 121.924 86.7088C121.714 86.717 121.504 86.7252 121.288 86.7337C114.74 86.9543 107.284 86.3609 101.598 82.786C101.5 82.5868 101.401 82.3877 101.299 82.1825C101.527 82.2758 101.755 82.3692 101.99 82.4654C102.551 82.6891 103.119 82.8953 103.69 83.0877C103.69 82.8886 103.69 82.6894 103.69 82.4842C103.888 82.3847 104.085 82.2851 104.288 82.1825C104.104 82.044 103.921 81.9055 103.731 81.7629C103.49 81.5777 103.248 81.3925 102.999 81.2018C102.76 81.0197 102.521 80.8377 102.274 80.6501C101.35 79.8574 100.773 78.972 100.104 77.9579C99.8077 78.1073 99.8077 78.1073 99.5058 78.2597C99.5058 90.01 99.5058 101.76 99.5058 113.867C99.7031 113.867 99.9004 113.867 100.104 113.867C100.578 112.91 100.516 111.865 100.571 110.812C100.584 110.584 100.596 110.356 100.61 110.122C100.641 109.56 100.672 108.997 100.701 108.435C100.8 108.435 100.899 108.435 101 108.435C101.001 108.81 101.002 109.184 101.003 109.57C101.014 110.066 101.026 110.561 101.038 111.057C101.037 111.303 101.036 111.55 101.035 111.803C101.079 113.169 101.15 113.701 102.089 114.747C108.355 118.668 116.934 117.982 124.016 118.091C124.016 118.191 124.016 118.291 124.016 118.393C120.169 118.493 116.322 118.592 112.359 118.695C112.359 119.093 112.359 119.492 112.359 119.902C112.359 120.001 112.359 120.101 112.359 120.204C108.633 120.512 103.783 119.395 100.701 117.186C99.3923 115.976 98.6711 114.97 98.569 113.153C98.5677 112.887 98.5664 112.622 98.5651 112.348C98.563 112.041 98.5608 111.735 98.5586 111.42C98.5578 111.085 98.557 110.751 98.5562 110.407C98.5542 110.053 98.5523 109.7 98.5503 109.336C98.5444 108.166 98.5409 106.996 98.5379 105.825C98.5367 105.422 98.5354 105.018 98.5342 104.615C98.5285 102.72 98.5242 100.824 98.5218 98.9288C98.5188 96.7432 98.511 94.5577 98.4989 92.3721C98.4899 90.681 98.4855 88.9899 98.4845 87.2987C98.4838 86.2894 98.4805 85.2802 98.4736 84.2709C98.4663 83.1447 98.4666 82.0187 98.4686 80.8925C98.4648 80.5595 98.461 80.2265 98.457 79.8834C98.4719 77.6753 98.7767 76.6284 100.297 75.024C102.903 72.9825 106.109 72.2232 109.276 71.5267C109.497 71.475 109.718 71.4232 109.946 71.3698C111.737 71.0069 113.487 70.9918 115.305 71.0043C115.7 71.0058 115.7 71.0058 116.103 71.0072C116.748 71.0097 117.393 71.0135 118.038 71.0175C118.035 70.7211 118.033 70.4247 118.03 70.1193C118.005 67.3181 117.988 64.517 117.976 61.7157C117.97 60.2757 117.961 58.8358 117.948 57.3959C117.935 56.0048 117.927 54.6137 117.924 53.2226C117.922 52.6933 117.918 52.1641 117.911 51.635C117.849 46.298 117.849 46.298 119.233 44.1613C119.341 43.9874 119.448 43.8136 119.558 43.6344C121.411 41.0184 124.513 41.3146 127.359 41.3284ZM121.222 45.5753C120.64 46.7526 120.567 47.7116 120.592 48.9969C120.592 49.2326 120.592 49.4684 120.592 49.7112C120.593 50.4852 120.602 51.2589 120.611 52.0329C120.613 52.5715 120.615 53.1102 120.616 53.6488C120.621 55.0627 120.633 56.4764 120.646 57.8903C120.658 59.3345 120.664 60.7787 120.67 62.223C120.682 65.054 120.703 67.8849 120.728 70.7158C120.938 70.7395 121.148 70.7633 121.365 70.7878C122.334 70.8984 123.303 71.0116 124.272 71.1248C124.602 71.1621 124.933 71.1995 125.273 71.2379C129.578 71.7456 135.729 72.5195 138.64 76.1474C139.318 77.4213 139.177 78.882 139.172 80.2942C139.177 80.6332 139.181 80.9722 139.186 81.3215C139.199 82.4007 139.202 83.4796 139.204 84.5588C139.211 85.292 139.218 86.0252 139.227 86.7583C139.245 88.5524 139.256 90.3463 139.26 92.1404C139.594 92.0548 139.929 91.9692 140.273 91.881C144.884 90.7255 144.884 90.7255 147.144 90.8014C147.367 90.8058 147.591 90.8102 147.822 90.8148C152.057 90.9597 155.857 92.6766 158.913 95.6377C161.489 98.423 162.992 101.705 163.77 105.418C165.611 105.531 166.923 105.419 168.552 104.512C169.279 103.413 169.235 102.603 169.228 101.332C169.229 101.098 169.231 100.864 169.232 100.623C169.235 99.8372 169.234 99.0513 169.232 98.2652C169.234 97.7027 169.235 97.1402 169.237 96.5776C169.241 95.0476 169.241 93.5177 169.24 91.9877C169.24 90.7114 169.242 89.435 169.243 88.1587C169.246 85.1479 169.246 82.137 169.245 79.1262C169.243 76.0184 169.247 72.9106 169.253 69.8028C169.258 67.1363 169.26 64.4698 169.259 61.8033C169.258 60.21 169.259 58.6167 169.263 57.0234C169.267 55.5249 169.267 54.0265 169.263 52.5281C169.262 51.9779 169.263 51.4277 169.265 50.8775C169.268 50.1268 169.266 49.3763 169.262 48.6255C169.264 48.4075 169.267 48.1894 169.269 47.9647C169.255 46.6438 169.104 45.7847 168.254 44.7648C167.025 43.9742 166.078 43.7462 164.634 43.7446C164.274 43.7421 163.915 43.7395 163.544 43.7369C163.154 43.7387 162.764 43.7405 162.361 43.7424C161.943 43.7412 161.524 43.7396 161.106 43.7376C159.973 43.7335 158.84 43.7351 157.706 43.738C156.519 43.7403 155.331 43.7381 154.144 43.7367C152.15 43.7351 150.156 43.7372 148.162 43.7415C145.858 43.7465 143.555 43.7449 141.251 43.7399C139.272 43.7358 137.292 43.7352 135.312 43.7376C134.131 43.739 132.949 43.7392 131.768 43.7362C130.657 43.7336 129.546 43.7354 128.435 43.7406C127.834 43.7424 127.233 43.7397 126.633 43.7369C126.273 43.7394 125.914 43.742 125.543 43.7446C125.076 43.7451 125.076 43.7451 124.6 43.7456C123.139 43.9341 122.186 44.462 121.222 45.5753Z" fill="#314763"/>
<path d="M154.914 95.2521C158.382 97.9255 160.767 101.273 161.378 105.719C161.718 110.676 160.415 114.629 157.194 118.393C153.264 121.796 149.442 122.57 144.419 122.37C142.958 122.253 141.743 121.787 140.455 121.109C140.195 120.974 139.935 120.839 139.667 120.7C136.248 118.775 134.179 116.054 132.87 112.339C131.768 108.401 132.102 104.392 133.916 100.74C136.035 97.1369 139.174 94.5704 143.145 93.3473C147.268 92.5253 151.37 92.8559 154.914 95.2521Z" fill="#FCDA62"/>
<path d="M107.576 72.5262C107.971 72.5262 108.365 72.5262 108.772 72.5262C108.772 72.9246 108.772 73.3229 108.772 73.7333C108.969 73.9324 109.166 74.1316 109.37 74.3368C108.893 74.4791 108.893 74.4791 108.408 74.6244C104.526 75.6781 104.526 75.6781 101.299 77.9578C101.789 79.5753 102.687 80.2938 104.143 81.0791C112.605 84.6914 123.768 85.1335 132.348 81.7298C134.83 80.5955 134.83 80.5955 136.57 78.5613C136.614 77.9353 136.614 77.9353 136.271 77.3543C135.14 76.2951 134.045 75.8114 132.591 75.3175C132.398 75.251 132.205 75.1844 132.006 75.1159C131.536 74.954 131.064 74.7959 130.592 74.6385C130.783 74.6074 130.974 74.5763 131.171 74.5442C131.374 74.4758 131.578 74.4073 131.787 74.3368C131.886 74.038 131.985 73.7393 132.086 73.4315C132.579 73.4315 133.073 73.4315 133.581 73.4315C132.693 73.1328 131.805 72.834 130.891 72.5262C132.9 72.0192 134.769 73.1188 136.572 74.0397C137.674 74.7267 138.65 75.5936 139.26 76.7508C139.464 77.9342 139.434 79.096 139.406 80.2941C139.403 80.8026 139.403 80.8026 139.4 81.3214C139.391 82.4007 139.372 83.4796 139.353 84.5587C139.346 85.2919 139.339 86.0251 139.333 86.7583C139.316 88.5524 139.292 90.3464 139.26 92.1403C139.486 92.0558 139.713 91.9712 139.946 91.8841C140.243 91.7741 140.54 91.664 140.845 91.5507C141.139 91.4412 141.434 91.3318 141.737 91.219C146 89.7173 150.902 90.4975 154.878 92.3855C156.341 93.1528 157.498 94.0109 158.689 95.1579C157.792 95.1579 157.792 95.1579 156.895 94.5544C156.634 95.0782 156.634 95.0782 156.596 95.7614C157.134 96.5342 157.134 96.5342 157.792 97.2702C158 97.6681 158.201 98.0698 158.39 98.4772C158.106 98.222 157.823 97.9669 157.53 97.704C153.98 94.6719 150.782 93.0953 146.025 93.2531C142.247 93.5812 138.736 95.0263 136.128 97.8902C134.201 100.374 132.739 103.298 132.59 106.488C132.577 106.743 132.564 106.997 132.552 107.26C132.54 107.523 132.528 107.787 132.516 108.058C132.503 108.326 132.49 108.594 132.477 108.87C132.445 109.53 132.415 110.189 132.385 110.849C132.287 110.849 132.188 110.849 132.086 110.849C131.545 108.801 131.657 106.571 132.086 104.512C131.494 104.363 131.494 104.363 130.891 104.211C130.891 104.011 130.891 103.812 130.891 103.607C130.595 104.205 130.595 104.205 130.293 104.814C130.392 103.918 130.49 103.022 130.592 102.098C130.388 102.157 130.185 102.215 129.975 102.275C124.1 103.868 117.482 104.284 111.462 103.305C111.166 103.007 111.166 103.007 110.864 102.702C114.612 102.702 118.361 102.702 122.222 102.702C122.124 102.503 122.025 102.303 121.924 102.098C122.219 101.999 122.515 101.899 122.82 101.797C122.526 101.433 122.526 101.433 121.968 101.465C121.73 101.469 121.491 101.472 121.245 101.476C120.981 101.478 120.717 101.481 120.444 101.484C120.021 101.489 120.021 101.489 119.588 101.495C117.257 101.512 114.976 101.464 112.658 101.193C112.658 101.093 112.658 100.994 112.658 100.891C112.945 100.887 113.232 100.882 113.528 100.878C121.215 100.817 121.215 100.817 128.798 99.6842C129.145 99.6111 129.492 99.538 129.849 99.4626C131.992 98.8979 132.995 98.0019 134.251 96.1763C134.746 95.501 135.131 95.1656 135.823 94.7241C136.73 93.7849 136.679 93.4715 136.682 92.1969C136.653 91.6746 136.619 91.1524 136.57 90.6316C136.41 90.7448 136.249 90.858 136.084 90.9746C128.605 95.9049 117.259 95.8918 108.818 94.1045C106.202 93.4804 103.782 92.5328 101.598 90.9333C101.5 90.7342 101.401 90.535 101.299 90.3298C102.296 90.8327 103.292 91.3357 104.288 91.8386C104.14 91.0917 104.14 91.0917 103.989 90.3298C105.273 89.9558 106.03 90.1296 107.277 90.575C110.827 91.8411 114.498 91.9519 118.225 91.9329C118.448 91.9323 118.671 91.9318 118.901 91.9312C124.383 91.9085 131.085 91.7254 135.548 88.0454C136.318 87.2622 136.564 86.8035 136.628 85.6962C136.621 85.3146 136.614 84.933 136.607 84.5399C136.602 84.156 136.596 83.772 136.591 83.3765C136.584 83.082 136.577 82.7876 136.57 82.4842C136.271 82.6592 136.271 82.6592 135.966 82.8378C131.581 85.3392 126.959 86.5155 121.924 86.7087C121.609 86.7211 121.609 86.7211 121.288 86.7336C114.74 86.9543 107.284 86.3609 101.598 82.7859C101.5 82.5868 101.401 82.3876 101.299 82.1824C101.527 82.2758 101.755 82.3691 101.99 82.4653C102.551 82.689 103.119 82.8952 103.69 83.0877C103.69 82.8885 103.69 82.6894 103.69 82.4842C103.986 82.3348 103.986 82.3348 104.288 82.1824C104.104 82.0439 103.921 81.9055 103.731 81.7628C103.369 81.4851 103.369 81.4851 102.999 81.2017C102.76 81.0197 102.521 80.8376 102.274 80.6501C101.35 79.8573 100.773 78.9719 100.104 77.9578C99.9064 78.0574 99.7091 78.157 99.5058 78.2596C99.5058 90.0099 99.5058 101.76 99.5058 113.867C99.7031 113.867 99.9004 113.867 100.104 113.867C100.578 112.91 100.516 111.865 100.571 110.811C100.584 110.584 100.596 110.356 100.61 110.122C100.641 109.56 100.672 108.997 100.701 108.435C100.8 108.435 100.899 108.435 101 108.435C101.001 108.81 101.002 109.184 101.003 109.57C101.014 110.066 101.026 110.561 101.038 111.057C101.037 111.303 101.036 111.549 101.035 111.803C101.079 113.169 101.15 113.701 102.089 114.747C108.355 118.668 116.934 117.982 124.016 118.091C124.016 118.191 124.016 118.29 124.016 118.393C120.169 118.493 116.322 118.592 112.359 118.695C112.359 119.093 112.359 119.491 112.359 119.902C112.359 120.001 112.359 120.101 112.359 120.204C108.633 120.512 103.783 119.395 100.701 117.186C99.3923 115.976 98.6711 114.97 98.569 113.153C98.5677 112.887 98.5664 112.621 98.5651 112.348C98.563 112.041 98.5608 111.735 98.5586 111.42C98.5578 111.085 98.557 110.751 98.5562 110.407C98.5542 110.053 98.5523 109.7 98.5503 109.336C98.5444 108.166 98.5409 106.996 98.5379 105.825C98.5367 105.422 98.5354 105.018 98.5342 104.615C98.5285 102.72 98.5242 100.824 98.5218 98.9288C98.5188 96.7432 98.511 94.5576 98.4989 92.3721C98.4899 90.6809 98.4854 88.9898 98.4845 87.2986C98.4838 86.2893 98.4805 85.2801 98.4736 84.2708C98.4663 83.1446 98.4666 82.0187 98.4686 80.8924C98.4648 80.5594 98.461 80.2264 98.457 79.8833C98.4719 77.6752 98.7767 76.6284 100.297 75.024C102.098 73.6137 105.266 71.7239 107.576 72.5262Z" fill="#2A3F64"/>
<path d="M136.14 76.8451C136.868 77.656 136.868 77.656 136.85 78.2973C136.349 79.8461 135.141 80.5839 133.786 81.3832C129.453 83.5571 124.541 84.0643 119.775 84.0683C119.561 84.0685 119.346 84.0687 119.125 84.0689C113.649 84.0607 106.636 83.8151 102.196 80.0701C101.448 79.2214 101.448 79.2214 101 78.5613C101.558 77.1282 102.58 76.4049 103.92 75.7312C112.021 72.5503 128.9 70.6471 136.14 76.8451Z" fill="#FCD961"/>
<path d="M136.869 90.3298C137.036 91.5754 137.092 92.71 136.869 93.9509C136.277 94.7167 135.654 95.2201 134.883 95.7991C134.171 96.3713 133.809 96.8711 133.338 97.6474C132.186 99.2543 130.65 99.5659 128.799 99.986C128.225 100.121 128.225 100.121 127.639 100.258C120.209 101.799 110.934 101.774 103.99 98.4772C103.714 98.3823 103.439 98.2874 103.155 98.1896C102.225 97.776 101.842 97.5469 101.3 96.6667C100.973 94.6775 101.137 92.6313 101.3 90.6316C101.607 90.7954 101.914 90.9591 102.23 91.1278C104.556 92.349 106.77 93.4713 109.37 93.9509C109.694 94.012 110.017 94.073 110.351 94.136C118.441 95.3971 128.974 95.4107 136.055 90.6728C136.57 90.3298 136.57 90.3298 136.869 90.3298Z" fill="#FCDA62"/>
<path d="M136.869 82.1824C137.178 86.6626 137.178 86.6626 136.16 87.9534C131.641 92.0919 124.166 92.2634 118.393 92.2346C118.17 92.2341 117.947 92.2337 117.718 92.2332C112.448 92.2141 106.852 91.8886 102.496 88.5192C102.278 88.3559 102.06 88.1925 101.836 88.0242C101.068 87.0045 101.17 86.0465 101.225 84.8227C101.231 84.5979 101.236 84.3731 101.242 84.1414C101.256 83.5888 101.277 83.0364 101.3 82.4841C101.583 82.6226 101.866 82.7611 102.157 82.9038C105.197 84.3457 108.16 85.2175 111.463 85.8034C111.834 85.8715 112.206 85.9396 112.589 86.0097C121.91 87.4879 128.804 82.1824 136.869 82.1824Z" fill="#FCDA61"/>
<path d="M101.299 108.435C101.484 108.53 101.669 108.625 101.86 108.723C110.495 112.935 120.767 112.334 129.993 110.849C130.294 111.634 130.593 112.42 130.89 113.207C130.976 113.429 131.061 113.652 131.149 113.881C131.271 114.204 131.271 114.204 131.395 114.533C131.47 114.73 131.545 114.928 131.622 115.131C131.787 115.677 131.787 115.677 131.787 116.582C130.897 116.779 130.006 116.974 129.115 117.167C128.867 117.222 128.619 117.277 128.363 117.334C125.135 118.031 121.986 118.164 118.691 118.167C118.472 118.167 118.254 118.167 118.029 118.167C112.681 118.159 106.786 117.933 102.079 115.058C100.972 113.796 101.093 112.832 101.187 111.207C101.195 110.941 101.203 110.674 101.211 110.399C101.232 109.744 101.264 109.09 101.299 108.435Z" fill="#FBDA61"/>
<path d="M101.299 99.6841C101.527 99.8008 101.756 99.9175 101.991 100.038C110.004 103.971 119.172 104.083 127.813 102.517C128.736 102.359 129.664 102.232 130.591 102.098C130.295 104.189 129.999 106.28 129.694 108.435C125.816 109.131 122.14 109.502 118.205 109.472C117.825 109.471 117.825 109.471 117.437 109.47C112.402 109.445 107.3 109.161 102.793 106.624C102.517 106.47 102.241 106.316 101.957 106.158C100.947 105.022 101.135 103.945 101.205 102.475C101.212 102.207 101.219 101.939 101.226 101.663C101.243 101.003 101.268 100.344 101.299 99.6841Z" fill="#FCDA61"/>
<path d="M124.903 41.4031C125.269 41.4014 125.634 41.3997 126.011 41.3979C126.415 41.3975 126.819 41.3972 127.223 41.3969C127.649 41.3955 128.075 41.3939 128.501 41.3923C129.659 41.3884 130.816 41.3864 131.974 41.3851C132.697 41.3842 133.421 41.383 134.144 41.3816C136.41 41.3775 138.676 41.3746 140.941 41.3734C143.554 41.372 146.166 41.3668 148.778 41.358C150.8 41.3515 152.821 41.3484 154.842 41.348C156.048 41.3477 157.254 41.346 158.461 41.3405C159.596 41.3356 160.731 41.3349 161.867 41.3376C162.282 41.3378 162.698 41.3365 163.113 41.3335C165.332 41.3185 167.13 41.3816 169.15 42.3508C168.953 42.4503 168.756 42.5499 168.552 42.6525C168.552 43.0508 168.552 43.4491 168.552 43.8595C168.355 43.8595 168.158 43.8595 167.954 43.8595C168.053 44.1583 168.152 44.457 168.253 44.7648C167.866 44.6179 167.866 44.6179 167.471 44.468C166.462 44.162 165.682 44.0847 164.634 44.0826C164.274 44.0805 163.915 44.0783 163.544 44.0761C163.154 44.0769 162.763 44.0776 162.361 44.0784C161.943 44.0771 161.524 44.0755 161.106 44.0737C159.972 44.0697 158.839 44.0695 157.706 44.0703C156.759 44.0706 155.812 44.0691 154.865 44.0677C152.63 44.0643 150.396 44.0642 148.161 44.066C145.858 44.0679 143.555 44.0641 141.251 44.0577C139.271 44.0524 137.292 44.0506 135.312 44.0516C134.13 44.0521 132.949 44.0513 131.767 44.0471C130.657 44.0433 129.546 44.0439 128.435 44.0479C127.834 44.0489 127.233 44.0455 126.633 44.0419C126.093 44.0451 126.093 44.0451 125.543 44.0484C125.232 44.0483 124.921 44.0483 124.6 44.0482C123.547 44.183 122.832 44.5197 121.923 45.0665C120.759 46.6467 120.682 48.1082 120.666 50.0246C120.663 50.2484 120.66 50.4723 120.657 50.703C120.648 51.4409 120.641 52.1789 120.633 52.9169C120.627 53.4294 120.621 53.9418 120.614 54.4542C120.598 55.8016 120.583 57.1489 120.569 58.4963C120.554 59.8717 120.537 61.2472 120.52 62.6226C120.488 65.3203 120.458 68.018 120.429 70.7158C120.33 70.7158 120.232 70.7158 120.13 70.7158C120.102 67.6886 120.081 64.6616 120.068 61.6343C120.062 60.2285 120.053 58.8228 120.04 57.417C120.027 56.0592 120.02 54.7014 120.016 53.3435C120.014 52.8266 120.01 52.3098 120.004 51.793C119.943 46.7609 119.943 46.7609 121.326 44.7648C122.111 43.996 122.314 43.8595 123.418 43.8595C123.418 43.4612 123.418 43.0629 123.418 42.6525C122.925 42.6525 122.431 42.6525 121.923 42.6525C121.923 42.3538 121.923 42.055 121.923 41.7472C122.932 41.4399 123.853 41.4061 124.903 41.4031Z" fill="#263956"/>
<path d="M143.045 99.608C143.275 99.6102 143.506 99.6123 143.743 99.6146C143.98 99.6147 144.216 99.6148 144.46 99.615C144.961 99.6159 145.461 99.6183 145.962 99.622C146.729 99.6275 147.497 99.6282 148.264 99.6281C148.75 99.6296 149.235 99.6314 149.721 99.6334C150.067 99.6339 150.067 99.6339 150.419 99.6344C152.043 99.6491 152.043 99.6491 152.71 99.9859C152.723 100.589 152.722 101.193 152.71 101.796C152.237 102.274 151.7 102.203 151.048 102.268C150.801 102.293 150.554 102.318 150.299 102.345C150.108 102.363 149.918 102.381 149.721 102.4C149.82 102.798 149.918 103.197 150.02 103.607C150.593 103.588 150.593 103.588 151.178 103.569C151.83 103.548 151.83 103.548 152.411 103.607C152.609 103.806 152.806 104.005 153.009 104.21C152.843 105.585 152.843 105.585 152.411 106.021C151.613 106.064 150.82 106.034 150.02 106.021C149.992 106.338 149.992 106.338 149.964 106.662C149.578 108.043 148.825 108.962 147.638 109.713C146.65 110.227 145.72 110.586 144.64 110.849C144.795 110.997 144.951 111.144 145.111 111.296C145.812 111.966 146.505 112.643 147.199 113.32C147.444 113.552 147.689 113.784 147.941 114.023C148.287 114.363 148.287 114.363 148.639 114.709C148.853 114.916 149.068 115.123 149.289 115.337C149.721 115.979 149.721 115.979 149.639 116.813C149.568 117.035 149.496 117.258 149.422 117.488C148.782 117.732 148.782 117.732 147.928 117.789C147.271 117.312 146.771 116.876 146.213 116.298C146.055 116.141 145.898 115.985 145.736 115.823C145.405 115.49 145.077 115.155 144.75 114.817C144.25 114.303 143.742 113.799 143.231 113.296C142.91 112.971 142.59 112.645 142.271 112.319C142.119 112.169 141.966 112.019 141.81 111.864C141.064 111.081 140.765 110.643 140.641 109.55C140.754 108.737 140.754 108.737 141.053 108.435C141.719 108.395 142.385 108.365 143.052 108.341C144.764 108.232 145.779 108.118 147.031 106.926C147.13 106.727 147.228 106.528 147.33 106.323C147.152 106.317 146.974 106.311 146.791 106.305C145.986 106.276 145.182 106.243 144.378 106.21C144.098 106.2 143.818 106.191 143.529 106.181C143.262 106.17 142.994 106.158 142.718 106.146C142.471 106.136 142.223 106.127 141.969 106.117C141.352 106.021 141.352 106.021 140.754 105.417C140.92 104.043 140.92 104.043 141.352 103.607C141.796 103.56 142.242 103.531 142.689 103.511C142.958 103.499 143.226 103.486 143.503 103.473C143.786 103.461 144.068 103.449 144.36 103.437C144.643 103.424 144.927 103.411 145.22 103.398C145.923 103.366 146.626 103.335 147.33 103.305C146.067 102.383 145.08 102.269 143.538 102.211C141.414 102.13 141.414 102.13 140.754 101.796C140.717 101.08 140.717 101.08 140.754 100.288C141.516 99.5183 142.006 99.6125 143.045 99.608Z" fill="#2A4166"/>
<path d="M130.908 54.9821C131.169 54.9803 131.43 54.9786 131.699 54.9768C131.987 54.9765 132.276 54.9762 132.574 54.9758C132.876 54.9743 133.178 54.9728 133.49 54.9713C134.494 54.9668 135.499 54.9648 136.504 54.9631C137.199 54.9614 137.894 54.9597 138.589 54.9579C140.048 54.9548 141.507 54.953 142.967 54.9519C144.841 54.9503 146.714 54.943 148.588 54.9344C150.025 54.9288 151.461 54.9273 152.897 54.9268C153.588 54.9259 154.279 54.9234 154.97 54.9195C155.935 54.9144 156.9 54.9149 157.865 54.9169C158.153 54.9141 158.441 54.9113 158.738 54.9084C159 54.9101 159.262 54.9118 159.531 54.9135C159.76 54.9131 159.988 54.9127 160.223 54.9122C160.5 54.9678 160.5 54.9678 160.781 55.0244C161.379 55.9297 161.379 55.9297 161.286 56.5709C161.08 57.1367 161.08 57.1367 160.781 57.4385C160.378 57.4685 159.974 57.4779 159.569 57.4788C159.308 57.4801 159.047 57.4814 158.778 57.4827C158.489 57.4826 158.201 57.4825 157.903 57.4823C157.45 57.4838 157.45 57.4838 156.987 57.4854C155.983 57.4883 154.978 57.4888 153.973 57.4892C153.278 57.4901 152.583 57.4911 151.888 57.4922C150.429 57.494 148.97 57.4946 147.51 57.4944C145.636 57.4944 143.762 57.4985 141.888 57.5037C140.452 57.507 139.016 57.5076 137.58 57.5075C136.889 57.5078 136.198 57.5092 135.507 57.5115C134.542 57.5144 133.577 57.5136 132.612 57.5118C132.324 57.5135 132.036 57.5152 131.739 57.5169C131.477 57.5157 131.215 57.5144 130.945 57.5131C130.603 57.5133 130.603 57.5133 130.254 57.5136C129.695 57.4385 129.695 57.4385 129.098 56.835C129.282 55.3113 129.408 54.988 130.908 54.9821Z" fill="#283C58"/>
<path d="M130.908 65.2437C131.169 65.2424 131.43 65.2411 131.699 65.2398C131.987 65.2399 132.276 65.24 132.574 65.2402C133.027 65.2387 133.027 65.2387 133.49 65.2371C134.494 65.2342 135.499 65.2336 136.504 65.2333C137.199 65.2324 137.894 65.2313 138.589 65.2303C140.048 65.2285 141.507 65.2279 142.967 65.2281C144.841 65.2281 146.714 65.224 148.588 65.2188C150.025 65.2155 151.461 65.2148 152.897 65.215C153.588 65.2146 154.279 65.2133 154.97 65.211C155.935 65.208 156.9 65.2089 157.865 65.2107C158.153 65.209 158.441 65.2073 158.738 65.2056C159.131 65.2075 159.131 65.2075 159.531 65.2094C159.874 65.2092 159.874 65.2092 160.223 65.2089C160.781 65.284 160.781 65.284 161.379 65.8875C161.304 66.6608 161.304 66.6608 161.08 67.3963C160.394 67.7427 160.009 67.7367 159.246 67.7384C158.857 67.7403 158.857 67.7403 158.461 67.7423C158.176 67.7422 157.891 67.742 157.598 67.7419C157.299 67.7429 156.999 67.7439 156.691 67.745C155.697 67.7478 154.704 67.7484 153.71 67.7487C153.023 67.7497 152.335 67.7507 151.647 67.7518C150.203 67.7536 148.76 67.7541 147.317 67.754C145.463 67.7539 143.61 67.7581 141.756 67.7633C140.335 67.7666 138.914 67.7672 137.493 67.7671C136.809 67.7674 136.126 67.7688 135.442 67.7711C134.488 67.774 133.534 67.7732 132.58 67.7714C132.295 67.773 132.01 67.7747 131.717 67.7765C131.328 67.7746 131.328 67.7746 130.932 67.7727C130.706 67.7728 130.481 67.773 130.248 67.7732C129.695 67.6981 129.695 67.6981 129.098 67.0945C129.282 65.5708 129.407 65.247 130.908 65.2437Z" fill="#273C58"/>
<path d="M99.8047 75.5437C99.8047 76.449 99.8047 76.449 99.5058 77.0525C99.4781 77.5419 99.4694 78.0325 99.4699 78.5227C99.4695 78.8332 99.4691 79.1438 99.4686 79.4638C99.4697 79.8059 99.4708 80.148 99.4719 80.5004C99.4718 80.8596 99.4718 81.2187 99.4718 81.5888C99.4719 82.575 99.4734 83.5613 99.4755 84.5475C99.4774 85.5777 99.4776 86.6079 99.4779 87.6381C99.4788 89.5895 99.4813 91.5409 99.4843 93.4923C99.4876 95.7137 99.4893 97.935 99.4908 100.156C99.4939 104.726 99.4992 109.297 99.5058 113.867C99.7031 113.867 99.9004 113.867 100.104 113.867C100.578 112.91 100.516 111.864 100.571 110.811C100.584 110.584 100.596 110.356 100.61 110.122C100.641 109.56 100.672 108.997 100.701 108.435C100.8 108.435 100.899 108.435 101 108.435C101.001 108.81 101.002 109.184 101.003 109.57C101.014 110.066 101.026 110.561 101.038 111.057C101.037 111.303 101.036 111.549 101.035 111.803C101.079 113.169 101.15 113.7 102.089 114.747C108.355 118.668 116.934 117.982 124.016 118.091C124.016 118.191 124.016 118.29 124.016 118.393C120.169 118.493 116.322 118.592 112.359 118.695C112.359 119.093 112.359 119.491 112.359 119.902C112.359 120.001 112.359 120.101 112.359 120.203C108.633 120.512 103.783 119.395 100.701 117.186C99.3923 115.976 98.6711 114.97 98.569 113.153C98.5677 112.887 98.5664 112.621 98.5651 112.348C98.563 112.041 98.5608 111.735 98.5586 111.419C98.5578 111.085 98.557 110.751 98.5562 110.407C98.5542 110.053 98.5523 109.7 98.5503 109.336C98.5444 108.166 98.5409 106.995 98.5379 105.825C98.5367 105.422 98.5354 105.018 98.5342 104.615C98.5285 102.719 98.5243 100.824 98.5218 98.9287C98.5188 96.7431 98.511 94.5576 98.4989 92.372C98.4899 90.6808 98.4854 88.9897 98.4845 87.2985C98.4838 86.2892 98.4805 85.28 98.4736 84.2707C98.4663 83.1445 98.4666 82.0186 98.4686 80.8923C98.4648 80.5593 98.461 80.2263 98.457 79.8832C98.4694 78.0411 98.5914 76.9529 99.8047 75.5437Z" fill="#21375A"/>
<path d="M147.504 75.1983C147.795 75.1964 148.086 75.1944 148.387 75.1925C148.862 75.192 148.862 75.192 149.347 75.1914C149.67 75.1904 149.993 75.1894 150.326 75.1884C151.012 75.1869 151.697 75.1862 152.382 75.1862C153.434 75.1856 154.485 75.1801 155.537 75.1744C156.201 75.1735 156.865 75.1729 157.529 75.1726C157.846 75.1704 158.162 75.1682 158.488 75.166C158.78 75.1669 159.073 75.1679 159.374 75.1688C159.761 75.1682 159.761 75.1682 160.155 75.1675C160.781 75.2421 160.781 75.2421 161.379 75.8456C161.304 76.6189 161.304 76.6189 161.08 77.3544C160.362 77.717 159.909 77.6963 159.107 77.7C158.679 77.7029 158.679 77.7029 158.242 77.7058C157.934 77.7062 157.625 77.7065 157.306 77.7069C156.832 77.7084 156.832 77.7084 156.348 77.7099C155.679 77.7114 155.01 77.7121 154.34 77.7121C153.313 77.7128 152.286 77.7182 151.258 77.724C150.609 77.7248 149.96 77.7254 149.311 77.7257C148.847 77.729 148.847 77.729 148.375 77.7323C147.947 77.7309 147.947 77.7309 147.51 77.7295C147.133 77.7301 147.133 77.7301 146.747 77.7308C146.135 77.6562 146.135 77.6562 145.537 77.0527C145.734 75.4203 145.916 75.2054 147.504 75.1983Z" fill="#293B57"/>
<path d="M129.695 108.435C129.596 108.634 129.498 108.833 129.396 109.039C129.002 109.039 128.607 109.039 128.201 109.039C128.145 109.393 128.145 109.393 128.088 109.755C127.603 110.547 127.603 110.547 126.898 110.782C126.141 110.93 125.377 111.042 124.614 111.151C125.995 111.051 127.376 110.952 128.798 110.849C124.984 112.775 119.792 112.124 115.647 112.056C116.041 111.957 116.436 111.857 116.842 111.754C116.898 111.465 116.898 111.465 116.954 111.17C117.016 110.964 117.078 110.759 117.141 110.547C117.338 110.448 117.536 110.348 117.739 110.246C116.851 110.146 115.963 110.046 115.049 109.944C115.049 109.844 115.049 109.745 115.049 109.642C115.422 109.631 115.796 109.62 116.18 109.608C119.465 109.489 122.688 109.212 125.943 108.742C126.216 108.702 126.49 108.663 126.771 108.623C127.012 108.587 127.252 108.551 127.499 108.513C128.237 108.431 128.954 108.422 129.695 108.435Z" fill="#263C66"/>
<path d="M116.749 109.171C117.194 109.187 117.64 109.203 118.086 109.218C119.166 109.257 120.246 109.298 121.326 109.34C121.326 109.44 121.326 109.539 121.326 109.642C121.917 109.742 122.509 109.841 123.119 109.944C123.119 110.043 123.119 110.143 123.119 110.246C120.16 110.395 120.16 110.395 117.141 110.547C117.042 110.946 116.944 111.344 116.842 111.754C114.187 112.231 111.706 111.852 109.07 111.453C109.366 111.253 109.662 111.054 109.967 110.849C109.573 110.75 109.178 110.65 108.772 110.547C108.673 110.149 108.574 109.751 108.473 109.34C111.242 108.981 113.969 109.061 116.749 109.171Z" fill="#384C64"/>
<path d="M120.989 84.145C121.788 84.3328 122.525 84.3234 123.344 84.3135C123.639 84.3108 123.933 84.3081 124.236 84.3053C124.46 84.3018 124.683 84.2983 124.913 84.2947C124.913 84.3942 124.913 84.4938 124.913 84.5964C124.42 84.5964 123.927 84.5964 123.419 84.5964C123.567 85.3433 123.567 85.3433 123.718 86.1052C122.202 86.1558 120.686 86.2042 119.17 86.2507C118.654 86.2668 118.138 86.2835 117.622 86.3008C116.881 86.3255 116.14 86.3482 115.399 86.3704C115.168 86.3786 114.937 86.3867 114.699 86.3951C113.73 86.4224 112.989 86.4175 112.061 86.1052C112.322 84.6341 112.322 84.6341 112.658 84.2947C113.457 84.2218 114.249 84.1662 115.05 84.1249C115.281 84.1123 115.512 84.0997 115.75 84.0868C119.969 83.8675 119.969 83.8675 120.989 84.145Z" fill="#364C64"/>
<path d="M156.596 94.2527C159.829 95.7593 161.46 98.1106 162.948 101.32C163.203 102.207 163.123 102.729 162.873 103.607C162.275 102.702 162.275 102.702 162.275 102.098C161.782 102.198 161.289 102.297 160.781 102.4C160.708 102.236 160.636 102.073 160.561 101.904C159.973 100.637 159.538 99.8927 158.389 99.0808C158.303 98.8567 158.217 98.6327 158.128 98.4018C157.65 97.2217 156.844 96.3921 155.998 95.4597C156.195 95.4597 156.393 95.4597 156.596 95.4597C156.596 95.0614 156.596 94.6631 156.596 94.2527Z" fill="#304560"/>
<path d="M141.053 109.039C142.236 109.039 143.42 109.039 144.64 109.039C144.541 109.337 144.442 109.634 144.341 109.941C144.223 110.775 144.276 111.06 144.769 111.753C145.404 112.396 146.057 113.004 146.732 113.603C147.19 114.014 147.645 114.429 148.096 114.85C148.299 115.031 148.503 115.212 148.713 115.398C149.123 115.979 149.123 115.979 149.038 116.804C148.967 117.03 148.897 117.255 148.824 117.488C147.153 116.787 145.987 115.339 144.729 114.069C144.266 113.603 143.799 113.143 143.332 112.682C143.037 112.386 142.743 112.091 142.449 111.794C142.181 111.526 141.913 111.259 141.637 110.982C141.053 110.246 141.053 110.246 141.053 109.039Z" fill="#364E66"/>
<path d="M104.541 98.5737C104.76 98.6539 104.978 98.734 105.203 98.8165C106.736 99.3308 108.279 99.6964 109.855 100.042C110.1 100.096 110.344 100.15 110.596 100.206C111.184 100.335 111.771 100.462 112.358 100.589C112.358 100.689 112.358 100.789 112.358 100.891C112.019 100.928 111.68 100.966 111.331 101.004C110.979 101.067 110.628 101.129 110.266 101.193C110.167 101.392 110.069 101.591 109.967 101.796C109.671 101.796 109.375 101.796 109.07 101.796C109.07 101.996 109.07 102.195 109.07 102.4C109.564 102.4 110.057 102.4 110.565 102.4C110.565 102.499 110.565 102.599 110.565 102.702C107.444 102.81 104.143 101.861 101.598 99.9858C101.499 99.7867 101.4 99.5875 101.299 99.3823C101.641 99.5317 101.641 99.5317 101.99 99.6841C102.791 100.038 102.791 100.038 103.69 99.9858C103.887 99.7867 104.085 99.5875 104.288 99.3823C103.893 99.2828 103.499 99.1832 103.092 99.0806C103.989 98.4771 103.989 98.4771 104.541 98.5737Z" fill="#2B4266"/>
<path d="M128.201 83.3894C127.609 83.6881 127.609 83.6881 127.005 83.9929C127.301 84.0925 127.597 84.1921 127.902 84.2946C128.05 84.5934 128.05 84.5934 128.201 84.8982C128.804 85.2402 128.804 85.2402 129.396 85.5017C125.829 86.4251 122.472 86.7294 118.804 86.7464C118.545 86.7478 118.287 86.7493 118.02 86.7508C116.792 86.7475 115.649 86.7198 114.451 86.4069C114.451 86.3074 114.451 86.2078 114.451 86.1052C117.509 86.1052 120.567 86.1052 123.717 86.1052C123.619 85.6073 123.52 85.1094 123.418 84.5964C121.84 84.5964 120.262 84.5964 118.636 84.5964C118.636 84.4968 118.636 84.3972 118.636 84.2946C119.837 84.1417 121.039 83.9916 122.241 83.842C122.58 83.7988 122.919 83.7557 123.268 83.7112C124.924 83.5065 126.532 83.3307 128.201 83.3894Z" fill="#233866"/>
<path d="M130.891 72.2244C134.065 72.4428 136.757 73.8763 138.961 76.1472C138.862 76.4459 138.764 76.7447 138.662 77.0525C138.268 76.6541 137.873 76.2558 137.467 75.8454C137.171 76.1442 136.875 76.4429 136.57 76.7507C136.767 76.9499 136.964 77.149 137.168 77.3542C137.056 77.9954 137.056 77.9954 136.869 78.5612C136.764 78.3372 136.659 78.1131 136.551 77.8823C135.199 75.9446 132.725 75.3706 130.592 74.6384C130.783 74.6073 130.974 74.5762 131.171 74.5441C131.374 74.4756 131.578 74.4072 131.787 74.3367C131.886 74.0379 131.985 73.7392 132.086 73.4314C132.58 73.4314 133.073 73.4314 133.581 73.4314C132.693 73.1326 131.805 72.8339 130.891 72.5261C130.891 72.4265 130.891 72.327 130.891 72.2244Z" fill="#293C60"/>
<path d="M147.33 106.625C147.429 106.923 147.527 107.222 147.629 107.53C147.826 107.53 148.023 107.53 148.227 107.53C148.227 107.829 148.227 108.127 148.227 108.435C147.33 108.737 147.33 108.737 146.732 108.567C146.535 108.523 146.338 108.48 146.134 108.435C145.838 108.634 145.543 108.833 145.238 109.039C145.238 109.337 145.238 109.636 145.238 109.944C145.534 110.043 145.829 110.143 146.134 110.246C145.641 110.445 145.148 110.644 144.64 110.849C144.795 110.997 144.951 111.144 145.111 111.296C145.812 111.966 146.505 112.643 147.199 113.32C147.444 113.552 147.689 113.784 147.941 114.023C148.171 114.249 148.402 114.476 148.639 114.709C148.853 114.916 149.068 115.123 149.289 115.337C149.721 115.979 149.721 115.979 149.639 116.813C149.568 117.035 149.496 117.258 149.422 117.488C148.782 117.732 148.782 117.732 147.928 117.789C147.271 117.312 146.771 116.876 146.213 116.298C145.977 116.063 145.977 116.063 145.736 115.823C145.405 115.49 145.077 115.155 144.75 114.818C144.25 114.303 143.742 113.799 143.231 113.296C142.91 112.971 142.59 112.645 142.271 112.319C142.119 112.169 141.966 112.019 141.81 111.864C141.064 111.081 140.765 110.643 140.641 109.55C140.754 108.737 140.754 108.737 141.053 108.435C141.719 108.395 142.385 108.365 143.052 108.341C144.972 108.22 145.97 107.997 147.33 106.625ZM141.053 109.039C141.367 110.624 141.794 111.157 142.885 112.213C143.037 112.365 143.189 112.517 143.346 112.673C143.831 113.156 144.319 113.634 144.808 114.112C145.138 114.439 145.468 114.767 145.798 115.094C146.604 115.895 147.414 116.692 148.227 117.488C148.523 117.388 148.819 117.289 149.123 117.186C148.972 115.969 148.71 115.424 147.804 114.614C147.601 114.424 147.399 114.234 147.19 114.039C146.76 113.647 146.328 113.258 145.894 112.872C145.31 112.32 144.794 111.817 144.341 111.151C144.353 109.951 144.353 109.951 144.64 109.039C143.456 109.039 142.273 109.039 141.053 109.039Z" fill="#0D1F68"/>
<path d="M130.89 113.565C131.871 114.06 132.01 114.981 132.385 115.979C132.385 116.278 132.385 116.576 132.385 116.884C132.151 116.959 131.916 117.034 131.675 117.111C130.754 117.454 130.754 117.454 130.293 118.695C131.18 118.595 132.068 118.496 132.983 118.393C131.73 119.658 129.323 119.94 127.584 120.015C126.706 119.902 126.706 119.902 126.127 119.487C125.809 118.997 125.809 118.997 125.809 118.393C125.316 118.293 124.823 118.194 124.314 118.091C124.314 117.992 124.314 117.892 124.314 117.79C125.335 117.587 126.357 117.386 127.378 117.186C127.668 117.128 127.957 117.071 128.255 117.012C128.534 116.957 128.814 116.903 129.102 116.847C129.358 116.796 129.615 116.745 129.879 116.693C130.591 116.582 130.591 116.582 131.787 116.582C131.639 116.253 131.491 115.923 131.339 115.583C130.89 114.47 130.89 114.47 130.89 113.565Z" fill="#273D64"/>
<path d="M152.113 122.316C151.817 122.764 151.817 122.764 151.516 123.221C152.009 123.221 152.502 123.221 153.01 123.221C152.412 123.825 152.412 123.825 151.347 123.975C150.839 124.05 150.839 124.05 150.32 124.126C150.221 124.325 150.123 124.525 150.021 124.73C148.048 124.63 146.076 124.531 144.043 124.428C144.24 124.328 144.438 124.229 144.641 124.126C144.739 123.927 144.838 123.728 144.94 123.523C144.841 123.423 144.742 123.324 144.641 123.221C144.838 122.922 145.035 122.624 145.239 122.316C147.518 121.888 149.832 121.958 152.113 122.316Z" fill="#3A5067"/>
<path d="M145.562 90.5514C145.792 90.5507 146.021 90.5499 146.258 90.5491C146.613 90.5526 146.613 90.5526 146.976 90.5561C147.21 90.5538 147.444 90.5515 147.684 90.5491C149.173 90.5541 150.404 90.7559 151.815 91.2351C151.519 91.3347 151.223 91.4343 150.918 91.5368C150.819 91.736 150.721 91.9352 150.619 92.1404C150.323 92.0408 150.027 91.9412 149.722 91.8386C149.722 92.2369 149.722 92.6352 149.722 93.0456C147.947 93.0456 146.171 93.0456 144.342 93.0456C144.539 92.946 144.737 92.8465 144.94 92.7439C145.149 92.3466 145.349 91.9442 145.538 91.5368C145.636 91.4373 145.735 91.3377 145.837 91.2351C144.949 91.2351 144.061 91.2351 143.146 91.2351C144.494 90.555 144.494 90.555 145.562 90.5514Z" fill="#233759"/>
<path d="M132.386 82.1824C132.682 82.282 132.978 82.3815 133.283 82.4841C133.184 82.7829 133.086 83.0816 132.984 83.3894C133.181 83.489 133.379 83.5886 133.582 83.6911C133.33 83.7966 133.078 83.902 132.818 84.0106C132.491 84.1479 132.163 84.2852 131.826 84.4267C131.337 84.6315 131.337 84.6315 130.838 84.8404C130.352 85.0477 129.869 85.2635 129.397 85.5017C128.207 85.1539 127.53 84.6137 126.707 83.6911C127.672 83.0418 128.118 82.9737 129.248 82.8802C129.534 82.8541 129.821 82.8281 130.116 82.8012C130.892 82.7859 130.892 82.7859 131.788 83.0876C131.788 82.8885 131.788 82.6893 131.788 82.4841C131.986 82.3845 132.183 82.285 132.386 82.1824Z" fill="#344B65"/>
<path d="M135.373 117.186C135.651 117.441 135.928 117.696 136.214 117.959C137.616 119.18 139.177 120.136 140.754 121.109C139.797 121.592 139.043 121.118 138.064 120.807C137.965 121.006 137.866 121.205 137.765 121.411C137.765 121.211 137.765 121.012 137.765 120.807C137.567 121.006 137.37 121.205 137.167 121.411C138.252 122.008 139.337 122.606 140.455 123.221C139.558 123.523 139.558 123.523 138.911 123.241C137.056 122.097 135.453 120.811 133.879 119.298C133.978 119.099 134.076 118.9 134.178 118.695C134.671 119.193 135.164 119.691 135.672 120.204C135.87 119.905 136.067 119.606 136.27 119.298C136.369 119.199 136.467 119.099 136.569 118.997C136.372 118.81 136.174 118.623 135.971 118.431C135.373 117.79 135.373 117.79 135.373 117.186Z" fill="#20325A"/>
<path d="M108.473 83.3893C111.595 83.276 114.644 83.6268 117.739 83.9928C117.739 84.0924 117.739 84.192 117.739 84.2946C117.379 84.3059 117.019 84.3171 116.648 84.3288C116.177 84.3486 115.706 84.3686 115.235 84.3889C114.998 84.3957 114.761 84.4025 114.516 84.4095C113.894 84.4388 113.275 84.5148 112.657 84.5963C112.361 85.0444 112.361 85.0444 112.06 85.5016C110.975 85.402 109.89 85.3024 108.772 85.1998C108.772 85.0007 108.772 84.8015 108.772 84.5963C108.574 84.4968 108.377 84.3972 108.174 84.2946C108.272 83.9958 108.371 83.6971 108.473 83.3893Z" fill="#2C4265"/>
<path d="M142.547 90.9333C144.224 90.9333 145.901 90.9333 147.629 90.9333C147.629 91.0329 147.629 91.1325 147.629 91.2351C147.296 91.3036 146.963 91.372 146.62 91.4426C145.488 91.7198 145.488 91.7198 145.107 92.6307C145.051 92.8672 144.996 93.1037 144.939 93.3474C144.476 93.3381 144.476 93.3381 144.005 93.3285C142.98 93.3452 142.055 93.4517 141.053 93.6491C140.856 93.1513 140.658 92.6534 140.455 92.1404C140.745 92.0532 141.035 91.9661 141.333 91.8763C142.28 91.6448 142.28 91.6448 142.547 90.9333Z" fill="#364E67"/>
<path d="M104.667 98.5951C105.044 98.7235 105.044 98.7235 105.427 98.8544C105.822 98.9857 105.822 98.9857 106.225 99.1197C106.473 99.2064 106.722 99.2931 106.978 99.3825C107.336 99.5008 107.693 99.619 108.062 99.7408C108.296 99.8218 108.53 99.9027 108.771 99.986C107.974 100.187 107.177 100.388 106.38 100.59C106.38 100.789 106.38 100.988 106.38 101.193C106.084 101.193 105.788 101.193 105.483 101.193C105.779 101.392 106.075 101.591 106.38 101.797C104.528 101.677 103.127 101.05 101.598 99.986C101.499 99.7869 101.4 99.5877 101.299 99.3825C101.641 99.5319 101.641 99.5319 101.99 99.6843C102.791 100.039 102.791 100.039 103.69 99.986C103.887 99.7869 104.085 99.5877 104.288 99.3825C103.893 99.2829 103.499 99.1834 103.092 99.0808C103.989 98.4772 103.989 98.4772 104.667 98.5951Z" fill="#243867"/>
<path d="M142.547 122.014C144.421 122.213 146.296 122.412 148.226 122.618C148.226 122.717 148.226 122.817 148.226 122.919C148.014 122.934 147.802 122.949 147.583 122.964C147.171 122.998 147.171 122.998 146.751 123.033C146.477 123.054 146.203 123.075 145.92 123.096C145.582 123.158 145.582 123.158 145.237 123.221C145.139 123.42 145.04 123.619 144.939 123.825C144.84 123.924 144.741 124.024 144.64 124.126C146.415 124.226 148.191 124.326 150.02 124.428C150.02 124.528 150.02 124.627 150.02 124.73C147.011 125.293 143.921 125.331 141.053 124.126C140.954 123.927 140.856 123.728 140.754 123.523C141.124 123.598 141.494 123.672 141.875 123.749C142.524 123.854 142.524 123.854 143.145 123.825C143.9 123.29 143.9 123.29 144.341 122.618C143.453 122.468 143.453 122.468 142.547 122.316C142.547 122.216 142.547 122.117 142.547 122.014Z" fill="#1C3158"/>
<path d="M134.478 80.6736C134.675 80.7732 134.872 80.8727 135.076 80.9753C134.878 81.1745 134.681 81.3737 134.478 81.5789C134.576 81.8776 134.675 82.1763 134.777 82.4841C134.597 83.2503 134.597 83.2503 134.179 83.9929C133.443 84.4149 133.443 84.4149 132.572 84.7096C132.286 84.8115 132 84.9134 131.706 85.0184C130.891 85.1999 130.891 85.1999 129.695 84.8982C130.78 84.4998 131.865 84.1015 132.983 83.6911C132.786 83.2928 132.589 82.8945 132.385 82.4841C132.188 82.4841 131.991 82.4841 131.788 82.4841C131.788 82.6833 131.788 82.8824 131.788 83.0876C131.097 83.0876 130.407 83.0876 129.695 83.0876C130.432 82.3442 131.122 82.103 132.087 81.7109C133.296 81.2238 133.296 81.2238 134.478 80.6736Z" fill="#273A66"/>
<path d="M100.702 108.435C100.8 108.435 100.899 108.435 101.001 108.435C101.008 108.81 101.016 109.184 101.024 109.57C101.041 110.066 101.058 110.561 101.075 111.057C101.079 111.303 101.084 111.549 101.088 111.803C101.151 113.369 101.338 114.228 102.495 115.375C102.31 115.319 102.125 115.263 101.935 115.206C101.287 115.002 101.287 115.002 100.702 115.375C100.406 115.276 100.11 115.176 99.8049 115.074C100.597 116.169 101.305 116.854 102.495 117.488C102.199 117.587 101.903 117.687 101.598 117.789C100.998 117.389 100.998 117.389 100.365 116.809C100.155 116.621 99.9446 116.432 99.7279 116.238C99.2071 115.677 99.2071 115.677 98.9082 114.772C99.2041 114.324 99.2041 114.324 99.506 113.867C99.7033 113.867 99.9006 113.867 100.104 113.867C100.578 112.91 100.516 111.864 100.571 110.811C100.59 110.47 100.59 110.47 100.61 110.122C100.642 109.56 100.672 108.997 100.702 108.435Z" fill="#1D305B"/>
<path d="M129.696 105.719C129.794 105.719 129.893 105.719 129.994 105.719C130.011 106.26 130.022 106.8 130.032 107.341C130.039 107.642 130.046 107.943 130.053 108.254C129.994 109.039 129.994 109.039 129.397 109.642C129.594 109.742 129.791 109.841 129.994 109.944C129.994 110.143 129.994 110.342 129.994 110.547C127.562 112.028 123.782 111.498 121.027 111.453C121.027 111.353 121.027 111.253 121.027 111.151C124.282 110.852 124.282 110.852 127.603 110.547C127.8 110.049 127.998 109.552 128.201 109.039C128.596 108.939 128.99 108.839 129.397 108.737C129.495 107.741 129.594 106.745 129.696 105.719Z" fill="#3B5165"/>
<path d="M147.33 106.625C147.428 106.923 147.527 107.222 147.629 107.53C147.826 107.53 148.023 107.53 148.226 107.53C148.226 107.829 148.226 108.127 148.226 108.435C147.33 108.737 147.33 108.737 146.732 108.567C146.535 108.523 146.337 108.48 146.134 108.435C145.838 108.634 145.542 108.833 145.237 109.039C145.237 109.337 145.237 109.636 145.237 109.944C145.533 110.043 145.829 110.143 146.134 110.246C145.835 110.547 145.835 110.547 145.069 110.566C144.829 110.56 144.588 110.554 144.341 110.547C144.341 110.149 144.341 109.751 144.341 109.34C143.157 109.34 141.973 109.34 140.754 109.34C140.853 109.042 140.951 108.743 141.053 108.435C141.334 108.427 141.615 108.419 141.905 108.411C144.932 108.294 144.932 108.294 147.33 106.625Z" fill="#162C67"/>
<path d="M101 77.3542C101.019 77.5161 101.037 77.6779 101.056 77.8446C101.657 79.6187 102.781 80.4317 104.381 81.2393C104.847 81.4573 105.313 81.6726 105.783 81.8806C105.484 82.4841 105.185 83.0876 104.886 83.6911C105.083 83.8903 105.28 84.0894 105.484 84.2946C103.778 84.1655 102.671 83.4366 101.299 82.4841C102.257 82.4841 102.822 82.7084 103.69 83.0876C103.69 82.8884 103.69 82.6893 103.69 82.4841C103.887 82.3845 104.085 82.2849 104.288 82.1823C104.104 82.0439 103.92 81.9054 103.731 81.7627C103.369 81.485 103.369 81.485 102.999 81.2016C102.76 81.0196 102.52 80.8375 102.274 80.65C101.623 80.0918 101.147 79.597 100.701 78.863C100.795 78.0332 100.795 78.0332 101 77.3542Z" fill="#1E3167"/>
<path d="M151.813 91.2351C152.45 91.5566 152.819 91.9266 153.308 92.4421C153.012 92.6413 152.716 92.8404 152.411 93.0456C152.707 93.3444 153.003 93.6431 153.308 93.9509C151.528 93.8327 150.131 93.5371 148.525 92.7439C148.92 92.6443 149.314 92.5447 149.721 92.4421C149.721 92.243 149.721 92.0438 149.721 91.8386C149.9 91.7951 150.079 91.7515 150.263 91.7066C150.786 91.5709 151.301 91.4074 151.813 91.2351Z" fill="#324866"/>
<path d="M107.278 108.435C110.433 108.726 110.433 108.726 111.761 109.039C111.761 109.138 111.761 109.238 111.761 109.34C110.775 109.44 109.788 109.539 108.772 109.642C108.772 109.941 108.772 110.24 108.772 110.547C109.265 110.547 109.759 110.547 110.267 110.547C110.168 110.747 110.069 110.946 109.968 111.151C108.526 111.209 107.428 111.078 106.082 110.547C106.826 110.34 107.391 110.246 108.174 110.246C108.174 110.046 108.174 109.847 108.174 109.642C107.878 109.543 107.583 109.443 107.278 109.34C107.278 109.042 107.278 108.743 107.278 108.435Z" fill="#213768"/>
<path d="M131.19 90.3298C132.292 90.4802 132.865 90.662 133.581 91.5369C133.202 92.302 132.844 92.3966 132.087 92.7439C131.791 92.8932 131.791 92.8932 131.489 93.0456C131.138 92.8309 131.138 92.8309 130.779 92.6119C129.975 92.0375 129.975 92.0375 128.799 92.1404C128.799 91.9412 128.799 91.742 128.799 91.5369C129.588 91.2381 130.377 90.9394 131.19 90.6316C131.19 90.532 131.19 90.4324 131.19 90.3298Z" fill="#374E64"/>
<path d="M103.392 115.979C103.293 116.477 103.194 116.975 103.093 117.488C101.585 117.353 100.867 116.7 99.8047 115.677C99.8047 115.478 99.8047 115.279 99.8047 115.074C101.357 114.504 102.093 115.13 103.392 115.979Z" fill="#344D67"/>
<path d="M122.522 101.193C123.212 101.193 123.903 101.193 124.614 101.193C124.318 101.641 124.318 101.641 124.016 102.098C125.33 102.357 126.565 102.427 127.902 102.4C126.656 103.239 125.495 103.289 124.016 103.305C122.951 103.06 122.951 103.06 122.223 102.702C122.124 102.502 122.025 102.303 121.924 102.098C122.22 101.999 122.516 101.899 122.821 101.796C122.722 101.597 122.623 101.398 122.522 101.193Z" fill="#2B4165"/>
<path d="M152.113 91.5369C153.692 91.6923 154.676 92.2173 155.999 93.0456C155.042 93.5285 154.288 93.0552 153.309 92.7439C153.408 93.1422 153.506 93.5405 153.608 93.9509C153.805 93.9509 154.002 93.9509 154.206 93.9509C154.718 94.5421 155.217 95.1455 155.7 95.7614C154.413 95.2888 153.29 94.65 152.113 93.9509C152.409 93.8513 152.705 93.7517 153.01 93.6492C152.714 93.3504 152.418 93.0517 152.113 92.7439C152.311 92.5447 152.508 92.3456 152.711 92.1404C152.514 91.9412 152.317 91.7421 152.113 91.5369Z" fill="#213058"/>
<path d="M141.352 104.21C143.324 104.21 145.297 104.21 147.33 104.21C147.33 104.31 147.33 104.41 147.33 104.512C146.245 104.512 145.16 104.512 144.042 104.512C144.14 104.811 144.239 105.11 144.341 105.417C143.256 105.417 142.171 105.417 141.053 105.417C141.151 105.019 141.25 104.621 141.352 104.21Z" fill="#385064"/>
<path d="M161.678 113.867C161.876 113.867 162.073 113.867 162.276 113.867C161.91 115.09 161.47 116.113 160.782 117.186C160.683 116.987 160.584 116.788 160.483 116.582C160.581 116.383 160.68 116.184 160.782 115.979C160.387 116.079 159.993 116.178 159.586 116.281C159.586 116.48 159.586 116.679 159.586 116.884C159.389 116.884 159.192 116.884 158.988 116.884C159.549 115.149 159.549 115.149 159.885 114.47C160.381 114.358 160.879 114.257 161.38 114.168C161.478 114.069 161.577 113.969 161.678 113.867Z" fill="#364D67"/>
<path d="M135.076 73.7332C136.323 73.8897 136.946 74.2496 137.86 75.1099C138.068 75.3032 138.277 75.4966 138.491 75.6957C138.647 75.8447 138.802 75.9937 138.962 76.1472C138.863 76.4459 138.765 76.7447 138.663 77.0525C138.268 76.6541 137.874 76.2558 137.467 75.8454C136.974 76.0446 136.481 76.2438 135.973 76.449C135.681 75.5653 135.649 74.9534 135.674 74.0349C135.477 73.9353 135.279 73.8358 135.076 73.7332Z" fill="#263853"/>
<path d="M141.053 106.021C143.223 106.021 145.393 106.021 147.629 106.021C147.431 106.419 147.234 106.818 147.031 107.228C146.834 107.128 146.636 107.029 146.433 106.926C145.413 106.856 144.395 106.807 143.374 106.77C141.714 106.689 141.714 106.689 141.053 106.021Z" fill="#FCF063"/>
<path d="M136.87 82.1824C137.127 86.7225 137.127 86.7225 136.122 87.8969C135.753 88.2049 135.753 88.2049 135.375 88.5192C135.178 88.4197 134.981 88.3201 134.777 88.2175C134.973 88.0572 135.169 87.897 135.37 87.7318C136.145 86.8044 136.099 86.3186 136.048 85.1245C136.037 84.7993 136.026 84.4741 136.015 84.1391C136.001 83.8917 135.987 83.6443 135.973 83.3894C135.776 83.2898 135.578 83.1902 135.375 83.0876C136.533 82.1824 136.533 82.1824 136.87 82.1824Z" fill="#FBF061"/>
<path d="M105.784 81.8806C106.531 82.2767 106.531 82.2767 107.278 82.7859C107.574 82.985 107.87 83.1842 108.175 83.3894C107.682 83.489 107.188 83.5886 106.68 83.6911C106.68 83.8903 106.68 84.0895 106.68 84.2947C106.187 84.3942 105.694 84.4938 105.186 84.5964C104.777 83.9168 104.576 83.5326 104.644 82.7293C104.724 82.5488 104.804 82.3683 104.887 82.1824C105.183 82.0828 105.479 81.9832 105.784 81.8806Z" fill="#374F63"/>
<path d="M148.825 122.618C149.318 122.717 149.811 122.817 150.319 122.919C150.319 123.517 150.319 124.114 150.319 124.73C149.234 124.531 148.149 124.332 147.031 124.126C146.933 123.828 146.834 123.529 146.732 123.221C147.423 123.221 148.113 123.221 148.825 123.221C148.825 123.022 148.825 122.823 148.825 122.618Z" fill="#304964"/>
<path d="M134.477 90.0281C134.675 90.2272 134.872 90.4264 135.075 90.6316C134.878 90.8307 134.68 91.0299 134.477 91.2351C134.97 91.0359 135.464 90.8368 135.972 90.6316C135.016 91.7503 134.063 92.263 132.684 92.7439C132.388 92.6443 132.092 92.5447 131.787 92.4421C132.28 92.243 132.773 92.0438 133.282 91.8386C133.033 91.1848 133.033 91.1848 132.385 90.9333C133.075 90.6346 133.766 90.3359 134.477 90.0281Z" fill="#263866"/>
<path d="M111.462 92.1402C111.271 92.2336 111.08 92.327 110.883 92.4231C110.285 92.6938 110.285 92.6938 109.967 93.0455C110.165 93.1451 110.362 93.2447 110.565 93.3473C110.565 93.646 110.565 93.9447 110.565 94.2525C109.562 94.0717 108.958 93.6954 108.174 93.0455C108.371 93.0455 108.568 93.0455 108.772 93.0455C108.772 92.6472 108.772 92.2489 108.772 91.8385C109.901 91.5217 110.46 91.5036 111.462 92.1402Z" fill="#3B4F63"/>
<path d="M130.293 72.8279C131.764 72.7775 132.835 72.7529 134.179 73.4314C133.282 73.7331 133.282 73.7331 132.087 73.7331C131.988 73.9323 131.889 74.1314 131.788 74.3366C131.094 74.4595 130.396 74.5613 129.695 74.6384C129.893 74.4392 130.09 74.2401 130.293 74.0349C130.293 73.6366 130.293 73.2382 130.293 72.8279Z" fill="#384F66"/>
<path d="M141.053 108.435C142.335 108.535 143.617 108.634 144.939 108.737C145.037 109.135 145.136 109.533 145.237 109.944C145.533 110.043 145.829 110.143 146.134 110.246C145.835 110.547 145.835 110.547 145.069 110.566C144.709 110.557 144.709 110.557 144.341 110.547C144.341 110.149 144.341 109.751 144.341 109.34C143.157 109.34 141.973 109.34 140.754 109.34C140.853 109.042 140.951 108.743 141.053 108.435Z" fill="#223A66"/>
<path d="M113.854 84.5964C114.446 84.5964 115.038 84.5964 115.647 84.5964C115.549 85.0943 115.45 85.5922 115.348 86.1052C113.069 86.4824 113.069 86.4824 112.061 85.8035C112.554 85.7039 113.047 85.6043 113.555 85.5017C113.654 85.203 113.752 84.9042 113.854 84.5964Z" fill="#2D4365"/>
<path d="M153.009 104.21C153.107 104.21 153.206 104.21 153.308 104.21C153.308 104.908 153.308 105.605 153.308 106.323C152.347 106.808 151.384 106.642 150.319 106.624C150.121 107.023 149.924 107.421 149.721 107.832C149.819 107.234 149.918 106.637 150.02 106.021C150.809 105.921 151.598 105.822 152.411 105.719C152.608 105.221 152.805 104.723 153.009 104.21Z" fill="#FBEF60"/>
<path d="M134.478 80.6736C134.675 80.7732 134.872 80.8727 135.076 80.9753C133.984 81.7701 133.137 82.3238 131.788 82.4841C131.788 82.6833 131.788 82.8824 131.788 83.0876C131.097 83.0876 130.407 83.0876 129.695 83.0876C130.432 82.3442 131.122 82.103 132.087 81.7109C133.296 81.2238 133.296 81.2238 134.478 80.6736Z" fill="#1D2D69"/>
<path d="M107.278 71.9226C108.067 72.0222 108.856 72.1218 109.669 72.2244C109.669 72.5231 109.669 72.8218 109.669 73.1296C109.472 73.1296 109.274 73.1296 109.071 73.1296C109.071 72.9305 109.071 72.7313 109.071 72.5261C108.8 72.6319 108.529 72.7377 108.249 72.8467C107.314 73.119 106.963 73.17 106.082 72.8279C106.477 72.6287 106.871 72.4296 107.278 72.2244C107.278 72.1248 107.278 72.0252 107.278 71.9226ZM109.968 71.9226C110.461 71.9226 110.954 71.9226 111.462 71.9226C110.87 72.2213 110.87 72.2213 110.267 72.5261C110.168 72.327 110.069 72.1278 109.968 71.9226Z" fill="#395269"/>
<path d="M129.694 108.435C129.596 108.634 129.497 108.833 129.396 109.039C129.001 109.039 128.606 109.039 128.2 109.039C128.2 109.238 128.2 109.437 128.2 109.642C127.214 109.543 126.227 109.443 125.211 109.34C126.724 108.577 128.015 108.385 129.694 108.435Z" fill="#223367"/>
<path d="M132.684 98.1753C132.783 98.3745 132.882 98.5736 132.983 98.7788C132.589 99.5749 132.314 99.6788 131.489 99.9858C130.792 100.009 130.093 100.013 129.396 99.9858C130.04 99.3362 130.547 99.1003 131.377 98.7411C131.621 98.6345 131.865 98.5279 132.117 98.4181C132.304 98.338 132.491 98.2579 132.684 98.1753Z" fill="#213366"/>
<path d="M102.495 76.449C102.7 76.9582 102.7 76.9582 102.793 77.656C102.401 78.4858 102.401 78.4858 101.897 79.1648C101.699 79.1648 101.502 79.1648 101.299 79.1648C101.056 78.6556 101.056 78.6556 101 77.9578C101.729 77.1279 101.729 77.1279 102.495 76.449Z" fill="#F0DD61"/>
<path d="M129.397 118.393C129.6 118.449 129.804 118.505 130.013 118.563C131.062 118.721 131.944 118.578 132.984 118.393C131.961 119.425 130.676 119.586 129.266 119.638C129.013 119.625 128.76 119.613 128.5 119.6C128.796 119.501 129.092 119.401 129.397 119.298C129.397 119 129.397 118.701 129.397 118.393Z" fill="#192949"/>
<path d="M135.971 80.0701C136.169 80.1696 136.366 80.2692 136.569 80.3718C136.273 80.9693 135.977 81.5668 135.672 82.1824C134.785 82.033 134.785 82.033 133.879 81.8806C134.554 81.1759 135.158 80.6171 135.971 80.0701Z" fill="#364F66"/>
<path d="M120.729 42.3506C121.025 42.4502 121.321 42.5497 121.626 42.6523C121.034 43.3494 120.442 44.0465 119.832 44.7646C119.733 44.3663 119.635 43.968 119.533 43.5576C120.112 42.8787 120.112 42.8787 120.729 42.3506Z" fill="#273B56"/>
<path d="M113.555 93.9509C113.991 93.9427 114.426 93.9369 114.862 93.932C115.105 93.9285 115.348 93.925 115.598 93.9214C116.245 93.9509 116.245 93.9509 116.843 94.2526C116.843 94.4518 116.843 94.6509 116.843 94.8561C116.407 94.8806 115.971 94.8981 115.535 94.9127C115.292 94.9232 115.049 94.9337 114.799 94.9445C114.586 94.9154 114.372 94.8862 114.152 94.8561C113.955 94.5574 113.758 94.2586 113.555 93.9509Z" fill="#405263"/>
<path d="M104.587 73.4315C104.488 73.7303 104.389 74.029 104.288 74.3368C103.881 74.3275 103.881 74.3275 103.466 74.3179C102.666 74.3335 102.055 74.4036 101.299 74.6385C102.242 73.536 103.172 72.9554 104.587 73.4315Z" fill="#1D304E"/>
<path d="M140.755 94.2527C140.853 94.4518 140.952 94.651 141.053 94.8562C140.856 94.8562 140.659 94.8562 140.456 94.8562C140.357 95.1549 140.258 95.4537 140.157 95.7615C139.241 96.1198 139.241 96.1198 138.363 96.365C138.801 95.0398 139.552 94.8926 140.755 94.2527Z" fill="#F7E760"/>
<path d="M155.102 120.505C154.878 121.09 154.878 121.09 154.504 121.712C153.622 122.086 153.346 122.027 152.412 121.712C154.43 120.505 154.43 120.505 155.102 120.505Z" fill="#364F65"/>
<path d="M106.381 73.4314C106.48 73.6306 106.579 73.8297 106.68 74.0349C106.976 74.1345 107.272 74.2341 107.577 74.3367C106.689 74.5358 105.801 74.735 104.887 74.9402C105.084 74.8406 105.281 74.741 105.485 74.6384C105.485 74.4393 105.485 74.2401 105.485 74.0349C105.78 73.8357 106.076 73.6366 106.381 73.4314Z" fill="#364E66"/>
<path d="M129.695 110.849C130.578 111.74 130.618 112.646 130.891 113.867C130.694 113.867 130.496 113.867 130.293 113.867C130.293 113.668 130.293 113.468 130.293 113.263C130.096 113.263 129.899 113.263 129.695 113.263C129.695 112.467 129.695 111.67 129.695 110.849Z" fill="#F3E861"/>
<path d="M153.309 92.7439C153.802 92.7439 154.295 92.7439 154.803 92.7439C154.704 93.1422 154.606 93.5405 154.504 93.9509C154.208 93.9509 153.912 93.9509 153.607 93.9509C153.509 93.5526 153.41 93.1543 153.309 92.7439Z" fill="#334D66"/>
<path d="M112.359 71.0173C112.951 71.0173 113.543 71.0173 114.153 71.0173C114.252 71.3161 114.35 71.6148 114.452 71.9226C113.663 71.9226 112.874 71.9226 112.061 71.9226C112.159 71.6239 112.258 71.3251 112.359 71.0173Z" fill="#3A5569"/>
</svg>
