<svg width="22" height="21" viewBox="0 0 22 21" fill="none" xmlns="http://www.w3.org/2000/svg">
<path d="M11 19.8222C16.5228 19.8222 21 15.6866 21 10.5849C21 5.48333 16.5228 1.34766 11 1.34766C5.47715 1.34766 1 5.48333 1 10.5849C1 15.6866 5.47715 19.8222 11 19.8222Z" stroke="#F59E0B" stroke-width="2"/>
<path d="M4 10.5849C4 9.48867 4.35188 8.41711 5.01117 7.50567C5.67046 6.59424 6.60753 5.88386 7.70389 5.46437C8.80024 5.04488 10.0066 4.93513 11.1705 5.14898C12.3344 5.36283 13.4035 5.89068 14.2426 6.6658C15.0818 7.44091 15.6532 8.42847 15.8847 9.50358C16.1162 10.5787 15.9974 11.6931 15.5433 12.7058C15.0891 13.7186 14.3201 14.5842 13.3334 15.1932C12.3467 15.8022 11.1867 16.1272 10 16.1272" stroke="#F59E0B" stroke-width="2"/>
<path d="M11 3.19531V10.5851H19" stroke="#F59E0B" stroke-width="2"/>
</svg>
