<svg width="20" height="19" viewBox="0 0 20 19" fill="none" xmlns="http://www.w3.org/2000/svg">
<path d="M2.12676 19C1.53245 19 1.02941 18.8098 0.617647 18.4294C0.205882 18.0491 0 17.5844 0 17.0354V2.48994C0 1.94096 0.205882 1.47629 0.617647 1.09593C1.02941 0.71557 1.53245 0.525391 2.12676 0.525391H17.8732C18.4676 0.525391 18.9706 0.71557 19.3824 1.09593C19.7941 1.47629 20 1.94096 20 2.48994V17.0354C20 17.5844 19.7941 18.0491 19.3824 18.4294C18.9706 18.8098 18.4676 19 17.8732 19H2.12676ZM2.12676 17.3699H17.8732C17.9638 17.3699 18.0468 17.335 18.1221 17.2653C18.1976 17.1957 18.2353 17.1191 18.2353 17.0354V2.48994C18.2353 2.40627 18.1976 2.32965 18.1221 2.2601C18.0468 2.19037 17.9638 2.1555 17.8732 2.1555H2.12676C2.03618 2.1555 1.95324 2.19037 1.87794 2.2601C1.80245 2.32965 1.76471 2.40627 1.76471 2.48994V17.0354C1.76471 17.1191 1.80245 17.1957 1.87794 17.2653C1.95324 17.335 2.03618 17.3699 2.12676 17.3699ZM5.43 7.86088C5.17961 7.86088 4.9699 7.93895 4.80088 8.09508C4.63206 8.25102 4.54765 8.44464 4.54765 8.67594V14.1096C4.54765 14.3409 4.63206 14.5346 4.80088 14.6905C4.9699 14.8466 5.17961 14.9247 5.43 14.9247C5.6802 14.9247 5.8898 14.8466 6.05882 14.6905C6.22765 14.5346 6.31206 14.3409 6.31206 14.1096V8.67594C6.31206 8.44464 6.22765 8.25102 6.05882 8.09508C5.8898 7.93895 5.6802 7.86088 5.43 7.86088ZM10 4.60066C9.74961 4.60066 9.54 4.67873 9.37118 4.83486C9.20216 4.9908 9.11765 5.18442 9.11765 5.41572V14.1096C9.11765 14.3409 9.20216 14.5346 9.37118 14.6905C9.54 14.8466 9.74961 14.9247 10 14.9247C10.2504 14.9247 10.46 14.8466 10.6288 14.6905C10.7978 14.5346 10.8824 14.3409 10.8824 14.1096V5.41572C10.8824 5.18442 10.7978 4.9908 10.6288 4.83486C10.46 4.67873 10.2504 4.60066 10 4.60066ZM14.57 11.1211C14.3198 11.1211 14.1102 11.1992 13.9412 11.3553C13.7724 11.5112 13.6879 11.7049 13.6879 11.9362V14.1096C13.6879 14.3409 13.7724 14.5346 13.9412 14.6905C14.1102 14.8466 14.3198 14.9247 14.57 14.9247C14.8204 14.9247 15.0301 14.8466 15.1991 14.6905C15.3679 14.5346 15.4524 14.3409 15.4524 14.1096V11.9362C15.4524 11.7049 15.3679 11.5112 15.1991 11.3553C15.0301 11.1992 14.8204 11.1211 14.57 11.1211Z" fill="#F59E0B"/>
</svg>
