<svg width="281" height="166" viewBox="0 0 281 166" fill="none" xmlns="http://www.w3.org/2000/svg">
<rect y="0.375" width="281" height="165" rx="5" fill="#88BED1"/>
<path d="M174.33 46.0068C174.937 46.5456 175.534 47.0889 176.118 47.652C176.287 47.8085 176.456 47.9651 176.629 48.1264C177.006 48.5493 177.006 48.5493 177.006 49.1476C177.17 49.2074 177.333 49.2671 177.502 49.3287C178.465 49.9131 179.055 50.7428 179.725 51.6341C179.867 51.8222 180.01 52.0103 180.157 52.2041C180.59 52.778 181.018 53.3552 181.444 53.9336C181.676 54.2444 181.907 54.5552 182.145 54.8754C185.136 59.0615 187.379 63.6477 188.842 68.5909C188.944 68.9357 188.944 68.9357 189.048 69.2875C192.273 80.3797 191.493 92.4353 186.77 102.991C186.687 103.179 186.604 103.367 186.518 103.561C181.118 115.565 171.061 125.251 158.817 129.89C155.662 131.04 152.506 132.047 149.193 132.604C148.858 132.665 148.524 132.726 148.179 132.789C142.281 133.708 136.092 133.546 130.256 132.305C129.879 132.225 129.503 132.145 129.115 132.063C120.895 130.059 113.146 125.77 107.047 119.873C106.413 119.263 105.767 118.707 105.087 118.153C103.357 116.628 102.02 114.722 100.667 112.862C100.541 112.691 100.415 112.52 100.285 112.343C92.7504 101.977 89.8435 88.5176 91.4111 75.8339C93.3695 63.0828 100.416 50.9768 110.674 43.2627C130.146 28.9891 156.069 30.3986 174.33 46.0068Z" fill="#CBF7DC"/>
<path d="M124.415 51.0277C126.49 52.4619 127.824 54.4818 128.48 56.925C128.805 59.8824 128.622 62.0031 127.093 64.5959C126.633 65.2968 126.633 65.2968 126.705 66.1979C127.192 66.7026 127.685 67.2014 128.184 67.6936C128.184 67.891 128.184 68.0884 128.184 68.2918C128.439 68.1148 128.693 67.9378 128.955 67.7555C133.999 64.3194 139.374 62.6061 145.456 63.7114C148.963 64.4718 152.053 65.9767 154.814 68.2918C154.899 68.1083 154.984 67.9247 155.071 67.7356C155.468 66.9776 155.973 66.481 156.59 65.8988C156.221 64.935 155.814 63.9959 155.388 63.0571C154.369 60.7327 154.195 58.6238 154.981 56.1958C156.145 53.236 157.898 51.4149 160.732 50.045C163.353 49.0224 165.861 49.2704 168.425 50.3441C170.851 51.5601 172.482 53.4524 173.505 55.9855C174.162 58.4916 174.087 61.3643 172.977 63.7219C171.438 66.2843 169.508 67.8662 166.675 68.772C164.257 69.2344 162.064 69.0358 159.88 67.8969C159.253 67.6254 159.253 67.6254 158.63 67.8992C158.061 68.2974 157.68 68.6776 157.255 69.2266C156.926 69.6523 156.926 69.6523 156.59 70.0866C156.74 70.2574 156.89 70.4282 157.045 70.6042C160.797 75.0718 161.985 80.0748 161.681 85.8139C161.342 89.8226 159.619 93.7779 156.886 96.7089C157.327 97.8442 157.997 98.3872 158.957 99.102C159.135 99.0191 159.314 98.9362 159.498 98.8507C159.734 98.7424 159.971 98.634 160.214 98.5224C160.448 98.4148 160.681 98.3072 160.922 98.1964C163.173 97.258 165.406 97.4232 167.69 98.1941C170.373 99.3239 172.059 101.068 173.348 103.668C174.178 105.967 174.115 108.882 173.307 111.198C172.015 113.912 170.032 115.72 167.242 116.751C164.449 117.44 161.809 117.201 159.253 115.853C156.856 114.266 155.451 111.999 154.626 109.241C154.051 106.207 155.18 103.534 156.59 100.897C155.906 100.304 155.223 99.7122 154.519 99.102C154.371 99.2323 154.223 99.3626 154.071 99.4969C150.482 102.506 146.231 104.067 141.592 104.038C141.281 104.036 140.97 104.035 140.649 104.033C136.422 103.938 131.882 102.433 128.776 99.4011C128.776 99.2037 128.776 99.0062 128.776 98.8028C128.093 99.3951 127.409 99.9874 126.705 100.598C127.101 101.635 127.101 101.635 127.6 102.624C128.877 105.014 128.859 107.849 128.285 110.461C127.331 113.163 125.404 115.21 122.858 116.451C120.442 117.405 117.632 117.45 115.201 116.481C112.583 115.111 110.888 113.13 109.728 110.413C109.2 107.151 109.277 104.198 111.184 101.431C112.786 99.4401 114.716 98.0813 117.237 97.6063C119.948 97.3275 122.353 97.8637 124.634 99.4011C124.713 99.2222 124.792 99.0433 124.874 98.8589C125.221 98.2129 125.579 97.7984 126.113 97.3072C125.742 96.2872 125.317 95.4579 124.689 94.5777C121.594 89.9712 121.041 84.7652 121.76 79.3106C122.392 76.0948 124.192 72.7629 126.409 70.3857C125.941 69.1072 125.076 68.5116 124.042 67.6936C123.876 67.7799 123.711 67.8663 123.54 67.9553C120.923 69.1805 118.121 69.4106 115.369 68.4414C112.635 67.1414 110.907 65.1423 109.839 62.3093C109.087 59.9047 109.241 57.2615 110.302 54.9993C111.864 52.2309 113.897 50.5002 116.945 49.5624C119.648 49.0301 122.05 49.6687 124.415 51.0277Z" fill="#2C425E"/>
<path d="M124.415 51.0277C126.49 52.4619 127.824 54.4818 128.48 56.925C128.805 59.8824 128.622 62.0031 127.093 64.5959C126.633 65.2968 126.633 65.2968 126.705 66.1979C127.192 66.7026 127.685 67.2014 128.184 67.6936C128.184 67.891 128.184 68.0884 128.184 68.2918C128.439 68.1148 128.693 67.9378 128.955 67.7555C133.999 64.3194 139.374 62.6061 145.456 63.7114C148.963 64.4718 152.053 65.9767 154.814 68.2918C154.899 68.1083 154.984 67.9247 155.071 67.7356C155.468 66.9776 155.973 66.481 156.59 65.8988C156.221 64.935 155.814 63.9959 155.388 63.0571C154.369 60.7327 154.195 58.6238 154.981 56.1958C156.145 53.236 157.898 51.4149 160.732 50.045C163.353 49.0224 165.861 49.2704 168.425 50.3441C170.851 51.5601 172.482 53.4524 173.505 55.9855C174.162 58.4916 174.087 61.3643 172.977 63.7219C171.438 66.2843 169.508 67.8662 166.675 68.772C164.257 69.2344 162.064 69.0358 159.88 67.8969C159.253 67.6254 159.253 67.6254 158.63 67.8992C158.061 68.2974 157.68 68.6776 157.255 69.2266C156.926 69.6523 156.926 69.6523 156.59 70.0866C156.74 70.2574 156.89 70.4282 157.045 70.6042C160.286 74.4637 161.681 78.7087 161.712 83.7156C161.715 84.1112 161.715 84.1112 161.717 84.5149C161.696 86.4235 161.696 86.4235 161.028 87.436C160.717 88.4139 160.444 89.3997 160.169 90.3887C159.866 91.2637 159.551 91.825 158.957 92.5212C158.762 92.3237 158.566 92.1263 158.365 91.9229C157.974 92.219 157.584 92.5152 157.182 92.8203C157.235 92.6244 157.289 92.4285 157.344 92.2267C157.503 91.6462 157.658 91.065 157.813 90.4833C157.976 89.8767 158.146 89.2718 158.326 88.6699C159.58 84.2263 159.207 79.7162 157.163 75.583C154.62 71.121 150.997 68.4659 146.234 66.7962C141.277 65.6434 136.428 66.3747 132.086 68.9648C128.156 71.6719 125.623 75.3996 124.46 80.0536C123.668 85.239 124.748 90.1625 127.805 94.4269C127.993 94.6681 127.993 94.6681 128.184 94.9142C129.18 94.0991 129.499 93.0989 129.96 91.9229C130.35 92.219 130.741 92.5152 131.143 92.8203C131.097 93.0189 131.051 93.2174 131.003 93.422C130.946 93.6862 130.888 93.9503 130.829 94.2224C130.771 94.4827 130.712 94.743 130.652 95.0112C130.542 95.8867 130.576 96.4688 130.847 97.3072C133.359 100.132 137.376 100.976 140.933 101.272C143.059 101.354 144.928 101.014 146.957 100.425C148.132 100.087 149.155 99.9383 150.376 99.9993C150.474 99.7032 150.571 99.4071 150.672 99.102C150.968 99.7002 150.968 99.7002 151.06 100.691C150.672 101.794 150.672 101.794 149.933 102.243C149.004 102.637 148.081 102.98 147.121 103.29C146.811 103.399 146.5 103.509 146.18 103.622C140.83 104.883 135.601 103.764 130.923 101.022C130.152 100.532 129.433 100.042 128.776 99.4011C128.776 99.2037 128.776 99.0062 128.776 98.8028C128.093 99.3951 127.409 99.9874 126.705 100.598C127.101 101.635 127.101 101.635 127.6 102.624C128.877 105.014 128.859 107.849 128.285 110.461C127.331 113.163 125.404 115.21 122.858 116.451C120.442 117.405 117.632 117.45 115.201 116.481C112.583 115.111 110.888 113.13 109.728 110.413C109.2 107.151 109.277 104.198 111.184 101.431C112.786 99.4401 114.716 98.0813 117.237 97.6063C119.948 97.3275 122.353 97.8637 124.634 99.4011C124.713 99.2222 124.792 99.0433 124.874 98.8589C125.221 98.2129 125.579 97.7984 126.113 97.3072C125.742 96.2872 125.317 95.4579 124.689 94.5777C121.594 89.9712 121.041 84.7652 121.76 79.3106C122.392 76.0948 124.192 72.7629 126.409 70.3857C125.941 69.1072 125.076 68.5116 124.042 67.6936C123.876 67.7799 123.711 67.8663 123.54 67.9553C120.923 69.1805 118.121 69.4106 115.369 68.4414C112.635 67.1414 110.907 65.1423 109.839 62.3093C109.087 59.9047 109.241 57.2615 110.302 54.9993C111.864 52.2309 113.897 50.5002 116.945 49.5624C119.648 49.0301 122.05 49.6687 124.415 51.0277Z" fill="#2C425E"/>
<path d="M148.6 67.3943C148.877 67.5177 149.154 67.6411 149.439 67.7682C153.864 69.9737 156.966 73.8325 158.66 78.462C160.001 82.7828 159.429 87.3945 157.513 91.418C156.809 92.7732 156.035 94.0026 155.109 95.2132C154.746 94.4835 154.39 93.7507 154.038 93.0153C153.859 92.6449 153.68 92.2745 153.5 91.9041C153.412 91.7173 153.323 91.5305 153.232 91.338C152.768 90.3861 152.325 89.6537 151.559 88.9315C151.559 88.7341 151.559 88.5367 151.559 88.3333C151.306 88.2129 151.306 88.2129 151.049 88.0902C150.11 87.5952 149.266 86.9809 148.398 86.3702C147.696 85.9304 147.006 85.6288 146.233 85.342C146.351 85.1901 146.468 85.0381 146.59 84.8816C146.747 84.6757 146.903 84.4698 147.065 84.2576C147.219 84.0564 147.374 83.8551 147.533 83.6477C149.086 81.3634 149.15 79.3842 148.896 76.6673C148.417 74.7913 147.217 73.5277 145.641 72.4795C143.881 71.4806 142.002 71.2893 140.019 71.5821C137.49 72.4097 136.014 73.8699 134.73 76.1625C134.04 78.4478 134.253 80.3708 135.199 82.5482C135.787 83.6274 136.515 84.4529 137.356 85.342C137.127 85.4472 136.898 85.5525 136.663 85.661C132.184 87.8069 130.151 90.5413 128.479 95.2132C125.351 92.2568 124.092 88.2914 123.923 84.0536C123.84 79.1677 125.627 74.9257 128.949 71.3881C134.138 66.2781 141.79 64.2915 148.6 67.3943Z" fill="#FCFDFD"/>
<path d="M148.841 89.1373C150.31 90.2765 151.287 91.4727 152.152 93.1195C152.302 93.4029 152.302 93.4029 152.454 93.692C152.993 94.8252 153.3 95.7707 153.039 97.0081C151.022 99.6651 147.012 101.013 143.867 101.495C142.572 101.595 141.315 101.58 140.02 101.495C139.592 101.469 139.592 101.469 139.154 101.442C137.254 101.227 135.673 100.602 133.973 99.7564C133.773 99.6573 133.574 99.5582 133.368 99.4561C132.137 98.8085 131.104 98.1482 130.256 97.0081C130.282 94.4705 131.92 91.9285 133.603 90.1469C138.056 85.9706 143.864 85.7401 148.841 89.1373Z" fill="#C6DFF8"/>
<path d="M167.371 52.6437C169.071 53.6581 170.668 55.2542 171.264 57.1995C171.704 59.4817 171.387 61.5321 170.125 63.4801C169.097 64.8109 167.983 65.7573 166.354 66.1979C164.024 66.4648 161.75 66.5286 159.844 65.0014C158.124 63.3941 157.16 61.6176 157.033 59.2245C157.101 57.157 157.754 55.4242 159.234 53.9676C161.59 52.1045 164.533 51.2963 167.371 52.6437Z" fill="#C6DEF8"/>
<path d="M167.648 100.897C169.454 101.935 170.448 103.301 171.199 105.234C171.628 107.665 171.453 109.545 170.136 111.641C169.041 113.083 167.804 113.914 166.058 114.357C163.795 114.629 161.7 114.613 159.844 113.161C158.259 111.715 157.361 110.083 157.088 107.941C156.981 105.678 157.617 104.165 159.067 102.467C161.627 100.249 164.451 99.4349 167.648 100.897Z" fill="#C7DFF8"/>
<path d="M121.628 100.554C123.748 101.499 124.797 102.922 125.929 104.898C126.492 107.292 126.185 109.549 124.93 111.665C123.498 113.332 122.061 114.187 119.877 114.479C117.46 114.551 115.845 114.162 113.982 112.563C112.663 111.157 112.002 109.637 111.818 107.702C111.988 105.64 112.435 103.537 113.982 102.093C116.335 100.178 118.703 99.6638 121.628 100.554Z" fill="#C6DEF7"/>
<path d="M122.045 52.5688C123.8 53.6152 125.18 55.206 125.966 57.0931C126.316 59.5281 126.166 61.3446 124.93 63.5057C123.295 65.4982 121.357 66.3128 118.864 66.6278C116.714 66.3561 114.895 65.3613 113.39 63.8048C112.266 61.9789 111.738 60.285 111.911 58.1214C112.597 55.5247 113.847 53.8463 116.109 52.4566C118.052 51.9091 120.152 51.7457 122.045 52.5688Z" fill="#C6DEF8"/>
<path d="M169.142 98.8788C171.468 100.327 172.818 102.201 173.751 104.785C174.101 107.914 173.875 110.668 172.066 113.29C170.405 115.362 168.382 116.635 165.762 117.05C162.76 117.338 160.202 116.736 157.828 114.806C155.879 112.924 154.522 110.208 154.426 107.459C154.448 105.533 154.984 103.448 156.321 102.038C156.601 101.769 156.601 101.769 156.885 101.495C157.118 100.855 157.118 100.855 157.181 100.299C157.462 100.255 157.743 100.212 158.032 100.168C158.925 100.05 158.925 100.05 159.548 99.7003C159.548 99.4041 159.548 99.108 159.548 98.8029C162.995 97.3438 165.744 97.1003 169.142 98.8788ZM158.661 102.991C157.282 104.927 156.995 106.332 157.181 108.674C157.608 110.723 158.725 112.285 160.35 113.557C162.12 114.633 164.055 114.632 166.058 114.358C168.264 113.694 169.666 112.48 170.792 110.469C171.634 108.613 171.595 106.82 171.033 104.898C170.213 102.687 168.985 101.548 166.891 100.573C163.655 99.5068 160.831 100.431 158.661 102.991Z" fill="#2D435F"/>
<path d="M143.571 73.9751C145.001 74.6721 146.134 75.6983 146.752 77.2095C146.968 79.1141 146.988 80.4054 145.939 82.0516C144.675 83.5307 143.634 84.144 141.722 84.295C140.065 84.2586 138.849 83.4694 137.654 82.3507C136.6 80.918 136.567 79.6783 136.602 77.9362C136.861 76.404 137.642 75.5087 138.837 74.5734C140.279 73.6494 141.926 73.7945 143.571 73.9751Z" fill="#C8DFF8"/>
<path d="M113.981 113.161C114.447 113.284 114.912 113.412 115.368 113.566C116.589 113.91 117.848 114.044 119.102 114.218C119.899 114.357 119.899 114.357 120.195 114.657C120.789 114.571 121.381 114.471 121.97 114.357C121.775 114.851 121.58 115.345 121.379 115.853C121.672 115.952 121.964 116.05 122.266 116.152C121.003 117.321 119.863 117.178 118.222 117.135C116.396 116.977 115.092 116.58 113.667 115.404C113.094 114.657 113.094 114.657 113.094 113.759C113.387 113.562 113.68 113.364 113.981 113.161Z" fill="#324964"/>
<path d="M132.622 87.7351C132.817 87.8338 133.013 87.9325 133.214 88.0342C133.399 88.8008 133.399 88.8008 133.51 89.5299C133.998 89.3324 134.486 89.135 134.989 88.9316C134.605 89.3666 134.605 89.3666 134.212 89.8103C133.324 90.8529 132.58 91.954 131.851 93.1147C131.461 93.6853 131.052 94.1431 130.551 94.615C130.648 94.1215 130.746 93.6279 130.847 93.1194C130.554 92.922 130.261 92.7246 129.959 92.5212C129.666 93.4096 129.373 94.298 129.071 95.2133C128.974 95.2133 128.876 95.2133 128.775 95.2133C128.946 92.0489 130.518 89.9844 132.622 87.7351Z" fill="#273A56"/>
<path d="M144.459 86.8376C145.82 86.9989 146.787 87.3658 147.973 88.0529C148.259 88.2167 148.545 88.3806 148.84 88.5495C149.161 88.7386 149.161 88.7386 149.489 88.9315C149.684 88.6354 149.88 88.3393 150.081 88.0342C150.969 88.0342 150.969 88.0342 151.653 88.595C152.71 89.7325 153.59 91.1005 154.223 92.5211C154.077 92.9653 154.077 92.9653 153.927 93.4185C153.04 91.6985 153.04 91.6985 153.04 91.0254C152.844 91.0254 152.649 91.0254 152.448 91.0254C152.393 92.2417 152.493 92.9475 153.04 94.0167C152.942 94.3128 152.844 94.609 152.744 94.9141C152.629 94.6939 152.515 94.4737 152.397 94.2469C152.243 93.955 152.089 93.6631 151.93 93.3624C151.779 93.0743 151.628 92.7863 151.472 92.4895C149.878 89.7492 147.354 88.2426 144.459 87.1368C144.459 87.0381 144.459 86.9393 144.459 86.8376Z" fill="#223551"/>
<path d="M166.946 98.2046C169.124 98.5412 170.783 99.7784 172.106 101.532C173.008 102.827 173.544 103.77 173.456 105.384C172.927 104.581 172.509 103.797 172.087 102.935C171.955 102.665 171.823 102.395 171.687 102.118C171.587 101.912 171.488 101.707 171.385 101.495C170.994 101.791 170.603 102.087 170.201 102.392C170.299 102.787 170.396 103.182 170.497 103.589C170.368 103.473 170.239 103.358 170.106 103.238C169.001 102.261 167.891 101.393 166.65 100.598C166.846 100.499 167.041 100.4 167.242 100.298C167.437 100.397 167.633 100.496 167.834 100.598C167.932 100.005 168.029 99.4131 168.13 98.8028C167.739 98.6054 167.349 98.408 166.946 98.2046Z" fill="#253956"/>
<path d="M145.643 85.6411C147.245 85.9024 149.206 86.2524 150.377 87.4359C150.082 88.3313 149.858 88.6167 149.193 89.2306C148.987 89.1046 148.78 88.9785 148.567 88.8486C148.298 88.6847 148.028 88.5208 147.751 88.352C147.349 88.1073 147.349 88.1073 146.939 87.8577C146.515 87.6037 146.084 87.3598 145.643 87.1368C145.643 86.6432 145.643 86.1496 145.643 85.6411Z" fill="#324A64"/>
<path d="M166.65 97.9055C166.748 98.1029 166.846 98.3004 166.946 98.5038C167.141 98.547 167.337 98.5901 167.538 98.6346C167.733 98.6902 167.928 98.7457 168.13 98.8029C168.227 99.099 168.325 99.3952 168.426 99.7003C168.133 100.144 168.133 100.144 167.834 100.598C166.634 100.727 166.192 100.687 165.171 99.9994C164.582 99.8827 163.99 99.7804 163.395 99.7003C163.395 99.6016 163.395 99.5029 163.395 99.4012C164.079 99.4012 164.762 99.4012 165.467 99.4012C165.467 99.2037 165.467 99.0063 165.467 98.8029C164.49 98.7042 163.514 98.6055 162.508 98.5038C162.508 98.4051 162.508 98.3063 162.508 98.2046C163.875 98.1059 165.242 98.0072 166.65 97.9055Z" fill="#364E68"/>
<path d="M152.152 90.7263C153.149 91.0625 153.205 91.1665 153.668 92.0537C153.767 92.2384 153.865 92.4231 153.966 92.6134C154.457 93.5812 154.529 93.8918 154.242 94.9515C154.184 95.1682 154.126 95.3849 154.067 95.6082C154.021 95.774 153.975 95.9398 153.927 96.1106C153.732 96.1106 153.537 96.1106 153.335 96.1106C153.335 95.8145 153.335 95.5183 153.335 95.2132C153.14 95.1145 152.945 95.0158 152.744 94.9141C152.631 94.4187 152.532 93.9196 152.448 93.4185C152.35 93.221 152.252 93.0236 152.152 92.8202C152.14 92.1224 152.139 91.4242 152.152 90.7263Z" fill="#364D68"/>
<path d="M140.611 71.5822C140.318 71.6809 140.025 71.7796 139.723 71.8814C139.723 72.0788 139.723 72.2762 139.723 72.4796C139.455 72.5475 139.186 72.6153 138.91 72.6853C137.805 73.1364 137.463 73.624 136.765 74.5735C136.472 74.6722 136.179 74.7709 135.877 74.8726C135.371 75.77 135.371 75.77 134.989 76.6674C134.892 76.3713 134.794 76.0751 134.693 75.77C135.882 73.5168 137.962 71.4334 140.611 71.5822Z" fill="#1E2E4A"/>
<path d="M171.088 101.196C171.381 101.492 171.674 101.788 171.976 102.093C171.878 102.321 171.78 102.55 171.68 102.785C171.332 103.586 171.332 103.586 171.384 104.486C171.286 104.782 171.188 105.078 171.088 105.384C170.697 104.298 170.307 103.212 169.904 102.093C170.295 101.994 170.685 101.896 171.088 101.794C171.088 101.597 171.088 101.399 171.088 101.196Z" fill="#2C445E"/>
<path d="M173.751 58.1213C173.849 58.1213 173.946 58.1213 174.047 58.1213C174.113 58.7378 174.173 59.3549 174.232 59.9722C174.266 60.3158 174.3 60.6593 174.336 61.0133C174.343 62.02 174.187 62.6119 173.751 63.5056C173.458 63.4069 173.165 63.3082 172.863 63.2065C172.955 62.9782 173.046 62.75 173.141 62.5148C173.555 61.0608 173.65 59.6264 173.751 58.1213Z" fill="#F1EBD1"/>
<path d="M129.959 91.9229C130.35 92.219 130.74 92.5151 131.143 92.8202C130.947 93.4125 130.752 94.0048 130.551 94.615C130.16 94.4176 129.77 94.2202 129.367 94.0167C129.626 92.5959 129.626 92.5959 129.959 91.9229Z" fill="#385069"/>
<path d="M154.518 56.0276C154.713 56.0276 154.908 56.0276 155.11 56.0276C154.914 57.7057 154.719 59.3838 154.518 61.1128C154.42 61.1128 154.322 61.1128 154.222 61.1128C154.156 60.4339 154.096 59.7545 154.037 59.075C154.003 58.6967 153.968 58.3184 153.933 57.9287C153.926 56.925 153.926 56.925 154.518 56.0276Z" fill="#F8F6DF"/>
<path d="M122.857 90.4272C122.937 90.6185 123.016 90.8098 123.098 91.0068C123.416 91.7229 123.416 91.7229 124.337 91.9229C124.38 92.145 124.422 92.3671 124.466 92.5959C124.604 93.275 124.757 93.9443 124.929 94.615C124.238 93.9752 123.808 93.3687 123.394 92.5211C123.292 92.3175 123.19 92.114 123.085 91.9042C122.857 91.3246 122.857 91.3246 122.857 90.4272Z" fill="#18284A"/>
<path d="M125.225 69.4883C125.957 69.6363 125.957 69.6363 126.704 69.7874C126.299 70.733 126.116 70.9817 125.225 71.5822C125.225 70.8912 125.225 70.2002 125.225 69.4883Z" fill="#F8F1D9"/>
<path d="M173.751 106.58C173.848 106.975 173.946 107.37 174.047 107.777C174.242 107.777 174.437 107.777 174.638 107.777C174.675 108.637 174.675 108.637 174.638 109.571C174.443 109.769 174.248 109.966 174.047 110.17C173.756 108.957 173.727 107.825 173.751 106.58Z" fill="#F2E7C8"/>
<path d="M155.405 102.392C155.601 102.491 155.796 102.59 155.997 102.691C155.558 103.728 155.558 103.728 155.11 104.785C154.914 104.785 154.719 104.785 154.518 104.785C154.409 103.423 154.409 103.423 154.962 102.748C155.108 102.63 155.255 102.513 155.405 102.392Z" fill="#E4E1CD"/>
<path d="M140.611 71.5821C140.318 71.6808 140.025 71.7795 139.724 71.8812C139.724 72.0787 139.724 72.2761 139.724 72.4795C139.04 72.5782 138.357 72.6769 137.652 72.7786C138.64 71.7343 139.177 71.5439 140.611 71.5821Z" fill="#162541"/>
</svg>
