<svg width="199" height="15" viewBox="0 0 199 15" fill="none" xmlns="http://www.w3.org/2000/svg">
<path d="M1.05682 12V3.27273H4.00568C4.69034 3.27273 5.25 3.39631 5.68466 3.64347C6.12216 3.88778 6.44602 4.21875 6.65625 4.63636C6.86648 5.05398 6.97159 5.51989 6.97159 6.03409C6.97159 6.5483 6.86648 7.01562 6.65625 7.43608C6.44886 7.85653 6.12784 8.19176 5.69318 8.44176C5.25852 8.68892 4.7017 8.8125 4.02273 8.8125H1.90909V7.875H3.98864C4.45739 7.875 4.83381 7.79403 5.1179 7.6321C5.40199 7.47017 5.60795 7.25142 5.7358 6.97585C5.86648 6.69744 5.93182 6.38352 5.93182 6.03409C5.93182 5.68466 5.86648 5.37216 5.7358 5.09659C5.60795 4.82102 5.40057 4.60511 5.11364 4.44886C4.8267 4.28977 4.44602 4.21023 3.97159 4.21023H2.11364V12H1.05682ZM8.53764 12V5.45455H9.50923V6.44318H9.57741C9.69673 6.11932 9.91264 5.85653 10.2251 5.65483C10.5376 5.45312 10.8899 5.35227 11.282 5.35227C11.3558 5.35227 11.4482 5.35369 11.5589 5.35653C11.6697 5.35937 11.7536 5.36364 11.8104 5.36932V6.39205C11.7763 6.38352 11.6982 6.37074 11.576 6.35369C11.4567 6.33381 11.3303 6.32386 11.1967 6.32386C10.8786 6.32386 10.5945 6.39062 10.3445 6.52415C10.0973 6.65483 9.90128 6.83665 9.75639 7.0696C9.61435 7.29972 9.54332 7.5625 9.54332 7.85795V12H8.53764ZM15.4624 12.1364C14.8714 12.1364 14.353 11.9957 13.907 11.7145C13.4638 11.4332 13.1172 11.0398 12.8672 10.5341C12.62 10.0284 12.4964 9.4375 12.4964 8.76136C12.4964 8.07955 12.62 7.48437 12.8672 6.97585C13.1172 6.46733 13.4638 6.07244 13.907 5.79119C14.353 5.50994 14.8714 5.36932 15.4624 5.36932C16.0533 5.36932 16.5703 5.50994 17.0135 5.79119C17.4595 6.07244 17.8061 6.46733 18.0533 6.97585C18.3033 7.48437 18.4283 8.07955 18.4283 8.76136C18.4283 9.4375 18.3033 10.0284 18.0533 10.5341C17.8061 11.0398 17.4595 11.4332 17.0135 11.7145C16.5703 11.9957 16.0533 12.1364 15.4624 12.1364ZM15.4624 11.233C15.9112 11.233 16.2805 11.1179 16.5703 10.8878C16.8601 10.6577 17.0746 10.3551 17.2138 9.98011C17.353 9.60511 17.4226 9.19886 17.4226 8.76136C17.4226 8.32386 17.353 7.91619 17.2138 7.53835C17.0746 7.16051 16.8601 6.85511 16.5703 6.62216C16.2805 6.3892 15.9112 6.27273 15.4624 6.27273C15.0135 6.27273 14.6442 6.3892 14.3544 6.62216C14.0646 6.85511 13.8501 7.16051 13.7109 7.53835C13.5717 7.91619 13.5021 8.32386 13.5021 8.76136C13.5021 9.19886 13.5717 9.60511 13.7109 9.98011C13.8501 10.3551 14.0646 10.6577 14.3544 10.8878C14.6442 11.1179 15.0135 11.233 15.4624 11.233ZM24.0884 9.32386V5.45455H25.0941V12H24.0884V10.892H24.0202C23.8668 11.2244 23.6282 11.5071 23.3043 11.7401C22.9805 11.9702 22.5714 12.0852 22.0771 12.0852C21.668 12.0852 21.3043 11.9957 20.9862 11.8168C20.668 11.6349 20.418 11.3622 20.2362 10.9986C20.0543 10.6321 19.9634 10.1705 19.9634 9.61364V5.45455H20.9691V9.54545C20.9691 10.0227 21.1026 10.4034 21.3697 10.6875C21.6396 10.9716 21.9833 11.1136 22.4009 11.1136C22.6509 11.1136 22.9052 11.0497 23.1637 10.9219C23.4251 10.794 23.6438 10.598 23.82 10.3338C23.9989 10.0696 24.0884 9.73295 24.0884 9.32386ZM29.4077 12.1364C28.8622 12.1364 28.3807 11.9986 27.9631 11.723C27.5455 11.4446 27.2188 11.0526 26.983 10.5469C26.7472 10.0384 26.6293 9.4375 26.6293 8.74432C26.6293 8.05682 26.7472 7.46023 26.983 6.95455C27.2188 6.44886 27.5469 6.05824 27.9673 5.78267C28.3878 5.5071 28.8736 5.36932 29.4247 5.36932C29.8509 5.36932 30.1875 5.44034 30.4347 5.58239C30.6847 5.72159 30.875 5.88068 31.0057 6.05966C31.1392 6.2358 31.2429 6.38068 31.3168 6.49432H31.402V3.27273H32.4077V12H31.4361V10.9943H31.3168C31.2429 11.1136 31.1378 11.2642 31.0014 11.446C30.8651 11.625 30.6705 11.7855 30.4176 11.9276C30.1648 12.0668 29.8281 12.1364 29.4077 12.1364ZM29.544 11.233C29.9474 11.233 30.2884 11.1278 30.5668 10.9176C30.8452 10.7045 31.0568 10.4105 31.2017 10.0355C31.3466 9.65767 31.419 9.22159 31.419 8.72727C31.419 8.23864 31.348 7.81108 31.206 7.4446C31.0639 7.07528 30.8537 6.78835 30.5753 6.58381C30.2969 6.37642 29.9531 6.27273 29.544 6.27273C29.1179 6.27273 28.7628 6.3821 28.4787 6.60085C28.1974 6.81676 27.9858 7.1108 27.8438 7.48295C27.7045 7.85227 27.6349 8.26705 27.6349 8.72727C27.6349 9.19318 27.706 9.61648 27.848 9.99716C27.9929 10.375 28.206 10.6761 28.4872 10.9006C28.7713 11.1222 29.1236 11.233 29.544 11.233ZM35.3949 3.27273V12H34.3892V3.27273H35.3949ZM37.8846 14.4545C37.7141 14.4545 37.5621 14.4403 37.4286 14.4119C37.2951 14.3864 37.2028 14.3608 37.1516 14.3352L37.4073 13.4489C37.6516 13.5114 37.8675 13.5341 38.055 13.517C38.2425 13.5 38.4087 13.4162 38.5536 13.2656C38.7013 13.1179 38.8363 12.8778 38.9585 12.5455L39.146 12.0341L36.7255 5.45455H37.8164L39.6232 10.6705H39.6914L41.4982 5.45455H42.5891L39.8107 12.9545C39.6857 13.2926 39.5309 13.5724 39.3462 13.794C39.1616 14.0185 38.9471 14.1847 38.7028 14.2926C38.4613 14.4006 38.1886 14.4545 37.8846 14.4545ZM47.2915 14.4545V5.45455H48.2631V6.49432H48.3825C48.4563 6.38068 48.5586 6.2358 48.6893 6.05966C48.8228 5.88068 49.0131 5.72159 49.2603 5.58239C49.5103 5.44034 49.8484 5.36932 50.2745 5.36932C50.8256 5.36932 51.3114 5.5071 51.7319 5.78267C52.1523 6.05824 52.4805 6.44886 52.7163 6.95455C52.9521 7.46023 53.07 8.05682 53.07 8.74432C53.07 9.4375 52.9521 10.0384 52.7163 10.5469C52.4805 11.0526 52.1538 11.4446 51.7362 11.723C51.3185 11.9986 50.837 12.1364 50.2915 12.1364C49.8711 12.1364 49.5344 12.0668 49.2816 11.9276C49.0288 11.7855 48.8342 11.625 48.6978 11.446C48.5614 11.2642 48.4563 11.1136 48.3825 10.9943H48.2972V14.4545H47.2915ZM48.2802 8.72727C48.2802 9.22159 48.3526 9.65767 48.4975 10.0355C48.6424 10.4105 48.854 10.7045 49.1325 10.9176C49.4109 11.1278 49.7518 11.233 50.1552 11.233C50.5756 11.233 50.9265 11.1222 51.2077 10.9006C51.4918 10.6761 51.7049 10.375 51.8469 9.99716C51.9918 9.61648 52.0643 9.19318 52.0643 8.72727C52.0643 8.26705 51.9933 7.85227 51.8512 7.48295C51.712 7.1108 51.5004 6.81676 51.2163 6.60085C50.935 6.3821 50.5813 6.27273 50.1552 6.27273C49.7461 6.27273 49.4023 6.37642 49.1239 6.58381C48.8455 6.78835 48.6353 7.07528 48.4933 7.4446C48.3512 7.81108 48.2802 8.23864 48.2802 8.72727ZM57.2631 12.1364C56.6722 12.1364 56.1538 11.9957 55.7077 11.7145C55.2646 11.4332 54.918 11.0398 54.668 10.5341C54.4208 10.0284 54.2972 9.4375 54.2972 8.76136C54.2972 8.07955 54.4208 7.48437 54.668 6.97585C54.918 6.46733 55.2646 6.07244 55.7077 5.79119C56.1538 5.50994 56.6722 5.36932 57.2631 5.36932C57.854 5.36932 58.3711 5.50994 58.8143 5.79119C59.2603 6.07244 59.6069 6.46733 59.854 6.97585C60.104 7.48437 60.229 8.07955 60.229 8.76136C60.229 9.4375 60.104 10.0284 59.854 10.5341C59.6069 11.0398 59.2603 11.4332 58.8143 11.7145C58.3711 11.9957 57.854 12.1364 57.2631 12.1364ZM57.2631 11.233C57.712 11.233 58.0813 11.1179 58.3711 10.8878C58.6609 10.6577 58.8754 10.3551 59.0146 9.98011C59.1538 9.60511 59.2234 9.19886 59.2234 8.76136C59.2234 8.32386 59.1538 7.91619 59.0146 7.53835C58.8754 7.16051 58.6609 6.85511 58.3711 6.62216C58.0813 6.3892 57.712 6.27273 57.2631 6.27273C56.8143 6.27273 56.445 6.3892 56.1552 6.62216C55.8654 6.85511 55.6509 7.16051 55.5117 7.53835C55.3725 7.91619 55.3029 8.32386 55.3029 8.76136C55.3029 9.19886 55.3725 9.60511 55.5117 9.98011C55.6509 10.3551 55.8654 10.6577 56.1552 10.8878C56.445 11.1179 56.8143 11.233 57.2631 11.233ZM63.0245 12L61.0302 5.45455H62.087L63.5018 10.4659H63.57L64.9677 5.45455H66.0415L67.4222 10.4489H67.4904L68.9052 5.45455H69.962L67.9677 12H66.979L65.5472 6.97159H65.445L64.0131 12H63.0245ZM73.8132 12.1364C73.1825 12.1364 72.6385 11.9972 72.1811 11.7188C71.7266 11.4375 71.3757 11.0455 71.1286 10.5426C70.8842 10.0369 70.7621 9.44886 70.7621 8.77841C70.7621 8.10795 70.8842 7.51705 71.1286 7.00568C71.3757 6.49148 71.7195 6.09091 72.1598 5.80398C72.603 5.5142 73.12 5.36932 73.7109 5.36932C74.0518 5.36932 74.3885 5.42614 74.7209 5.53977C75.0533 5.65341 75.3558 5.83807 75.6286 6.09375C75.9013 6.34659 76.1186 6.68182 76.2805 7.09943C76.4425 7.51705 76.5234 8.03125 76.5234 8.64205V9.06818H71.478V8.19886H75.5007C75.5007 7.82955 75.4268 7.5 75.2791 7.21023C75.1342 6.92045 74.9268 6.69176 74.657 6.52415C74.3899 6.35653 74.0746 6.27273 73.7109 6.27273C73.3104 6.27273 72.9638 6.37216 72.6712 6.57102C72.3814 6.76705 72.1584 7.02273 72.0021 7.33807C71.8459 7.65341 71.7678 7.99148 71.7678 8.35227V8.93182C71.7678 9.42614 71.853 9.84517 72.0234 10.1889C72.1967 10.5298 72.4368 10.7898 72.7436 10.9688C73.0504 11.1449 73.407 11.233 73.8132 11.233C74.0774 11.233 74.3161 11.196 74.5291 11.1222C74.745 11.0455 74.9311 10.9318 75.0874 10.7812C75.2436 10.6278 75.3643 10.4375 75.4496 10.2102L76.4212 10.483C76.3189 10.8125 76.147 11.1023 75.9055 11.3523C75.6641 11.5994 75.3658 11.7926 75.0107 11.9318C74.6555 12.0682 74.2564 12.1364 73.8132 12.1364ZM78.0533 12V5.45455H79.0249V6.44318H79.093C79.2124 6.11932 79.4283 5.85653 79.7408 5.65483C80.0533 5.45312 80.4055 5.35227 80.7976 5.35227C80.8714 5.35227 80.9638 5.35369 81.0746 5.35653C81.1854 5.35937 81.2692 5.36364 81.326 5.36932V6.39205C81.2919 6.38352 81.2138 6.37074 81.0916 6.35369C80.9723 6.33381 80.8459 6.32386 80.7124 6.32386C80.3942 6.32386 80.1101 6.39062 79.8601 6.52415C79.6129 6.65483 79.4169 6.83665 79.272 7.0696C79.13 7.29972 79.0589 7.5625 79.0589 7.85795V12H78.0533ZM85.0632 12.1364C84.4325 12.1364 83.8885 11.9972 83.4311 11.7188C82.9766 11.4375 82.6257 11.0455 82.3786 10.5426C82.1342 10.0369 82.0121 9.44886 82.0121 8.77841C82.0121 8.10795 82.1342 7.51705 82.3786 7.00568C82.6257 6.49148 82.9695 6.09091 83.4098 5.80398C83.853 5.5142 84.37 5.36932 84.9609 5.36932C85.3018 5.36932 85.6385 5.42614 85.9709 5.53977C86.3033 5.65341 86.6058 5.83807 86.8786 6.09375C87.1513 6.34659 87.3686 6.68182 87.5305 7.09943C87.6925 7.51705 87.7734 8.03125 87.7734 8.64205V9.06818H82.728V8.19886H86.7507C86.7507 7.82955 86.6768 7.5 86.5291 7.21023C86.3842 6.92045 86.1768 6.69176 85.907 6.52415C85.6399 6.35653 85.3246 6.27273 84.9609 6.27273C84.5604 6.27273 84.2138 6.37216 83.9212 6.57102C83.6314 6.76705 83.4084 7.02273 83.2521 7.33807C83.0959 7.65341 83.0178 7.99148 83.0178 8.35227V8.93182C83.0178 9.42614 83.103 9.84517 83.2734 10.1889C83.4467 10.5298 83.6868 10.7898 83.9936 10.9688C84.3004 11.1449 84.657 11.233 85.0632 11.233C85.3274 11.233 85.5661 11.196 85.7791 11.1222C85.995 11.0455 86.1811 10.9318 86.3374 10.7812C86.4936 10.6278 86.6143 10.4375 86.6996 10.2102L87.6712 10.483C87.5689 10.8125 87.397 11.1023 87.1555 11.3523C86.9141 11.5994 86.6158 11.7926 86.2607 11.9318C85.9055 12.0682 85.5064 12.1364 85.0632 12.1364ZM91.7749 12.1364C91.2294 12.1364 90.7479 11.9986 90.3303 11.723C89.9126 11.4446 89.5859 11.0526 89.3501 10.5469C89.1143 10.0384 88.9964 9.4375 88.9964 8.74432C88.9964 8.05682 89.1143 7.46023 89.3501 6.95455C89.5859 6.44886 89.9141 6.05824 90.3345 5.78267C90.755 5.5071 91.2408 5.36932 91.7919 5.36932C92.218 5.36932 92.5547 5.44034 92.8018 5.58239C93.0518 5.72159 93.2422 5.88068 93.3729 6.05966C93.5064 6.2358 93.6101 6.38068 93.6839 6.49432H93.7692V3.27273H94.7749V12H93.8033V10.9943H93.6839C93.6101 11.1136 93.505 11.2642 93.3686 11.446C93.2322 11.625 93.0376 11.7855 92.7848 11.9276C92.532 12.0668 92.1953 12.1364 91.7749 12.1364ZM91.9112 11.233C92.3146 11.233 92.6555 11.1278 92.9339 10.9176C93.2124 10.7045 93.424 10.4105 93.5689 10.0355C93.7138 9.65767 93.7862 9.22159 93.7862 8.72727C93.7862 8.23864 93.7152 7.81108 93.5732 7.4446C93.4311 7.07528 93.2209 6.78835 92.9425 6.58381C92.6641 6.37642 92.3203 6.27273 91.9112 6.27273C91.4851 6.27273 91.13 6.3821 90.8459 6.60085C90.5646 6.81676 90.353 7.1108 90.2109 7.48295C90.0717 7.85227 90.0021 8.26705 90.0021 8.72727C90.0021 9.19318 90.0732 9.61648 90.2152 9.99716C90.3601 10.375 90.5732 10.6761 90.8544 10.9006C91.1385 11.1222 91.4908 11.233 91.9112 11.233ZM100.268 12V3.27273H101.273V6.49432H101.359C101.433 6.38068 101.535 6.2358 101.665 6.05966C101.799 5.88068 101.989 5.72159 102.237 5.58239C102.487 5.44034 102.825 5.36932 103.251 5.36932C103.802 5.36932 104.288 5.5071 104.708 5.78267C105.129 6.05824 105.457 6.44886 105.692 6.95455C105.928 7.46023 106.046 8.05682 106.046 8.74432C106.046 9.4375 105.928 10.0384 105.692 10.5469C105.457 11.0526 105.13 11.4446 104.712 11.723C104.295 11.9986 103.813 12.1364 103.268 12.1364C102.847 12.1364 102.511 12.0668 102.258 11.9276C102.005 11.7855 101.81 11.625 101.674 11.446C101.538 11.2642 101.433 11.1136 101.359 10.9943H101.239V12H100.268ZM101.256 8.72727C101.256 9.22159 101.329 9.65767 101.474 10.0355C101.619 10.4105 101.83 10.7045 102.109 10.9176C102.387 11.1278 102.728 11.233 103.131 11.233C103.552 11.233 103.903 11.1222 104.184 10.9006C104.468 10.6761 104.681 10.375 104.823 9.99716C104.968 9.61648 105.04 9.19318 105.04 8.72727C105.04 8.26705 104.969 7.85227 104.827 7.48295C104.688 7.1108 104.477 6.81676 104.192 6.60085C103.911 6.3821 103.558 6.27273 103.131 6.27273C102.722 6.27273 102.379 6.37642 102.1 6.58381C101.822 6.78835 101.612 7.07528 101.469 7.4446C101.327 7.81108 101.256 8.23864 101.256 8.72727ZM107.998 14.4545C107.827 14.4545 107.675 14.4403 107.542 14.4119C107.408 14.3864 107.316 14.3608 107.265 14.3352L107.521 13.4489C107.765 13.5114 107.981 13.5341 108.168 13.517C108.356 13.5 108.522 13.4162 108.667 13.2656C108.815 13.1179 108.95 12.8778 109.072 12.5455L109.259 12.0341L106.839 5.45455H107.93L109.737 10.6705H109.805L111.612 5.45455H112.702L109.924 12.9545C109.799 13.2926 109.644 13.5724 109.46 13.794C109.275 14.0185 109.06 14.1847 108.816 14.2926C108.575 14.4006 108.302 14.4545 107.998 14.4545Z" fill="white"/>
<g clip-path="url(#clip0_170_3)" filter="url(#filter0_i_170_3)">
<path d="M121.327 0.21814V5.05319H131.373V14.7665H136.372V0.21814H121.327Z" fill="#993F90"/>
<path d="M124.182 12.0069V8.46326L121.327 6.4762V14.7665H129.901L127.847 12.0069H124.182Z" fill="#624198"/>
<path d="M141.668 8.63624H145.076V10.2274H139.589V0.21814H141.668V8.63624Z" fill="#624198"/>
<path d="M147.497 9.84789C146.869 9.51359 146.352 9.01378 146.006 8.4066C145.635 7.74729 145.449 7.00571 145.465 6.25523C145.449 5.50333 145.641 4.76101 146.021 4.10482C146.378 3.49612 146.904 2.99668 147.541 2.66353C148.205 2.32899 148.942 2.1543 149.691 2.1543C150.44 2.1543 151.177 2.32899 151.841 2.66353C152.478 2.99662 153.004 3.49606 153.361 4.10482C153.741 4.76101 153.933 5.50333 153.918 6.25523C153.934 7.00928 153.736 7.75314 153.347 8.4066C152.98 9.01544 152.446 9.51428 151.804 9.84789C151.136 10.1921 150.389 10.3673 149.632 10.3571C148.887 10.3681 148.151 10.1926 147.497 9.84789ZM150.692 8.34222C151.032 8.15779 151.308 7.88121 151.487 7.54663C151.697 7.14698 151.799 6.70301 151.785 6.25523C151.785 5.50127 151.58 4.92059 151.169 4.51319C150.976 4.31613 150.742 4.16019 150.483 4.05531C150.224 3.95042 149.945 3.8989 149.664 3.904C149.385 3.89786 149.108 3.94898 148.851 4.05399C148.594 4.159 148.363 4.31551 148.174 4.51319C147.776 4.91995 147.576 5.50063 147.572 6.25523C147.569 7.00983 147.764 7.59083 148.159 7.99823C148.345 8.19628 148.573 8.35321 148.828 8.45833C149.082 8.56345 149.357 8.6143 149.634 8.60742C150.005 8.60813 150.369 8.51681 150.692 8.34222Z" fill="#624198"/>
<path d="M155.209 4.09039C155.511 3.49977 155.979 3.00283 156.558 2.65582C157.132 2.32041 157.791 2.14669 158.461 2.15425C159.02 2.14218 159.573 2.26539 160.07 2.51265C160.503 2.72989 160.881 3.03856 161.175 3.41586V2.28301H163.266V10.2274H161.178V9.06668C160.892 9.45673 160.513 9.77444 160.073 9.99295C159.572 10.2442 159.013 10.3701 158.449 10.359C157.782 10.365 157.126 10.1856 156.561 9.8421C155.982 9.48599 155.515 8.98273 155.212 8.38736C154.87 7.71668 154.7 6.97667 154.715 6.22926C154.699 5.48825 154.868 4.75449 155.209 4.09039ZM160.882 5.00128C160.698 4.66605 160.42 4.38764 160.081 4.198C159.752 4.01345 159.378 3.91694 158.998 3.91839C158.623 3.91539 158.255 4.00927 157.93 4.19031C157.595 4.38065 157.32 4.65613 157.135 4.98687C156.925 5.36794 156.82 5.79543 156.832 6.22734C156.823 6.66178 156.927 7.09153 157.135 7.47646C157.32 7.81661 157.597 8.10188 157.936 8.30184C158.256 8.49033 158.622 8.59007 158.997 8.5901C159.377 8.59155 159.751 8.49504 160.08 8.31049C160.419 8.12084 160.697 7.84244 160.881 7.50721C161.088 7.1201 161.191 6.68829 161.179 6.25232C161.191 5.81773 161.088 5.38732 160.882 5.00128Z" fill="#624198"/>
<path d="M171.919 3.06514C172.521 3.66279 172.823 4.49554 172.823 5.56338V10.2236H170.747V5.8401C170.747 5.2085 170.584 4.72326 170.258 4.3844C169.931 4.04554 169.486 3.87578 168.923 3.87514C168.349 3.87514 167.897 4.04489 167.566 4.3844C167.235 4.7239 167.069 5.20914 167.069 5.8401V10.2274H164.992V2.283H167.069V3.27268C167.35 2.92477 167.714 2.64704 168.129 2.46268C168.573 2.26385 169.056 2.16339 169.545 2.16865C170.525 2.16865 171.316 2.46748 171.919 3.06514Z" fill="#624198"/>
<path d="M180.38 0.21814V1.83911H177.621V10.2274H175.545V1.83911H172.787V0.21814H180.38Z" fill="#993F90"/>
<path d="M180.421 4.09037C180.723 3.49955 181.19 3.00253 181.77 2.6558C182.344 2.31978 183.005 2.14603 183.676 2.15424C184.235 2.14229 184.788 2.26549 185.285 2.51264C185.718 2.73012 186.096 3.03875 186.39 3.41585V2.28299H188.476V10.2274H186.39V9.06667C186.102 9.45649 185.723 9.77411 185.283 9.99294C184.782 10.2442 184.223 10.3701 183.659 10.359C182.991 10.3652 182.336 10.1858 181.771 9.84208C181.191 9.48589 180.724 8.98185 180.421 8.38542C180.079 7.71489 179.908 6.97478 179.924 6.22732C179.909 5.48668 180.079 4.7535 180.421 4.09037ZM186.092 5.00127C185.91 4.6668 185.635 4.38848 185.298 4.19799C184.969 4.01356 184.595 3.91706 184.214 3.91838C183.84 3.91537 183.472 4.00926 183.147 4.1903C182.812 4.38036 182.537 4.65591 182.352 4.98685C182.141 5.36785 182.037 5.79533 182.048 6.22732C182.039 6.66185 182.143 7.0916 182.352 7.47644C182.537 7.8166 182.814 8.10187 183.153 8.30182C183.472 8.49041 183.839 8.59016 184.213 8.59008C184.591 8.59108 184.962 8.49562 185.29 8.31335C185.627 8.12286 185.903 7.84454 186.084 7.51007C186.292 7.12297 186.395 6.69115 186.383 6.25519C186.397 5.82004 186.296 5.3886 186.09 5.00127H186.092Z" fill="#993F90"/>
<path d="M193.384 2.52034C193.88 2.27002 194.433 2.14415 194.993 2.15425C195.664 2.14605 196.324 2.3198 196.898 2.65582C197.476 3.0011 197.944 3.49517 198.248 4.0827C198.59 4.74818 198.761 5.48412 198.745 6.22734C198.76 6.97475 198.589 7.71476 198.248 8.38543C197.945 8.98103 197.478 9.48437 196.898 9.84018C196.328 10.1857 195.666 10.3651 194.993 10.3571C194.44 10.3674 193.894 10.2442 193.403 9.99872C192.966 9.77882 192.584 9.4704 192.283 9.09455V14.0132H190.203V2.28301H192.279V3.43027C192.569 3.04781 192.947 2.7362 193.384 2.52034ZM196.319 4.98687C196.135 4.6556 195.86 4.37995 195.524 4.19031C195.197 4.0098 194.826 3.916 194.449 3.91839C194.076 3.91765 193.71 4.01425 193.389 4.198C193.05 4.392 192.773 4.67219 192.588 5.00801C192.377 5.39224 192.273 5.82242 192.284 6.25713C192.273 6.69183 192.377 7.122 192.588 7.50625C192.773 7.84207 193.05 8.12225 193.389 8.31625C193.713 8.49998 194.082 8.59603 194.458 8.59434C194.834 8.59265 195.202 8.49328 195.524 8.30664C195.86 8.10758 196.134 7.82524 196.319 7.48895C196.53 7.1005 196.635 6.66611 196.623 6.22734C196.635 5.79535 196.53 5.36786 196.319 4.98687Z" fill="#993F90"/>
<path d="M141.141 12.1069V12.3951H139.949V13.2907H140.918V13.5731H139.949V14.7704H139.59V12.1069H141.141Z" fill="#564C58"/>
<path d="M141.801 13.1504C141.885 12.994 142.013 12.8637 142.17 12.7747C142.328 12.6857 142.509 12.6398 142.692 12.6421C142.865 12.6371 143.037 12.678 143.189 12.7602C143.319 12.8298 143.427 12.9325 143.501 13.0572V12.6728H143.863V14.7627H143.497V14.3783C143.42 14.5051 143.311 14.6099 143.179 14.682C143.029 14.7642 142.86 14.8057 142.688 14.8021C142.504 14.8043 142.324 14.7565 142.167 14.664C142.01 14.5716 141.883 14.4383 141.801 14.2794C141.71 14.1048 141.664 13.9111 141.667 13.7153C141.663 13.5191 141.709 13.3249 141.801 13.1504ZM143.398 13.3051C143.337 13.1932 143.245 13.1 143.132 13.036C143.02 12.9755 142.893 12.9438 142.764 12.9438C142.636 12.9438 142.509 12.9755 142.397 13.036C142.284 13.0991 142.193 13.1918 142.132 13.3031C142.064 13.4303 142.03 13.5721 142.033 13.7153C142.03 13.8602 142.064 14.0035 142.132 14.1324C142.192 14.2449 142.284 14.3389 142.397 14.4033C142.508 14.4669 142.634 14.5001 142.763 14.4994C142.893 14.4998 143.02 14.4667 143.132 14.4033C143.245 14.3388 143.337 14.245 143.398 14.1324C143.463 14.0038 143.497 13.8627 143.497 13.7197C143.497 13.5767 143.463 13.4355 143.398 13.307V13.3051Z" fill="#564C58"/>
<path d="M145.089 14.7175C144.966 14.6693 144.858 14.5904 144.778 14.4888C144.701 14.3912 144.657 14.2737 144.651 14.1516H145.022C145.027 14.2023 145.043 14.2515 145.069 14.2956C145.095 14.3398 145.131 14.3778 145.174 14.4072C145.279 14.4765 145.404 14.5103 145.531 14.5033C145.645 14.5096 145.759 14.4788 145.854 14.4158C145.89 14.3909 145.92 14.3578 145.941 14.3193C145.961 14.2809 145.972 14.2381 145.972 14.1948C145.974 14.1525 145.963 14.1107 145.94 14.0744C145.918 14.038 145.885 14.0088 145.846 13.9902C145.721 13.9319 145.59 13.8877 145.455 13.8585C145.32 13.8268 145.187 13.7854 145.058 13.7346C144.957 13.6931 144.868 13.6292 144.797 13.5482C144.729 13.4589 144.691 13.351 144.689 13.2397C144.688 13.1284 144.722 13.0195 144.788 12.9284C144.86 12.835 144.957 12.762 145.068 12.717C145.199 12.6633 145.34 12.6367 145.482 12.6392C145.69 12.6297 145.896 12.6917 146.061 12.8141C146.135 12.8727 146.194 12.9461 146.234 13.029C146.275 13.112 146.297 13.2026 146.298 13.2945H145.941C145.939 13.2438 145.926 13.1941 145.902 13.1487C145.879 13.1033 145.846 13.0632 145.805 13.0312C145.711 12.9701 145.601 12.936 145.488 12.9326C145.375 12.9292 145.263 12.9567 145.165 13.012C145.129 13.035 145.1 13.0663 145.08 13.1031C145.06 13.1398 145.049 13.1808 145.05 13.2224C145.049 13.2537 145.055 13.2848 145.067 13.3139C145.079 13.343 145.097 13.3694 145.119 13.3915C145.169 13.439 145.228 13.4754 145.293 13.4982C145.363 13.5251 145.459 13.5549 145.582 13.5885C145.711 13.6206 145.838 13.6607 145.961 13.7086C146.058 13.7475 146.144 13.8081 146.211 13.8854C146.284 13.9728 146.323 14.0825 146.32 14.1948C146.321 14.3051 146.286 14.413 146.22 14.5033C146.15 14.5986 146.054 14.6731 145.942 14.7185C145.812 14.7728 145.672 14.7996 145.531 14.7973C145.379 14.8 145.229 14.7728 145.089 14.7175Z" fill="#564C58"/>
<path d="M147.556 12.962V14.1939C147.548 14.2714 147.572 14.3489 147.623 14.4091C147.69 14.4572 147.773 14.4795 147.856 14.4716H148.12V14.7656H147.796C147.635 14.7776 147.474 14.7299 147.347 14.632C147.248 14.5427 147.197 14.3966 147.197 14.1939V12.962H146.918V12.6738H147.197V12.1482H147.556V12.6738H148.12V12.962H147.556Z" fill="#564C58"/>
<path d="M149.278 14.338V14.7655H148.849V14.338H149.278Z" fill="#564C58"/>
<path d="M153.086 12.1069V12.3951H151.894V13.2907H152.864V13.5731H151.894V14.7704H151.535V12.1069H153.086Z" fill="#564C58"/>
<path d="M154.152 11.9435V14.7655H153.791V11.9435H154.152Z" fill="#564C58"/>
<path d="M157.043 13.8508H155.316C155.316 13.9388 155.335 14.0258 155.371 14.1067C155.406 14.1876 155.458 14.2608 155.524 14.3219C155.589 14.383 155.666 14.4308 155.751 14.4625C155.836 14.4941 155.927 14.509 156.018 14.5061C156.155 14.5112 156.291 14.4746 156.406 14.4014C156.509 14.3332 156.586 14.2348 156.626 14.1208H157.011C156.957 14.3175 156.834 14.4904 156.665 14.6109C156.477 14.7425 156.249 14.8101 156.018 14.803C155.826 14.806 155.636 14.7599 155.468 14.6695C155.307 14.5805 155.175 14.4489 155.088 14.2899C154.993 14.1143 154.945 13.9183 154.95 13.7201C154.945 13.5227 154.991 13.3273 155.084 13.1513C155.169 12.9933 155.3 12.8627 155.46 12.7756C155.631 12.6862 155.823 12.6411 156.018 12.6449C156.208 12.6412 156.396 12.686 156.562 12.7747C156.717 12.8571 156.843 12.9809 156.927 13.1311C157.014 13.2885 157.058 13.4648 157.055 13.6433C157.055 13.7126 157.051 13.7819 157.043 13.8508ZM156.594 13.2272C156.535 13.1334 156.45 13.058 156.348 13.0101C156.24 12.9594 156.122 12.9337 156.003 12.9351C155.831 12.9312 155.665 12.9915 155.539 13.1033C155.407 13.2253 155.328 13.3919 155.32 13.5683H156.684C156.688 13.4487 156.657 13.3304 156.594 13.2272Z" fill="#564C58"/>
<path d="M158.918 14.7655L158.406 13.9872L157.909 14.7655H157.534L158.23 13.7288L157.534 12.6718H157.941L158.461 13.452L158.95 12.6776H159.325L158.629 13.7115L159.325 14.7684L158.918 14.7655Z" fill="#564C58"/>
<path d="M160.005 12.2683C159.982 12.2464 159.964 12.2202 159.952 12.1913C159.94 12.1624 159.934 12.1313 159.935 12.1001C159.934 12.069 159.94 12.0381 159.952 12.0093C159.964 11.9806 159.982 11.9545 160.005 11.9329C160.028 11.9105 160.055 11.8928 160.085 11.8809C160.115 11.869 160.147 11.8632 160.179 11.8637C160.21 11.8633 160.241 11.8692 160.27 11.8811C160.299 11.893 160.325 11.9107 160.346 11.9329C160.369 11.9549 160.386 11.981 160.398 12.0097C160.41 12.0384 160.416 12.0692 160.416 12.1001C160.416 12.1312 160.41 12.1621 160.398 12.191C160.386 12.2198 160.369 12.2461 160.346 12.2683C160.325 12.2902 160.299 12.3076 160.27 12.3193C160.241 12.331 160.21 12.3369 160.179 12.3365C160.147 12.337 160.115 12.3313 160.085 12.3195C160.055 12.3078 160.028 12.2904 160.005 12.2683ZM160.352 12.6757V14.7655H159.993V12.6757H160.352Z" fill="#564C58"/>
<path d="M161.947 12.7602C162.095 12.6799 162.263 12.6391 162.432 12.642C162.616 12.6394 162.798 12.6853 162.957 12.7746C163.113 12.8646 163.24 12.9947 163.324 13.1503C163.416 13.3244 163.462 13.5179 163.458 13.7134C163.461 13.9091 163.415 14.1027 163.324 14.2774C163.24 14.437 163.112 14.5708 162.954 14.6632C162.796 14.7557 162.614 14.8031 162.429 14.8001C162.258 14.8039 162.088 14.7631 161.938 14.6819C161.806 14.6111 161.696 14.5068 161.62 14.3802V14.7646H161.262V11.9435H161.62V13.0677C161.698 12.9381 161.811 12.8318 161.947 12.7602ZM162.992 13.3012C162.931 13.1893 162.839 13.0966 162.725 13.0341C162.613 12.9714 162.486 12.9383 162.357 12.938C162.229 12.9384 162.103 12.9715 161.992 13.0341C161.879 13.0988 161.786 13.1925 161.724 13.305C161.658 13.4329 161.623 13.5738 161.623 13.7168C161.623 13.8597 161.658 14.0006 161.724 14.1285C161.771 14.2103 161.834 14.2824 161.91 14.3404C161.986 14.3985 162.073 14.4413 162.166 14.4665C162.259 14.4918 162.357 14.4988 162.453 14.4873C162.549 14.4758 162.641 14.4459 162.725 14.3994C162.839 14.3353 162.931 14.2413 162.992 14.1285C163.06 13.9996 163.094 13.8563 163.091 13.7115C163.094 13.5688 163.06 13.4278 162.992 13.3012Z" fill="#564C58"/>
<path d="M164.61 11.9435V14.7655H164.251V11.9435H164.61Z" fill="#564C58"/>
<path d="M167.503 13.8508H165.774C165.774 13.9388 165.793 14.0258 165.829 14.1067C165.864 14.1876 165.916 14.2608 165.982 14.3219C166.047 14.383 166.124 14.4308 166.209 14.4625C166.294 14.4941 166.385 14.509 166.476 14.5061C166.613 14.5112 166.749 14.4746 166.864 14.4014C166.967 14.3332 167.044 14.2348 167.084 14.1208H167.469C167.415 14.3175 167.292 14.4904 167.123 14.6109C166.935 14.7425 166.707 14.8101 166.476 14.803C166.284 14.806 166.094 14.7599 165.926 14.6695C165.765 14.5802 165.633 14.4486 165.546 14.2899C165.451 14.1143 165.403 13.9183 165.408 13.7201C165.403 13.5227 165.449 13.3273 165.542 13.1513C165.627 12.9933 165.758 12.8627 165.918 12.7756C166.089 12.6862 166.281 12.6411 166.476 12.6449C166.666 12.6412 166.854 12.686 167.02 12.7747C167.175 12.8571 167.301 12.9809 167.385 13.1311C167.472 13.2888 167.516 13.4654 167.513 13.6442C167.513 13.7132 167.51 13.7822 167.503 13.8508ZM167.054 13.2272C166.995 13.1334 166.91 13.058 166.808 13.0101C166.7 12.9594 166.582 12.9337 166.463 12.9351C166.291 12.9312 166.125 12.9915 165.999 13.1033C165.867 13.2253 165.788 13.3919 165.78 13.5683H167.144C167.147 13.4485 167.115 13.3302 167.052 13.2272H167.054Z" fill="#564C58"/>
<path d="M168.589 14.338V14.7655H168.159V14.338H168.589Z" fill="#564C58"/>
<path d="M172.398 12.1069V12.3951H171.205V13.2907H172.173V13.5731H171.202V14.7704H170.844V12.1069H172.398Z" fill="#564C58"/>
<path d="M173.616 12.7372C173.747 12.6687 173.895 12.6355 174.044 12.6411V12.9995H173.944C173.542 12.9995 173.341 13.2103 173.341 13.6318V14.7685H172.982V12.6757H173.341V13.0149C173.402 12.8981 173.498 12.8014 173.616 12.7372Z" fill="#564C58"/>
<path d="M174.757 12.2682C174.734 12.2463 174.716 12.22 174.704 12.1911C174.692 12.1622 174.686 12.1313 174.687 12.1001C174.686 12.069 174.692 12.0381 174.705 12.0093C174.717 11.9805 174.735 11.9544 174.758 11.9324C174.78 11.9104 174.807 11.893 174.837 11.8812C174.867 11.8694 174.899 11.8635 174.931 11.8637C174.962 11.8634 174.994 11.8693 175.022 11.8812C175.051 11.8931 175.077 11.9107 175.099 11.9329C175.121 11.9549 175.139 11.981 175.151 12.0097C175.163 12.0385 175.168 12.0692 175.167 12.1001C175.168 12.1311 175.162 12.162 175.151 12.1908C175.139 12.2197 175.121 12.246 175.099 12.2682C175.077 12.2901 175.051 12.3075 175.022 12.3192C174.993 12.331 174.962 12.3368 174.931 12.3365C174.899 12.337 174.867 12.3312 174.837 12.3195C174.807 12.3078 174.78 12.2904 174.757 12.2682ZM175.105 12.6757V14.7655H174.746V12.6757H175.105Z" fill="#564C58"/>
<path d="M177.972 13.8508H176.247C176.247 13.9385 176.265 14.0254 176.3 14.1062C176.335 14.1871 176.386 14.2604 176.451 14.3217C176.516 14.383 176.593 14.4312 176.677 14.4634C176.762 14.4955 176.852 14.5111 176.943 14.509C177.08 14.5141 177.216 14.4775 177.331 14.4043C177.434 14.3363 177.51 14.2378 177.55 14.1237H177.936C177.882 14.3204 177.759 14.4933 177.589 14.6137C177.402 14.7451 177.174 14.8127 176.943 14.8059C176.75 14.8089 176.561 14.7628 176.393 14.6724C176.231 14.5834 176.099 14.4517 176.012 14.2928C175.917 14.1172 175.87 13.9212 175.874 13.723C175.87 13.5256 175.916 13.3302 176.008 13.1542C176.093 12.9962 176.224 12.8656 176.385 12.7785C176.556 12.6889 176.748 12.6439 176.943 12.6478C177.133 12.6441 177.32 12.6889 177.487 12.7775C177.642 12.86 177.768 12.9837 177.852 13.134C177.939 13.2914 177.983 13.4677 177.98 13.6462C177.981 13.7145 177.978 13.7828 177.972 13.8508ZM177.523 13.2272C177.464 13.1334 177.378 13.058 177.276 13.0101C177.169 12.9594 177.05 12.9337 176.931 12.9351C176.76 12.9313 176.594 12.9915 176.468 13.1033C176.335 13.2251 176.257 13.3918 176.249 13.5683H177.613C177.616 13.4487 177.585 13.3306 177.523 13.2272Z" fill="#564C58"/>
<path d="M180.465 12.8688C180.628 13.0226 180.709 13.2442 180.709 13.5338V14.7656H180.354V13.5837C180.367 13.4093 180.309 13.237 180.192 13.1033C180.135 13.047 180.066 13.003 179.99 12.9743C179.914 12.9457 179.833 12.933 179.751 12.9371C179.668 12.9331 179.584 12.9464 179.506 12.9761C179.429 13.0058 179.358 13.0511 179.3 13.1091C179.179 13.2481 179.119 13.4274 179.132 13.6087V14.7617H178.773V12.6757H179.129V12.9717C179.2 12.8647 179.301 12.7789 179.419 12.7238C179.545 12.6645 179.683 12.6346 179.823 12.6363C179.94 12.6313 180.058 12.6493 180.168 12.6893C180.279 12.7293 180.379 12.7903 180.465 12.8688Z" fill="#564C58"/>
<path d="M181.613 13.1503C181.697 12.9942 181.825 12.864 181.982 12.7746C182.142 12.6853 182.324 12.6395 182.508 12.642C182.672 12.641 182.833 12.6797 182.977 12.7544C183.113 12.8219 183.228 12.9239 183.308 13.0494V11.9435H183.671V14.7655H183.302V14.3725C183.228 14.5007 183.119 14.6069 182.987 14.68C182.839 14.7621 182.67 14.8036 182.498 14.8001C182.314 14.8031 182.132 14.7557 181.973 14.6632C181.815 14.5708 181.687 14.437 181.604 14.2774C181.512 14.1028 181.466 13.9092 181.47 13.7134C181.468 13.5171 181.517 13.3235 181.613 13.1503ZM183.203 13.305C183.142 13.1929 183.05 13.0996 182.937 13.036C182.824 12.9755 182.698 12.9437 182.569 12.9437C182.44 12.9437 182.314 12.9755 182.201 13.036C182.089 13.0991 181.997 13.1917 181.937 13.3031C181.869 13.4303 181.834 13.572 181.838 13.7153C181.834 13.8601 181.868 14.0035 181.937 14.1323C181.997 14.2449 182.089 14.3388 182.201 14.4033C182.312 14.4669 182.439 14.5001 182.568 14.4994C182.697 14.4999 182.825 14.4667 182.937 14.4033C183.05 14.3391 183.142 14.2452 183.203 14.1323C183.268 14.0038 183.301 13.8626 183.301 13.7196C183.301 13.5766 183.268 13.4355 183.203 13.3069V13.305Z" fill="#564C58"/>
<path d="M184.934 11.9435V14.7655H184.575V11.9435H184.934Z" fill="#564C58"/>
<path d="M187.72 12.6757L186.418 15.7504H186.048L186.474 14.7434L185.603 12.6766H186L186.681 14.3687L187.351 12.6757H187.72Z" fill="#564C58"/>
<path d="M188.48 14.338V14.7655H188.051V14.338H188.48Z" fill="#564C58"/>
</g>
<defs>
<filter id="filter0_i_170_3" x="121" y="0" width="78" height="19" filterUnits="userSpaceOnUse" color-interpolation-filters="sRGB">
<feFlood flood-opacity="0" result="BackgroundImageFix"/>
<feBlend mode="normal" in="SourceGraphic" in2="BackgroundImageFix" result="shape"/>
<feColorMatrix in="SourceAlpha" type="matrix" values="0 0 0 0 0 0 0 0 0 0 0 0 0 0 0 0 0 0 127 0" result="hardAlpha"/>
<feOffset dy="4"/>
<feGaussianBlur stdDeviation="2"/>
<feComposite in2="hardAlpha" operator="arithmetic" k2="-1" k3="1"/>
<feColorMatrix type="matrix" values="0 0 0 0 0 0 0 0 0 0 0 0 0 0 0 0 0 0 0.25 0"/>
<feBlend mode="normal" in2="shape" result="effect1_innerShadow_170_3"/>
</filter>
<clipPath id="clip0_170_3">
<rect width="78" height="15" fill="white" transform="translate(121)"/>
</clipPath>
</defs>
</svg>
