<svg width="100" height="101" viewBox="0 0 100 101" fill="none" xmlns="http://www.w3.org/2000/svg">
<path d="M52.3467 9.47885C54.8531 10.7499 56.1276 12.4537 57.0131 15.1014C57.3194 15.1079 57.3194 15.1079 57.6319 15.1146C58.5565 15.1368 59.4807 15.1657 60.4051 15.1948C60.8872 15.2049 60.8872 15.2049 61.379 15.2152C61.8414 15.2311 61.8414 15.2311 62.3131 15.2473C62.5974 15.2551 62.8816 15.263 63.1744 15.271C63.9096 15.4003 63.9096 15.4003 64.4592 15.7834C64.8092 16.2969 64.8092 16.2969 64.8092 17.4924C65.0691 17.4877 65.329 17.483 65.5968 17.4781C66.5714 17.4628 67.546 17.4516 68.5207 17.4431C68.9406 17.4386 69.3605 17.4325 69.7804 17.4247C74.9293 17.3314 74.9293 17.3314 76.8757 18.947C77.0373 19.1451 77.1989 19.3431 77.3653 19.5471C77.5316 19.7436 77.6978 19.9401 77.869 20.1425C78.9895 21.7906 78.9853 23.2581 78.9702 25.1875C78.9702 25.4793 78.9703 25.771 78.9704 26.0716C78.97 27.0338 78.9653 27.9959 78.9606 28.9581C78.9595 29.6261 78.9587 30.294 78.9581 30.9619C78.9558 32.7185 78.9499 34.475 78.9433 36.2316C78.9371 38.0246 78.9344 39.8176 78.9314 41.6106C78.9249 45.1276 78.9147 48.6446 78.9021 52.1616C79.1876 52.2031 79.4731 52.2446 79.7673 52.2873C80.7012 52.4605 80.7012 52.4605 81.2505 52.8399C81.6936 53.4943 81.7499 53.9743 81.8069 54.7581C81.8364 55.1204 81.8364 55.1204 81.8666 55.4901C81.8778 55.6739 81.889 55.8576 81.9006 56.047C83.3314 56.5319 84.3274 56.7458 85.7986 56.3458C86.0955 56.1486 86.3923 55.9513 86.6982 55.7481C87.5345 55.6068 87.5345 55.6068 88.4973 55.7481C89.2259 56.2861 89.7884 56.7701 90.4088 57.4106C90.654 57.6409 90.654 57.6409 90.9043 57.8758C91.7879 58.7643 92.0755 59.1687 92.2301 60.4518C92.0852 61.5011 91.7376 62.029 91.1959 62.921C91.2554 64.107 91.6164 65.0158 92.3953 65.9098C93.1683 66.2149 93.9337 66.4332 94.7402 66.6336C95.3938 66.8064 95.3938 66.8064 95.6936 67.1053C95.7197 67.572 95.7257 68.0399 95.7229 68.5074C95.722 68.7896 95.721 69.0718 95.72 69.3626C95.7175 69.6594 95.715 69.9563 95.7124 70.2621C95.711 70.5601 95.7097 70.8581 95.7083 71.1651C95.7047 71.904 95.6998 72.6428 95.6936 73.3816C93.6978 74.2689 93.6978 74.2689 92.7701 74.3529C91.9768 74.5339 91.9768 74.5339 91.5332 75.5484C91.199 76.6589 91.1194 77.0959 91.4958 78.1636C91.6009 78.3546 91.706 78.5457 91.8143 78.7426C92.2189 79.6299 92.2165 80.1801 92.0955 81.1523C91.6326 81.8917 91.0518 82.4703 90.4275 83.0763C90.2735 83.2417 90.1195 83.4072 89.9608 83.5777C89.4907 84.0451 89.0761 84.4138 88.4973 84.7388C87.2506 84.7244 86.5986 84.5614 85.5362 83.9169C84.283 83.4172 83.6469 83.7369 82.4276 84.2122C82.1667 84.3249 82.1667 84.3249 81.9006 84.4399C81.8963 84.6418 81.8921 84.8436 81.8877 85.0516C81.7702 87.2414 81.7702 87.2414 80.9073 88.1945C79.5056 88.9418 78.3361 88.9617 76.7497 88.9669C76.5327 88.968 76.3156 88.9692 76.092 88.9703C75.3644 88.9736 74.6368 88.9747 73.9092 88.9759C73.3876 88.9777 72.866 88.9797 72.3443 88.9818C70.631 88.9881 68.9177 88.9912 67.2044 88.9942C66.6142 88.9954 66.0239 88.9966 65.4336 88.9979C62.6602 89.0036 59.8868 89.0078 57.1133 89.0103C53.9141 89.0132 50.715 89.0211 47.5158 89.0332C45.0416 89.0422 42.5674 89.0466 40.0932 89.0476C38.6161 89.0483 37.1391 89.051 35.6621 89.0585C34.2717 89.0655 32.8815 89.0667 31.4912 89.0637C30.9822 89.0635 30.4732 89.0654 29.9642 89.0695C24.4601 89.1115 24.4601 89.1115 22.3054 87.2818C20.4494 85.3502 19.9942 82.9498 20.0174 80.3575C20.016 80.1116 20.0146 79.8657 20.0131 79.6123C20.0096 78.796 20.0124 77.9798 20.0152 77.1635C20.014 76.5752 20.0124 75.9868 20.0104 75.3984C20.0063 73.8059 20.0079 72.2135 20.0108 70.6209C20.013 68.952 20.0109 67.283 20.0095 65.614C20.0079 62.8119 20.01 60.0099 20.0143 57.2078C20.0192 53.9707 20.0176 50.7338 20.0127 47.4967C20.0086 44.7143 20.008 41.9318 20.0104 39.1494C20.0118 37.4889 20.012 35.8285 20.009 34.168C20.0064 32.6071 20.0082 31.0462 20.0134 29.4852C20.0146 28.9132 20.0142 28.3411 20.0123 27.7691C20.0098 26.9867 20.0129 26.2045 20.0174 25.4221C20.0154 25.1972 20.0134 24.9722 20.0113 24.7405C20.0384 22.2902 20.8171 20.4362 22.5304 18.6879C24.1229 17.5652 25.3865 17.455 27.3139 17.4632C27.5119 17.4636 27.7099 17.464 27.9138 17.4645C28.5431 17.4661 29.1724 17.4699 29.8017 17.4737C30.2296 17.4752 30.6576 17.4766 31.0855 17.4778C32.1318 17.4811 33.1782 17.4862 34.2245 17.4924C34.2121 17.2581 34.1998 17.0239 34.187 16.7825C34.2245 15.998 34.2245 15.998 34.8242 15.4003C35.5254 15.3324 35.5254 15.3324 36.3914 15.3419C36.8552 15.3448 36.8552 15.3448 37.3284 15.3477C37.8143 15.3552 37.8143 15.3552 38.31 15.3629C38.6362 15.3656 38.9624 15.3683 39.2985 15.3711C40.106 15.3781 40.9133 15.388 41.7208 15.4003C41.7532 15.1298 41.7857 14.8593 41.8191 14.5807C42.2216 12.6358 43.6957 11.1127 45.3189 10.0206C45.69 9.76165 45.69 9.76165 46.0686 9.49752C48.0428 8.79475 50.3512 8.80818 52.3467 9.47885Z" fill="#FDFDFD"/>
<path d="M71.7055 5.23859C71.9321 5.34685 72.1587 5.45511 72.3921 5.56665C77.5918 8.08235 82.0057 11.3437 86.0982 15.4003C86.2415 15.5419 86.3848 15.6834 86.5323 15.8293C95.4996 24.8198 100.019 37.1936 99.986 49.7289C99.985 50.4777 99.9921 51.2261 99.9997 51.9748C100.012 55.2204 99.67 58.2546 98.9918 61.4267C98.9091 61.8301 98.9091 61.8301 98.8248 62.2416C98.2583 64.9187 97.5282 67.5204 96.593 70.094C96.494 70.094 96.3951 70.094 96.2931 70.094C96.2749 69.9068 96.2568 69.7195 96.2381 69.5266C96.2004 69.1602 96.2004 69.1602 96.1619 68.7864C96.1376 68.5437 96.1132 68.301 96.0881 68.0509C96.026 67.3914 96.026 67.3914 95.6934 66.8064C95.1709 66.7277 94.6453 66.6687 94.1192 66.6196C93.1399 66.4607 92.5675 66.3672 91.8329 65.6915C91.2136 64.7568 90.8894 64.1071 90.9146 62.9771C91.1957 62.3233 91.1957 62.3233 91.7954 61.4267C91.9757 60.0884 91.9308 59.5246 91.1371 58.4111C90.8497 58.1219 90.5567 57.8382 90.2586 57.56C90.1164 57.4126 89.9742 57.2653 89.8276 57.1135C89.0673 56.375 88.5956 56.0596 87.5342 55.9232C86.6717 55.9941 86.6717 55.9941 85.9483 56.514C85.1987 56.9436 85.1987 56.9436 84.2991 56.8875C84.0023 56.8074 83.7054 56.7273 83.3996 56.6447C83.1275 56.5954 82.8554 56.5461 82.575 56.4953C81.9003 56.047 81.9003 56.047 81.727 55.4411C81.6423 54.9588 81.5592 54.4762 81.4775 53.9934C81.3439 53.2756 81.3439 53.2756 80.5698 52.7594C80.0194 52.5453 79.4623 52.3478 78.9018 52.1616C78.9008 51.7925 78.8997 51.4234 78.8985 51.0431C78.8875 47.5604 78.8701 44.0777 78.8467 40.5951C78.8349 38.8047 78.8252 37.0143 78.8206 35.2239C78.816 33.4953 78.8057 31.7668 78.7914 30.0382C78.787 29.3795 78.7846 28.7208 78.7843 28.0621C78.7836 27.1377 78.7755 26.2137 78.7657 25.2893C78.7672 25.0185 78.7687 24.7476 78.7703 24.4685C78.7384 22.5215 78.3252 20.9033 76.9899 19.4271C75.3955 17.9972 73.7443 17.7207 71.661 17.6675C71.4638 17.6617 71.2667 17.6559 71.0636 17.65C70.4405 17.6322 69.8174 17.6183 69.1942 17.6045C68.769 17.593 68.3439 17.5814 67.9187 17.5694C66.8822 17.5409 65.8456 17.5157 64.8089 17.4924C64.7162 17.252 64.6234 17.0116 64.5278 16.7639C64.2802 16.0306 64.2802 16.0306 63.9094 15.6991C63.3979 15.6521 62.8847 15.6241 62.3715 15.6046C62.0613 15.5921 61.7511 15.5795 61.4315 15.5666C61.1051 15.5549 60.7787 15.5431 60.4424 15.531C60.1148 15.5181 59.7872 15.5052 59.4497 15.4919C58.6375 15.4601 57.8252 15.4296 57.0128 15.4003C56.9111 15.1945 56.8094 14.9887 56.7047 14.7767C56.5706 14.5071 56.4365 14.2374 56.2984 13.9596C56.1657 13.6922 56.0331 13.4248 55.8965 13.1492C54.933 11.2929 53.6822 10.1893 51.6659 9.54656C49.3091 9.0979 47.0403 9.1258 44.999 10.4549C43.1347 11.9414 42.5911 13.0864 41.7205 15.4003C38.3067 15.5482 38.3067 15.5482 34.824 15.6991C34.5271 16.5868 34.5271 16.5868 34.2243 17.4924C33.832 17.4989 33.832 17.4989 33.4318 17.5056C32.4532 17.5239 31.4748 17.5461 30.4963 17.5708C30.0744 17.5807 29.6524 17.5891 29.2304 17.5959C28.6206 17.606 28.0112 17.6217 27.4016 17.6383C26.8527 17.65 26.8527 17.65 26.2929 17.662C24.3081 17.9031 22.9463 18.6523 21.6306 20.1822C20.4716 21.8738 20.3868 23.2645 20.3891 25.2784C20.3882 25.5228 20.3873 25.7672 20.3864 26.0191C20.3838 26.8393 20.3834 27.6595 20.3829 28.4797C20.3815 29.0673 20.38 29.655 20.3784 30.2427C20.3745 31.8402 20.3725 33.4377 20.3712 35.0353C20.3703 36.0336 20.3691 37.0319 20.3677 38.0302C20.3636 41.1543 20.3607 44.2784 20.3596 47.4024C20.3582 51.0075 20.353 54.6125 20.3443 58.2176C20.3378 61.0048 20.3348 63.7921 20.3344 66.5793C20.3341 68.2437 20.3323 69.908 20.327 71.5723C20.322 73.1386 20.3214 74.7049 20.324 76.2712C20.3242 76.8451 20.3229 77.4189 20.32 77.9928C20.3161 78.7784 20.3179 79.5638 20.321 80.3495C20.3186 80.5746 20.3162 80.7997 20.3137 81.0316C20.3328 83.0983 20.8464 84.8828 21.968 86.6254C24.4954 88.9803 27.4441 88.7942 30.7012 88.774C31.224 88.7752 31.7469 88.7768 32.2697 88.7789C33.6834 88.7831 35.097 88.7798 36.5108 88.7748C37.9929 88.7707 39.475 88.7726 40.9571 88.7737C43.4449 88.7745 45.9326 88.7705 48.4204 88.7635C51.2944 88.7556 54.1682 88.7551 57.0422 88.7586C59.8108 88.7618 62.5794 88.7599 65.348 88.7557C66.5247 88.754 67.7013 88.754 68.8779 88.7554C70.2636 88.7569 71.6492 88.7538 73.0348 88.7474C73.5426 88.7457 74.0504 88.7456 74.5582 88.7471C75.2527 88.7489 75.9469 88.7451 76.6413 88.74C77.2236 88.7389 77.2236 88.7389 77.8176 88.7378C79.0839 88.605 79.8752 88.3111 81.0008 87.7275C81.5156 86.8645 81.6005 86.3222 81.6005 85.3178C81.9003 84.4399 81.9003 84.4399 82.5855 84.0604C83.3499 83.7572 84.1129 83.4861 84.8988 83.2444C85.4985 83.8421 86.0982 84.4399 86.6979 85.0376C78.7417 93.7813 66.3974 99.5046 54.6141 100.28C49.2052 100.507 43.9946 100.407 38.722 99.0846C38.4717 99.0238 38.2213 98.9629 37.9633 98.9002C31.173 97.2035 24.9191 93.9641 19.5317 89.5207C19.2298 89.2749 18.9279 89.0291 18.6169 88.7759C10.1481 81.8139 4.17852 72.6911 1.54071 62.0244C1.47809 61.7859 1.41548 61.5475 1.35096 61.3018C-0.533618 53.9188 -0.424474 45.1652 1.54071 37.8157C1.59685 37.6011 1.653 37.3865 1.71084 37.1654C2.08865 35.7632 2.53673 34.396 3.03996 33.0338C3.15294 32.7273 3.15294 32.7273 3.26821 32.4146C5.67831 26.0051 9.24546 20.4378 14.0187 15.5296C14.3915 15.1454 14.7588 14.756 15.1253 14.3659C29.3736 -0.460312 53.5558 -3.50336 71.7055 5.23859Z" fill="#88BED1"/>
<path d="M52.3467 9.47885C54.8531 10.7499 56.1276 12.4537 57.0131 15.1014C57.3194 15.1079 57.3194 15.1079 57.6319 15.1146C58.5565 15.1368 59.4807 15.1657 60.4051 15.1948C60.8872 15.2049 60.8872 15.2049 61.379 15.2152C61.8414 15.2311 61.8414 15.2311 62.3131 15.2473C62.5974 15.2551 62.8816 15.263 63.1744 15.271C63.9096 15.4003 63.9096 15.4003 64.4592 15.7834C64.8092 16.2969 64.8092 16.2969 64.8092 17.4924C65.0691 17.4877 65.329 17.483 65.5968 17.4781C66.5714 17.4628 67.546 17.4516 68.5207 17.4431C68.9406 17.4386 69.3605 17.4325 69.7804 17.4247C74.9293 17.3314 74.9293 17.3314 76.8757 18.947C77.0373 19.1451 77.1989 19.3431 77.3653 19.5471C77.5316 19.7436 77.6978 19.9401 77.869 20.1425C78.9895 21.7906 78.9853 23.2581 78.9702 25.1875C78.9702 25.4793 78.9703 25.771 78.9704 26.0716C78.97 27.0338 78.9653 27.9959 78.9606 28.9581C78.9595 29.6261 78.9587 30.294 78.9581 30.9619C78.9558 32.7185 78.9499 34.475 78.9433 36.2316C78.9371 38.0246 78.9344 39.8176 78.9314 41.6106C78.9249 45.1276 78.9147 48.6446 78.9021 52.1616C79.1876 52.2031 79.4731 52.2446 79.7673 52.2873C80.7012 52.4605 80.7012 52.4605 81.2505 52.8399C81.6936 53.4943 81.7499 53.9743 81.8069 54.7581C81.8364 55.1204 81.8364 55.1204 81.8666 55.4901C81.8778 55.6739 81.889 55.8576 81.9006 56.047C83.3314 56.5319 84.3274 56.7458 85.7986 56.3458C86.0955 56.1486 86.3923 55.9513 86.6982 55.7481C87.5345 55.6068 87.5345 55.6068 88.4973 55.7481C89.2259 56.2861 89.7884 56.7701 90.4088 57.4106C90.654 57.6409 90.654 57.6409 90.9043 57.8758C91.7879 58.7643 92.0755 59.1687 92.2301 60.4518C92.0852 61.5011 91.7376 62.029 91.1959 62.921C91.2554 64.107 91.6164 65.0158 92.3953 65.9098C93.1683 66.2149 93.9337 66.4332 94.7402 66.6336C95.3938 66.8064 95.3938 66.8064 95.6936 67.1053C95.7197 67.572 95.7257 68.0399 95.7229 68.5074C95.722 68.7896 95.721 69.0718 95.72 69.3626C95.7175 69.6594 95.715 69.9563 95.7124 70.2621C95.711 70.5601 95.7097 70.8581 95.7083 71.1651C95.7047 71.904 95.6998 72.6428 95.6936 73.3816C93.6978 74.2689 93.6978 74.2689 92.7701 74.3529C91.9768 74.5339 91.9768 74.5339 91.5332 75.5484C91.199 76.6589 91.1194 77.0959 91.4958 78.1636C91.6009 78.3546 91.706 78.5457 91.8143 78.7426C92.2189 79.6299 92.2165 80.1801 92.0955 81.1523C91.6326 81.8917 91.0518 82.4703 90.4275 83.0763C90.2735 83.2417 90.1195 83.4072 89.9608 83.5777C89.4907 84.0451 89.0761 84.4138 88.4973 84.7388C87.2506 84.7244 86.5986 84.5614 85.5362 83.9169C84.283 83.4172 83.6469 83.7369 82.4276 84.2122C82.1667 84.3249 82.1667 84.3249 81.9006 84.4399C81.8963 84.6418 81.8921 84.8436 81.8877 85.0516C81.7702 87.2414 81.7702 87.2414 80.9073 88.1945C79.5056 88.9418 78.3361 88.9617 76.7497 88.9669C76.5327 88.968 76.3156 88.9692 76.092 88.9703C75.3644 88.9736 74.6368 88.9747 73.9092 88.9759C73.3876 88.9777 72.866 88.9797 72.3443 88.9818C70.631 88.9881 68.9177 88.9912 67.2044 88.9942C66.6142 88.9954 66.0239 88.9966 65.4336 88.9979C62.6602 89.0036 59.8868 89.0078 57.1133 89.0103C53.9141 89.0132 50.715 89.0211 47.5158 89.0332C45.0416 89.0422 42.5674 89.0466 40.0932 89.0476C38.6161 89.0483 37.1391 89.051 35.6621 89.0585C34.2717 89.0655 32.8815 89.0667 31.4912 89.0637C30.9822 89.0635 30.4732 89.0654 29.9642 89.0695C24.4601 89.1115 24.4601 89.1115 22.3054 87.2818C20.4494 85.3502 19.9942 82.9498 20.0174 80.3575C20.016 80.1116 20.0146 79.8657 20.0131 79.6123C20.0096 78.796 20.0124 77.9798 20.0152 77.1635C20.014 76.5752 20.0124 75.9868 20.0104 75.3984C20.0063 73.8059 20.0079 72.2135 20.0108 70.6209C20.013 68.952 20.0109 67.283 20.0095 65.614C20.0079 62.8119 20.01 60.0099 20.0143 57.2078C20.0192 53.9707 20.0176 50.7338 20.0127 47.4967C20.0086 44.7143 20.008 41.9318 20.0104 39.1494C20.0118 37.4889 20.012 35.8285 20.009 34.168C20.0064 32.6071 20.0082 31.0462 20.0134 29.4852C20.0146 28.9132 20.0142 28.3411 20.0123 27.7691C20.0098 26.9867 20.0129 26.2045 20.0174 25.4221C20.0154 25.1972 20.0134 24.9722 20.0113 24.7405C20.0384 22.2902 20.8171 20.4362 22.5304 18.6879C24.1229 17.5652 25.3865 17.455 27.3139 17.4632C27.5119 17.4636 27.7099 17.464 27.9138 17.4645C28.5431 17.4661 29.1724 17.4699 29.8017 17.4737C30.2296 17.4752 30.6576 17.4766 31.0855 17.4778C32.1318 17.4811 33.1782 17.4862 34.2245 17.4924C34.2121 17.2581 34.1998 17.0239 34.187 16.7825C34.2245 15.998 34.2245 15.998 34.8242 15.4003C35.5254 15.3324 35.5254 15.3324 36.3914 15.3419C36.8552 15.3448 36.8552 15.3448 37.3284 15.3477C37.8143 15.3552 37.8143 15.3552 38.31 15.3629C38.6362 15.3656 38.9624 15.3683 39.2985 15.3711C40.106 15.3781 40.9133 15.388 41.7208 15.4003C41.7532 15.1298 41.7857 14.8593 41.8191 14.5807C42.2216 12.6358 43.6957 11.1127 45.3189 10.0206C45.69 9.76165 45.69 9.76165 46.0686 9.49752C48.0428 8.79475 50.3512 8.80818 52.3467 9.47885ZM23.3867 21.4042C22.6658 22.5315 22.6613 23.4827 22.6739 24.7773C22.6716 25.0285 22.6693 25.2797 22.6669 25.5386C22.6608 26.38 22.6631 27.2211 22.6655 28.0625C22.6629 28.6659 22.6598 29.2693 22.6562 29.8727C22.6482 31.5116 22.6479 33.1504 22.6494 34.7893C22.65 36.1574 22.6471 37.5255 22.6442 38.8936C22.6376 42.1213 22.6373 45.349 22.6409 48.5768C22.6446 51.9065 22.6372 55.2361 22.6244 58.5659C22.6138 61.4247 22.6102 64.2835 22.6122 67.1423C22.6133 68.8497 22.6117 70.5571 22.6034 72.2645C22.5958 73.8704 22.597 75.4761 22.6048 77.0819C22.6062 77.671 22.6046 78.26 22.5996 78.849C22.5934 79.654 22.5982 80.4583 22.6058 81.2633C22.6014 81.4957 22.597 81.7281 22.5924 81.9676C22.6233 83.5211 23.0366 84.4003 24.125 85.5197C25.4209 86.5849 26.8274 86.6064 28.4434 86.6039C28.6384 86.6044 28.8334 86.6049 29.0343 86.6054C29.6834 86.6064 30.3325 86.6031 30.9817 86.5998C31.4487 86.5997 31.9157 86.5998 32.3827 86.6001C33.6477 86.6003 34.9126 86.5968 36.1775 86.5926C37.5005 86.5889 38.8235 86.5885 40.1465 86.5878C42.6505 86.5859 45.1545 86.581 47.6585 86.575C50.5098 86.5684 53.3611 86.5651 56.2124 86.5621C62.0765 86.5558 67.9405 86.5453 73.8046 86.532C73.7339 85.0706 73.7339 85.0707 72.9379 83.953C71.4815 83.3465 71.4815 83.3465 69.9441 83.4312C69.4291 83.7633 68.9177 84.1008 68.4073 84.4399C67.259 84.4848 66.5613 84.3449 65.6595 83.618C64.7714 82.7424 64.0038 81.8909 63.3099 80.8534C63.3778 79.8157 63.536 79.1762 64.097 78.2943C64.5764 77.5991 64.5764 77.5991 64.4718 76.8373C64.3852 76.5846 64.2987 76.3318 64.2095 76.0714C64.1105 75.7571 64.0116 75.4427 63.9096 75.1188C63.2251 74.1593 63.0637 74.1375 61.9606 73.9233C61.7287 73.8944 61.4968 73.8655 61.2578 73.8357C60.4668 73.6458 60.219 73.4104 59.7117 72.7838C59.5267 71.8959 59.5727 70.9989 59.5805 70.094C59.5745 69.849 59.5685 69.6039 59.5624 69.3515C59.5638 67.5713 59.5638 67.5713 60.2446 66.8017C60.8896 66.517 61.4144 66.3755 62.1105 66.2834C62.856 66.1195 63.2161 66.0096 63.7421 65.4498C64.1917 64.7159 64.5515 64.1068 64.4238 63.2316C64.2181 62.6107 64.2181 62.6107 63.9096 62.0011C63.578 61.2832 63.3725 60.7228 63.3099 59.9323C63.8424 58.9546 64.5916 58.2864 65.4089 57.5413C65.6562 57.2393 65.9036 56.9372 66.1585 56.626C66.9081 56.047 66.9081 56.047 67.9388 56.047C69.007 56.3458 69.007 56.3458 69.8691 56.8875C70.9403 57.2933 71.1878 57.232 72.2304 56.8502C73.0032 56.4631 73.4085 56.2445 73.7894 55.4632C73.9277 54.8675 74.0177 54.2613 74.1045 53.656C74.8254 52.5781 75.2879 52.504 76.5033 52.1616C76.5311 48.3789 76.5524 44.5962 76.5654 40.8134C76.5717 39.0568 76.5802 37.3003 76.5938 35.5437C76.6068 33.8481 76.614 32.1525 76.6171 30.4569C76.6193 29.8104 76.6236 29.164 76.6301 28.5176C76.6388 27.6111 76.64 26.7048 76.6394 25.7983C76.6459 25.3987 76.6459 25.3987 76.6525 24.9911C76.6409 23.2393 76.3311 22.214 75.3039 20.78C74.0074 19.8995 72.9756 19.7753 71.4269 19.7958C70.8471 19.8001 70.8471 19.8001 70.2556 19.8045C69.8519 19.812 69.4482 19.8196 69.0445 19.8273C68.6338 19.8318 68.2231 19.8359 67.8123 19.8396C66.8111 19.8501 65.8102 19.8648 64.8092 19.8834C64.7871 20.3208 64.7871 20.3208 64.7646 20.7671C64.7422 21.1474 64.7198 21.5276 64.6967 21.9194C64.6758 22.2974 64.655 22.6753 64.6335 23.0647C64.5093 24.0676 64.5093 24.0676 63.9096 24.9642C62.9787 25.0513 62.1078 25.0802 61.1763 25.0707C60.7514 25.0716 60.7514 25.0716 60.3179 25.0726C59.3782 25.0735 58.4388 25.0679 57.4992 25.0623C56.8486 25.0613 56.1981 25.0608 55.5476 25.0606C54.1831 25.0592 52.8187 25.0549 51.4542 25.0483C49.701 25.0398 47.9478 25.0365 46.1946 25.0352C44.8511 25.034 43.5076 25.031 42.1641 25.0275C41.5174 25.0258 40.8708 25.0243 40.2241 25.0232C39.3223 25.0212 38.4205 25.0171 37.5187 25.0124C37.1138 25.0118 37.1138 25.0118 36.7007 25.0113C34.8586 24.9985 34.8586 24.9985 34.5244 24.6653C34.4534 23.8606 34.3978 23.0619 34.3557 22.2557C34.3428 22.0289 34.3298 21.8022 34.3165 21.5686C34.2846 21.0069 34.2544 20.4451 34.2245 19.8834C32.8627 19.8572 31.501 19.8414 30.1391 19.8273C29.7537 19.8198 29.3683 19.8123 28.9713 19.8045C28.5983 19.8017 28.2253 19.7988 27.841 19.7958C27.4987 19.7911 27.1564 19.7864 26.8037 19.7816C25.3574 19.9326 24.4264 20.3948 23.3867 21.4042Z" fill="#2D405B"/>
<path d="M76.2033 54.5527C77.1928 54.5527 78.1823 54.5527 79.2018 54.5527C79.2285 54.7762 79.2552 54.9996 79.2826 55.2299C79.4586 56.194 79.654 56.965 80.1014 57.8403C81.1443 58.4923 82.213 58.7459 83.3997 59.0358C83.6598 59.1553 83.92 59.2747 84.188 59.3977C84.8776 59.7095 84.8776 59.7095 85.4623 59.4199C85.6289 59.2993 85.7955 59.1787 85.9672 59.0545C86.9383 58.4398 86.9383 58.4398 87.6351 58.4194C88.4657 58.8886 89.053 59.5364 89.6965 60.2313C89.3594 61.1195 89.03 61.8256 88.4971 62.6223C88.5592 63.3381 88.5592 63.3381 88.797 64.1167C88.9164 64.5616 88.9164 64.5616 89.0383 65.0156C89.65 66.9141 89.65 66.9141 91.129 68.1351C91.9545 68.3532 92.7458 68.5109 93.5946 68.5998C93.5946 69.586 93.5946 70.5723 93.5946 71.5885C92.3982 72.0144 91.2542 72.306 89.9964 72.4851C89.916 72.8426 89.8356 73.2002 89.7528 73.5685C89.5431 74.4287 89.3206 75.0165 88.8907 75.8101C88.4068 76.8666 88.4609 77.3619 88.797 78.4626C89.231 79.1566 89.231 79.1566 89.6965 79.658C89.264 80.664 88.6972 81.305 87.8974 82.049C86.1691 81.4881 86.1691 81.4881 85.4014 81.0882C84.2977 80.7654 83.7916 81.0678 82.7625 81.5447C82.4525 81.6853 82.1425 81.8259 81.8232 81.9708C81.5518 82.0953 81.2805 82.2197 81.0009 82.3479C80.7041 82.4465 80.4072 82.5452 80.1014 82.6468C80.0615 82.8591 80.0217 83.0713 79.9807 83.2901C79.9278 83.5647 79.8748 83.8394 79.8203 84.1225C79.7681 84.3964 79.7159 84.6703 79.6621 84.9525C79.5017 85.6355 79.5017 85.6355 79.2018 85.9344C78.6962 85.9559 78.1898 85.9594 77.6838 85.9531C77.2704 85.949 77.2704 85.949 76.8487 85.9449C76.5292 85.9397 76.5292 85.9397 76.2033 85.9344C76.1633 85.5992 76.1633 85.5992 76.1225 85.2572C75.9465 84.2931 75.7511 83.5221 75.3038 82.6468C74.2608 81.9948 73.1921 81.7412 72.0054 81.4513C71.7484 81.3315 71.4913 81.2117 71.2265 81.0882C70.5193 80.7767 70.5193 80.7767 69.8772 81.0777C69.6828 81.201 69.4884 81.3243 69.288 81.4513C68.6965 81.8249 68.6965 81.8249 68.1074 82.049C67.0729 81.6856 66.4499 81.0474 65.7086 80.2558C66.0458 79.3676 66.3751 78.6615 66.908 77.8648C66.8351 76.3748 66.2394 75.0872 65.6606 73.732C65.4087 73.0828 65.4087 73.0828 65.4087 72.4851C64.2213 72.2878 63.0339 72.0906 61.8105 71.8874C61.8105 70.8024 61.8105 69.7175 61.8105 68.5998C63.0458 68.2135 64.1099 67.9235 65.4087 68.002C65.4416 67.8252 65.4744 67.6483 65.5083 67.4661C65.9107 65.4674 65.9107 65.4674 66.5144 64.5089C66.9932 63.8144 66.9932 63.8144 66.8518 62.8838C66.642 61.9755 66.642 61.9755 66.0084 61.1279C66.0585 60.1549 66.2561 59.7017 66.8518 58.9237C67.5077 58.4381 67.5077 58.4381 68.1074 58.4754C68.7071 58.737 68.7071 58.737 69.2506 59.0732C70.2305 59.4639 71.0145 59.2742 72.0054 59.0358C72.2818 58.9788 72.5582 58.9218 72.8429 58.863C73.777 58.6121 74.4946 58.3728 75.3038 57.8403C75.846 56.7716 76.062 55.7368 76.2033 54.5527Z" fill="#E0E2E0"/>
<path d="M56.8775 31.4122C59.6784 33.4216 61.4799 36.0956 62.2853 39.4362C62.8578 42.9559 62.2899 46.4042 60.3679 49.4344C60.0582 49.8521 59.7399 50.2635 59.4122 50.6673C59.2688 50.8506 59.1254 51.034 58.9776 51.223C57.359 53.0599 54.1463 54.9528 51.6525 55.208C47.251 55.3752 43.7466 54.9238 40.2874 51.9293C37.5895 49.2354 36.2277 46.1122 36.1738 42.2988C36.2297 38.6462 37.448 35.7272 39.9219 33.0338C44.7306 28.7128 51.3207 27.9887 56.8775 31.4122Z" fill="#D9F0FC"/>
<path d="M76.8023 19.2856C78.0024 20.3874 78.8111 21.2185 78.9535 22.8864C78.9752 23.6542 78.9754 24.4195 78.9693 25.1876C78.9694 25.4793 78.9695 25.771 78.9696 26.0716C78.9692 27.0338 78.9645 27.9959 78.9598 28.9581C78.9587 29.6261 78.9578 30.294 78.9572 30.962C78.955 32.7185 78.9491 34.4751 78.9424 36.2316C78.9363 38.0246 78.9336 39.8176 78.9305 41.6106C78.9241 45.1276 78.9139 48.6446 78.9012 52.1617C79.1868 52.2031 79.4723 52.2446 79.7665 52.2874C80.7003 52.4605 80.7003 52.4605 81.2497 52.84C81.6928 53.4944 81.7491 53.9743 81.806 54.7581C81.8258 54.9997 81.8455 55.2412 81.8658 55.4901C81.8826 55.7658 81.8826 55.7658 81.8997 56.047C83.3306 56.5319 84.3266 56.7458 85.7978 56.3459C86.0946 56.1486 86.3915 55.9514 86.6973 55.7481C87.5336 55.6069 87.5336 55.6069 88.4964 55.7481C89.225 56.2862 89.7876 56.7701 90.408 57.4106C90.5715 57.5641 90.735 57.7177 90.9034 57.8758C91.7871 58.7644 92.0746 59.1687 92.2293 60.4519C92.0843 61.5011 91.7368 62.029 91.1951 62.9211C91.2546 64.1071 91.6156 65.0158 92.3945 65.9098C93.1675 66.215 93.9329 66.4332 94.7394 66.6336C95.393 66.8064 95.393 66.8064 95.6928 67.1053C95.7189 67.5721 95.7249 68.04 95.7221 68.5074C95.7206 68.9307 95.7206 68.9307 95.7192 69.3626C95.7154 69.8079 95.7154 69.8079 95.7116 70.2621C95.7102 70.5601 95.7088 70.8581 95.7075 71.1652C95.7039 71.904 95.699 72.6428 95.6928 73.3816C93.6969 74.2689 93.6969 74.2689 92.7693 74.353C91.976 74.5339 91.976 74.5339 91.5324 75.5485C91.1982 76.6589 91.1186 77.096 91.4949 78.1636C91.6001 78.3547 91.7052 78.5458 91.8135 78.7427C92.2181 79.6299 92.2157 80.1801 92.0946 81.1523C91.6318 81.8917 91.051 82.4703 90.4267 83.0763C90.2727 83.2418 90.1186 83.4072 89.96 83.5777C89.4903 84.0447 89.0742 84.4132 88.4964 84.7388C86.7643 84.7277 85.7172 84.139 84.2985 83.2444C84.3975 82.9485 84.4964 82.6527 84.5984 82.3478C84.4994 82.0519 84.4005 81.756 84.2985 81.4512C83.7048 81.6484 83.1111 81.8457 82.4994 82.0489C83.2138 81.2245 83.8166 80.7702 84.8982 80.5546C85.5423 80.8295 86.1162 81.1522 86.7079 81.5259C87.3043 81.8261 87.3043 81.8261 87.9377 81.5189C88.5029 81.1481 88.9416 80.7538 89.396 80.2557C89.0588 79.3675 88.7294 78.6614 88.1966 77.8647C88.3719 75.966 88.9163 74.0675 89.9957 72.485C91.071 71.9287 92.0945 71.714 93.294 71.5884C93.393 70.6021 93.4919 69.6158 93.5939 68.5997C93.3801 68.6085 93.1664 68.6174 92.9461 68.6265C91.9122 68.5724 91.232 68.4567 90.2955 68.0019C89.1519 66.6179 88.1197 64.4621 88.2657 62.6712C88.5287 61.9341 88.8889 61.4223 89.396 60.829C89.0135 59.9784 88.6719 59.2805 87.8967 58.7369C86.9097 58.79 86.419 59.0204 85.6104 59.5961C84.368 60.0089 84.0908 59.811 82.9305 59.2786C82.3865 58.9994 81.843 58.7192 81.3 58.438C81.0272 58.3567 80.7543 58.2754 80.4731 58.1916C79.8008 57.8402 79.8008 57.8402 79.5232 57.0627C79.4849 56.7645 79.4467 56.4663 79.4072 56.1591C79.3651 55.8593 79.323 55.5596 79.2796 55.2508C79.2537 55.0204 79.2278 54.79 79.2011 54.5526C78.2116 54.5526 77.2221 54.5526 76.2026 54.5526C76.2011 54.7726 76.1995 54.9926 76.1979 55.2193C76.1201 56.1982 75.999 56.9376 75.6029 57.8402C74.4854 58.6276 73.3198 58.9884 72.0047 59.3346C71.6824 59.4259 71.6824 59.4259 71.3535 59.5191C70.3983 59.7255 69.9581 59.6626 69.0999 59.1852C68.8711 59.0372 68.6423 58.8893 68.4065 58.7369C67.6524 58.7811 67.2915 58.9806 66.6636 59.3906C66.2185 59.9499 66.2185 59.9499 66.3638 60.829C66.5684 61.7701 66.5684 61.7701 67.2071 62.6222C67.1147 64.0037 66.6424 64.994 66.0077 66.2087C65.7979 66.803 65.5949 67.4 65.408 68.0019C63.6269 68.2978 63.6269 68.2978 61.8098 68.5997C61.8098 69.6846 61.8098 70.7695 61.8098 71.8873C62.2366 71.9304 62.6633 71.9736 63.1029 72.018C63.9421 72.1029 64.6012 72.217 65.408 72.485C65.7795 73.1585 66.0874 73.797 66.3825 74.5024C66.4668 74.6881 66.5511 74.8738 66.6379 75.0651C67.1258 76.2063 67.3562 76.9851 66.9073 78.1636C66.1389 78.8547 66.1389 78.8547 65.408 79.3591C65.2596 79.0632 65.2596 79.0632 65.1082 78.7613C64.4988 78.9525 64.4988 78.9525 63.9088 79.3591C63.6654 80.1228 63.6654 80.1228 63.6089 80.8534C63.8068 80.9521 64.0047 81.0507 64.2086 81.1523C64.5046 81.481 64.7909 81.8185 65.0707 82.161C66.0166 83.2906 66.0166 83.2906 67.2071 84.141C68.007 84.2161 68.007 84.2161 68.7064 84.141C68.6074 84.3383 68.5085 84.5356 68.4065 84.7388C67.1594 84.7652 66.5698 84.654 65.5884 83.8527C64.63 82.899 63.7615 81.9782 63.0092 80.8534C63.0771 79.8158 63.2353 79.1762 63.7963 78.2943C64.2806 77.5961 64.2806 77.5961 64.1524 76.8187C64.072 76.5721 63.9916 76.3255 63.9088 76.0715C63.8593 75.8064 63.8098 75.5414 63.7589 75.2683C63.3839 74.5306 63.3839 74.5306 62.7117 74.3927C62.2426 74.3053 61.7705 74.232 61.2968 74.1743C60.3314 73.9001 59.9884 73.6091 59.411 72.7839C59.2291 71.8835 59.2299 71.0099 59.2424 70.094C59.2352 69.8528 59.2281 69.6117 59.2207 69.3632C59.2238 68.1275 59.2369 67.5953 60.0939 66.6546C60.8316 66.2517 61.3254 66.0532 62.1472 65.9472C63.183 65.7286 63.2626 65.6755 63.9275 64.7517C64.2753 63.5962 64.1244 63.0688 63.6089 62.0011C63.2777 61.2841 63.0732 60.7217 63.0092 59.9323C63.536 58.9517 64.2924 58.2874 65.1082 57.5414C65.2632 57.3572 65.4182 57.173 65.5779 56.9833C66.0077 56.4766 66.0077 56.4766 66.9073 55.7481C68.1416 55.7262 68.8162 55.9317 69.8683 56.57C71.1216 57.0697 71.7576 56.75 72.9769 56.2747C73.1508 56.1995 73.3248 56.1244 73.504 56.047C73.4792 55.7881 73.4545 55.5292 73.429 55.2625C73.5239 53.986 73.8568 53.4154 74.7034 52.4605C75.6474 52.2609 75.6474 52.2609 76.5025 52.1617C76.4841 48.3789 76.461 44.5961 76.4318 40.8134C76.4184 39.0569 76.4066 37.3004 76.3986 35.5438C76.3908 33.8481 76.3787 32.1525 76.3636 30.4569C76.3586 29.8105 76.3551 29.1641 76.3532 28.5176C76.3504 27.6111 76.3419 26.7048 76.3323 25.7983C76.3327 25.532 76.3331 25.2656 76.3336 24.9912C76.3088 23.3517 76.0036 22.2586 75.3031 20.78C75.4905 20.0702 75.4905 20.0702 75.9028 19.5845C76.1996 19.4859 76.4965 19.3873 76.8023 19.2856Z" fill="#2A3F5A"/>
<path d="M56.8775 31.4122C59.6784 33.4216 61.4799 36.0956 62.2853 39.4362C62.8578 42.9559 62.2899 46.4042 60.3679 49.4344C60.0582 49.8521 59.7399 50.2635 59.4122 50.6673C59.2688 50.8506 59.1254 51.034 58.9776 51.223C57.359 53.0599 54.1463 54.9528 51.6525 55.208C47.251 55.3752 43.7466 54.9238 40.2874 51.9293C37.5895 49.2354 36.2277 46.1122 36.1738 42.2988C36.2297 38.6462 37.448 35.7272 39.9219 33.0338C44.7306 28.7128 51.3207 27.9887 56.8775 31.4122ZM41.4212 35.1259C39.2958 37.9953 38.3629 40.5078 38.7225 44.0921C39.4178 47.0529 40.9327 49.4284 43.4428 51.1693C46.4732 52.9356 49.3166 53.1837 52.6843 52.3297C55.4211 51.4118 57.3727 49.5398 58.8312 47.0866C60.0872 44.3898 60.2729 40.8 59.2622 37.9652C57.8016 34.9927 55.5778 33.3159 52.5156 32.1372C48.5603 31.1329 44.1568 31.938 41.4212 35.1259Z" fill="#2C415C"/>
<path d="M81.5913 63.4243C83.7085 64.792 84.8528 66.469 85.4987 68.8986C85.8413 70.9861 85.2839 72.9829 84.1002 74.7056C82.5555 76.5766 81.0611 77.6461 78.6362 77.9862C76.1093 78.1152 74.1983 77.4892 72.2843 75.8334C70.6562 74.1359 70.0324 72.4183 69.7754 70.1128C69.8724 68.0904 70.6924 66.2341 72.0617 64.7518C74.742 62.3575 78.3365 61.7376 81.5913 63.4243Z" fill="#283D59"/>
<path d="M51.3777 11.7788C52.8948 12.626 53.6479 13.5075 54.3142 15.1014C54.4626 16.4329 54.4626 16.4329 54.614 17.7913C57.0878 17.7913 59.5615 17.7913 62.1102 17.7913C62.1102 19.468 62.1102 21.1446 62.1102 22.8721C53.6995 22.8721 45.2887 22.8721 36.623 22.8721C36.623 21.1954 36.623 19.5188 36.623 17.7913C38.9979 17.7913 41.3727 17.7913 43.8194 17.7913C43.9184 16.805 44.0173 15.8187 44.1193 14.8026C45.5551 12.1138 48.3625 10.5766 51.3777 11.7788Z" fill="#E1E3E1"/>
<path d="M66.3088 78.1636C66.4078 78.3608 66.5067 78.5581 66.6087 78.7613C66.3276 79.5459 66.3276 79.5459 66.009 80.2557C66.5037 80.7488 66.9985 81.242 67.5082 81.75C68.7892 81.337 68.7892 81.337 70.0159 80.7904C71.0757 80.4743 71.4846 80.7321 72.4557 81.227C72.8685 81.4328 72.8685 81.4328 73.2897 81.6426C73.5587 81.7767 73.8277 81.9108 74.1049 82.0489C74.3782 82.1298 74.6514 82.2107 74.933 82.2941C75.6041 82.6467 75.6041 82.6467 75.8817 83.4242C75.9391 83.8715 75.9391 83.8715 75.9977 84.3278C76.0398 84.6276 76.082 84.9273 76.1254 85.2361C76.1513 85.4665 76.1772 85.6969 76.2038 85.9343C77.1933 85.8356 78.1828 85.737 79.2023 85.6354C79.4002 84.6491 79.5981 83.6628 79.802 82.6467C81.3053 82.1245 82.7145 81.6537 84.2998 81.4512C84.2998 81.6484 84.2998 81.8457 84.2998 82.0489C84.5966 82.1969 84.5966 82.1969 84.8995 82.3478C84.9984 82.545 85.0974 82.7423 85.1993 82.9455C84.1039 83.7327 83.2547 84.2812 81.901 84.4399C81.9257 84.705 81.9505 84.97 81.9759 85.2431C81.884 86.4574 81.5415 86.8664 80.7016 87.7275C79.6282 88.4407 78.8717 88.4075 77.6335 88.3971C77.4111 88.3976 77.1887 88.3982 76.9595 88.3987C76.2123 88.3997 75.4651 88.3964 74.7178 88.3931C74.183 88.3929 73.6482 88.393 73.1133 88.3934C71.6594 88.3935 70.2055 88.39 68.7516 88.3859C67.2329 88.3821 65.7142 88.3818 64.1955 88.3811C61.3187 88.3792 58.4419 88.3743 55.5651 88.3683C52.2904 88.3616 49.0157 88.3583 45.7409 88.3553C39.0037 88.3491 32.2665 88.3386 25.5293 88.3252C25.5293 88.2266 25.5293 88.128 25.5293 88.0264C27.1125 88.0264 28.6957 88.0264 30.3269 88.0264C30.3269 87.8291 30.3269 87.6319 30.3269 87.4286C28.7437 87.33 27.1605 87.2314 25.5293 87.1298C25.5293 87.0311 25.5293 86.9325 25.5293 86.8309C41.4603 86.8309 57.3913 86.8309 73.805 86.8309C73.7061 86.0419 73.6071 85.2528 73.5052 84.4399C71.5775 83.6887 71.5775 83.6887 69.5732 83.6939C69.0816 83.9362 68.5945 84.1877 68.1079 84.4399C66.4185 84.3412 65.5993 83.3368 64.4781 82.1785C63.7066 81.1907 63.5838 80.5923 63.6102 79.3591C64.2039 79.0632 64.7976 78.7673 65.4093 78.4624C65.5082 78.6597 65.6072 78.857 65.7091 79.0602C65.907 78.7643 66.1049 78.4684 66.3088 78.1636Z" fill="#354B65"/>
<path d="M80.1953 65.3308C81.5846 66.3291 82.7935 67.4678 83.1001 69.1974C83.3047 71.2362 82.8989 72.3894 81.6009 73.9794C80.0453 75.4191 78.7819 75.5795 76.7213 75.5578C75.2079 75.4022 74.4244 74.6236 73.43 73.5498C72.4129 72.0653 72.0298 70.7023 72.3055 68.8986C73.5665 65.435 76.782 64.2395 80.1953 65.3308Z" fill="#D9EFFC"/>
<path d="M30.9118 61.3862C31.2964 61.3871 31.2964 61.3871 31.6888 61.388C32.0917 61.3873 32.0917 61.3873 32.5028 61.3865C33.3953 61.3851 34.2878 61.386 35.1804 61.387C35.7977 61.3868 36.4151 61.3865 37.0324 61.3862C38.3281 61.3857 39.6237 61.3864 40.9194 61.3877C42.5842 61.3895 44.249 61.3885 45.9139 61.3867C47.1892 61.3856 48.4645 61.3859 49.7398 61.3867C50.3539 61.3869 50.9679 61.3867 51.5819 61.386C52.4385 61.3852 53.2951 61.3864 54.1517 61.388C54.4081 61.3874 54.6645 61.3868 54.9287 61.3862C56.6791 61.3926 56.6791 61.3926 57.0132 61.7256C57.0694 62.4541 57.0694 62.4541 57.0132 63.22C56.2337 63.9969 55.6948 63.8908 54.6329 63.8987C54.2591 63.8969 54.2591 63.8969 53.8776 63.895C53.6153 63.8961 53.353 63.8971 53.0827 63.8982C52.2127 63.9009 51.3427 63.8991 50.4727 63.8971C49.87 63.8975 49.2672 63.8981 48.6645 63.8988C47.4001 63.8997 46.1357 63.8984 44.8713 63.8956C43.2479 63.8922 41.6244 63.8942 40.001 63.8978C38.756 63.8999 37.511 63.8992 36.2661 63.8977C35.6673 63.8973 35.0686 63.8978 34.4699 63.8992C33.6342 63.9007 32.7986 63.8984 31.9629 63.895C31.7136 63.8963 31.4644 63.8975 31.2076 63.8987C29.4955 63.886 29.4955 63.886 28.8273 63.22C28.7711 62.4541 28.7711 62.4541 28.8273 61.7256C29.3831 61.1716 30.1722 61.3889 30.9118 61.3862Z" fill="#2B3E59"/>
<path d="M31.8579 69.1586C32.109 69.1581 32.3602 69.1576 32.6189 69.157C33.4514 69.1557 34.2839 69.1566 35.1164 69.1576C35.6929 69.1574 36.2695 69.1571 36.8461 69.1567C38.0553 69.1563 39.2644 69.1569 40.4736 69.1583C42.0272 69.16 43.5807 69.1591 45.1343 69.1573C46.325 69.1562 47.5157 69.1565 48.7064 69.1573C49.2794 69.1575 49.8524 69.1573 50.4254 69.1566C51.2246 69.1558 52.0237 69.157 52.8228 69.1586C53.1814 69.1577 53.1814 69.1577 53.5474 69.1568C55.1802 69.1631 55.1802 69.1631 55.5143 69.4962C55.5705 70.2247 55.5705 70.2247 55.5143 70.9905C54.748 71.7543 54.2516 71.6599 53.2069 71.666C52.8491 71.6634 52.8491 71.6634 52.4841 71.6609C52.1075 71.6617 52.1075 71.6617 51.7232 71.6626C50.8906 71.6637 50.0582 71.6605 49.2257 71.6572C48.6491 71.6568 48.0725 71.6567 47.496 71.6567C46.2868 71.6563 45.0776 71.6538 43.8684 71.6498C42.3149 71.6447 40.7613 71.6436 39.2078 71.6438C38.0171 71.6437 36.8264 71.6421 35.6357 71.6399C35.0627 71.639 34.4896 71.6384 33.9166 71.6381C33.1175 71.6375 32.3184 71.6349 31.5193 71.6317C31.2802 71.6318 31.0411 71.632 30.7947 71.6321C29.1619 71.6225 29.1619 71.6225 28.8277 71.2894C28.8155 70.6918 28.815 70.0938 28.8277 69.4962C29.7813 69.0209 30.8108 69.156 31.8579 69.1586Z" fill="#253752"/>
<path d="M54.9135 37.3115C55.5132 37.5169 55.5132 37.5169 56.1129 38.1147C56.0325 39.2582 55.3944 39.8635 54.6324 40.6738C54.2683 41.0656 54.2683 41.0656 53.8968 41.4653C53.6386 41.7404 53.3804 42.0155 53.1144 42.2989C52.595 42.8647 52.0765 43.4313 51.5589 43.9987C51.3092 44.27 51.0595 44.5412 50.8023 44.8206C50.2145 45.4765 49.6676 46.1472 49.1226 46.838C48.3168 47.6786 48.3168 47.6786 47.6386 47.8456C46.3683 47.5873 45.7344 46.7692 44.8685 45.848C44.7019 45.6777 44.5353 45.5074 44.3637 45.332C41.4765 42.3527 41.4765 42.3527 41.2891 41.1781C41.4202 40.5057 41.4202 40.5057 42.0199 39.9079C42.8806 39.8834 43.3721 40.0846 44.031 40.6317C45.1389 41.7192 46.1431 42.8856 47.1174 44.0921C48.0354 43.6871 48.6313 43.242 49.31 42.5079C49.4902 42.3143 49.6703 42.1207 49.8559 41.9212C50.0406 41.7191 50.2254 41.5171 50.4157 41.3089C50.6929 41.011 50.6929 41.011 50.9756 40.707C51.7501 39.8697 52.498 39.0323 53.2081 38.1392C53.7803 37.4354 53.9994 37.1691 54.9135 37.3115Z" fill="#2B405B"/>
<path d="M30.8587 76.9246C31.2289 76.9227 31.5992 76.9208 31.9806 76.9188C32.3879 76.9184 32.7952 76.918 33.2025 76.9178C33.6174 76.9168 34.0324 76.9158 34.4473 76.9148C35.3182 76.913 36.1891 76.9124 37.06 76.9126C38.1776 76.9127 39.2952 76.9086 40.4128 76.9034C41.2701 76.9001 42.1274 76.8995 42.9848 76.8997C43.3969 76.8993 43.809 76.898 44.2211 76.8957C44.7968 76.8928 45.3726 76.894 45.9484 76.8954C46.4404 76.8948 46.4404 76.8948 46.9424 76.8941C47.7182 76.968 47.7182 76.968 48.3179 77.5658C48.1514 78.9273 48.1514 78.9273 47.7182 79.359C47.151 79.3886 46.5827 79.3972 46.0147 79.3977C45.4683 79.3991 45.4683 79.3991 44.9109 79.4005C44.5103 79.4 44.1096 79.3994 43.7089 79.3987C43.3007 79.3989 42.8925 79.3992 42.4843 79.3996C41.6275 79.4 40.7707 79.3993 39.9139 79.398C38.8145 79.3963 37.7151 79.3972 36.6156 79.399C35.7722 79.4001 34.9287 79.3998 34.0853 79.399C33.6799 79.3988 33.2745 79.399 32.8691 79.3997C32.3026 79.4005 31.7362 79.3991 31.1698 79.3977C30.8471 79.3974 30.5244 79.3972 30.1919 79.3969C29.4274 79.359 29.4274 79.359 28.8277 79.0601C28.815 78.4625 28.8155 77.8645 28.8277 77.2669C29.3605 76.7358 30.1377 76.9271 30.8587 76.9246Z" fill="#283B56"/>
<path d="M39.0211 38.4136C39.3498 39.3964 39.2772 39.5584 39.0211 40.5057C38.7161 43.8598 39.427 46.6236 41.5616 49.2547C42.1867 49.9591 42.8317 50.6205 43.5188 51.2651C42.9251 51.1665 42.3314 51.0678 41.7197 50.9662C41.6304 51.863 41.6304 51.863 42.1508 52.4419C43.2068 53.2891 44.3666 53.7529 45.6178 54.2538C44.5212 54.6182 44.3373 54.4718 43.3314 53.9736C40.0479 52.237 37.8884 49.7384 36.6598 46.2403C36.1699 44.4499 36.2443 42.645 36.3224 40.8046C36.4214 40.8046 36.5203 40.8046 36.6223 40.8046C36.6405 41.0134 36.6586 41.2222 36.6773 41.4373C36.7025 41.7093 36.7276 41.9813 36.7535 42.2616C36.7778 42.532 36.8022 42.8025 36.8273 43.0811C36.8831 43.7966 36.8831 43.7966 37.222 44.391C37.4199 44.391 37.6178 44.391 37.8217 44.391C38.2909 43.4556 38.306 42.4306 38.4214 41.4023C38.6807 39.0921 38.6807 39.0921 39.0211 38.4136Z" fill="#253752"/>
<path d="M46.5189 29.4474C47.431 29.4312 48.3428 29.4194 49.255 29.4101C49.5116 29.405 49.7683 29.4 50.0327 29.3949C51.4861 29.3837 52.6499 29.4786 54.0151 30.0452C54.0151 30.2424 54.0151 30.4397 54.0151 30.6429C54.6088 30.8402 55.2025 31.0374 55.8142 31.2406C55.2205 31.5365 55.2205 31.5365 54.6148 31.8384C54.7632 32.2822 54.7632 32.2822 54.9147 32.735C54.5343 32.5871 54.5343 32.5871 54.1463 32.4361C53.0526 32.119 52.1492 32.0921 51.0166 32.1373C51.0166 32.0386 51.0166 31.94 51.0166 31.8384C48.7209 31.7805 46.62 31.7344 44.4199 32.4361C44.4199 31.8444 44.4199 31.2526 44.4199 30.6429C45.1126 30.347 45.8052 30.0511 46.5189 29.7463C46.5189 29.6477 46.5189 29.549 46.5189 29.4474Z" fill="#314862"/>
<path d="M84.898 68.3008C85.4977 68.8985 85.4977 68.8985 85.5914 69.9633C85.4907 72.8917 84.2333 74.6323 82.1994 76.6692C81.8036 76.2747 81.4078 75.8802 81 75.4737C81.1844 75.2125 81.1844 75.2125 81.3725 74.946C82.5367 73.1804 83.039 71.7404 83.243 69.6364C83.4495 68.6582 83.8746 68.3008 84.898 68.3008Z" fill="#334962"/>
<path d="M87.2969 55.748C88.7605 55.8707 89.543 56.5819 90.539 57.5786C90.6895 57.7166 90.8401 57.8545 90.9952 57.9966C91.8259 58.8167 92.0874 59.2727 92.221 60.4413C92.0846 61.5031 91.7418 62.0203 91.1949 62.921C91.2705 64.3902 91.9572 65.7729 92.994 66.8063C92.6972 66.8063 92.4003 66.8063 92.0945 66.8063C92.0945 67.1022 92.0945 67.3981 92.0945 67.703C92.4903 67.8016 92.8861 67.9002 93.2939 68.0018C91.4186 68.3613 91.4186 68.3613 90.587 68.1361C89.7128 67.4959 89.4012 66.6384 89.0023 65.6669C88.9194 65.4825 88.8364 65.2982 88.751 65.1083C88.2689 63.9691 88.0679 63.2007 88.4963 62.0244C89.1147 61.3332 89.1147 61.3332 89.6957 60.8289C89.6029 61.057 89.5101 61.285 89.4146 61.52C89.1922 62.0805 88.9873 62.6481 88.7961 63.2199C89.081 63.8248 89.3808 64.4231 89.6957 65.0131C89.6957 65.2104 89.6957 65.4076 89.6957 65.6108C89.8936 65.6108 90.0915 65.6108 90.2954 65.6108C90.2815 65.4375 90.2675 65.2641 90.2532 65.0855C90.1718 63.329 90.4802 62.5957 91.4948 61.1278C91.4644 59.9651 91.2787 59.4381 90.5413 58.5266C90.2746 58.2754 90.0079 58.0242 89.7332 57.7654C89.468 57.5112 89.2028 57.2569 88.9296 56.9949C88.1977 56.3169 88.1977 56.3169 87.2969 55.748Z" fill="#213451"/>
<path d="M46.8174 29.7461C46.1512 30.4102 45.5926 30.6206 44.7184 30.9416C44.8174 31.3361 44.9163 31.7307 45.0183 32.1371C45.2634 32.0393 45.5084 31.9414 45.7609 31.8406C46.9951 31.4887 48.0559 31.4722 49.3286 31.502C49.6597 31.5061 49.6597 31.5061 49.9974 31.5102C50.5367 31.5172 51.0758 31.5279 51.615 31.5394C51.615 31.638 51.615 31.7366 51.615 31.8382C51.332 31.8425 51.0491 31.8467 50.7576 31.8511C46.9795 31.991 44.044 32.9305 41.1203 35.4247C41.0213 35.0302 40.9224 34.6357 40.8204 34.2292C40.6225 34.2292 40.4246 34.2292 40.2207 34.2292C40.2207 34.032 40.2207 33.8347 40.2207 33.6315C40.4124 33.5452 40.6041 33.4589 40.8017 33.37C41.4657 33.0851 41.4657 33.0851 41.72 32.436C41.522 32.3374 41.3241 32.2387 41.1203 32.1371C41.5376 31.8489 41.9564 31.563 42.3759 31.2779C42.6089 31.1184 42.842 30.9589 43.0822 30.7945C44.3418 30.024 45.3346 29.6617 46.8174 29.7461Z" fill="#243752"/>
<path d="M77.1024 63.22C77.0034 63.4172 76.9045 63.6145 76.8025 63.8177C77.6931 63.9657 77.6931 63.9657 78.6016 64.1166C78.5027 64.4125 78.4037 64.7084 78.3018 65.0132C77.3023 65.2125 76.3028 65.4117 75.3033 65.6109C75.0416 65.673 74.7799 65.735 74.5103 65.7989C73.804 65.9098 73.804 65.9098 72.9045 65.6109C72.2547 65.8724 72.2547 65.8724 71.7051 66.2087C72.2387 65.0119 72.6378 64.1684 73.804 63.5188C74.9091 63.2 75.9567 63.1934 77.1024 63.22Z" fill="#2E4560"/>
<path d="M92.0961 74.2783C92.8877 74.3769 93.6793 74.4756 94.4949 74.5772C93.9659 76.0632 93.1774 77.3969 92.396 78.7614C92.0991 78.7614 91.8023 78.7614 91.4964 78.7614C90.8967 77.8648 90.8967 77.8648 90.953 77.0242C91.2109 76.0155 91.5957 75.1892 92.0961 74.2783Z" fill="#F1E9FC"/>
<path d="M29.4268 69.4963C37.8376 69.4963 46.2484 69.4963 54.914 69.4963C54.914 69.595 54.914 69.6936 54.914 69.7952C46.7011 69.8938 38.4883 69.9925 30.0265 70.0941C29.9276 70.39 29.8286 70.6859 29.7267 70.9907C29.5288 70.9907 29.3309 70.9907 29.127 70.9907C29.2259 70.4976 29.3249 70.0044 29.4268 69.4963Z" fill="#405871"/>
<path d="M60.9113 66.2087C61.7029 66.3074 62.4945 66.406 63.3101 66.5076C63.0132 66.9514 63.0132 66.9514 62.7104 67.4042C62.8093 67.6015 62.9083 67.7987 63.0102 68.002C62.8185 68.0698 62.6268 68.1376 62.4292 68.2075C61.7293 68.5556 61.7293 68.5556 61.5859 69.3843C61.5612 69.6185 61.5364 69.8527 61.511 70.0941C61.3131 69.8968 61.1152 69.6996 60.9113 69.4963C60.5464 70.2238 60.5156 70.8169 60.4427 71.6258C60.4051 72.0338 60.4051 72.0338 60.3666 72.45C60.3484 72.6589 60.3303 72.8677 60.3116 73.0828C60.2126 73.0828 60.1137 73.0828 60.0117 73.0828C59.9855 72.1613 59.9696 71.24 59.9555 70.3182C59.9479 70.0574 59.9404 69.7966 59.9326 69.5279C59.9103 67.5788 59.9103 67.5788 60.465 66.6244C60.6123 66.4872 60.7595 66.3501 60.9113 66.2087Z" fill="#385069"/>
<path d="M41.7208 50.6672C42.2155 50.7934 42.7087 50.9252 43.2013 51.0595C43.6135 51.1687 43.6135 51.1687 44.0341 51.2802C44.2602 51.3738 44.4863 51.4674 44.7193 51.5639C44.8182 51.8597 44.9172 52.1556 45.0191 52.4605C44.8212 52.4605 44.6233 52.4605 44.4194 52.4605C44.4194 52.855 44.4194 53.2495 44.4194 53.656C44.6173 53.7546 44.8152 53.8532 45.0191 53.9548C43.6618 53.7957 42.7942 53.2927 41.7208 52.4605C41.3085 51.788 41.3085 51.788 41.1211 51.265C41.319 51.0677 41.5169 50.8705 41.7208 50.6672Z" fill="#324A64"/>
<path d="M91.4965 61.1279C91.4038 61.3437 91.311 61.5594 91.2154 61.7817C90.9168 62.5697 90.7423 63.2892 90.597 64.1167C90.497 64.6148 90.3971 65.1129 90.2971 65.611C90.0992 65.611 89.9013 65.611 89.6974 65.611C89.3016 64.7234 88.9058 63.8357 88.498 62.9212C89.882 61.1279 89.882 61.1279 91.4965 61.1279Z" fill="#354E67"/>
<path d="M51.9152 53.0583C53.6393 53.2825 53.6393 53.2825 54.314 53.955C52.0865 54.937 52.0865 54.937 51.0156 55.1505C51.1146 54.8546 51.2135 54.5587 51.3155 54.2538C51.6123 54.2538 51.9092 54.2538 52.215 54.2538C52.1161 53.8593 52.0171 53.4648 51.9152 53.0583Z" fill="#374E67"/>
<path d="M42.0215 39.908C42.5837 39.9827 42.5837 39.9827 43.2209 40.2068C43.5957 40.8233 43.5957 40.8233 43.8206 41.4023C43.4248 41.501 43.029 41.5996 42.6212 41.7012C42.5222 41.4053 42.4233 41.1094 42.3213 40.8046C42.2224 41.1991 42.1234 41.5936 42.0215 42.0001C41.7414 41.1004 41.7083 40.8445 42.0215 39.908Z" fill="#374F6A"/>
<path d="M72.005 72.186C72.3019 72.4819 72.5987 72.7778 72.9046 73.0827C72.8056 73.3785 72.7067 73.6744 72.6047 73.9793C72.4068 73.9793 72.2089 73.9793 72.005 73.9793C71.9061 74.1765 71.8071 74.3738 71.7052 74.577C71.5073 74.0839 71.3094 73.5907 71.1055 73.0827C71.4023 72.7868 71.6992 72.4909 72.005 72.186Z" fill="#374D68"/>
<path d="M95.0948 67.4041C95.1937 67.4041 95.2927 67.4041 95.3946 67.4041C95.4936 69.3766 95.5925 71.3492 95.6945 73.3815C95.3976 73.3815 95.1008 73.3815 94.7949 73.3815C94.8939 71.4089 94.9928 69.4364 95.0948 67.4041Z" fill="#41576F"/>
<path d="M64.5101 68.3007C63.9666 68.7677 63.9666 68.7677 63.3107 69.1973C63.0139 69.0987 62.717 69 62.4112 68.8984C62.4112 69.6874 62.4112 70.4765 62.4112 71.2894C62.3122 71.2894 62.2133 71.2894 62.1113 71.2894C62.1113 70.4017 62.1113 69.5141 62.1113 68.5995C62.9236 68.1948 63.6134 68.2812 64.5101 68.3007ZM62.711 69.1973C63.0079 69.3452 63.0079 69.3452 63.3107 69.4962C63.0139 69.6441 63.0139 69.6441 62.711 69.795C62.711 69.5978 62.711 69.4005 62.711 69.1973Z" fill="#F1F2F0"/>
<path d="M91.1963 76.3704C91.796 76.9681 91.796 76.9681 92.0958 77.8647C92.2937 77.7661 92.4916 77.6675 92.6955 77.5659C92.5966 77.9604 92.4976 78.3549 92.3957 78.7613C92.0988 78.7613 91.802 78.7613 91.4961 78.7613C90.8964 77.8647 90.8964 77.8647 91.0089 77.0615C91.0707 76.8334 91.1325 76.6054 91.1963 76.3704Z" fill="#F7F4FB"/>
<path d="M89.0977 76.0715C89.2956 76.2688 89.4935 76.466 89.6974 76.6693C89.8953 76.7679 90.0932 76.8665 90.2971 76.9682C90.1982 77.1654 90.0992 77.3627 89.9973 77.5659C89.7994 77.4673 89.6015 77.3686 89.3976 77.267C89.2986 77.5629 89.1997 77.8588 89.0977 78.1636C88.8998 77.7691 88.7019 77.3746 88.498 76.9682C88.6959 76.6723 88.8938 76.3764 89.0977 76.0715Z" fill="#374F69"/>
<path d="M41.1211 41.1033C41.7569 41.8849 42.3597 42.6563 42.9202 43.4943C42.5244 43.4943 42.1286 43.4943 41.7208 43.4943C41.1917 42.5713 41.1211 42.2291 41.1211 41.1033Z" fill="#D9EAF1"/>
<path d="M45.3186 10.0205C45.5165 10.1191 45.7144 10.2178 45.9183 10.3194C45.4236 10.8125 44.9288 11.3057 44.4191 11.8137C44.1222 11.7151 43.8254 11.6165 43.5195 11.5149C44.1132 11.0217 44.7069 10.5286 45.3186 10.0205Z" fill="#1B2A48"/>
<path d="M63.6095 15.4004C63.9063 15.5976 64.2032 15.7949 64.509 15.9981C64.5652 16.7827 64.5652 16.7827 64.509 17.4925C64.4101 17.098 64.3111 16.7035 64.2092 16.297C63.8134 16.3956 63.4176 16.4943 63.0098 16.5959C63.0098 16.3 63.0098 16.0041 63.0098 15.6993C63.2077 15.6006 63.4056 15.502 63.6095 15.4004Z" fill="#1E3450"/>
</svg>
