<svg width="281" height="166" viewBox="0 0 281 166" fill="none" xmlns="http://www.w3.org/2000/svg">
<rect y="0.375" width="281" height="165" rx="5" fill="#E3FAFD"/>
<path d="M143.347 42.4788C145.853 43.7499 147.128 45.4537 148.013 48.1014C148.319 48.1079 148.319 48.1079 148.632 48.1146C149.556 48.1368 150.481 48.1657 151.405 48.1948C151.887 48.2049 151.887 48.2049 152.379 48.2152C152.841 48.2311 152.841 48.2311 153.313 48.2473C153.597 48.2551 153.882 48.263 154.174 48.271C154.91 48.4003 154.91 48.4003 155.459 48.7834C155.809 49.2969 155.809 49.2969 155.809 50.4924C156.069 50.4877 156.329 50.483 156.597 50.4781C157.571 50.4628 158.546 50.4516 159.521 50.4431C159.941 50.4386 160.361 50.4325 160.78 50.4247C165.929 50.3314 165.929 50.3314 167.876 51.947C168.037 52.1451 168.199 52.3431 168.365 52.5471C168.532 52.7436 168.698 52.9401 168.869 53.1425C169.989 54.7906 169.985 56.2581 169.97 58.1875C169.97 58.4793 169.97 58.771 169.97 59.0716C169.97 60.0338 169.965 60.9959 169.961 61.9581C169.96 62.6261 169.959 63.294 169.958 63.9619C169.956 65.7185 169.95 67.475 169.943 69.2316C169.937 71.0246 169.934 72.8176 169.931 74.6106C169.925 78.1276 169.915 81.6446 169.902 85.1616C170.188 85.2031 170.473 85.2446 170.767 85.2873C171.701 85.4605 171.701 85.4605 172.251 85.8399C172.694 86.4943 172.75 86.9743 172.807 87.7581C172.836 88.1204 172.836 88.1204 172.867 88.4901C172.878 88.6739 172.889 88.8576 172.901 89.047C174.331 89.5319 175.327 89.7458 176.799 89.3458C177.095 89.1486 177.392 88.9513 177.698 88.7481C178.534 88.6068 178.534 88.6068 179.497 88.7481C180.226 89.2861 180.788 89.7701 181.409 90.4106C181.654 90.6409 181.654 90.6409 181.904 90.8758C182.788 91.7643 183.075 92.1687 183.23 93.4518C183.085 94.5011 182.738 95.029 182.196 95.921C182.255 97.107 182.616 98.0158 183.395 98.9098C184.168 99.2149 184.934 99.4332 185.74 99.6336C186.394 99.8064 186.394 99.8064 186.694 100.105C186.72 100.572 186.726 101.04 186.723 101.507C186.722 101.79 186.721 102.072 186.72 102.363C186.717 102.659 186.715 102.956 186.712 103.262C186.711 103.56 186.71 103.858 186.708 104.165C186.705 104.904 186.7 105.643 186.694 106.382C184.698 107.269 184.698 107.269 183.77 107.353C182.977 107.534 182.977 107.534 182.533 108.548C182.199 109.659 182.119 110.096 182.496 111.164C182.601 111.355 182.706 111.546 182.814 111.743C183.219 112.63 183.216 113.18 183.095 114.152C182.633 114.892 182.052 115.47 181.428 116.076C181.274 116.242 181.119 116.407 180.961 116.578C180.491 117.045 180.076 117.414 179.497 117.739C178.251 117.724 177.599 117.561 176.536 116.917C175.283 116.417 174.647 116.737 173.428 117.212C173.167 117.325 173.167 117.325 172.901 117.44C172.896 117.642 172.892 117.844 172.888 118.052C172.77 120.241 172.77 120.241 171.907 121.194C170.506 121.942 169.336 121.962 167.75 121.967C167.533 121.968 167.316 121.969 167.092 121.97C166.364 121.974 165.637 121.975 164.909 121.976C164.388 121.978 163.866 121.98 163.344 121.982C161.631 121.988 159.918 121.991 158.204 121.994C157.614 121.995 157.024 121.997 156.434 121.998C153.66 122.004 150.887 122.008 148.113 122.01C144.914 122.013 141.715 122.021 138.516 122.033C136.042 122.042 133.567 122.047 131.093 122.048C129.616 122.048 128.139 122.051 126.662 122.059C125.272 122.065 123.882 122.067 122.491 122.064C121.982 122.064 121.473 122.065 120.964 122.069C115.46 122.111 115.46 122.111 113.305 120.282C111.449 118.35 110.994 115.95 111.017 113.358C111.016 113.112 111.015 112.866 111.013 112.612C111.01 111.796 111.012 110.98 111.015 110.164C111.014 109.575 111.012 108.987 111.01 108.398C111.006 106.806 111.008 105.213 111.011 103.621C111.013 101.952 111.011 100.283 111.01 98.614C111.008 95.8119 111.01 93.0099 111.014 90.2078C111.019 86.9707 111.018 83.7338 111.013 80.4967C111.009 77.7143 111.008 74.9318 111.01 72.1494C111.012 70.4889 111.012 68.8285 111.009 67.168C111.006 65.6071 111.008 64.0462 111.013 62.4852C111.015 61.9132 111.014 61.3411 111.012 60.7691C111.01 59.9867 111.013 59.2045 111.017 58.4221C111.015 58.1972 111.013 57.9722 111.011 57.7405C111.038 55.2902 111.817 53.4362 113.53 51.6879C115.123 50.5652 116.386 50.455 118.314 50.4632C118.512 50.4636 118.71 50.464 118.914 50.4645C119.543 50.4661 120.172 50.4699 120.802 50.4737C121.23 50.4752 121.658 50.4766 122.085 50.4778C123.132 50.4811 124.178 50.4862 125.225 50.4924C125.212 50.2581 125.2 50.0239 125.187 49.7825C125.225 48.998 125.225 48.998 125.824 48.4003C126.525 48.3324 126.525 48.3324 127.391 48.3419C127.855 48.3448 127.855 48.3448 128.328 48.3477C128.814 48.3552 128.814 48.3552 129.31 48.3629C129.636 48.3656 129.962 48.3683 130.299 48.3711C131.106 48.3781 131.913 48.388 132.721 48.4003C132.753 48.1298 132.786 47.8593 132.819 47.5807C133.222 45.6358 134.696 44.1127 136.319 43.0206C136.69 42.7617 136.69 42.7617 137.069 42.4975C139.043 41.7948 141.351 41.8082 143.347 42.4788Z" fill="#FDFDFD"/>
<path d="M162.705 38.2386C162.932 38.3468 163.159 38.4551 163.392 38.5666C168.592 41.0824 173.006 44.3437 177.098 48.4003C177.241 48.5419 177.385 48.6834 177.532 48.8293C186.5 57.8198 191.019 70.1936 190.986 82.7289C190.985 83.4777 190.992 84.2261 191 84.9748C191.012 88.2204 190.67 91.2546 189.992 94.4267C189.909 94.8301 189.909 94.8301 189.825 95.2416C189.258 97.9187 188.528 100.52 187.593 103.094C187.494 103.094 187.395 103.094 187.293 103.094C187.275 102.907 187.257 102.72 187.238 102.527C187.2 102.16 187.2 102.16 187.162 101.786C187.138 101.544 187.113 101.301 187.088 101.051C187.026 100.391 187.026 100.391 186.693 99.8064C186.171 99.7277 185.645 99.6687 185.119 99.6196C184.14 99.4607 183.567 99.3672 182.833 98.6915C182.214 97.7568 181.889 97.1071 181.915 95.9771C182.196 95.3233 182.196 95.3233 182.795 94.4267C182.976 93.0884 182.931 92.5246 182.137 91.4111C181.85 91.1219 181.557 90.8382 181.259 90.56C181.116 90.4126 180.974 90.2653 180.828 90.1135C180.067 89.375 179.596 89.0596 178.534 88.9232C177.672 88.9941 177.672 88.9941 176.948 89.514C176.199 89.9436 176.199 89.9436 175.299 89.8875C175.002 89.8074 174.705 89.7273 174.4 89.6447C174.127 89.5954 173.855 89.5461 173.575 89.4953C172.9 89.047 172.9 89.047 172.727 88.4411C172.642 87.9588 172.559 87.4762 172.478 86.9934C172.344 86.2756 172.344 86.2756 171.57 85.7594C171.019 85.5453 170.462 85.3478 169.902 85.1616C169.901 84.7925 169.9 84.4234 169.899 84.0431C169.887 80.5604 169.87 77.0777 169.847 73.5951C169.835 71.8047 169.825 70.0143 169.821 68.2239C169.816 66.4953 169.806 64.7668 169.791 63.0382C169.787 62.3795 169.785 61.7208 169.784 61.0621C169.784 60.1377 169.776 59.2137 169.766 58.2893C169.767 58.0185 169.769 57.7476 169.77 57.4685C169.738 55.5215 169.325 53.9033 167.99 52.4271C166.395 50.9972 164.744 50.7207 162.661 50.6675C162.464 50.6617 162.267 50.6559 162.064 50.65C161.441 50.6322 160.817 50.6183 160.194 50.6045C159.769 50.593 159.344 50.5814 158.919 50.5694C157.882 50.5409 156.846 50.5157 155.809 50.4924C155.716 50.252 155.623 50.0116 155.528 49.7639C155.28 49.0306 155.28 49.0306 154.909 48.6991C154.398 48.6521 153.885 48.6241 153.371 48.6046C153.061 48.5921 152.751 48.5795 152.432 48.5666C152.105 48.5549 151.779 48.5431 151.442 48.531C151.115 48.5181 150.787 48.5052 150.45 48.4919C149.637 48.4601 148.825 48.4296 148.013 48.4003C147.911 48.1945 147.809 47.9887 147.705 47.7767C147.571 47.5071 147.437 47.2374 147.298 46.9596C147.166 46.6922 147.033 46.4248 146.896 46.1492C145.933 44.2929 144.682 43.1893 142.666 42.5466C140.309 42.0979 138.04 42.1258 135.999 43.4549C134.135 44.9414 133.591 46.0864 132.721 48.4003C129.307 48.5482 129.307 48.5482 125.824 48.6991C125.527 49.5868 125.527 49.5868 125.224 50.4924C124.832 50.4989 124.832 50.4989 124.432 50.5056C123.453 50.5239 122.475 50.5461 121.496 50.5708C121.074 50.5807 120.652 50.5891 120.23 50.5959C119.621 50.606 119.011 50.6217 118.402 50.6383C117.853 50.65 117.853 50.65 117.293 50.662C115.308 50.9031 113.946 51.6523 112.631 53.1822C111.472 54.8738 111.387 56.2645 111.389 58.2784C111.388 58.5228 111.387 58.7672 111.386 59.0191C111.384 59.8393 111.383 60.6595 111.383 61.4797C111.382 62.0673 111.38 62.655 111.378 63.2427C111.374 64.8402 111.373 66.4377 111.371 68.0353C111.37 69.0336 111.369 70.0319 111.368 71.0302C111.364 74.1543 111.361 77.2784 111.36 80.4024C111.358 84.0075 111.353 87.6125 111.344 91.2176C111.338 94.0048 111.335 96.7921 111.334 99.5793C111.334 101.244 111.332 102.908 111.327 104.572C111.322 106.139 111.321 107.705 111.324 109.271C111.324 109.845 111.323 110.419 111.32 110.993C111.316 111.778 111.318 112.564 111.321 113.349C111.319 113.575 111.316 113.8 111.314 114.032C111.333 116.098 111.846 117.883 112.968 119.625C115.495 121.98 118.444 121.794 121.701 121.774C122.224 121.775 122.747 121.777 123.27 121.779C124.683 121.783 126.097 121.78 127.511 121.775C128.993 121.771 130.475 121.773 131.957 121.774C134.445 121.774 136.933 121.77 139.42 121.764C142.294 121.756 145.168 121.755 148.042 121.759C150.811 121.762 153.579 121.76 156.348 121.756C157.525 121.754 158.701 121.754 159.878 121.755C161.264 121.757 162.649 121.754 164.035 121.747C164.543 121.746 165.05 121.746 165.558 121.747C166.253 121.749 166.947 121.745 167.641 121.74C168.224 121.739 168.224 121.739 168.818 121.738C170.084 121.605 170.875 121.311 172.001 120.727C172.516 119.865 172.6 119.322 172.6 118.318C172.9 117.44 172.9 117.44 173.586 117.06C174.35 116.757 175.113 116.486 175.899 116.244C176.499 116.842 177.098 117.44 177.698 118.038C169.742 126.781 157.397 132.505 145.614 133.28C140.205 133.507 134.995 133.407 129.722 132.085C129.472 132.024 129.221 131.963 128.963 131.9C122.173 130.204 115.919 126.964 110.532 122.521C110.23 122.275 109.928 122.029 109.617 121.776C101.148 114.814 95.1785 105.691 92.5407 95.0244C92.4781 94.7859 92.4155 94.5475 92.351 94.3018C90.4664 86.9188 90.5755 78.1652 92.5407 70.8157C92.5969 70.6011 92.653 70.3865 92.7108 70.1654C93.0887 68.7632 93.5367 67.396 94.04 66.0338C94.1529 65.7273 94.1529 65.7273 94.2682 65.4146C96.6783 59.0051 100.245 53.4378 105.019 48.5296C105.392 48.1454 105.759 47.756 106.125 47.3659C120.374 32.5397 144.556 29.4966 162.705 38.2386Z" fill="#88BED1"/>
<path d="M143.347 42.4788C145.853 43.7499 147.128 45.4537 148.013 48.1014C148.319 48.1079 148.319 48.1079 148.632 48.1146C149.556 48.1368 150.481 48.1657 151.405 48.1948C151.887 48.2049 151.887 48.2049 152.379 48.2152C152.841 48.2311 152.841 48.2311 153.313 48.2473C153.597 48.2551 153.882 48.263 154.174 48.271C154.91 48.4003 154.91 48.4003 155.459 48.7834C155.809 49.2969 155.809 49.2969 155.809 50.4924C156.069 50.4877 156.329 50.483 156.597 50.4781C157.571 50.4628 158.546 50.4516 159.521 50.4431C159.941 50.4386 160.361 50.4325 160.78 50.4247C165.929 50.3314 165.929 50.3314 167.876 51.947C168.037 52.1451 168.199 52.3431 168.365 52.5471C168.532 52.7436 168.698 52.9401 168.869 53.1425C169.989 54.7906 169.985 56.2581 169.97 58.1875C169.97 58.4793 169.97 58.771 169.97 59.0716C169.97 60.0338 169.965 60.9959 169.961 61.9581C169.96 62.6261 169.959 63.294 169.958 63.9619C169.956 65.7185 169.95 67.475 169.943 69.2316C169.937 71.0246 169.934 72.8176 169.931 74.6106C169.925 78.1276 169.915 81.6446 169.902 85.1616C170.188 85.2031 170.473 85.2446 170.767 85.2873C171.701 85.4605 171.701 85.4605 172.251 85.8399C172.694 86.4943 172.75 86.9743 172.807 87.7581C172.836 88.1204 172.836 88.1204 172.867 88.4901C172.878 88.6739 172.889 88.8576 172.901 89.047C174.331 89.5319 175.327 89.7458 176.799 89.3458C177.095 89.1486 177.392 88.9513 177.698 88.7481C178.534 88.6068 178.534 88.6068 179.497 88.7481C180.226 89.2861 180.788 89.7701 181.409 90.4106C181.654 90.6409 181.654 90.6409 181.904 90.8758C182.788 91.7643 183.075 92.1687 183.23 93.4518C183.085 94.5011 182.738 95.029 182.196 95.921C182.255 97.107 182.616 98.0158 183.395 98.9098C184.168 99.2149 184.934 99.4332 185.74 99.6336C186.394 99.8064 186.394 99.8064 186.694 100.105C186.72 100.572 186.726 101.04 186.723 101.507C186.722 101.79 186.721 102.072 186.72 102.363C186.717 102.659 186.715 102.956 186.712 103.262C186.711 103.56 186.71 103.858 186.708 104.165C186.705 104.904 186.7 105.643 186.694 106.382C184.698 107.269 184.698 107.269 183.77 107.353C182.977 107.534 182.977 107.534 182.533 108.548C182.199 109.659 182.119 110.096 182.496 111.164C182.601 111.355 182.706 111.546 182.814 111.743C183.219 112.63 183.216 113.18 183.095 114.152C182.633 114.892 182.052 115.47 181.428 116.076C181.274 116.242 181.119 116.407 180.961 116.578C180.491 117.045 180.076 117.414 179.497 117.739C178.251 117.724 177.599 117.561 176.536 116.917C175.283 116.417 174.647 116.737 173.428 117.212C173.167 117.325 173.167 117.325 172.901 117.44C172.896 117.642 172.892 117.844 172.888 118.052C172.77 120.241 172.77 120.241 171.907 121.194C170.506 121.942 169.336 121.962 167.75 121.967C167.533 121.968 167.316 121.969 167.092 121.97C166.364 121.974 165.637 121.975 164.909 121.976C164.388 121.978 163.866 121.98 163.344 121.982C161.631 121.988 159.918 121.991 158.204 121.994C157.614 121.995 157.024 121.997 156.434 121.998C153.66 122.004 150.887 122.008 148.113 122.01C144.914 122.013 141.715 122.021 138.516 122.033C136.042 122.042 133.567 122.047 131.093 122.048C129.616 122.048 128.139 122.051 126.662 122.059C125.272 122.065 123.882 122.067 122.491 122.064C121.982 122.064 121.473 122.065 120.964 122.069C115.46 122.111 115.46 122.111 113.305 120.282C111.449 118.35 110.994 115.95 111.017 113.358C111.016 113.112 111.015 112.866 111.013 112.612C111.01 111.796 111.012 110.98 111.015 110.164C111.014 109.575 111.012 108.987 111.01 108.398C111.006 106.806 111.008 105.213 111.011 103.621C111.013 101.952 111.011 100.283 111.01 98.614C111.008 95.8119 111.01 93.0099 111.014 90.2078C111.019 86.9707 111.018 83.7338 111.013 80.4967C111.009 77.7143 111.008 74.9318 111.01 72.1494C111.012 70.4889 111.012 68.8285 111.009 67.168C111.006 65.6071 111.008 64.0462 111.013 62.4852C111.015 61.9132 111.014 61.3411 111.012 60.7691C111.01 59.9867 111.013 59.2045 111.017 58.4221C111.015 58.1972 111.013 57.9722 111.011 57.7405C111.038 55.2902 111.817 53.4362 113.53 51.6879C115.123 50.5652 116.386 50.455 118.314 50.4632C118.512 50.4636 118.71 50.464 118.914 50.4645C119.543 50.4661 120.172 50.4699 120.802 50.4737C121.23 50.4752 121.658 50.4766 122.085 50.4778C123.132 50.4811 124.178 50.4862 125.225 50.4924C125.212 50.2581 125.2 50.0239 125.187 49.7825C125.225 48.998 125.225 48.998 125.824 48.4003C126.525 48.3324 126.525 48.3324 127.391 48.3419C127.855 48.3448 127.855 48.3448 128.328 48.3477C128.814 48.3552 128.814 48.3552 129.31 48.3629C129.636 48.3656 129.962 48.3683 130.299 48.3711C131.106 48.3781 131.913 48.388 132.721 48.4003C132.753 48.1298 132.786 47.8593 132.819 47.5807C133.222 45.6358 134.696 44.1127 136.319 43.0206C136.69 42.7617 136.69 42.7617 137.069 42.4975C139.043 41.7948 141.351 41.8082 143.347 42.4788ZM114.387 54.4042C113.666 55.5315 113.661 56.4827 113.674 57.7773C113.672 58.0285 113.669 58.2797 113.667 58.5386C113.661 59.38 113.663 60.2211 113.666 61.0625C113.663 61.6659 113.66 62.2693 113.656 62.8727C113.648 64.5116 113.648 66.1504 113.649 67.7893C113.65 69.1574 113.647 70.5255 113.644 71.8936C113.638 75.1213 113.637 78.349 113.641 81.5768C113.645 84.9065 113.637 88.2361 113.624 91.5659C113.614 94.4247 113.61 97.2835 113.612 100.142C113.613 101.85 113.612 103.557 113.603 105.265C113.596 106.87 113.597 108.476 113.605 110.082C113.606 110.671 113.605 111.26 113.6 111.849C113.593 112.654 113.598 113.458 113.606 114.263C113.601 114.496 113.597 114.728 113.592 114.968C113.623 116.521 114.037 117.4 115.125 118.52C116.421 119.585 117.827 119.606 119.443 119.604C119.638 119.604 119.833 119.605 120.034 119.605C120.683 119.606 121.333 119.603 121.982 119.6C122.449 119.6 122.916 119.6 123.383 119.6C124.648 119.6 125.913 119.597 127.177 119.593C128.5 119.589 129.824 119.589 131.147 119.588C133.651 119.586 136.155 119.581 138.659 119.575C141.51 119.568 144.361 119.565 147.212 119.562C153.076 119.556 158.941 119.545 164.805 119.532C164.734 118.071 164.734 118.071 163.938 116.953C162.481 116.347 162.481 116.347 160.944 116.431C160.429 116.763 159.918 117.101 159.407 117.44C158.259 117.485 157.561 117.345 156.66 116.618C155.771 115.742 155.004 114.891 154.31 113.853C154.378 112.816 154.536 112.176 155.097 111.294C155.576 110.599 155.576 110.599 155.472 109.837C155.385 109.585 155.299 109.332 155.209 109.071C155.111 108.757 155.012 108.443 154.91 108.119C154.225 107.159 154.064 107.137 152.961 106.923C152.729 106.894 152.497 106.866 152.258 106.836C151.467 106.646 151.219 106.41 150.712 105.784C150.527 104.896 150.573 103.999 150.581 103.094C150.575 102.849 150.569 102.604 150.562 102.351C150.564 100.571 150.564 100.571 151.245 99.8017C151.89 99.517 152.414 99.3755 153.111 99.2834C153.856 99.1195 154.216 99.0096 154.742 98.4498C155.192 97.7159 155.551 97.1068 155.424 96.2316C155.218 95.6107 155.218 95.6107 154.91 95.0011C154.578 94.2832 154.373 93.7228 154.31 92.9323C154.842 91.9546 155.592 91.2864 156.409 90.5413C156.656 90.2393 156.904 89.9372 157.158 89.626C157.908 89.047 157.908 89.047 158.939 89.047C160.007 89.3458 160.007 89.3458 160.869 89.8875C161.94 90.2933 162.188 90.232 163.23 89.8502C164.003 89.4631 164.408 89.2445 164.789 88.4632C164.928 87.8675 165.018 87.2613 165.104 86.656C165.825 85.5781 166.288 85.504 167.503 85.1616C167.531 81.3789 167.552 77.5962 167.565 73.8134C167.572 72.0568 167.58 70.3003 167.594 68.5437C167.607 66.8481 167.614 65.1525 167.617 63.4569C167.619 62.8104 167.624 62.164 167.63 61.5176C167.639 60.6111 167.64 59.7048 167.639 58.7983C167.646 58.3987 167.646 58.3987 167.653 57.9911C167.641 56.2393 167.331 55.214 166.304 53.78C165.007 52.8995 163.976 52.7753 162.427 52.7958C161.847 52.8001 161.847 52.8001 161.256 52.8045C160.852 52.812 160.448 52.8196 160.045 52.8273C159.634 52.8318 159.223 52.8359 158.812 52.8396C157.811 52.8501 156.81 52.8648 155.809 52.8834C155.787 53.3208 155.787 53.3208 155.765 53.7671C155.742 54.1474 155.72 54.5276 155.697 54.9194C155.676 55.2974 155.655 55.6753 155.633 56.0647C155.509 57.0676 155.509 57.0676 154.91 57.9642C153.979 58.0513 153.108 58.0802 152.176 58.0707C151.751 58.0716 151.751 58.0716 151.318 58.0726C150.378 58.0735 149.439 58.0679 148.499 58.0623C147.849 58.0613 147.198 58.0608 146.548 58.0606C145.183 58.0592 143.819 58.0549 142.454 58.0483C140.701 58.0398 138.948 58.0365 137.195 58.0352C135.851 58.034 134.508 58.031 133.164 58.0275C132.517 58.0258 131.871 58.0243 131.224 58.0232C130.322 58.0212 129.42 58.0171 128.519 58.0124C128.114 58.0118 128.114 58.0118 127.701 58.0113C125.859 57.9985 125.859 57.9985 125.524 57.6653C125.453 56.8606 125.398 56.0619 125.356 55.2557C125.343 55.0289 125.33 54.8022 125.316 54.5686C125.285 54.0069 125.254 53.4451 125.225 52.8834C123.863 52.8572 122.501 52.8414 121.139 52.8273C120.754 52.8198 120.368 52.8123 119.971 52.8045C119.598 52.8017 119.225 52.7988 118.841 52.7958C118.499 52.7911 118.156 52.7864 117.804 52.7816C116.357 52.9326 115.426 53.3948 114.387 54.4042Z" fill="#2D405B"/>
<path d="M167.203 87.5527C168.193 87.5527 169.182 87.5527 170.202 87.5527C170.228 87.7762 170.255 87.9996 170.283 88.2299C170.459 89.194 170.654 89.965 171.101 90.8403C172.144 91.4923 173.213 91.7459 174.4 92.0358C174.66 92.1553 174.92 92.2747 175.188 92.3977C175.878 92.7095 175.878 92.7095 176.462 92.4199C176.629 92.2993 176.796 92.1787 176.967 92.0545C177.938 91.4398 177.938 91.4398 178.635 91.4194C179.466 91.8886 180.053 92.5364 180.697 93.2313C180.359 94.1195 180.03 94.8256 179.497 95.6223C179.559 96.3381 179.559 96.3381 179.797 97.1167C179.916 97.5616 179.916 97.5616 180.038 98.0156C180.65 99.9141 180.65 99.9141 182.129 101.135C182.955 101.353 183.746 101.511 184.595 101.6C184.595 102.586 184.595 103.572 184.595 104.588C183.398 105.014 182.254 105.306 180.996 105.485C180.916 105.843 180.836 106.2 180.753 106.569C180.543 107.429 180.321 108.017 179.891 108.81C179.407 109.867 179.461 110.362 179.797 111.463C180.231 112.157 180.231 112.157 180.697 112.658C180.264 113.664 179.697 114.305 178.897 115.049C177.169 114.488 177.169 114.488 176.401 114.088C175.298 113.765 174.792 114.068 173.763 114.545C173.453 114.685 173.143 114.826 172.823 114.971C172.552 115.095 172.28 115.22 172.001 115.348C171.704 115.447 171.407 115.545 171.101 115.647C171.062 115.859 171.022 116.071 170.981 116.29C170.928 116.565 170.875 116.839 170.82 117.122C170.768 117.396 170.716 117.67 170.662 117.953C170.502 118.636 170.502 118.636 170.202 118.934C169.696 118.956 169.19 118.959 168.684 118.953C168.27 118.949 168.27 118.949 167.849 118.945C167.529 118.94 167.529 118.94 167.203 118.934C167.163 118.599 167.163 118.599 167.122 118.257C166.947 117.293 166.751 116.522 166.304 115.647C165.261 114.995 164.192 114.741 163.005 114.451C162.748 114.331 162.491 114.212 162.227 114.088C161.519 113.777 161.519 113.777 160.877 114.078C160.683 114.201 160.488 114.324 160.288 114.451C159.697 114.825 159.697 114.825 159.107 115.049C158.073 114.686 157.45 114.047 156.709 113.256C157.046 112.368 157.375 111.661 157.908 110.865C157.835 109.375 157.239 108.087 156.661 106.732C156.409 106.083 156.409 106.083 156.409 105.485C155.221 105.288 154.034 105.091 152.811 104.887C152.811 103.802 152.811 102.718 152.811 101.6C154.046 101.213 155.11 100.924 156.409 101.002C156.442 100.825 156.474 100.648 156.508 100.466C156.911 98.4674 156.911 98.4674 157.514 97.5089C157.993 96.8144 157.993 96.8144 157.852 95.8838C157.642 94.9755 157.642 94.9755 157.008 94.1279C157.059 93.1549 157.256 92.7017 157.852 91.9237C158.508 91.4381 158.508 91.4381 159.107 91.4754C159.707 91.737 159.707 91.737 160.251 92.0732C161.23 92.4639 162.014 92.2742 163.005 92.0358C163.282 91.9788 163.558 91.9218 163.843 91.863C164.777 91.6121 165.495 91.3728 166.304 90.8403C166.846 89.7716 167.062 88.7368 167.203 87.5527Z" fill="#E0E2E0"/>
<path d="M147.877 64.4122C150.678 66.4216 152.48 69.0956 153.285 72.4362C153.858 75.9559 153.29 79.4042 151.368 82.4344C151.058 82.8521 150.74 83.2635 150.412 83.6673C150.269 83.8506 150.125 84.034 149.978 84.223C148.359 86.0599 145.146 87.9528 142.653 88.208C138.251 88.3752 134.747 87.9238 131.287 84.9293C128.589 82.2354 127.228 79.1122 127.174 75.2988C127.23 71.6462 128.448 68.7272 130.922 66.0338C135.731 61.7128 142.321 60.9887 147.877 64.4122Z" fill="#D9F0FC"/>
<path d="M167.802 52.2856C169.002 53.3874 169.811 54.2185 169.953 55.8864C169.975 56.6542 169.975 57.4195 169.969 58.1876C169.969 58.4793 169.97 58.771 169.97 59.0716C169.969 60.0338 169.965 60.9959 169.96 61.9581C169.959 62.6261 169.958 63.294 169.957 63.962C169.955 65.7185 169.949 67.4751 169.942 69.2316C169.936 71.0246 169.934 72.8176 169.931 74.6106C169.924 78.1276 169.914 81.6446 169.901 85.1617C170.187 85.2031 170.472 85.2446 170.766 85.2874C171.7 85.4605 171.7 85.4605 172.25 85.84C172.693 86.4944 172.749 86.9743 172.806 87.7581C172.826 87.9997 172.845 88.2412 172.866 88.4901C172.883 88.7658 172.883 88.7658 172.9 89.047C174.331 89.5319 175.327 89.7458 176.798 89.3459C177.095 89.1486 177.391 88.9514 177.697 88.7481C178.534 88.6069 178.534 88.6069 179.496 88.7481C180.225 89.2862 180.788 89.7701 181.408 90.4106C181.571 90.5641 181.735 90.7177 181.903 90.8758C182.787 91.7644 183.075 92.1687 183.229 93.4519C183.084 94.5011 182.737 95.029 182.195 95.9211C182.255 97.1071 182.616 98.0158 183.394 98.9098C184.168 99.215 184.933 99.4332 185.739 99.6336C186.393 99.8064 186.393 99.8064 186.693 100.105C186.719 100.572 186.725 101.04 186.722 101.507C186.721 101.931 186.721 101.931 186.719 102.363C186.715 102.808 186.715 102.808 186.712 103.262C186.71 103.56 186.709 103.858 186.707 104.165C186.704 104.904 186.699 105.643 186.693 106.382C184.697 107.269 184.697 107.269 183.769 107.353C182.976 107.534 182.976 107.534 182.532 108.548C182.198 109.659 182.119 110.096 182.495 111.164C182.6 111.355 182.705 111.546 182.814 111.743C183.218 112.63 183.216 113.18 183.095 114.152C182.632 114.892 182.051 115.47 181.427 116.076C181.273 116.242 181.119 116.407 180.96 116.578C180.49 117.045 180.074 117.413 179.496 117.739C177.764 117.728 176.717 117.139 175.299 116.244C175.397 115.949 175.496 115.653 175.598 115.348C175.499 115.052 175.4 114.756 175.299 114.451C174.705 114.648 174.111 114.846 173.499 115.049C174.214 114.224 174.817 113.77 175.898 113.555C176.542 113.83 177.116 114.152 177.708 114.526C178.304 114.826 178.304 114.826 178.938 114.519C179.503 114.148 179.942 113.754 180.396 113.256C180.059 112.367 179.729 111.661 179.197 110.865C179.372 108.966 179.916 107.067 180.996 105.485C182.071 104.929 183.095 104.714 184.294 104.588C184.393 103.602 184.492 102.616 184.594 101.6C184.38 101.609 184.166 101.617 183.946 101.627C182.912 101.572 182.232 101.457 181.296 101.002C180.152 99.6179 179.12 97.4621 179.266 95.6712C179.529 94.9341 179.889 94.4223 180.396 93.829C180.013 92.9784 179.672 92.2805 178.897 91.7369C177.91 91.79 177.419 92.0204 176.61 92.5961C175.368 93.0089 175.091 92.811 173.93 92.2786C173.386 91.9994 172.843 91.7192 172.3 91.438C172.027 91.3567 171.754 91.2754 171.473 91.1916C170.801 90.8402 170.801 90.8402 170.523 90.0627C170.485 89.7645 170.447 89.4663 170.407 89.1591C170.365 88.8593 170.323 88.5596 170.28 88.2508C170.254 88.0204 170.228 87.79 170.201 87.5526C169.212 87.5526 168.222 87.5526 167.203 87.5526C167.201 87.7726 167.2 87.9926 167.198 88.2193C167.12 89.1982 166.999 89.9376 166.603 90.8402C165.485 91.6276 164.32 91.9884 163.005 92.3346C162.682 92.4259 162.682 92.4259 162.353 92.5191C161.398 92.7255 160.958 92.6626 160.1 92.1852C159.871 92.0372 159.642 91.8893 159.407 91.7369C158.652 91.7811 158.292 91.9806 157.664 92.3906C157.218 92.9499 157.218 92.9499 157.364 93.829C157.568 94.7701 157.568 94.7701 158.207 95.6222C158.115 97.0037 157.642 97.994 157.008 99.2087C156.798 99.803 156.595 100.4 156.408 101.002C154.627 101.298 154.627 101.298 152.81 101.6C152.81 102.685 152.81 103.769 152.81 104.887C153.237 104.93 153.663 104.974 154.103 105.018C154.942 105.103 155.601 105.217 156.408 105.485C156.779 106.158 157.087 106.797 157.383 107.502C157.467 107.688 157.551 107.874 157.638 108.065C158.126 109.206 158.356 109.985 157.907 111.164C157.139 111.855 157.139 111.855 156.408 112.359C156.26 112.063 156.26 112.063 156.108 111.761C155.499 111.953 155.499 111.953 154.909 112.359C154.665 113.123 154.665 113.123 154.609 113.853C154.807 113.952 155.005 114.051 155.209 114.152C155.505 114.481 155.791 114.819 156.071 115.161C157.017 116.291 157.017 116.291 158.207 117.141C159.007 117.216 159.007 117.216 159.706 117.141C159.607 117.338 159.508 117.536 159.407 117.739C158.159 117.765 157.57 117.654 156.588 116.853C155.63 115.899 154.762 114.978 154.009 113.853C154.077 112.816 154.235 112.176 154.796 111.294C155.281 110.596 155.281 110.596 155.152 109.819C155.072 109.572 154.992 109.326 154.909 109.071C154.859 108.806 154.81 108.541 154.759 108.268C154.384 107.531 154.384 107.531 153.712 107.393C153.243 107.305 152.771 107.232 152.297 107.174C151.331 106.9 150.988 106.609 150.411 105.784C150.229 104.884 150.23 104.01 150.242 103.094C150.235 102.853 150.228 102.612 150.221 102.363C150.224 101.128 150.237 100.595 151.094 99.6546C151.832 99.2517 152.325 99.0532 153.147 98.9472C154.183 98.7286 154.263 98.6755 154.928 97.7517C155.275 96.5962 155.124 96.0688 154.609 95.0011C154.278 94.2841 154.073 93.7217 154.009 92.9323C154.536 91.9517 155.292 91.2874 156.108 90.5414C156.263 90.3572 156.418 90.173 156.578 89.9833C157.008 89.4766 157.008 89.4766 157.907 88.7481C159.142 88.7262 159.816 88.9317 160.868 89.57C162.122 90.0697 162.758 89.75 163.977 89.2747C164.151 89.1995 164.325 89.1244 164.504 89.047C164.479 88.7881 164.454 88.5292 164.429 88.2625C164.524 86.986 164.857 86.4154 165.703 85.4605C166.647 85.2609 166.647 85.2609 167.502 85.1617C167.484 81.3789 167.461 77.5961 167.432 73.8134C167.418 72.0569 167.407 70.3004 167.399 68.5438C167.391 66.8481 167.379 65.1525 167.364 63.4569C167.359 62.8105 167.355 62.1641 167.353 61.5176C167.35 60.6111 167.342 59.7048 167.332 58.7983C167.333 58.532 167.333 58.2656 167.334 57.9912C167.309 56.3517 167.004 55.2586 166.303 53.78C166.49 53.0702 166.49 53.0702 166.903 52.5845C167.2 52.4859 167.496 52.3873 167.802 52.2856Z" fill="#2A3F5A"/>
<path d="M147.877 64.4122C150.678 66.4216 152.48 69.0956 153.285 72.4362C153.858 75.9559 153.29 79.4042 151.368 82.4344C151.058 82.8521 150.74 83.2635 150.412 83.6673C150.269 83.8506 150.125 84.034 149.978 84.223C148.359 86.0599 145.146 87.9528 142.653 88.208C138.251 88.3752 134.747 87.9238 131.287 84.9293C128.589 82.2354 127.228 79.1122 127.174 75.2988C127.23 71.6462 128.448 68.7272 130.922 66.0338C135.731 61.7128 142.321 60.9887 147.877 64.4122ZM132.421 68.1259C130.296 70.9953 129.363 73.5078 129.723 77.0921C130.418 80.0529 131.933 82.4284 134.443 84.1693C137.473 85.9356 140.317 86.1837 143.684 85.3297C146.421 84.4118 148.373 82.5398 149.831 80.0866C151.087 77.3898 151.273 73.8 150.262 70.9652C148.802 67.9927 146.578 66.3159 143.516 65.1372C139.56 64.1329 135.157 64.938 132.421 68.1259Z" fill="#2C415C"/>
<path d="M172.591 96.4243C174.708 97.792 175.853 99.469 176.499 101.899C176.841 103.986 176.284 105.983 175.1 107.706C173.556 109.577 172.061 110.646 169.636 110.986C167.109 111.115 165.198 110.489 163.284 108.833C161.656 107.136 161.032 105.418 160.775 103.113C160.872 101.09 161.692 99.2341 163.062 97.7518C165.742 95.3575 169.336 94.7376 172.591 96.4243Z" fill="#283D59"/>
<path d="M142.378 44.7788C143.895 45.626 144.648 46.5075 145.314 48.1014C145.463 49.4329 145.463 49.4329 145.614 50.7913C148.088 50.7913 150.562 50.7913 153.11 50.7913C153.11 52.468 153.11 54.1446 153.11 55.8721C144.699 55.8721 136.289 55.8721 127.623 55.8721C127.623 54.1954 127.623 52.5188 127.623 50.7913C129.998 50.7913 132.373 50.7913 134.819 50.7913C134.918 49.805 135.017 48.8187 135.119 47.8026C136.555 45.1138 139.363 43.5766 142.378 44.7788Z" fill="#E1E3E1"/>
<path d="M157.309 111.164C157.408 111.361 157.507 111.558 157.609 111.761C157.328 112.546 157.328 112.546 157.009 113.256C157.504 113.749 157.998 114.242 158.508 114.75C159.789 114.337 159.789 114.337 161.016 113.79C162.076 113.474 162.485 113.732 163.456 114.227C163.869 114.433 163.869 114.433 164.29 114.643C164.559 114.777 164.828 114.911 165.105 115.049C165.378 115.13 165.651 115.211 165.933 115.294C166.604 115.647 166.604 115.647 166.882 116.424C166.939 116.871 166.939 116.871 166.998 117.328C167.04 117.628 167.082 117.927 167.125 118.236C167.151 118.467 167.177 118.697 167.204 118.934C168.193 118.836 169.183 118.737 170.202 118.635C170.4 117.649 170.598 116.663 170.802 115.647C172.305 115.125 173.715 114.654 175.3 114.451C175.3 114.648 175.3 114.846 175.3 115.049C175.597 115.197 175.597 115.197 175.899 115.348C175.998 115.545 176.097 115.742 176.199 115.946C175.104 116.733 174.255 117.281 172.901 117.44C172.926 117.705 172.95 117.97 172.976 118.243C172.884 119.457 172.542 119.866 171.702 120.728C170.628 121.441 169.872 121.407 168.633 121.397C168.411 121.398 168.189 121.398 167.96 121.399C167.212 121.4 166.465 121.396 165.718 121.393C165.183 121.393 164.648 121.393 164.113 121.393C162.659 121.394 161.206 121.39 159.752 121.386C158.233 121.382 156.714 121.382 155.195 121.381C152.319 121.379 149.442 121.374 146.565 121.368C143.29 121.362 140.016 121.358 136.741 121.355C130.004 121.349 123.266 121.339 116.529 121.325C116.529 121.227 116.529 121.128 116.529 121.026C118.113 121.026 119.696 121.026 121.327 121.026C121.327 120.829 121.327 120.632 121.327 120.429C119.744 120.33 118.16 120.231 116.529 120.13C116.529 120.031 116.529 119.933 116.529 119.831C132.46 119.831 148.391 119.831 164.805 119.831C164.706 119.042 164.607 118.253 164.505 117.44C162.577 116.689 162.577 116.689 160.573 116.694C160.082 116.936 159.595 117.188 159.108 117.44C157.419 117.341 156.599 116.337 155.478 115.179C154.707 114.191 154.584 113.592 154.61 112.359C155.204 112.063 155.798 111.767 156.409 111.462C156.508 111.66 156.607 111.857 156.709 112.06C156.907 111.764 157.105 111.468 157.309 111.164Z" fill="#354B65"/>
<path d="M171.195 98.3308C172.585 99.3291 173.793 100.468 174.1 102.197C174.305 104.236 173.899 105.389 172.601 106.979C171.045 108.419 169.782 108.58 167.721 108.558C166.208 108.402 165.424 107.624 164.43 106.55C163.413 105.065 163.03 103.702 163.306 101.899C164.567 98.435 167.782 97.2395 171.195 98.3308Z" fill="#D9EFFC"/>
<path d="M121.912 94.3862C122.296 94.3871 122.296 94.3871 122.689 94.388C123.092 94.3873 123.092 94.3873 123.503 94.3865C124.395 94.3851 125.288 94.386 126.18 94.387C126.798 94.3868 127.415 94.3865 128.032 94.3862C129.328 94.3857 130.624 94.3864 131.919 94.3877C133.584 94.3895 135.249 94.3885 136.914 94.3867C138.189 94.3856 139.464 94.3859 140.74 94.3867C141.354 94.3869 141.968 94.3867 142.582 94.386C143.439 94.3852 144.295 94.3864 145.152 94.388C145.408 94.3874 145.665 94.3868 145.929 94.3862C147.679 94.3926 147.679 94.3926 148.013 94.7256C148.069 95.4541 148.069 95.4541 148.013 96.22C147.234 96.9969 146.695 96.8908 145.633 96.8987C145.259 96.8969 145.259 96.8969 144.878 96.895C144.615 96.8961 144.353 96.8971 144.083 96.8982C143.213 96.9009 142.343 96.8991 141.473 96.8971C140.87 96.8975 140.267 96.8981 139.664 96.8988C138.4 96.8997 137.136 96.8984 135.871 96.8956C134.248 96.8922 132.624 96.8942 131.001 96.8978C129.756 96.8999 128.511 96.8992 127.266 96.8977C126.667 96.8973 126.069 96.8978 125.47 96.8992C124.634 96.9007 123.799 96.8984 122.963 96.895C122.714 96.8963 122.464 96.8975 122.208 96.8987C120.496 96.886 120.496 96.886 119.827 96.22C119.771 95.4541 119.771 95.4541 119.827 94.7256C120.383 94.1716 121.172 94.3889 121.912 94.3862Z" fill="#2B3E59"/>
<path d="M122.858 102.159C123.109 102.158 123.36 102.158 123.619 102.157C124.451 102.156 125.284 102.157 126.116 102.158C126.693 102.157 127.27 102.157 127.846 102.157C129.055 102.156 130.264 102.157 131.474 102.158C133.027 102.16 134.581 102.159 136.134 102.157C137.325 102.156 138.516 102.157 139.706 102.157C140.279 102.157 140.852 102.157 141.425 102.157C142.225 102.156 143.024 102.157 143.823 102.159C144.181 102.158 144.181 102.158 144.547 102.157C146.18 102.163 146.18 102.163 146.514 102.496C146.571 103.225 146.571 103.225 146.514 103.991C145.748 104.754 145.252 104.66 144.207 104.666C143.849 104.663 143.849 104.663 143.484 104.661C143.107 104.662 143.107 104.662 142.723 104.663C141.891 104.664 141.058 104.661 140.226 104.657C139.649 104.657 139.073 104.657 138.496 104.657C137.287 104.656 136.078 104.654 134.868 104.65C133.315 104.645 131.761 104.644 130.208 104.644C129.017 104.644 127.826 104.642 126.636 104.64C126.063 104.639 125.49 104.638 124.917 104.638C124.117 104.638 123.318 104.635 122.519 104.632C122.28 104.632 122.041 104.632 121.795 104.632C120.162 104.622 120.162 104.622 119.828 104.289C119.815 103.692 119.815 103.094 119.828 102.496C120.781 102.021 121.811 102.156 122.858 102.159Z" fill="#253752"/>
<path d="M145.913 70.3115C146.513 70.5169 146.513 70.5169 147.113 71.1147C147.032 72.2582 146.394 72.8635 145.632 73.6738C145.268 74.0656 145.268 74.0656 144.897 74.4653C144.639 74.7404 144.38 75.0155 144.114 75.2989C143.595 75.8647 143.076 76.4313 142.559 76.9987C142.309 77.27 142.06 77.5412 141.802 77.8206C141.214 78.4765 140.668 79.1472 140.123 79.838C139.317 80.6786 139.317 80.6786 138.639 80.8456C137.368 80.5873 136.734 79.7692 135.869 78.848C135.702 78.6777 135.535 78.5074 135.364 78.332C132.477 75.3527 132.477 75.3527 132.289 74.1781C132.42 73.5057 132.42 73.5057 133.02 72.9079C133.881 72.8834 134.372 73.0846 135.031 73.6317C136.139 74.7192 137.143 75.8856 138.117 77.0921C139.035 76.6871 139.631 76.242 140.31 75.5079C140.49 75.3143 140.67 75.1207 140.856 74.9212C141.041 74.7191 141.225 74.5171 141.416 74.3089C141.693 74.011 141.693 74.011 141.976 73.707C142.75 72.8697 143.498 72.0323 144.208 71.1392C144.78 70.4354 144.999 70.1691 145.913 70.3115Z" fill="#2B405B"/>
<path d="M121.859 109.925C122.229 109.923 122.599 109.921 122.981 109.919C123.388 109.918 123.795 109.918 124.202 109.918C124.617 109.917 125.032 109.916 125.447 109.915C126.318 109.913 127.189 109.912 128.06 109.913C129.178 109.913 130.295 109.909 131.413 109.903C132.27 109.9 133.127 109.899 133.985 109.9C134.397 109.899 134.809 109.898 135.221 109.896C135.797 109.893 136.373 109.894 136.948 109.895C137.44 109.895 137.44 109.895 137.942 109.894C138.718 109.968 138.718 109.968 139.318 110.566C139.151 111.927 139.151 111.927 138.718 112.359C138.151 112.389 137.583 112.397 137.015 112.398C136.468 112.399 136.468 112.399 135.911 112.401C135.51 112.4 135.11 112.399 134.709 112.399C134.301 112.399 133.892 112.399 133.484 112.4C132.627 112.4 131.771 112.399 130.914 112.398C129.814 112.396 128.715 112.397 127.616 112.399C126.772 112.4 125.929 112.4 125.085 112.399C124.68 112.399 124.274 112.399 123.869 112.4C123.303 112.4 122.736 112.399 122.17 112.398C121.847 112.397 121.524 112.397 121.192 112.397C120.427 112.359 120.427 112.359 119.828 112.06C119.815 111.463 119.815 110.865 119.828 110.267C120.361 109.736 121.138 109.927 121.859 109.925Z" fill="#283B56"/>
<path d="M130.021 71.4136C130.35 72.3964 130.277 72.5584 130.021 73.5057C129.716 76.8598 130.427 79.6236 132.562 82.2547C133.187 82.9591 133.832 83.6205 134.519 84.2651C133.925 84.1665 133.331 84.0678 132.72 83.9662C132.63 84.863 132.63 84.863 133.151 85.4419C134.207 86.2891 135.367 86.7529 136.618 87.2538C135.521 87.6182 135.337 87.4718 134.331 86.9736C131.048 85.237 128.888 82.7384 127.66 79.2403C127.17 77.4499 127.244 75.645 127.322 73.8046C127.421 73.8046 127.52 73.8046 127.622 73.8046C127.64 74.0134 127.659 74.2222 127.677 74.4373C127.702 74.7093 127.728 74.9813 127.753 75.2616C127.778 75.532 127.802 75.8025 127.827 76.0811C127.883 76.7966 127.883 76.7966 128.222 77.391C128.42 77.391 128.618 77.391 128.822 77.391C129.291 76.4556 129.306 75.4306 129.421 74.4023C129.681 72.0921 129.681 72.0921 130.021 71.4136Z" fill="#253752"/>
<path d="M137.519 62.4474C138.431 62.4312 139.343 62.4194 140.255 62.4101C140.512 62.405 140.768 62.4 141.033 62.3949C142.486 62.3837 143.65 62.4786 145.015 63.0452C145.015 63.2424 145.015 63.4397 145.015 63.6429C145.609 63.8402 146.203 64.0374 146.814 64.2406C146.22 64.5365 146.22 64.5365 145.615 64.8384C145.763 65.2822 145.763 65.2822 145.915 65.735C145.534 65.5871 145.534 65.5871 145.146 65.4361C144.053 65.119 143.149 65.0921 142.017 65.1373C142.017 65.0386 142.017 64.94 142.017 64.8384C139.721 64.7805 137.62 64.7344 135.42 65.4361C135.42 64.8444 135.42 64.2526 135.42 63.6429C136.113 63.347 136.805 63.0511 137.519 62.7463C137.519 62.6477 137.519 62.549 137.519 62.4474Z" fill="#314862"/>
<path d="M175.898 101.301C176.498 101.899 176.498 101.899 176.591 102.963C176.491 105.892 175.233 107.632 173.199 109.669C172.804 109.275 172.408 108.88 172 108.474C172.184 108.213 172.184 108.213 172.372 107.946C173.537 106.18 174.039 104.74 174.243 102.636C174.45 101.658 174.875 101.301 175.898 101.301Z" fill="#334962"/>
<path d="M178.297 88.748C179.76 88.8707 180.543 89.5819 181.539 90.5786C181.69 90.7166 181.84 90.8545 181.995 90.9966C182.826 91.8167 183.087 92.2727 183.221 93.4413C183.085 94.5031 182.742 95.0203 182.195 95.921C182.271 97.3902 182.957 98.7729 183.994 99.8063C183.697 99.8063 183.4 99.8063 183.094 99.8063C183.094 100.102 183.094 100.398 183.094 100.703C183.49 100.802 183.886 100.9 184.294 101.002C182.419 101.361 182.419 101.361 181.587 101.136C180.713 100.496 180.401 99.6384 180.002 98.6669C179.919 98.4825 179.836 98.2982 179.751 98.1083C179.269 96.9691 179.068 96.2007 179.496 95.0244C180.115 94.3332 180.115 94.3332 180.696 93.8289C180.603 94.057 180.51 94.285 180.415 94.52C180.192 95.0805 179.987 95.6481 179.796 96.2199C180.081 96.8248 180.381 97.4231 180.696 98.0131C180.696 98.2104 180.696 98.4076 180.696 98.6108C180.894 98.6108 181.091 98.6108 181.295 98.6108C181.281 98.4375 181.268 98.2641 181.253 98.0855C181.172 96.329 181.48 95.5957 182.495 94.1278C182.464 92.9651 182.279 92.4381 181.541 91.5266C181.275 91.2754 181.008 91.0242 180.733 90.7654C180.468 90.5112 180.203 90.2569 179.93 89.9949C179.198 89.3169 179.198 89.3169 178.297 88.748Z" fill="#213451"/>
<path d="M137.817 62.7461C137.151 63.4102 136.593 63.6206 135.718 63.9416C135.817 64.3361 135.916 64.7307 136.018 65.1371C136.263 65.0393 136.508 64.9414 136.761 64.8406C137.995 64.4887 139.056 64.4722 140.329 64.502C140.66 64.5061 140.66 64.5061 140.997 64.5102C141.537 64.5172 142.076 64.5279 142.615 64.5394C142.615 64.638 142.615 64.7366 142.615 64.8382C142.332 64.8425 142.049 64.8467 141.758 64.8511C137.979 64.991 135.044 65.9305 132.12 68.4247C132.021 68.0302 131.922 67.6357 131.82 67.2292C131.623 67.2292 131.425 67.2292 131.221 67.2292C131.221 67.032 131.221 66.8347 131.221 66.6315C131.412 66.5452 131.604 66.4589 131.802 66.37C132.466 66.0851 132.466 66.0851 132.72 65.436C132.522 65.3374 132.324 65.2387 132.12 65.1371C132.538 64.8489 132.956 64.563 133.376 64.2779C133.609 64.1184 133.842 63.9589 134.082 63.7945C135.342 63.024 136.335 62.6617 137.817 62.7461Z" fill="#243752"/>
<path d="M168.102 96.22C168.003 96.4172 167.904 96.6145 167.803 96.8177C168.693 96.9657 168.693 96.9657 169.602 97.1166C169.503 97.4125 169.404 97.7084 169.302 98.0132C168.302 98.2125 167.303 98.4117 166.303 98.6109C166.042 98.673 165.78 98.735 165.51 98.7989C164.804 98.9098 164.804 98.9098 163.904 98.6109C163.255 98.8724 163.255 98.8724 162.705 99.2087C163.239 98.0119 163.638 97.1684 164.804 96.5188C165.909 96.2 166.957 96.1934 168.102 96.22Z" fill="#2E4560"/>
<path d="M183.096 107.278C183.888 107.377 184.679 107.476 185.495 107.577C184.966 109.063 184.177 110.397 183.396 111.761C183.099 111.761 182.802 111.761 182.496 111.761C181.897 110.865 181.897 110.865 181.953 110.024C182.211 109.016 182.596 108.189 183.096 107.278Z" fill="#F1E9FC"/>
<path d="M120.427 102.496C128.838 102.496 137.248 102.496 145.914 102.496C145.914 102.595 145.914 102.694 145.914 102.795C137.701 102.894 129.488 102.992 121.027 103.094C120.928 103.39 120.829 103.686 120.727 103.991C120.529 103.991 120.331 103.991 120.127 103.991C120.226 103.498 120.325 103.004 120.427 102.496Z" fill="#405871"/>
<path d="M151.911 99.2087C152.703 99.3074 153.494 99.406 154.31 99.5076C154.013 99.9514 154.013 99.9514 153.71 100.404C153.809 100.601 153.908 100.799 154.01 101.002C153.818 101.07 153.627 101.138 153.429 101.207C152.729 101.556 152.729 101.556 152.586 102.384C152.561 102.619 152.536 102.853 152.511 103.094C152.313 102.897 152.115 102.7 151.911 102.496C151.546 103.224 151.516 103.817 151.443 104.626C151.405 105.034 151.405 105.034 151.367 105.45C151.348 105.659 151.33 105.868 151.312 106.083C151.213 106.083 151.114 106.083 151.012 106.083C150.986 105.161 150.97 104.24 150.955 103.318C150.948 103.057 150.94 102.797 150.933 102.528C150.91 100.579 150.91 100.579 151.465 99.6244C151.612 99.4872 151.76 99.3501 151.911 99.2087Z" fill="#385069"/>
<path d="M132.721 83.6672C133.215 83.7934 133.709 83.9252 134.201 84.0595C134.614 84.1687 134.614 84.1687 135.034 84.2802C135.26 84.3738 135.486 84.4674 135.719 84.5639C135.818 84.8597 135.917 85.1556 136.019 85.4605C135.821 85.4605 135.623 85.4605 135.419 85.4605C135.419 85.855 135.419 86.2495 135.419 86.656C135.617 86.7546 135.815 86.8532 136.019 86.9548C134.662 86.7957 133.794 86.2927 132.721 85.4605C132.308 84.788 132.308 84.788 132.121 84.265C132.319 84.0677 132.517 83.8705 132.721 83.6672Z" fill="#324A64"/>
<path d="M182.497 94.1279C182.404 94.3437 182.311 94.5594 182.215 94.7817C181.917 95.5697 181.742 96.2892 181.597 97.1167C181.497 97.6148 181.397 98.1129 181.297 98.611C181.099 98.611 180.901 98.611 180.697 98.611C180.302 97.7234 179.906 96.8357 179.498 95.9212C180.882 94.1279 180.882 94.1279 182.497 94.1279Z" fill="#354E67"/>
<path d="M142.915 86.0583C144.639 86.2825 144.639 86.2825 145.314 86.955C143.087 87.937 143.087 87.937 142.016 88.1505C142.115 87.8546 142.214 87.5587 142.315 87.2538C142.612 87.2538 142.909 87.2538 143.215 87.2538C143.116 86.8593 143.017 86.4648 142.915 86.0583Z" fill="#374E67"/>
<path d="M133.021 72.908C133.584 72.9827 133.584 72.9827 134.221 73.2068C134.596 73.8233 134.596 73.8233 134.821 74.4023C134.425 74.501 134.029 74.5996 133.621 74.7012C133.522 74.4053 133.423 74.1094 133.321 73.8046C133.222 74.1991 133.123 74.5936 133.021 75.0001C132.741 74.1004 132.708 73.8445 133.021 72.908Z" fill="#374F6A"/>
<path d="M163.005 105.186C163.302 105.482 163.599 105.778 163.905 106.083C163.806 106.379 163.707 106.674 163.605 106.979C163.407 106.979 163.209 106.979 163.005 106.979C162.906 107.177 162.807 107.374 162.705 107.577C162.507 107.084 162.309 106.591 162.105 106.083C162.402 105.787 162.699 105.491 163.005 105.186Z" fill="#374D68"/>
<path d="M186.095 100.404C186.194 100.404 186.293 100.404 186.395 100.404C186.494 102.377 186.593 104.349 186.694 106.382C186.398 106.382 186.101 106.382 185.795 106.382C185.894 104.409 185.993 102.436 186.095 100.404Z" fill="#41576F"/>
<path d="M155.51 101.301C154.967 101.768 154.967 101.768 154.311 102.197C154.014 102.099 153.717 102 153.411 101.898C153.411 102.687 153.411 103.476 153.411 104.289C153.312 104.289 153.213 104.289 153.111 104.289C153.111 103.402 153.111 102.514 153.111 101.6C153.924 101.195 154.613 101.281 155.51 101.301ZM153.711 102.197C154.008 102.345 154.008 102.345 154.311 102.496C154.014 102.644 154.014 102.644 153.711 102.795C153.711 102.598 153.711 102.401 153.711 102.197Z" fill="#F1F2F0"/>
<path d="M182.196 109.37C182.796 109.968 182.796 109.968 183.096 110.865C183.294 110.766 183.492 110.667 183.696 110.566C183.597 110.96 183.498 111.355 183.396 111.761C183.099 111.761 182.802 111.761 182.496 111.761C181.896 110.865 181.896 110.865 182.009 110.062C182.071 109.833 182.133 109.605 182.196 109.37Z" fill="#F7F4FB"/>
<path d="M180.098 109.072C180.296 109.269 180.494 109.466 180.697 109.669C180.895 109.768 181.093 109.867 181.297 109.968C181.198 110.165 181.099 110.363 180.997 110.566C180.799 110.467 180.601 110.369 180.398 110.267C180.299 110.563 180.2 110.859 180.098 111.164C179.9 110.769 179.702 110.375 179.498 109.968C179.696 109.672 179.894 109.376 180.098 109.072Z" fill="#374F69"/>
<path d="M132.121 74.1033C132.757 74.8849 133.36 75.6563 133.92 76.4943C133.524 76.4943 133.129 76.4943 132.721 76.4943C132.192 75.5713 132.121 75.2291 132.121 74.1033Z" fill="#D9EAF1"/>
<path d="M136.319 43.0205C136.517 43.1191 136.714 43.2178 136.918 43.3194C136.424 43.8125 135.929 44.3057 135.419 44.8137C135.122 44.7151 134.825 44.6165 134.52 44.5149C135.113 44.0217 135.707 43.5286 136.319 43.0205Z" fill="#1B2A48"/>
<path d="M154.609 48.4004C154.906 48.5976 155.203 48.7949 155.509 48.9981C155.565 49.7827 155.565 49.7827 155.509 50.4925C155.41 50.098 155.311 49.7035 155.209 49.297C154.813 49.3956 154.418 49.4943 154.01 49.5959C154.01 49.3 154.01 49.0041 154.01 48.6993C154.208 48.6006 154.406 48.502 154.609 48.4004Z" fill="#1E3450"/>
</svg>
