<svg width="1128" height="40" viewBox="0 0 1128 40" fill="none" xmlns="http://www.w3.org/2000/svg">
<rect width="1128" height="40" rx="10" fill="#C3EEFF"/>
<path d="M20.68 27V14.94H16.56V13H27.18V14.94H23.06V27H20.68ZM31.9814 27.24C31.0214 27.24 30.1547 27.02 29.3814 26.58C28.6214 26.1267 28.0214 25.5067 27.5814 24.72C27.1547 23.92 26.9414 23.0067 26.9414 21.98C26.9414 20.9267 27.1614 20.0067 27.6014 19.22C28.0414 18.42 28.6414 17.8 29.4014 17.36C30.1747 16.9067 31.0414 16.68 32.0014 16.68C32.9614 16.68 33.8214 16.9067 34.5814 17.36C35.3547 17.8 35.9547 18.4133 36.3814 19.2C36.8214 19.9867 37.0414 20.9067 37.0414 21.96C37.0414 23.0133 36.8214 23.9333 36.3814 24.72C35.9414 25.5067 35.3347 26.1267 34.5614 26.58C33.8014 27.02 32.9414 27.24 31.9814 27.24ZM31.9814 25.18C32.4614 25.18 32.8947 25.06 33.2814 24.82C33.6814 24.58 34.0014 24.22 34.2414 23.74C34.4814 23.26 34.6014 22.6667 34.6014 21.96C34.6014 21.2533 34.4814 20.6667 34.2414 20.2C34.0147 19.72 33.7014 19.36 33.3014 19.12C32.9147 18.88 32.4814 18.76 32.0014 18.76C31.5347 18.76 31.1014 18.88 30.7014 19.12C30.3014 19.36 29.9814 19.72 29.7414 20.2C29.5014 20.6667 29.3814 21.2533 29.3814 21.96C29.3814 22.6667 29.5014 23.26 29.7414 23.74C29.9814 24.22 30.2947 24.58 30.6814 24.82C31.0814 25.06 31.5147 25.18 31.9814 25.18ZM43.3802 27C42.7002 27 42.1068 26.8933 41.6002 26.68C41.1068 26.4667 40.7202 26.1133 40.4402 25.62C40.1602 25.1267 40.0202 24.46 40.0202 23.62V18.94H38.3002V16.92H40.0202L40.3002 14.26H42.4202V16.92H45.1602V18.94H42.4202V23.62C42.4202 24.1267 42.5268 24.48 42.7402 24.68C42.9668 24.8667 43.3402 24.96 43.8602 24.96H45.1002V27H43.3802ZM50.7781 27.24C49.9515 27.24 49.2648 27.1 48.7181 26.82C48.1715 26.54 47.7648 26.1667 47.4981 25.7C47.2315 25.2333 47.0981 24.7267 47.0981 24.18C47.0981 23.54 47.2581 22.9867 47.5781 22.52C47.9115 22.0533 48.3981 21.6933 49.0381 21.44C49.6781 21.1733 50.4648 21.04 51.3981 21.04H53.9381C53.9381 20.5067 53.8648 20.0667 53.7181 19.72C53.5715 19.36 53.3448 19.0933 53.0381 18.92C52.7315 18.7467 52.3381 18.66 51.8581 18.66C51.3115 18.66 50.8448 18.7867 50.4581 19.04C50.0715 19.28 49.8315 19.6533 49.7381 20.16H47.3781C47.4581 19.44 47.6981 18.8267 48.0981 18.32C48.4981 17.8 49.0248 17.4 49.6781 17.12C50.3448 16.8267 51.0715 16.68 51.8581 16.68C52.8048 16.68 53.6115 16.8467 54.2781 17.18C54.9448 17.5 55.4515 17.9667 55.7981 18.58C56.1581 19.18 56.3381 19.9067 56.3381 20.76V27H54.2981L54.0581 25.38C53.9248 25.6467 53.7515 25.8933 53.5381 26.12C53.3381 26.3467 53.1048 26.5467 52.8381 26.72C52.5715 26.88 52.2648 27.0067 51.9181 27.1C51.5848 27.1933 51.2048 27.24 50.7781 27.24ZM51.3181 25.34C51.7048 25.34 52.0448 25.2733 52.3381 25.14C52.6448 24.9933 52.9048 24.7933 53.1181 24.54C53.3448 24.2733 53.5181 23.98 53.6381 23.66C53.7581 23.34 53.8381 23 53.8781 22.64V22.6H51.6581C51.1915 22.6 50.8048 22.66 50.4981 22.78C50.1915 22.8867 49.9715 23.0467 49.8381 23.26C49.7048 23.4733 49.6381 23.72 49.6381 24C49.6381 24.28 49.7048 24.52 49.8381 24.72C49.9715 24.92 50.1648 25.0733 50.4181 25.18C50.6715 25.2867 50.9715 25.34 51.3181 25.34ZM58.9025 27V12.6H61.3025V27H58.9025ZM68.0234 27L73.1434 13H75.8234L80.9434 27H78.4034L74.4634 15.8L70.5234 27H68.0234ZM70.3034 23.7L70.9434 21.8H77.8434L78.4834 23.7H70.3034ZM82.7892 31.4V16.92H84.9292L85.1892 18.38C85.4026 18.0867 85.6559 17.8133 85.9492 17.56C86.2559 17.2933 86.6226 17.08 87.0492 16.92C87.4892 16.76 87.9892 16.68 88.5492 16.68C89.4959 16.68 90.3292 16.9133 91.0492 17.38C91.7826 17.8467 92.3559 18.48 92.7692 19.28C93.1826 20.0667 93.3892 20.9667 93.3892 21.98C93.3892 22.9933 93.1759 23.9 92.7492 24.7C92.3359 25.4867 91.7626 26.1067 91.0292 26.56C90.3092 27.0133 89.4826 27.24 88.5492 27.24C87.7892 27.24 87.1226 27.1 86.5492 26.82C85.9892 26.5267 85.5359 26.1133 85.1892 25.58V31.4H82.7892ZM88.0492 25.16C88.6092 25.16 89.1092 25.0267 89.5492 24.76C89.9892 24.4933 90.3292 24.12 90.5692 23.64C90.8226 23.16 90.9492 22.6067 90.9492 21.98C90.9492 21.34 90.8226 20.78 90.5692 20.3C90.3292 19.82 89.9892 19.4467 89.5492 19.18C89.1092 18.9133 88.6092 18.78 88.0492 18.78C87.4759 18.78 86.9692 18.9133 86.5292 19.18C86.1026 19.4467 85.7626 19.82 85.5092 20.3C85.2692 20.78 85.1492 21.3333 85.1492 21.96C85.1492 22.6 85.2692 23.16 85.5092 23.64C85.7626 24.1067 86.1026 24.48 86.5292 24.76C86.9692 25.0267 87.4759 25.16 88.0492 25.16ZM95.7189 31.4V16.92H97.8589L98.1189 18.38C98.3322 18.0867 98.5856 17.8133 98.8789 17.56C99.1856 17.2933 99.5522 17.08 99.9789 16.92C100.419 16.76 100.919 16.68 101.479 16.68C102.426 16.68 103.259 16.9133 103.979 17.38C104.712 17.8467 105.286 18.48 105.699 19.28C106.112 20.0667 106.319 20.9667 106.319 21.98C106.319 22.9933 106.106 23.9 105.679 24.7C105.266 25.4867 104.692 26.1067 103.959 26.56C103.239 27.0133 102.412 27.24 101.479 27.24C100.719 27.24 100.052 27.1 99.4789 26.82C98.9189 26.5267 98.4656 26.1133 98.1189 25.58V31.4H95.7189ZM100.979 25.16C101.539 25.16 102.039 25.0267 102.479 24.76C102.919 24.4933 103.259 24.12 103.499 23.64C103.752 23.16 103.879 22.6067 103.879 21.98C103.879 21.34 103.752 20.78 103.499 20.3C103.259 19.82 102.919 19.4467 102.479 19.18C102.039 18.9133 101.539 18.78 100.979 18.78C100.406 18.78 99.8989 18.9133 99.4589 19.18C99.0322 19.4467 98.6922 19.82 98.4389 20.3C98.1989 20.78 98.0789 21.3333 98.0789 21.96C98.0789 22.6 98.1989 23.16 98.4389 23.64C98.6922 24.1067 99.0322 24.48 99.4589 24.76C99.8989 25.0267 100.406 25.16 100.979 25.16ZM109.689 27.1C109.235 27.1 108.869 26.96 108.589 26.68C108.309 26.4 108.169 26.0667 108.169 25.68C108.169 25.2667 108.309 24.92 108.589 24.64C108.869 24.36 109.235 24.22 109.689 24.22C110.129 24.22 110.489 24.36 110.769 24.64C111.049 24.92 111.189 25.2667 111.189 25.68C111.189 26.0667 111.049 26.4 110.769 26.68C110.489 26.96 110.129 27.1 109.689 27.1ZM109.689 19.54C109.235 19.54 108.869 19.4 108.589 19.12C108.309 18.84 108.169 18.5067 108.169 18.12C108.169 17.7067 108.309 17.36 108.589 17.08C108.869 16.8 109.235 16.66 109.689 16.66C110.129 16.66 110.489 16.8 110.769 17.08C111.049 17.36 111.189 17.7067 111.189 18.12C111.189 18.5067 111.049 18.84 110.769 19.12C110.489 19.4 110.129 19.54 109.689 19.54Z" fill="#62748E"/>
<path d="M151.336 25V22.6H145.656V21.56L151.096 13.8H152.664V21.416H154.328V22.6H152.664V25H151.336ZM147.144 21.416H151.4V15.288L147.144 21.416ZM160.092 25.192C159.164 25.192 158.364 24.952 157.692 24.472C157.031 23.9813 156.519 23.304 156.156 22.44C155.793 21.5653 155.612 20.552 155.612 19.4C155.612 18.248 155.793 17.24 156.156 16.376C156.519 15.5013 157.031 14.824 157.692 14.344C158.364 13.8533 159.164 13.608 160.092 13.608C161.02 13.608 161.815 13.8533 162.476 14.344C163.137 14.824 163.644 15.5013 163.996 16.376C164.359 17.24 164.54 18.248 164.54 19.4C164.54 20.552 164.359 21.5653 163.996 22.44C163.644 23.304 163.137 23.9813 162.476 24.472C161.815 24.952 161.02 25.192 160.092 25.192ZM160.092 24.008C160.679 24.008 161.201 23.8267 161.66 23.464C162.119 23.0907 162.481 22.5627 162.748 21.88C163.025 21.1867 163.164 20.36 163.164 19.4C163.164 18.4293 163.025 17.6027 162.748 16.92C162.481 16.2373 162.119 15.7147 161.66 15.352C161.201 14.9893 160.679 14.808 160.092 14.808C159.495 14.808 158.961 14.9893 158.492 15.352C158.023 15.7147 157.655 16.2373 157.388 16.92C157.121 17.6027 156.988 18.4293 156.988 19.4C156.988 20.36 157.121 21.1867 157.388 21.88C157.655 22.5627 158.023 23.0907 158.492 23.464C158.961 23.8267 159.495 24.008 160.092 24.008ZM170.16 25.192C169.456 25.192 168.816 25.0587 168.24 24.792C167.675 24.5147 167.227 24.136 166.896 23.656C166.565 23.1653 166.4 22.6 166.4 21.96C166.4 21.5013 166.485 21.0747 166.656 20.68C166.837 20.2853 167.083 19.944 167.392 19.656C167.701 19.3573 168.064 19.1493 168.48 19.032C167.915 18.8187 167.472 18.488 167.152 18.04C166.832 17.592 166.672 17.1067 166.672 16.584C166.672 16.0293 166.811 15.528 167.088 15.08C167.376 14.632 167.781 14.2747 168.304 14.008C168.827 13.7413 169.445 13.608 170.16 13.608C170.885 13.608 171.504 13.7413 172.016 14.008C172.539 14.2747 172.939 14.632 173.216 15.08C173.493 15.528 173.632 16.0293 173.632 16.584C173.632 17.1067 173.472 17.592 173.152 18.04C172.843 18.488 172.405 18.8187 171.84 19.032C172.256 19.1493 172.619 19.3573 172.928 19.656C173.237 19.944 173.477 20.2853 173.648 20.68C173.829 21.0747 173.92 21.5013 173.92 21.96C173.92 22.6 173.755 23.1653 173.424 23.656C173.093 24.136 172.64 24.5147 172.064 24.792C171.499 25.0587 170.864 25.192 170.16 25.192ZM170.16 24.008C170.96 24.008 171.563 23.816 171.968 23.432C172.373 23.0373 172.576 22.52 172.576 21.88C172.576 21.1547 172.352 20.6053 171.904 20.232C171.467 19.8587 170.885 19.672 170.16 19.672C169.435 19.672 168.848 19.8587 168.4 20.232C167.963 20.6053 167.744 21.1547 167.744 21.88C167.744 22.52 167.941 23.0373 168.336 23.432C168.741 23.816 169.349 24.008 170.16 24.008ZM170.16 18.552C170.8 18.552 171.312 18.376 171.696 18.024C172.08 17.672 172.272 17.2187 172.272 16.664C172.272 16.0347 172.08 15.56 171.696 15.24C171.323 14.92 170.811 14.76 170.16 14.76C169.509 14.76 168.992 14.92 168.608 15.24C168.235 15.56 168.048 16.0347 168.048 16.664C168.048 17.2187 168.24 17.672 168.624 18.024C169.008 18.376 169.52 18.552 170.16 18.552ZM179.816 25.192C179.112 25.192 178.472 25.0587 177.896 24.792C177.331 24.5147 176.883 24.136 176.552 23.656C176.222 23.1653 176.056 22.6 176.056 21.96C176.056 21.5013 176.142 21.0747 176.312 20.68C176.494 20.2853 176.739 19.944 177.048 19.656C177.358 19.3573 177.72 19.1493 178.136 19.032C177.571 18.8187 177.128 18.488 176.808 18.04C176.488 17.592 176.328 17.1067 176.328 16.584C176.328 16.0293 176.467 15.528 176.744 15.08C177.032 14.632 177.438 14.2747 177.96 14.008C178.483 13.7413 179.102 13.608 179.816 13.608C180.542 13.608 181.16 13.7413 181.672 14.008C182.195 14.2747 182.595 14.632 182.872 15.08C183.15 15.528 183.288 16.0293 183.288 16.584C183.288 17.1067 183.128 17.592 182.808 18.04C182.499 18.488 182.062 18.8187 181.496 19.032C181.912 19.1493 182.275 19.3573 182.584 19.656C182.894 19.944 183.134 20.2853 183.304 20.68C183.486 21.0747 183.576 21.5013 183.576 21.96C183.576 22.6 183.411 23.1653 183.08 23.656C182.75 24.136 182.296 24.5147 181.72 24.792C181.155 25.0587 180.52 25.192 179.816 25.192ZM179.816 24.008C180.616 24.008 181.219 23.816 181.624 23.432C182.03 23.0373 182.232 22.52 182.232 21.88C182.232 21.1547 182.008 20.6053 181.56 20.232C181.123 19.8587 180.542 19.672 179.816 19.672C179.091 19.672 178.504 19.8587 178.056 20.232C177.619 20.6053 177.4 21.1547 177.4 21.88C177.4 22.52 177.598 23.0373 177.992 23.432C178.398 23.816 179.006 24.008 179.816 24.008ZM179.816 18.552C180.456 18.552 180.968 18.376 181.352 18.024C181.736 17.672 181.928 17.2187 181.928 16.664C181.928 16.0347 181.736 15.56 181.352 15.24C180.979 14.92 180.467 14.76 179.816 14.76C179.166 14.76 178.648 14.92 178.264 15.24C177.891 15.56 177.704 16.0347 177.704 16.664C177.704 17.2187 177.896 17.672 178.28 18.024C178.664 18.376 179.176 18.552 179.816 18.552Z" fill="#62748E"/>
<path d="M346.5 27L351.62 13H354.3L359.42 27H356.88L352.94 15.8L349 27H346.5ZM348.78 23.7L349.42 21.8H356.32L356.96 23.7H348.78ZM361.266 31.4V16.92H363.406L363.666 18.38C363.879 18.0867 364.132 17.8133 364.426 17.56C364.732 17.2933 365.099 17.08 365.526 16.92C365.966 16.76 366.466 16.68 367.026 16.68C367.972 16.68 368.806 16.9133 369.526 17.38C370.259 17.8467 370.832 18.48 371.246 19.28C371.659 20.0667 371.866 20.9667 371.866 21.98C371.866 22.9933 371.652 23.9 371.226 24.7C370.812 25.4867 370.239 26.1067 369.506 26.56C368.786 27.0133 367.959 27.24 367.026 27.24C366.266 27.24 365.599 27.1 365.026 26.82C364.466 26.5267 364.012 26.1133 363.666 25.58V31.4H361.266ZM366.526 25.16C367.086 25.16 367.586 25.0267 368.026 24.76C368.466 24.4933 368.806 24.12 369.046 23.64C369.299 23.16 369.426 22.6067 369.426 21.98C369.426 21.34 369.299 20.78 369.046 20.3C368.806 19.82 368.466 19.4467 368.026 19.18C367.586 18.9133 367.086 18.78 366.526 18.78C365.952 18.78 365.446 18.9133 365.006 19.18C364.579 19.4467 364.239 19.82 363.986 20.3C363.746 20.78 363.626 21.3333 363.626 21.96C363.626 22.6 363.746 23.16 363.986 23.64C364.239 24.1067 364.579 24.48 365.006 24.76C365.446 25.0267 365.952 25.16 366.526 25.16ZM374.195 31.4V16.92H376.335L376.595 18.38C376.809 18.0867 377.062 17.8133 377.355 17.56C377.662 17.2933 378.029 17.08 378.455 16.92C378.895 16.76 379.395 16.68 379.955 16.68C380.902 16.68 381.735 16.9133 382.455 17.38C383.189 17.8467 383.762 18.48 384.175 19.28C384.589 20.0667 384.795 20.9667 384.795 21.98C384.795 22.9933 384.582 23.9 384.155 24.7C383.742 25.4867 383.169 26.1067 382.435 26.56C381.715 27.0133 380.889 27.24 379.955 27.24C379.195 27.24 378.529 27.1 377.955 26.82C377.395 26.5267 376.942 26.1133 376.595 25.58V31.4H374.195ZM379.455 25.16C380.015 25.16 380.515 25.0267 380.955 24.76C381.395 24.4933 381.735 24.12 381.975 23.64C382.229 23.16 382.355 22.6067 382.355 21.98C382.355 21.34 382.229 20.78 381.975 20.3C381.735 19.82 381.395 19.4467 380.955 19.18C380.515 18.9133 380.015 18.78 379.455 18.78C378.882 18.78 378.375 18.9133 377.935 19.18C377.509 19.4467 377.169 19.82 376.915 20.3C376.675 20.78 376.555 21.3333 376.555 21.96C376.555 22.6 376.675 23.16 376.915 23.64C377.169 24.1067 377.509 24.48 377.935 24.76C378.375 25.0267 378.882 25.16 379.455 25.16ZM387.125 27V16.92H389.265L389.485 18.8C389.725 18.36 390.025 17.9867 390.385 17.68C390.745 17.36 391.165 17.1133 391.645 16.94C392.138 16.7667 392.678 16.68 393.265 16.68V19.22H392.425C392.025 19.22 391.645 19.2733 391.285 19.38C390.925 19.4733 390.612 19.6333 390.345 19.86C390.092 20.0733 389.892 20.3733 389.745 20.76C389.598 21.1333 389.525 21.6067 389.525 22.18V27H387.125ZM399.56 27.24C398.6 27.24 397.733 27.02 396.96 26.58C396.2 26.1267 395.6 25.5067 395.16 24.72C394.733 23.92 394.52 23.0067 394.52 21.98C394.52 20.9267 394.74 20.0067 395.18 19.22C395.62 18.42 396.22 17.8 396.98 17.36C397.753 16.9067 398.62 16.68 399.58 16.68C400.54 16.68 401.4 16.9067 402.16 17.36C402.933 17.8 403.533 18.4133 403.96 19.2C404.4 19.9867 404.62 20.9067 404.62 21.96C404.62 23.0133 404.4 23.9333 403.96 24.72C403.52 25.5067 402.913 26.1267 402.14 26.58C401.38 27.02 400.52 27.24 399.56 27.24ZM399.56 25.18C400.04 25.18 400.473 25.06 400.86 24.82C401.26 24.58 401.58 24.22 401.82 23.74C402.06 23.26 402.18 22.6667 402.18 21.96C402.18 21.2533 402.06 20.6667 401.82 20.2C401.593 19.72 401.28 19.36 400.88 19.12C400.493 18.88 400.06 18.76 399.58 18.76C399.113 18.76 398.68 18.88 398.28 19.12C397.88 19.36 397.56 19.72 397.32 20.2C397.08 20.6667 396.96 21.2533 396.96 21.96C396.96 22.6667 397.08 23.26 397.32 23.74C397.56 24.22 397.873 24.58 398.26 24.82C398.66 25.06 399.093 25.18 399.56 25.18ZM409.241 27L405.521 16.92H408.041L410.701 24.72L413.361 16.92H415.841L412.121 27H409.241ZM421.787 27.24C420.787 27.24 419.907 27.0267 419.147 26.6C418.387 26.16 417.793 25.5467 417.367 24.76C416.94 23.9733 416.727 23.0667 416.727 22.04C416.727 20.9733 416.933 20.04 417.347 19.24C417.773 18.44 418.367 17.8133 419.127 17.36C419.9 16.9067 420.793 16.68 421.807 16.68C422.793 16.68 423.653 16.9 424.387 17.34C425.12 17.78 425.687 18.3733 426.087 19.12C426.487 19.8533 426.687 20.68 426.687 21.6C426.687 21.7333 426.687 21.88 426.687 22.04C426.687 22.2 426.673 22.3667 426.647 22.54H418.447V21H424.267C424.24 20.2667 423.993 19.6933 423.527 19.28C423.06 18.8533 422.48 18.64 421.787 18.64C421.293 18.64 420.84 18.7533 420.427 18.98C420.013 19.2067 419.687 19.5467 419.447 20C419.207 20.44 419.087 21 419.087 21.68V22.26C419.087 22.8867 419.2 23.4267 419.427 23.88C419.667 24.3333 419.987 24.68 420.387 24.92C420.8 25.1467 421.26 25.26 421.767 25.26C422.327 25.26 422.787 25.14 423.147 24.9C423.52 24.66 423.793 24.34 423.967 23.94H426.407C426.22 24.5667 425.913 25.1333 425.487 25.64C425.06 26.1333 424.533 26.5267 423.907 26.82C423.28 27.1 422.573 27.24 421.787 27.24ZM433.383 27.24C432.449 27.24 431.616 27.0133 430.883 26.56C430.149 26.1067 429.576 25.48 429.163 24.68C428.763 23.88 428.563 22.9733 428.563 21.96C428.563 20.9467 428.769 20.0467 429.183 19.26C429.596 18.46 430.169 17.8333 430.903 17.38C431.649 16.9133 432.489 16.68 433.423 16.68C434.183 16.68 434.843 16.8267 435.403 17.12C435.976 17.4 436.429 17.8 436.763 18.32V12.6H439.163V27H437.003L436.763 25.54C436.549 25.8333 436.289 26.1133 435.983 26.38C435.676 26.6333 435.309 26.84 434.883 27C434.456 27.16 433.956 27.24 433.383 27.24ZM433.883 25.16C434.456 25.16 434.963 25.0267 435.403 24.76C435.843 24.48 436.183 24.1 436.423 23.62C436.663 23.14 436.783 22.5867 436.783 21.96C436.783 21.3333 436.663 20.78 436.423 20.3C436.183 19.82 435.843 19.4467 435.403 19.18C434.963 18.9133 434.456 18.78 433.883 18.78C433.336 18.78 432.843 18.9133 432.403 19.18C431.963 19.4467 431.616 19.82 431.363 20.3C431.123 20.78 431.003 21.3333 431.003 21.96C431.003 22.5867 431.123 23.14 431.363 23.62C431.616 24.1 431.963 24.48 432.403 24.76C432.843 25.0267 433.336 25.16 433.883 25.16ZM445.875 27L450.995 13H453.675L458.795 27H456.255L452.315 15.8L448.375 27H445.875ZM448.155 23.7L448.795 21.8H455.695L456.335 23.7H448.155ZM460.641 31.4V16.92H462.781L463.041 18.38C463.254 18.0867 463.507 17.8133 463.801 17.56C464.107 17.2933 464.474 17.08 464.901 16.92C465.341 16.76 465.841 16.68 466.401 16.68C467.347 16.68 468.181 16.9133 468.901 17.38C469.634 17.8467 470.207 18.48 470.621 19.28C471.034 20.0667 471.241 20.9667 471.241 21.98C471.241 22.9933 471.027 23.9 470.601 24.7C470.187 25.4867 469.614 26.1067 468.881 26.56C468.161 27.0133 467.334 27.24 466.401 27.24C465.641 27.24 464.974 27.1 464.401 26.82C463.841 26.5267 463.387 26.1133 463.041 25.58V31.4H460.641ZM465.901 25.16C466.461 25.16 466.961 25.0267 467.401 24.76C467.841 24.4933 468.181 24.12 468.421 23.64C468.674 23.16 468.801 22.6067 468.801 21.98C468.801 21.34 468.674 20.78 468.421 20.3C468.181 19.82 467.841 19.4467 467.401 19.18C466.961 18.9133 466.461 18.78 465.901 18.78C465.327 18.78 464.821 18.9133 464.381 19.18C463.954 19.4467 463.614 19.82 463.361 20.3C463.121 20.78 463.001 21.3333 463.001 21.96C463.001 22.6 463.121 23.16 463.361 23.64C463.614 24.1067 463.954 24.48 464.381 24.76C464.821 25.0267 465.327 25.16 465.901 25.16ZM473.57 31.4V16.92H475.71L475.97 18.38C476.184 18.0867 476.437 17.8133 476.73 17.56C477.037 17.2933 477.404 17.08 477.83 16.92C478.27 16.76 478.77 16.68 479.33 16.68C480.277 16.68 481.11 16.9133 481.83 17.38C482.564 17.8467 483.137 18.48 483.55 19.28C483.964 20.0667 484.17 20.9667 484.17 21.98C484.17 22.9933 483.957 23.9 483.53 24.7C483.117 25.4867 482.544 26.1067 481.81 26.56C481.09 27.0133 480.264 27.24 479.33 27.24C478.57 27.24 477.904 27.1 477.33 26.82C476.77 26.5267 476.317 26.1133 475.97 25.58V31.4H473.57ZM478.83 25.16C479.39 25.16 479.89 25.0267 480.33 24.76C480.77 24.4933 481.11 24.12 481.35 23.64C481.604 23.16 481.73 22.6067 481.73 21.98C481.73 21.34 481.604 20.78 481.35 20.3C481.11 19.82 480.77 19.4467 480.33 19.18C479.89 18.9133 479.39 18.78 478.83 18.78C478.257 18.78 477.75 18.9133 477.31 19.18C476.884 19.4467 476.544 19.82 476.29 20.3C476.05 20.78 475.93 21.3333 475.93 21.96C475.93 22.6 476.05 23.16 476.29 23.64C476.544 24.1067 476.884 24.48 477.31 24.76C477.75 25.0267 478.257 25.16 478.83 25.16ZM487.54 27.1C487.087 27.1 486.72 26.96 486.44 26.68C486.16 26.4 486.02 26.0667 486.02 25.68C486.02 25.2667 486.16 24.92 486.44 24.64C486.72 24.36 487.087 24.22 487.54 24.22C487.98 24.22 488.34 24.36 488.62 24.64C488.9 24.92 489.04 25.2667 489.04 25.68C489.04 26.0667 488.9 26.4 488.62 26.68C488.34 26.96 487.98 27.1 487.54 27.1ZM487.54 19.54C487.087 19.54 486.72 19.4 486.44 19.12C486.16 18.84 486.02 18.5067 486.02 18.12C486.02 17.7067 486.16 17.36 486.44 17.08C486.72 16.8 487.087 16.66 487.54 16.66C487.98 16.66 488.34 16.8 488.62 17.08C488.9 17.36 489.04 17.7067 489.04 18.12C489.04 18.5067 488.9 18.84 488.62 19.12C488.34 19.4 487.98 19.54 487.54 19.54Z" fill="#62748E"/>
<path d="M529.752 25.192C529.037 25.192 528.387 25.064 527.8 24.808C527.224 24.5413 526.765 24.1467 526.424 23.624C526.083 23.1013 525.901 22.4507 525.88 21.672H527.24C527.251 22.0987 527.352 22.4933 527.544 22.856C527.747 23.208 528.035 23.4907 528.408 23.704C528.781 23.9173 529.229 24.024 529.752 24.024C530.275 24.024 530.712 23.9227 531.064 23.72C531.416 23.5173 531.683 23.2507 531.864 22.92C532.045 22.5787 532.136 22.2 532.136 21.784C532.136 21.2827 532.008 20.8773 531.752 20.568C531.507 20.248 531.171 20.0133 530.744 19.864C530.328 19.704 529.869 19.624 529.368 19.624H528.536V18.488H529.368C530.125 18.488 530.717 18.3173 531.144 17.976C531.581 17.624 531.8 17.1387 531.8 16.52C531.8 16.0187 531.629 15.6027 531.288 15.272C530.947 14.9413 530.435 14.776 529.752 14.776C529.08 14.776 528.552 14.9573 528.168 15.32C527.784 15.6827 527.565 16.1467 527.512 16.712H526.152C526.184 16.104 526.349 15.5653 526.648 15.096C526.957 14.6267 527.373 14.264 527.896 14.008C528.429 13.7413 529.048 13.608 529.752 13.608C530.499 13.608 531.123 13.736 531.624 13.992C532.136 14.248 532.52 14.5893 532.776 15.016C533.032 15.4427 533.16 15.9173 533.16 16.44C533.16 16.824 533.085 17.192 532.936 17.544C532.797 17.896 532.584 18.2 532.296 18.456C532.008 18.712 531.64 18.8933 531.192 19C531.629 19.0853 532.019 19.2507 532.36 19.496C532.712 19.7413 532.989 20.056 533.192 20.44C533.395 20.824 533.496 21.272 533.496 21.784C533.496 22.392 533.352 22.9573 533.064 23.48C532.787 23.992 532.371 24.408 531.816 24.728C531.261 25.0373 530.573 25.192 529.752 25.192ZM540.899 25V22.6H535.219V21.56L540.659 13.8H542.227V21.416H543.891V22.6H542.227V25H540.899ZM536.707 21.416H540.963V15.288L536.707 21.416ZM549.655 25.192C548.727 25.192 547.927 24.952 547.255 24.472C546.593 23.9813 546.081 23.304 545.719 22.44C545.356 21.5653 545.175 20.552 545.175 19.4C545.175 18.248 545.356 17.24 545.719 16.376C546.081 15.5013 546.593 14.824 547.255 14.344C547.927 13.8533 548.727 13.608 549.655 13.608C550.583 13.608 551.377 13.8533 552.039 14.344C552.7 14.824 553.207 15.5013 553.559 16.376C553.921 17.24 554.103 18.248 554.103 19.4C554.103 20.552 553.921 21.5653 553.559 22.44C553.207 23.304 552.7 23.9813 552.039 24.472C551.377 24.952 550.583 25.192 549.655 25.192ZM549.655 24.008C550.241 24.008 550.764 23.8267 551.223 23.464C551.681 23.0907 552.044 22.5627 552.311 21.88C552.588 21.1867 552.727 20.36 552.727 19.4C552.727 18.4293 552.588 17.6027 552.311 16.92C552.044 16.2373 551.681 15.7147 551.223 15.352C550.764 14.9893 550.241 14.808 549.655 14.808C549.057 14.808 548.524 14.9893 548.055 15.352C547.585 15.7147 547.217 16.2373 546.951 16.92C546.684 17.6027 546.551 18.4293 546.551 19.4C546.551 20.36 546.684 21.1867 546.951 21.88C547.217 22.5627 547.585 23.0907 548.055 23.464C548.524 23.8267 549.057 24.008 549.655 24.008ZM559.723 25.192C559.019 25.192 558.379 25.0587 557.803 24.792C557.237 24.5147 556.789 24.136 556.459 23.656C556.128 23.1653 555.963 22.6 555.963 21.96C555.963 21.5013 556.048 21.0747 556.219 20.68C556.4 20.2853 556.645 19.944 556.955 19.656C557.264 19.3573 557.627 19.1493 558.043 19.032C557.477 18.8187 557.035 18.488 556.715 18.04C556.395 17.592 556.235 17.1067 556.235 16.584C556.235 16.0293 556.373 15.528 556.651 15.08C556.939 14.632 557.344 14.2747 557.867 14.008C558.389 13.7413 559.008 13.608 559.723 13.608C560.448 13.608 561.067 13.7413 561.579 14.008C562.101 14.2747 562.501 14.632 562.779 15.08C563.056 15.528 563.195 16.0293 563.195 16.584C563.195 17.1067 563.035 17.592 562.715 18.04C562.405 18.488 561.968 18.8187 561.403 19.032C561.819 19.1493 562.181 19.3573 562.491 19.656C562.8 19.944 563.04 20.2853 563.211 20.68C563.392 21.0747 563.483 21.5013 563.483 21.96C563.483 22.6 563.317 23.1653 562.987 23.656C562.656 24.136 562.203 24.5147 561.627 24.792C561.061 25.0587 560.427 25.192 559.723 25.192ZM559.723 24.008C560.523 24.008 561.125 23.816 561.531 23.432C561.936 23.0373 562.139 22.52 562.139 21.88C562.139 21.1547 561.915 20.6053 561.467 20.232C561.029 19.8587 560.448 19.672 559.723 19.672C558.997 19.672 558.411 19.8587 557.963 20.232C557.525 20.6053 557.307 21.1547 557.307 21.88C557.307 22.52 557.504 23.0373 557.899 23.432C558.304 23.816 558.912 24.008 559.723 24.008ZM559.723 18.552C560.363 18.552 560.875 18.376 561.259 18.024C561.643 17.672 561.835 17.2187 561.835 16.664C561.835 16.0347 561.643 15.56 561.259 15.24C560.885 14.92 560.373 14.76 559.723 14.76C559.072 14.76 558.555 14.92 558.171 15.24C557.797 15.56 557.611 16.0347 557.611 16.664C557.611 17.2187 557.803 17.672 558.187 18.024C558.571 18.376 559.083 18.552 559.723 18.552Z" fill="#62748E"/>
<path d="M725.5 27L730.62 13H733.3L738.42 27H735.88L731.94 15.8L728 27H725.5ZM727.78 23.7L728.42 21.8H735.32L735.96 23.7H727.78ZM740.266 31.4V16.92H742.406L742.666 18.38C742.879 18.0867 743.132 17.8133 743.426 17.56C743.732 17.2933 744.099 17.08 744.526 16.92C744.966 16.76 745.466 16.68 746.026 16.68C746.972 16.68 747.806 16.9133 748.526 17.38C749.259 17.8467 749.832 18.48 750.246 19.28C750.659 20.0667 750.866 20.9667 750.866 21.98C750.866 22.9933 750.652 23.9 750.226 24.7C749.812 25.4867 749.239 26.1067 748.506 26.56C747.786 27.0133 746.959 27.24 746.026 27.24C745.266 27.24 744.599 27.1 744.026 26.82C743.466 26.5267 743.012 26.1133 742.666 25.58V31.4H740.266ZM745.526 25.16C746.086 25.16 746.586 25.0267 747.026 24.76C747.466 24.4933 747.806 24.12 748.046 23.64C748.299 23.16 748.426 22.6067 748.426 21.98C748.426 21.34 748.299 20.78 748.046 20.3C747.806 19.82 747.466 19.4467 747.026 19.18C746.586 18.9133 746.086 18.78 745.526 18.78C744.952 18.78 744.446 18.9133 744.006 19.18C743.579 19.4467 743.239 19.82 742.986 20.3C742.746 20.78 742.626 21.3333 742.626 21.96C742.626 22.6 742.746 23.16 742.986 23.64C743.239 24.1067 743.579 24.48 744.006 24.76C744.446 25.0267 744.952 25.16 745.526 25.16ZM753.195 31.4V16.92H755.335L755.595 18.38C755.809 18.0867 756.062 17.8133 756.355 17.56C756.662 17.2933 757.029 17.08 757.455 16.92C757.895 16.76 758.395 16.68 758.955 16.68C759.902 16.68 760.735 16.9133 761.455 17.38C762.189 17.8467 762.762 18.48 763.175 19.28C763.589 20.0667 763.795 20.9667 763.795 21.98C763.795 22.9933 763.582 23.9 763.155 24.7C762.742 25.4867 762.169 26.1067 761.435 26.56C760.715 27.0133 759.889 27.24 758.955 27.24C758.195 27.24 757.529 27.1 756.955 26.82C756.395 26.5267 755.942 26.1133 755.595 25.58V31.4H753.195ZM758.455 25.16C759.015 25.16 759.515 25.0267 759.955 24.76C760.395 24.4933 760.735 24.12 760.975 23.64C761.229 23.16 761.355 22.6067 761.355 21.98C761.355 21.34 761.229 20.78 760.975 20.3C760.735 19.82 760.395 19.4467 759.955 19.18C759.515 18.9133 759.015 18.78 758.455 18.78C757.882 18.78 757.375 18.9133 756.935 19.18C756.509 19.4467 756.169 19.82 755.915 20.3C755.675 20.78 755.555 21.3333 755.555 21.96C755.555 22.6 755.675 23.16 755.915 23.64C756.169 24.1067 756.509 24.48 756.935 24.76C757.375 25.0267 757.882 25.16 758.455 25.16ZM766.125 27V16.92H768.265L768.485 18.8C768.725 18.36 769.025 17.9867 769.385 17.68C769.745 17.36 770.165 17.1133 770.645 16.94C771.138 16.7667 771.678 16.68 772.265 16.68V19.22H771.425C771.025 19.22 770.645 19.2733 770.285 19.38C769.925 19.4733 769.612 19.6333 769.345 19.86C769.092 20.0733 768.892 20.3733 768.745 20.76C768.598 21.1333 768.525 21.6067 768.525 22.18V27H766.125ZM778.56 27.24C777.6 27.24 776.733 27.02 775.96 26.58C775.2 26.1267 774.6 25.5067 774.16 24.72C773.733 23.92 773.52 23.0067 773.52 21.98C773.52 20.9267 773.74 20.0067 774.18 19.22C774.62 18.42 775.22 17.8 775.98 17.36C776.753 16.9067 777.62 16.68 778.58 16.68C779.54 16.68 780.4 16.9067 781.16 17.36C781.933 17.8 782.533 18.4133 782.96 19.2C783.4 19.9867 783.62 20.9067 783.62 21.96C783.62 23.0133 783.4 23.9333 782.96 24.72C782.52 25.5067 781.913 26.1267 781.14 26.58C780.38 27.02 779.52 27.24 778.56 27.24ZM778.56 25.18C779.04 25.18 779.473 25.06 779.86 24.82C780.26 24.58 780.58 24.22 780.82 23.74C781.06 23.26 781.18 22.6667 781.18 21.96C781.18 21.2533 781.06 20.6667 780.82 20.2C780.593 19.72 780.28 19.36 779.88 19.12C779.493 18.88 779.06 18.76 778.58 18.76C778.113 18.76 777.68 18.88 777.28 19.12C776.88 19.36 776.56 19.72 776.32 20.2C776.08 20.6667 775.96 21.2533 775.96 21.96C775.96 22.6667 776.08 23.26 776.32 23.74C776.56 24.22 776.873 24.58 777.26 24.82C777.66 25.06 778.093 25.18 778.56 25.18ZM788.241 27L784.521 16.92H787.041L789.701 24.72L792.361 16.92H794.841L791.121 27H788.241ZM800.787 27.24C799.787 27.24 798.907 27.0267 798.147 26.6C797.387 26.16 796.793 25.5467 796.367 24.76C795.94 23.9733 795.727 23.0667 795.727 22.04C795.727 20.9733 795.933 20.04 796.347 19.24C796.773 18.44 797.367 17.8133 798.127 17.36C798.9 16.9067 799.793 16.68 800.807 16.68C801.793 16.68 802.653 16.9 803.387 17.34C804.12 17.78 804.687 18.3733 805.087 19.12C805.487 19.8533 805.687 20.68 805.687 21.6C805.687 21.7333 805.687 21.88 805.687 22.04C805.687 22.2 805.673 22.3667 805.647 22.54H797.447V21H803.267C803.24 20.2667 802.993 19.6933 802.527 19.28C802.06 18.8533 801.48 18.64 800.787 18.64C800.293 18.64 799.84 18.7533 799.427 18.98C799.013 19.2067 798.687 19.5467 798.447 20C798.207 20.44 798.087 21 798.087 21.68V22.26C798.087 22.8867 798.2 23.4267 798.427 23.88C798.667 24.3333 798.987 24.68 799.387 24.92C799.8 25.1467 800.26 25.26 800.767 25.26C801.327 25.26 801.787 25.14 802.147 24.9C802.52 24.66 802.793 24.34 802.967 23.94H805.407C805.22 24.5667 804.913 25.1333 804.487 25.64C804.06 26.1333 803.533 26.5267 802.907 26.82C802.28 27.1 801.573 27.24 800.787 27.24ZM812.383 27.24C811.449 27.24 810.616 27.0133 809.883 26.56C809.149 26.1067 808.576 25.48 808.163 24.68C807.763 23.88 807.563 22.9733 807.563 21.96C807.563 20.9467 807.769 20.0467 808.183 19.26C808.596 18.46 809.169 17.8333 809.903 17.38C810.649 16.9133 811.489 16.68 812.423 16.68C813.183 16.68 813.843 16.8267 814.403 17.12C814.976 17.4 815.429 17.8 815.763 18.32V12.6H818.163V27H816.003L815.763 25.54C815.549 25.8333 815.289 26.1133 814.983 26.38C814.676 26.6333 814.309 26.84 813.883 27C813.456 27.16 812.956 27.24 812.383 27.24ZM812.883 25.16C813.456 25.16 813.963 25.0267 814.403 24.76C814.843 24.48 815.183 24.1 815.423 23.62C815.663 23.14 815.783 22.5867 815.783 21.96C815.783 21.3333 815.663 20.78 815.423 20.3C815.183 19.82 814.843 19.4467 814.403 19.18C813.963 18.9133 813.456 18.78 812.883 18.78C812.336 18.78 811.843 18.9133 811.403 19.18C810.963 19.4467 810.616 19.82 810.363 20.3C810.123 20.78 810.003 21.3333 810.003 21.96C810.003 22.5867 810.123 23.14 810.363 23.62C810.616 24.1 810.963 24.48 811.403 24.76C811.843 25.0267 812.336 25.16 812.883 25.16ZM825.795 27V13H828.195V25.12H834.435V27H825.795ZM840.942 27.24C839.982 27.24 839.116 27.02 838.342 26.58C837.582 26.1267 836.982 25.5067 836.542 24.72C836.116 23.92 835.902 23.0067 835.902 21.98C835.902 20.9267 836.122 20.0067 836.562 19.22C837.002 18.42 837.602 17.8 838.362 17.36C839.136 16.9067 840.002 16.68 840.962 16.68C841.922 16.68 842.782 16.9067 843.542 17.36C844.316 17.8 844.916 18.4133 845.342 19.2C845.782 19.9867 846.002 20.9067 846.002 21.96C846.002 23.0133 845.782 23.9333 845.342 24.72C844.902 25.5067 844.296 26.1267 843.522 26.58C842.762 27.02 841.902 27.24 840.942 27.24ZM840.942 25.18C841.422 25.18 841.856 25.06 842.242 24.82C842.642 24.58 842.962 24.22 843.202 23.74C843.442 23.26 843.562 22.6667 843.562 21.96C843.562 21.2533 843.442 20.6667 843.202 20.2C842.976 19.72 842.662 19.36 842.262 19.12C841.876 18.88 841.442 18.76 840.962 18.76C840.496 18.76 840.062 18.88 839.662 19.12C839.262 19.36 838.942 19.72 838.702 20.2C838.462 20.6667 838.342 21.2533 838.342 21.96C838.342 22.6667 838.462 23.26 838.702 23.74C838.942 24.22 839.256 24.58 839.642 24.82C840.042 25.06 840.476 25.18 840.942 25.18ZM851.712 27.24C850.885 27.24 850.198 27.1 849.652 26.82C849.105 26.54 848.698 26.1667 848.432 25.7C848.165 25.2333 848.032 24.7267 848.032 24.18C848.032 23.54 848.192 22.9867 848.512 22.52C848.845 22.0533 849.332 21.6933 849.972 21.44C850.612 21.1733 851.398 21.04 852.332 21.04H854.872C854.872 20.5067 854.798 20.0667 854.652 19.72C854.505 19.36 854.278 19.0933 853.972 18.92C853.665 18.7467 853.272 18.66 852.792 18.66C852.245 18.66 851.778 18.7867 851.392 19.04C851.005 19.28 850.765 19.6533 850.672 20.16H848.312C848.392 19.44 848.632 18.8267 849.032 18.32C849.432 17.8 849.958 17.4 850.612 17.12C851.278 16.8267 852.005 16.68 852.792 16.68C853.738 16.68 854.545 16.8467 855.212 17.18C855.878 17.5 856.385 17.9667 856.732 18.58C857.092 19.18 857.272 19.9067 857.272 20.76V27H855.232L854.992 25.38C854.858 25.6467 854.685 25.8933 854.472 26.12C854.272 26.3467 854.038 26.5467 853.772 26.72C853.505 26.88 853.198 27.0067 852.852 27.1C852.518 27.1933 852.138 27.24 851.712 27.24ZM852.252 25.34C852.638 25.34 852.978 25.2733 853.272 25.14C853.578 24.9933 853.838 24.7933 854.052 24.54C854.278 24.2733 854.452 23.98 854.572 23.66C854.692 23.34 854.772 23 854.812 22.64V22.6H852.592C852.125 22.6 851.738 22.66 851.432 22.78C851.125 22.8867 850.905 23.0467 850.772 23.26C850.638 23.4733 850.572 23.72 850.572 24C850.572 24.28 850.638 24.52 850.772 24.72C850.905 24.92 851.098 25.0733 851.352 25.18C851.605 25.2867 851.905 25.34 852.252 25.34ZM859.836 27V16.92H861.956L862.136 18.6C862.443 18.0133 862.883 17.5467 863.456 17.2C864.029 16.8533 864.709 16.68 865.496 16.68C866.309 16.68 867.003 16.8533 867.576 17.2C868.149 17.5333 868.589 18.0267 868.896 18.68C869.216 19.3333 869.376 20.1467 869.376 21.12V27H866.976V21.34C866.976 20.5 866.789 19.8533 866.416 19.4C866.043 18.9467 865.489 18.72 864.756 18.72C864.276 18.72 863.843 18.8333 863.456 19.06C863.083 19.2867 862.783 19.62 862.556 20.06C862.343 20.4867 862.236 21.0067 862.236 21.62V27H859.836ZM875.949 27L881.069 13H883.749L888.869 27H886.329L882.389 15.8L878.449 27H875.949ZM878.229 23.7L878.869 21.8H885.769L886.409 23.7H878.229ZM890.715 27V16.92H892.835L893.035 18.3C893.355 17.7933 893.775 17.4 894.295 17.12C894.828 16.8267 895.435 16.68 896.115 16.68C896.622 16.68 897.075 16.7467 897.475 16.88C897.888 17.0133 898.248 17.2133 898.555 17.48C898.875 17.7467 899.135 18.08 899.335 18.48C899.708 17.92 900.195 17.48 900.795 17.16C901.395 16.84 902.048 16.68 902.755 16.68C903.595 16.68 904.308 16.8533 904.895 17.2C905.482 17.5333 905.928 18.0333 906.235 18.7C906.542 19.3533 906.695 20.16 906.695 21.12V27H904.315V21.36C904.315 20.5067 904.142 19.8533 903.795 19.4C903.448 18.9467 902.935 18.72 902.255 18.72C901.788 18.72 901.375 18.8333 901.015 19.06C900.668 19.2867 900.395 19.62 900.195 20.06C899.995 20.4867 899.895 21.0133 899.895 21.64V27H897.515V21.36C897.515 20.5067 897.342 19.8533 896.995 19.4C896.648 18.9467 896.128 18.72 895.435 18.72C894.995 18.72 894.595 18.8333 894.235 19.06C893.888 19.2867 893.615 19.62 893.415 20.06C893.215 20.4867 893.115 21.0133 893.115 21.64V27H890.715ZM913.931 27.24C912.971 27.24 912.104 27.02 911.331 26.58C910.571 26.1267 909.971 25.5067 909.531 24.72C909.104 23.92 908.891 23.0067 908.891 21.98C908.891 20.9267 909.111 20.0067 909.551 19.22C909.991 18.42 910.591 17.8 911.351 17.36C912.124 16.9067 912.991 16.68 913.951 16.68C914.911 16.68 915.771 16.9067 916.531 17.36C917.304 17.8 917.904 18.4133 918.331 19.2C918.771 19.9867 918.991 20.9067 918.991 21.96C918.991 23.0133 918.771 23.9333 918.331 24.72C917.891 25.5067 917.284 26.1267 916.511 26.58C915.751 27.02 914.891 27.24 913.931 27.24ZM913.931 25.18C914.411 25.18 914.844 25.06 915.231 24.82C915.631 24.58 915.951 24.22 916.191 23.74C916.431 23.26 916.551 22.6667 916.551 21.96C916.551 21.2533 916.431 20.6667 916.191 20.2C915.964 19.72 915.651 19.36 915.251 19.12C914.864 18.88 914.431 18.76 913.951 18.76C913.484 18.76 913.051 18.88 912.651 19.12C912.251 19.36 911.931 19.72 911.691 20.2C911.451 20.6667 911.331 21.2533 911.331 21.96C911.331 22.6667 911.451 23.26 911.691 23.74C911.931 24.22 912.244 24.58 912.631 24.82C913.031 25.06 913.464 25.18 913.931 25.18ZM925.08 27.24C924.267 27.24 923.567 27.08 922.98 26.76C922.407 26.4267 921.967 25.9333 921.66 25.28C921.353 24.6133 921.2 23.7933 921.2 22.82V16.92H923.6V22.58C923.6 23.4467 923.78 24.1067 924.14 24.56C924.513 25 925.073 25.22 925.82 25.22C926.3 25.22 926.727 25.1067 927.1 24.88C927.487 24.6533 927.787 24.3267 928 23.9C928.227 23.46 928.34 22.9267 928.34 22.3V16.92H930.74V27H928.62L928.44 25.32C928.133 25.9067 927.687 26.3733 927.1 26.72C926.527 27.0667 925.853 27.24 925.08 27.24ZM933.41 27V16.92H935.53L935.71 18.6C936.017 18.0133 936.457 17.5467 937.03 17.2C937.604 16.8533 938.284 16.68 939.07 16.68C939.884 16.68 940.577 16.8533 941.15 17.2C941.724 17.5333 942.164 18.0267 942.47 18.68C942.79 19.3333 942.95 20.1467 942.95 21.12V27H940.55V21.34C940.55 20.5 940.364 19.8533 939.99 19.4C939.617 18.9467 939.064 18.72 938.33 18.72C937.85 18.72 937.417 18.8333 937.03 19.06C936.657 19.2867 936.357 19.62 936.13 20.06C935.917 20.4867 935.81 21.0067 935.81 21.62V27H933.41ZM949.861 27C949.181 27 948.587 26.8933 948.081 26.68C947.587 26.4667 947.201 26.1133 946.921 25.62C946.641 25.1267 946.501 24.46 946.501 23.62V18.94H944.781V16.92H946.501L946.781 14.26H948.901V16.92H951.641V18.94H948.901V23.62C948.901 24.1267 949.007 24.48 949.221 24.68C949.447 24.8667 949.821 24.96 950.341 24.96H951.581V27H949.861ZM954.939 27.1C954.485 27.1 954.119 26.96 953.839 26.68C953.559 26.4 953.419 26.0667 953.419 25.68C953.419 25.2667 953.559 24.92 953.839 24.64C954.119 24.36 954.485 24.22 954.939 24.22C955.379 24.22 955.739 24.36 956.019 24.64C956.299 24.92 956.439 25.2667 956.439 25.68C956.439 26.0667 956.299 26.4 956.019 26.68C955.739 26.96 955.379 27.1 954.939 27.1ZM954.939 19.54C954.485 19.54 954.119 19.4 953.839 19.12C953.559 18.84 953.419 18.5067 953.419 18.12C953.419 17.7067 953.559 17.36 953.839 17.08C954.119 16.8 954.485 16.66 954.939 16.66C955.379 16.66 955.739 16.8 956.019 17.08C956.299 17.36 956.439 17.7067 956.439 18.12C956.439 18.5067 956.299 18.84 956.019 19.12C955.739 19.4 955.379 19.54 954.939 19.54Z" fill="#62748E"/>
<path d="M1006.77 25.192C1005.7 25.192 1004.9 24.8987 1004.35 24.312C1003.82 23.7147 1003.55 22.888 1003.55 21.832V19.528C1004.58 19.528 1005.39 19.496 1006 19.432C1006.62 19.3573 1007.08 19.2187 1007.38 19.016C1007.69 18.8027 1007.89 18.488 1007.98 18.072C1008.08 17.656 1008.13 17.1013 1008.13 16.408V14.376H1009.39V16.408C1009.39 17.176 1009.32 17.8213 1009.17 18.344C1009.03 18.8667 1008.78 19.288 1008.43 19.608C1008.09 19.9173 1007.62 20.1413 1007.02 20.28C1006.44 20.408 1005.7 20.472 1004.82 20.472V21.88C1004.82 22.5627 1004.97 23.112 1005.26 23.528C1005.56 23.9333 1006.07 24.136 1006.78 24.136C1007.45 24.136 1007.93 23.944 1008.22 23.56C1008.53 23.176 1008.69 22.648 1008.69 21.976H1009.94C1009.93 23.032 1009.64 23.832 1009.09 24.376C1008.54 24.92 1007.77 25.192 1006.77 25.192ZM1002.85 17.576V16.616H1011.52V17.576H1002.85ZM1002.85 14.776V13.8H1011.52V14.776H1002.85ZM1017.56 25V24.056C1018.34 23.4587 1019.09 22.856 1019.8 22.248C1020.5 21.64 1021.12 21.0373 1021.67 20.44C1022.21 19.832 1022.64 19.24 1022.95 18.664C1023.26 18.088 1023.41 17.5333 1023.41 17C1023.41 16.6053 1023.34 16.2427 1023.19 15.912C1023.05 15.5707 1022.82 15.2933 1022.5 15.08C1022.19 14.8667 1021.77 14.76 1021.24 14.76C1020.72 14.76 1020.3 14.872 1019.96 15.096C1019.61 15.3093 1019.36 15.5973 1019.19 15.96C1019.02 16.312 1018.93 16.7013 1018.93 17.128H1017.64C1017.65 16.392 1017.81 15.7627 1018.12 15.24C1018.42 14.7067 1018.85 14.3013 1019.4 14.024C1019.94 13.7467 1020.56 13.608 1021.25 13.608C1021.93 13.608 1022.54 13.736 1023.06 13.992C1023.58 14.2373 1023.99 14.6107 1024.29 15.112C1024.6 15.6027 1024.76 16.216 1024.76 16.952C1024.76 17.4747 1024.64 17.9973 1024.42 18.52C1024.21 19.0427 1023.91 19.5547 1023.54 20.056C1023.17 20.5467 1022.75 21.0213 1022.29 21.48C1021.84 21.9387 1021.38 22.3707 1020.9 22.776C1020.42 23.1813 1019.97 23.5493 1019.54 23.88H1025.14V25H1017.56ZM1031.05 25.192C1030.12 25.192 1029.32 24.952 1028.65 24.472C1027.98 23.9813 1027.47 23.304 1027.11 22.44C1026.75 21.5653 1026.57 20.552 1026.57 19.4C1026.57 18.248 1026.75 17.24 1027.11 16.376C1027.47 15.5013 1027.98 14.824 1028.65 14.344C1029.32 13.8533 1030.12 13.608 1031.05 13.608C1031.97 13.608 1032.77 13.8533 1033.43 14.344C1034.09 14.824 1034.6 15.5013 1034.95 16.376C1035.31 17.24 1035.49 18.248 1035.49 19.4C1035.49 20.552 1035.31 21.5653 1034.95 22.44C1034.6 23.304 1034.09 23.9813 1033.43 24.472C1032.77 24.952 1031.97 25.192 1031.05 25.192ZM1031.05 24.008C1031.63 24.008 1032.15 23.8267 1032.61 23.464C1033.07 23.0907 1033.43 22.5627 1033.7 21.88C1033.98 21.1867 1034.12 20.36 1034.12 19.4C1034.12 18.4293 1033.98 17.6027 1033.7 16.92C1033.43 16.2373 1033.07 15.7147 1032.61 15.352C1032.15 14.9893 1031.63 14.808 1031.05 14.808C1030.45 14.808 1029.91 14.9893 1029.45 15.352C1028.98 15.7147 1028.61 16.2373 1028.34 16.92C1028.07 17.6027 1027.94 18.4293 1027.94 19.4C1027.94 20.36 1028.07 21.1867 1028.34 21.88C1028.61 22.5627 1028.98 23.0907 1029.45 23.464C1029.91 23.8267 1030.45 24.008 1031.05 24.008ZM1035.97 26.968L1036.9 23.432H1038.29L1036.9 26.968H1035.97ZM1044.17 25.192C1043.24 25.192 1042.44 24.952 1041.77 24.472C1041.11 23.9813 1040.6 23.304 1040.23 22.44C1039.87 21.5653 1039.69 20.552 1039.69 19.4C1039.69 18.248 1039.87 17.24 1040.23 16.376C1040.6 15.5013 1041.11 14.824 1041.77 14.344C1042.44 13.8533 1043.24 13.608 1044.17 13.608C1045.1 13.608 1045.89 13.8533 1046.55 14.344C1047.22 14.824 1047.72 15.5013 1048.07 16.376C1048.44 17.24 1048.62 18.248 1048.62 19.4C1048.62 20.552 1048.44 21.5653 1048.07 22.44C1047.72 23.304 1047.22 23.9813 1046.55 24.472C1045.89 24.952 1045.1 25.192 1044.17 25.192ZM1044.17 24.008C1044.76 24.008 1045.28 23.8267 1045.74 23.464C1046.2 23.0907 1046.56 22.5627 1046.83 21.88C1047.1 21.1867 1047.24 20.36 1047.24 19.4C1047.24 18.4293 1047.1 17.6027 1046.83 16.92C1046.56 16.2373 1046.2 15.7147 1045.74 15.352C1045.28 14.9893 1044.76 14.808 1044.17 14.808C1043.57 14.808 1043.04 14.9893 1042.57 15.352C1042.1 15.7147 1041.73 16.2373 1041.47 16.92C1041.2 17.6027 1041.07 18.4293 1041.07 19.4C1041.07 20.36 1041.2 21.1867 1041.47 21.88C1041.73 22.5627 1042.1 23.0907 1042.57 23.464C1043.04 23.8267 1043.57 24.008 1044.17 24.008ZM1054.67 25.192C1053.74 25.192 1052.94 24.952 1052.27 24.472C1051.61 23.9813 1051.1 23.304 1050.73 22.44C1050.37 21.5653 1050.19 20.552 1050.19 19.4C1050.19 18.248 1050.37 17.24 1050.73 16.376C1051.1 15.5013 1051.61 14.824 1052.27 14.344C1052.94 13.8533 1053.74 13.608 1054.67 13.608C1055.6 13.608 1056.39 13.8533 1057.05 14.344C1057.72 14.824 1058.22 15.5013 1058.57 16.376C1058.94 17.24 1059.12 18.248 1059.12 19.4C1059.12 20.552 1058.94 21.5653 1058.57 22.44C1058.22 23.304 1057.72 23.9813 1057.05 24.472C1056.39 24.952 1055.6 25.192 1054.67 25.192ZM1054.67 24.008C1055.26 24.008 1055.78 23.8267 1056.24 23.464C1056.7 23.0907 1057.06 22.5627 1057.33 21.88C1057.6 21.1867 1057.74 20.36 1057.74 19.4C1057.74 18.4293 1057.6 17.6027 1057.33 16.92C1057.06 16.2373 1056.7 15.7147 1056.24 15.352C1055.78 14.9893 1055.26 14.808 1054.67 14.808C1054.07 14.808 1053.54 14.9893 1053.07 15.352C1052.6 15.7147 1052.23 16.2373 1051.97 16.92C1051.7 17.6027 1051.57 18.4293 1051.57 19.4C1051.57 20.36 1051.7 21.1867 1051.97 21.88C1052.23 22.5627 1052.6 23.0907 1053.07 23.464C1053.54 23.8267 1054.07 24.008 1054.67 24.008ZM1059.6 26.968L1060.53 23.432H1061.92L1060.53 26.968H1059.6ZM1067.8 25.192C1066.87 25.192 1066.07 24.952 1065.4 24.472C1064.73 23.9813 1064.22 23.304 1063.86 22.44C1063.5 21.5653 1063.32 20.552 1063.32 19.4C1063.32 18.248 1063.5 17.24 1063.86 16.376C1064.22 15.5013 1064.73 14.824 1065.4 14.344C1066.07 13.8533 1066.87 13.608 1067.8 13.608C1068.72 13.608 1069.52 13.8533 1070.18 14.344C1070.84 14.824 1071.35 15.5013 1071.7 16.376C1072.06 17.24 1072.24 18.248 1072.24 19.4C1072.24 20.552 1072.06 21.5653 1071.7 22.44C1071.35 23.304 1070.84 23.9813 1070.18 24.472C1069.52 24.952 1068.72 25.192 1067.8 25.192ZM1067.8 24.008C1068.38 24.008 1068.9 23.8267 1069.36 23.464C1069.82 23.0907 1070.18 22.5627 1070.45 21.88C1070.73 21.1867 1070.87 20.36 1070.87 19.4C1070.87 18.4293 1070.73 17.6027 1070.45 16.92C1070.18 16.2373 1069.82 15.7147 1069.36 15.352C1068.9 14.9893 1068.38 14.808 1067.8 14.808C1067.2 14.808 1066.66 14.9893 1066.2 15.352C1065.73 15.7147 1065.36 16.2373 1065.09 16.92C1064.82 17.6027 1064.69 18.4293 1064.69 19.4C1064.69 20.36 1064.82 21.1867 1065.09 21.88C1065.36 22.5627 1065.73 23.0907 1066.2 23.464C1066.66 23.8267 1067.2 24.008 1067.8 24.008ZM1078.3 25.192C1077.37 25.192 1076.57 24.952 1075.9 24.472C1075.23 23.9813 1074.72 23.304 1074.36 22.44C1074 21.5653 1073.82 20.552 1073.82 19.4C1073.82 18.248 1074 17.24 1074.36 16.376C1074.72 15.5013 1075.23 14.824 1075.9 14.344C1076.57 13.8533 1077.37 13.608 1078.3 13.608C1079.22 13.608 1080.02 13.8533 1080.68 14.344C1081.34 14.824 1081.85 15.5013 1082.2 16.376C1082.56 17.24 1082.74 18.248 1082.74 19.4C1082.74 20.552 1082.56 21.5653 1082.2 22.44C1081.85 23.304 1081.34 23.9813 1080.68 24.472C1080.02 24.952 1079.22 25.192 1078.3 25.192ZM1078.3 24.008C1078.88 24.008 1079.4 23.8267 1079.86 23.464C1080.32 23.0907 1080.68 22.5627 1080.95 21.88C1081.23 21.1867 1081.37 20.36 1081.37 19.4C1081.37 18.4293 1081.23 17.6027 1080.95 16.92C1080.68 16.2373 1080.32 15.7147 1079.86 15.352C1079.4 14.9893 1078.88 14.808 1078.3 14.808C1077.7 14.808 1077.16 14.9893 1076.7 15.352C1076.23 15.7147 1075.86 16.2373 1075.59 16.92C1075.32 17.6027 1075.19 18.4293 1075.19 19.4C1075.19 20.36 1075.32 21.1867 1075.59 21.88C1075.86 22.5627 1076.23 23.0907 1076.7 23.464C1077.16 23.8267 1077.7 24.008 1078.3 24.008ZM1088.8 25.192C1087.87 25.192 1087.07 24.952 1086.4 24.472C1085.73 23.9813 1085.22 23.304 1084.86 22.44C1084.5 21.5653 1084.32 20.552 1084.32 19.4C1084.32 18.248 1084.5 17.24 1084.86 16.376C1085.22 15.5013 1085.73 14.824 1086.4 14.344C1087.07 13.8533 1087.87 13.608 1088.8 13.608C1089.72 13.608 1090.52 13.8533 1091.18 14.344C1091.84 14.824 1092.35 15.5013 1092.7 16.376C1093.06 17.24 1093.24 18.248 1093.24 19.4C1093.24 20.552 1093.06 21.5653 1092.7 22.44C1092.35 23.304 1091.84 23.9813 1091.18 24.472C1090.52 24.952 1089.72 25.192 1088.8 25.192ZM1088.8 24.008C1089.38 24.008 1089.9 23.8267 1090.36 23.464C1090.82 23.0907 1091.18 22.5627 1091.45 21.88C1091.73 21.1867 1091.87 20.36 1091.87 19.4C1091.87 18.4293 1091.73 17.6027 1091.45 16.92C1091.18 16.2373 1090.82 15.7147 1090.36 15.352C1089.9 14.9893 1089.38 14.808 1088.8 14.808C1088.2 14.808 1087.66 14.9893 1087.2 15.352C1086.73 15.7147 1086.36 16.2373 1086.09 16.92C1085.82 17.6027 1085.69 18.4293 1085.69 19.4C1085.69 20.36 1085.82 21.1867 1086.09 21.88C1086.36 22.5627 1086.73 23.0907 1087.2 23.464C1087.66 23.8267 1088.2 24.008 1088.8 24.008Z" fill="#62748E"/>
</svg>
