<svg width="100" height="101" viewBox="0 0 100 101" fill="none" xmlns="http://www.w3.org/2000/svg">
<path d="M83.3304 13.0068C83.9368 13.5456 84.534 14.0889 85.1184 14.652C85.287 14.8085 85.4556 14.9651 85.6293 15.1264C86.0061 15.5493 86.0061 15.5493 86.0061 16.1476C86.1697 16.2074 86.3333 16.2671 86.5019 16.3287C87.4653 16.9131 88.0554 17.7428 88.7245 18.6341C88.8674 18.8222 89.0102 19.0103 89.1573 19.2041C89.5899 19.778 90.0177 20.3552 90.4444 20.9336C90.6755 21.2444 90.9067 21.5552 91.1448 21.8754C94.1359 26.0615 96.3787 30.6477 97.8416 35.5909C97.9439 35.9357 97.9439 35.9357 98.0483 36.2875C101.273 47.3797 100.493 59.4353 95.7704 69.9906C95.687 70.1789 95.6036 70.3671 95.5177 70.5611C90.1176 82.5647 80.061 92.2506 67.8175 96.89C64.6618 98.0403 61.5064 99.0465 58.1926 99.6042C57.858 99.6652 57.5235 99.7261 57.1789 99.7889C51.2807 100.708 45.0915 100.546 39.2557 99.3051C38.8792 99.2253 38.5028 99.1455 38.1149 99.0632C29.8952 97.0593 22.146 92.7704 16.0469 86.8726C15.4128 86.2628 14.767 85.7073 14.0867 85.1526C12.3566 83.6282 11.0203 81.722 9.66685 79.8618C9.54088 79.6907 9.41492 79.5195 9.28514 79.3432C1.75039 68.9774 -1.15655 55.5176 0.411089 42.8339C2.36953 30.0828 9.41612 17.9768 19.6736 10.2627C39.1462 -4.0109 65.0687 -2.60141 83.3304 13.0068Z" fill="#CBF7DC"/>
<path d="M33.4153 18.0277C35.49 19.4619 36.8245 21.4818 37.4803 23.925C37.8047 26.8824 37.6216 29.0031 36.0934 31.5959C35.633 32.2968 35.633 32.2968 35.705 33.1979C36.192 33.7026 36.6851 34.2014 37.1844 34.6936C37.1844 34.891 37.1844 35.0884 37.1844 35.2918C37.4389 35.1148 37.6933 34.9378 37.9554 34.7555C42.9986 31.3194 48.3742 29.6061 54.4558 30.7114C57.9626 31.4718 61.0533 32.9767 63.8144 35.2918C63.8991 35.1083 63.9838 34.9247 64.071 34.7356C64.4678 33.9776 64.9727 33.481 65.5897 32.8988C65.2207 31.935 64.814 30.9959 64.3877 30.0571C63.3688 27.7327 63.1948 25.6238 63.9808 23.1958C65.1447 20.236 66.898 18.4149 69.7322 17.045C72.3531 16.0224 74.8609 16.2704 77.4253 17.3441C79.8506 18.5601 81.4816 20.4524 82.5051 22.9855C83.1618 25.4916 83.0866 28.3643 81.9769 30.7219C80.4378 33.2843 78.5079 34.8662 75.6754 35.772C73.2573 36.2344 71.0637 36.0358 68.8803 34.8969C68.2531 34.6254 68.2531 34.6254 67.6297 34.8992C67.0612 35.2974 66.6805 35.6776 66.2555 36.2266C65.9259 36.6523 65.9259 36.6523 65.5897 37.0866C65.74 37.2574 65.8903 37.4282 66.0451 37.6042C69.7969 42.0718 70.985 47.0748 70.6811 52.8139C70.3423 56.8226 68.6193 60.7779 65.8856 63.7089C66.3268 64.8442 66.9973 65.3872 67.9568 66.102C68.1353 66.0191 68.3138 65.9362 68.4978 65.8507C68.7342 65.7424 68.9707 65.634 69.2144 65.5224C69.4478 65.4148 69.6812 65.3072 69.9217 65.1964C72.1734 64.258 74.4062 64.4232 76.6902 65.1941C79.3725 66.3239 81.0589 68.0683 82.3479 70.6683C83.1778 72.9667 83.1154 75.8819 82.3074 78.1979C81.0146 80.9124 79.0321 82.7197 76.2417 83.7505C73.4492 84.4396 70.8094 84.201 68.2527 82.8531C65.8563 81.266 64.451 78.9986 63.626 76.2408C63.0506 73.207 64.1795 70.5342 65.5897 67.8967C64.9062 67.3045 64.2227 66.7122 63.5185 66.102C63.3709 66.2323 63.2233 66.3626 63.0712 66.4969C59.4821 69.5064 55.2313 71.067 50.5919 71.0376C50.2808 71.0361 49.9697 71.0346 49.6491 71.033C45.422 70.9379 40.8819 69.4325 37.7762 66.4011C37.7762 66.2037 37.7762 66.0062 37.7762 65.8028C37.0927 66.3951 36.4092 66.9874 35.705 67.5976C36.1006 68.635 36.1006 68.635 36.5996 69.6237C37.8767 72.0135 37.8586 74.8493 37.285 77.4606C36.3305 80.1633 34.404 82.2104 31.8585 83.4514C29.4421 84.4051 26.6317 84.4499 24.2012 83.4806C21.5828 82.1108 19.8878 80.1297 18.7284 77.4127C18.1996 74.1515 18.2768 71.1977 20.1836 68.4307C21.786 66.4401 23.7164 65.0813 26.2366 64.6063C28.9481 64.3275 31.3526 64.8637 33.6338 66.4011C33.7131 66.2222 33.7925 66.0433 33.8742 65.8589C34.2211 65.2129 34.5788 64.7984 35.1132 64.3072C34.7423 63.2872 34.3166 62.4579 33.6893 61.5777C30.5935 56.9712 30.0406 51.7652 30.7603 46.3106C31.3917 43.0948 33.192 39.7629 35.4091 37.3857C34.9407 36.1072 34.0759 35.5116 33.042 34.6936C32.8765 34.7799 32.7109 34.8663 32.5404 34.9553C29.923 36.1805 27.1208 36.4106 24.3688 35.4414C21.6352 34.1414 19.9069 32.1423 18.8394 29.3093C18.0875 26.9047 18.2407 24.2615 19.3017 21.9993C20.8639 19.2309 22.8967 17.5002 25.9453 16.5624C28.6475 16.0301 31.0496 16.6687 33.4153 18.0277Z" fill="#2C425E"/>
<path d="M33.4153 18.0277C35.49 19.4619 36.8245 21.4818 37.4803 23.925C37.8047 26.8824 37.6216 29.0031 36.0934 31.5959C35.633 32.2968 35.633 32.2968 35.705 33.1979C36.192 33.7026 36.6851 34.2014 37.1844 34.6936C37.1844 34.891 37.1844 35.0884 37.1844 35.2918C37.4389 35.1148 37.6933 34.9378 37.9554 34.7555C42.9986 31.3194 48.3742 29.6061 54.4558 30.7114C57.9626 31.4718 61.0533 32.9767 63.8144 35.2918C63.8991 35.1083 63.9838 34.9247 64.071 34.7356C64.4678 33.9776 64.9727 33.481 65.5897 32.8988C65.2207 31.935 64.814 30.9959 64.3877 30.0571C63.3688 27.7327 63.1948 25.6238 63.9808 23.1958C65.1447 20.236 66.898 18.4149 69.7322 17.045C72.3531 16.0224 74.8609 16.2704 77.4253 17.3441C79.8506 18.5601 81.4816 20.4524 82.5051 22.9855C83.1618 25.4916 83.0866 28.3643 81.9769 30.7219C80.4378 33.2843 78.5079 34.8662 75.6754 35.772C73.2573 36.2344 71.0637 36.0358 68.8803 34.8969C68.2531 34.6254 68.2531 34.6254 67.6297 34.8992C67.0612 35.2974 66.6805 35.6776 66.2555 36.2266C65.9259 36.6523 65.9259 36.6523 65.5897 37.0866C65.74 37.2574 65.8903 37.4282 66.0451 37.6042C69.2862 41.4637 70.6814 45.7087 70.7123 50.7156C70.7148 51.1112 70.7148 51.1112 70.7174 51.5149C70.6958 53.4235 70.6958 53.4235 70.0281 54.436C69.7166 55.4139 69.4442 56.3997 69.1693 57.3887C68.8656 58.2637 68.5507 58.825 67.9568 59.5212C67.7616 59.3237 67.5663 59.1263 67.3651 58.9229C66.9745 59.219 66.5839 59.5152 66.1815 59.8203C66.2353 59.6244 66.2891 59.4285 66.3445 59.2267C66.5026 58.6462 66.6585 58.065 66.8126 57.4833C66.9758 56.8767 67.1462 56.2718 67.3258 55.6699C68.5799 51.2263 68.2072 46.7162 66.163 42.583C63.6203 38.121 59.9974 35.4659 55.2336 33.7962C50.2765 32.6434 45.4283 33.3747 41.0865 35.9648C37.1564 38.6719 34.6229 42.3996 33.4604 47.0536C32.6678 52.239 33.7477 57.1625 36.8053 61.4269C36.993 61.6681 36.993 61.6681 37.1844 61.9142C38.1804 61.0991 38.4989 60.0989 38.9598 58.9229C39.3503 59.219 39.7409 59.5152 40.1433 59.8203C40.0972 60.0189 40.051 60.2174 40.0035 60.422C39.9459 60.6862 39.8883 60.9503 39.8289 61.2224C39.7706 61.4827 39.7122 61.743 39.6521 62.0112C39.5421 62.8867 39.5765 63.4688 39.8474 64.3072C42.3592 67.1316 46.3756 67.9759 49.9331 68.2718C52.0588 68.3541 53.9282 68.0144 55.9569 67.4251C57.1316 67.0871 58.1553 66.9383 59.3761 66.9993C59.4737 66.7032 59.5714 66.4071 59.672 66.102C59.9679 66.7002 59.9679 66.7002 60.0603 67.6911C59.672 68.7941 59.672 68.7941 58.9334 69.2428C58.0042 69.6369 57.0814 69.9805 56.1213 70.2898C55.8108 70.3993 55.5004 70.5088 55.1805 70.6216C49.8303 71.8825 44.6014 70.7639 39.9226 68.0218C39.1518 67.5315 38.4327 67.0418 37.7762 66.4011C37.7762 66.2037 37.7762 66.0062 37.7762 65.8028C37.0927 66.3951 36.4092 66.9874 35.705 67.5976C36.1006 68.635 36.1006 68.635 36.5996 69.6237C37.8767 72.0135 37.8586 74.8493 37.285 77.4606C36.3305 80.1633 34.404 82.2104 31.8585 83.4514C29.4421 84.4051 26.6317 84.4499 24.2012 83.4806C21.5828 82.1108 19.8878 80.1297 18.7284 77.4127C18.1996 74.1515 18.2768 71.1977 20.1836 68.4307C21.786 66.4401 23.7164 65.0813 26.2366 64.6063C28.9481 64.3275 31.3526 64.8637 33.6338 66.4011C33.7131 66.2222 33.7925 66.0433 33.8742 65.8589C34.2211 65.2129 34.5788 64.7984 35.1132 64.3072C34.7423 63.2872 34.3166 62.4579 33.6893 61.5777C30.5935 56.9712 30.0406 51.7652 30.7603 46.3106C31.3917 43.0948 33.192 39.7629 35.4091 37.3857C34.9407 36.1072 34.0759 35.5116 33.042 34.6936C32.8765 34.7799 32.7109 34.8663 32.5404 34.9553C29.923 36.1805 27.1208 36.4106 24.3688 35.4414C21.6352 34.1414 19.9069 32.1423 18.8394 29.3093C18.0875 26.9047 18.2407 24.2615 19.3017 21.9993C20.8639 19.2309 22.8967 17.5002 25.9453 16.5624C28.6475 16.0301 31.0496 16.6687 33.4153 18.0277Z" fill="#2C425E"/>
<path d="M57.5998 34.3943C57.8767 34.5177 58.1536 34.6411 58.4389 34.7682C62.864 36.9737 65.9659 40.8325 67.66 45.462C69.0008 49.7828 68.4293 54.3945 66.5134 58.418C65.8088 59.7732 65.0346 61.0026 64.1093 62.2132C63.7457 61.4835 63.3901 60.7507 63.0379 60.0153C62.8588 59.6449 62.6796 59.2745 62.5004 58.9041C62.4118 58.7173 62.3231 58.5305 62.2317 58.338C61.7685 57.3861 61.3246 56.6537 60.5587 55.9315C60.5587 55.7341 60.5587 55.5367 60.5587 55.3333C60.3064 55.2129 60.3064 55.2129 60.049 55.0902C59.1099 54.5952 58.2659 53.9809 57.3975 53.3702C56.6964 52.9304 56.006 52.6288 55.2327 52.342C55.3505 52.1901 55.4684 52.0381 55.5898 51.8816C55.7466 51.6757 55.9033 51.4698 56.0649 51.2576C56.2193 51.0564 56.3738 50.8551 56.533 50.6477C58.0859 48.3634 58.1497 46.3842 57.8957 43.6673C57.4168 41.7913 56.2172 40.5277 54.6409 39.4795C52.8809 38.4806 51.0021 38.2893 49.019 38.5821C46.4903 39.4097 45.0137 40.8699 43.73 43.1625C43.0404 45.4478 43.2534 47.3708 44.1993 49.5482C44.7874 50.6274 45.5148 51.4529 46.356 52.342C46.1272 52.4472 45.8983 52.5525 45.6625 52.661C41.1843 54.8069 39.1509 57.5413 37.4794 62.2132C34.3508 59.2568 33.0922 55.2914 32.9226 51.0536C32.8403 46.1677 34.6271 41.9257 37.9486 38.3881C43.1377 33.2781 50.7901 31.2915 57.5998 34.3943Z" fill="#FCFDFD"/>
<path d="M57.8414 56.1373C59.3095 57.2765 60.2871 58.4727 61.1516 60.1195C61.3015 60.4029 61.3015 60.4029 61.4544 60.692C61.9926 61.8252 62.2997 62.7707 62.0393 64.0081C60.0218 66.6651 56.0123 68.013 52.8667 68.4951C51.5724 68.595 50.315 68.5796 49.0202 68.4951C48.5917 68.469 48.5917 68.469 48.1545 68.4425C46.2535 68.2266 44.6732 67.602 42.973 66.7564C42.7734 66.6573 42.5738 66.5582 42.3681 66.4561C41.137 65.8085 40.1038 65.1482 39.2559 64.0081C39.2825 61.4705 40.9204 58.9285 42.6031 57.1469C47.056 52.9706 52.8643 52.7401 57.8414 56.1373Z" fill="#C6DFF8"/>
<path d="M76.3708 19.6437C78.0713 20.6581 79.6679 22.2542 80.2636 24.1995C80.7041 26.4817 80.3874 28.5321 79.1251 30.4801C78.0972 31.8109 76.9835 32.7573 75.3537 33.1979C73.0243 33.4648 70.7503 33.5286 68.8441 32.0014C67.1244 30.3941 66.1597 28.6176 66.0332 26.2245C66.1006 24.157 66.7543 22.4242 68.2339 20.9676C70.5899 19.1045 73.5327 18.2963 76.3708 19.6437Z" fill="#C6DEF8"/>
<path d="M76.6482 67.8967C78.4536 68.9355 79.4475 70.3005 80.1989 72.2341C80.6283 74.6653 80.4527 76.5453 79.1356 78.6408C78.0407 80.0828 76.8037 80.9136 75.0578 81.3575C72.7948 81.6294 70.7001 81.6131 68.8442 80.161C67.2587 78.7155 66.3612 77.0827 66.0876 74.9414C65.9813 72.678 66.617 71.1651 68.0675 69.4671C70.6271 67.2491 73.4506 66.4349 76.6482 67.8967Z" fill="#C7DFF8"/>
<path d="M30.6278 67.5543C32.7477 68.4986 33.7973 69.9222 34.9285 71.8975C35.4924 74.2917 35.1853 76.5488 33.9299 78.6653C32.4979 80.3317 31.0615 81.1875 28.8767 81.479C26.4598 81.5512 24.8452 81.1616 22.982 79.5627C21.6633 78.1571 21.0024 76.6368 20.8184 74.7019C20.9883 72.6404 21.4353 70.5367 22.982 69.0932C25.3349 67.1784 27.7033 66.6638 30.6278 67.5543Z" fill="#C6DEF7"/>
<path d="M31.0452 19.5688C32.7997 20.6152 34.1798 22.206 34.9657 24.0931C35.3161 26.5281 35.1661 28.3446 33.9301 30.5057C32.295 32.4982 30.3573 33.3128 27.8644 33.6278C25.7144 33.3561 23.8951 32.3613 22.3905 30.8048C21.2657 28.9789 20.7384 27.285 20.911 25.1214C21.5965 22.5247 22.8475 20.8463 25.1089 19.4566C27.0524 18.9091 29.1516 18.7457 31.0452 19.5688Z" fill="#C6DEF8"/>
<path d="M78.1416 65.8788C80.4677 67.3269 81.8176 69.2008 82.751 71.7855C83.1012 74.914 82.8751 77.6682 81.0658 80.2896C79.4053 82.3624 77.3821 83.6349 74.762 84.0497C71.7601 84.338 69.2023 83.7357 66.8285 81.8062C64.8787 79.9236 63.5223 77.2077 63.4258 74.4589C63.4479 72.533 63.9841 70.4482 65.3213 69.0384C65.6005 68.7694 65.6005 68.7694 65.8854 68.495C66.1183 67.8555 66.1183 67.8555 66.1812 67.2985C66.462 67.2554 66.7427 67.2122 67.0319 67.1677C67.925 67.0505 67.925 67.0505 68.5483 66.7003C68.5483 66.4041 68.5483 66.108 68.5483 65.8029C71.9954 64.3438 74.7437 64.1003 78.1416 65.8788ZM67.6607 69.9907C66.2817 71.927 65.9951 73.3319 66.1812 75.6741C66.6083 77.7231 67.7252 79.2854 69.3505 80.5571C71.12 81.6327 73.0553 81.6322 75.0579 81.3575C77.2643 80.6936 78.6655 79.4799 79.7921 77.4689C80.6337 75.6125 80.595 73.82 80.0325 71.8976C79.2135 69.6871 77.9846 68.5477 75.8912 67.5731C72.655 66.5068 69.8312 67.4307 67.6607 69.9907Z" fill="#2D435F"/>
<path d="M52.5715 40.9751C54.0013 41.6721 55.1337 42.6983 55.7523 44.2095C55.9676 46.1141 55.9879 47.4054 54.9386 49.0516C53.6749 50.5307 52.6343 51.144 50.7221 51.295C49.0652 51.2586 47.8491 50.4694 46.6537 49.3507C45.6004 47.918 45.5667 46.6783 45.6019 44.9362C45.8612 43.404 46.6425 42.5087 47.8372 41.5734C49.2791 40.6494 50.9262 40.7945 52.5715 40.9751Z" fill="#C8DFF8"/>
<path d="M22.9814 80.1609C23.4471 80.2837 23.9119 80.4122 24.3684 80.5663C25.589 80.9103 26.8482 81.0437 28.1017 81.2184C28.8992 81.3574 28.8992 81.3574 29.1951 81.6565C29.789 81.5708 30.3812 81.4715 30.9704 81.3574C30.7751 81.851 30.5798 82.3445 30.3786 82.853C30.6716 82.9518 30.9645 83.0505 31.2663 83.1522C30.0027 84.3214 28.863 84.1777 27.2221 84.1348C25.3959 83.9768 24.0918 83.5802 22.667 82.4043C22.0938 81.6565 22.0938 81.6565 22.0938 80.7591C22.3867 80.5617 22.6796 80.3643 22.9814 80.1609Z" fill="#324964"/>
<path d="M41.6219 54.7351C41.8172 54.8338 42.0125 54.9325 42.2137 55.0342C42.3986 55.8008 42.3986 55.8008 42.5096 56.5299C42.9978 56.3324 43.486 56.135 43.989 55.9316C43.6046 56.3666 43.6046 56.3666 43.2123 56.8103C42.3239 57.8529 41.5797 58.954 40.851 60.1147C40.4605 60.6853 40.0515 61.1431 39.5507 61.615C39.6484 61.1215 39.746 60.6279 39.8466 60.1194C39.5537 59.922 39.2608 59.7246 38.9589 59.5212C38.666 60.4096 38.3731 61.298 38.0713 62.2133C37.9736 62.2133 37.876 62.2133 37.7754 62.2133C37.9461 59.0489 39.5182 56.9844 41.6219 54.7351Z" fill="#273A56"/>
<path d="M53.459 53.8376C54.8195 53.9989 55.787 54.3658 56.9727 55.0529C57.2587 55.2167 57.5448 55.3806 57.8395 55.5495C58.1611 55.7386 58.1611 55.7386 58.4891 55.9315C58.6844 55.6354 58.8797 55.3393 59.0809 55.0342C59.9685 55.0342 59.9685 55.0342 60.6528 55.595C61.7101 56.7325 62.5898 58.1005 63.2233 59.5211C63.0768 59.9653 63.0768 59.9653 62.9274 60.4185C62.0397 58.6985 62.0397 58.6985 62.0397 58.0254C61.8445 58.0254 61.6492 58.0254 61.448 58.0254C61.3933 59.2417 61.4927 59.9475 62.0397 61.0167C61.9421 61.3128 61.8445 61.609 61.7439 61.9141C61.6294 61.6939 61.515 61.4737 61.3971 61.2469C61.243 60.955 61.0889 60.6631 60.9302 60.3624C60.7791 60.0743 60.6281 59.7863 60.4725 59.4895C58.8775 56.7492 56.3544 55.2426 53.459 54.1368C53.459 54.0381 53.459 53.9393 53.459 53.8376Z" fill="#223551"/>
<path d="M75.9463 65.2046C78.1239 65.5412 79.7827 66.7784 81.1058 68.5324C82.0083 69.8269 82.5445 70.7702 82.4558 72.3837C81.9267 71.5813 81.5086 70.7974 81.0873 69.9345C80.9554 69.665 80.8234 69.3955 80.6874 69.1178C80.5875 68.9123 80.4876 68.7067 80.3846 68.495C79.994 68.7911 79.6035 69.0873 79.2011 69.3924C79.2987 69.7872 79.3963 70.1821 79.4969 70.5889C79.368 70.4732 79.2391 70.3575 79.1063 70.2383C78.0005 69.2608 76.8909 68.3929 75.6504 67.5976C75.8457 67.4989 76.041 67.4002 76.2422 67.2985C76.4375 67.3972 76.6327 67.4959 76.8339 67.5976C76.9316 67.0053 77.0292 66.4131 77.1298 65.8028C76.7393 65.6054 76.3487 65.408 75.9463 65.2046Z" fill="#253956"/>
<path d="M54.6426 52.6411C56.245 52.9024 58.2061 53.2524 59.3768 54.4359C59.0816 55.3313 58.8583 55.6167 58.1932 56.2306C57.9865 56.1046 57.7798 55.9785 57.5668 55.8486C57.2975 55.6847 57.0282 55.5208 56.7508 55.352C56.3491 55.1073 56.3491 55.1073 55.9394 54.8577C55.5149 54.6037 55.0838 54.3598 54.6426 54.1368C54.6426 53.6432 54.6426 53.1496 54.6426 52.6411Z" fill="#324A64"/>
<path d="M75.6503 64.9055C75.7479 65.1029 75.8455 65.3004 75.9461 65.5038C76.1414 65.547 76.3367 65.5901 76.5379 65.6346C76.7332 65.6902 76.9285 65.7457 77.1297 65.8029C77.2273 66.099 77.325 66.3952 77.4256 66.7003C77.1327 67.1445 77.1327 67.1445 76.8338 67.5977C75.6341 67.7267 75.1917 67.6875 74.1708 66.9994C73.5821 66.8827 72.9902 66.7804 72.3955 66.7003C72.3955 66.6016 72.3955 66.5029 72.3955 66.4012C73.079 66.4012 73.7625 66.4012 74.4667 66.4012C74.4667 66.2037 74.4667 66.0063 74.4667 65.8029C73.4903 65.7042 72.5138 65.6055 71.5078 65.5038C71.5078 65.4051 71.5078 65.3063 71.5078 65.2046C72.8748 65.1059 74.2418 65.0072 75.6503 64.9055Z" fill="#364E68"/>
<path d="M61.1518 57.7263C62.1493 58.0625 62.2049 58.1665 62.6683 59.0537C62.7667 59.2384 62.8651 59.4231 62.9665 59.6134C63.4573 60.5812 63.529 60.8918 63.2415 61.9515C63.184 62.1682 63.1264 62.3849 63.067 62.6082C63.0209 62.774 62.9747 62.9398 62.9272 63.1106C62.7319 63.1106 62.5366 63.1106 62.3354 63.1106C62.3354 62.8145 62.3354 62.5183 62.3354 62.2132C62.1401 62.1145 61.9448 62.0158 61.7436 61.9141C61.6305 61.4187 61.5324 60.9196 61.4477 60.4185C61.3501 60.221 61.2524 60.0236 61.1518 59.8202C61.1399 59.1224 61.1391 58.4242 61.1518 57.7263Z" fill="#364D68"/>
<path d="M49.6111 38.5822C49.3182 38.6809 49.0253 38.7796 48.7235 38.8814C48.7235 39.0788 48.7235 39.2762 48.7235 39.4796C48.4549 39.5475 48.1864 39.6153 47.9098 39.6853C46.8048 40.1364 46.463 40.624 45.7646 41.5735C45.4716 41.6722 45.1787 41.7709 44.8769 41.8726C44.3714 42.77 44.3714 42.77 43.9892 43.6674C43.8916 43.3713 43.794 43.0751 43.6934 42.77C44.8821 40.5168 46.9616 38.4334 49.6111 38.5822Z" fill="#1E2E4A"/>
<path d="M80.0879 68.1958C80.3808 68.4919 80.6737 68.7881 80.9755 69.0932C80.8779 69.3215 80.7802 69.5497 80.6796 69.7849C80.3321 70.586 80.3321 70.586 80.3837 71.4862C80.2861 71.7823 80.1885 72.0785 80.0879 72.3836C79.6973 71.2978 79.3067 70.2119 78.9043 69.0932C79.2949 68.9945 79.6854 68.8958 80.0879 68.7941C80.0879 68.5966 80.0879 68.3992 80.0879 68.1958Z" fill="#2C445E"/>
<path d="M82.7509 25.1213C82.8486 25.1213 82.9462 25.1213 83.0468 25.1213C83.1129 25.7378 83.1735 26.3549 83.2318 26.9722C83.2661 27.3158 83.3004 27.6593 83.3358 28.0133C83.3428 29.02 83.1871 29.6119 82.7509 30.5056C82.458 30.4069 82.1651 30.3082 81.8633 30.2065C81.9548 29.9782 82.0464 29.75 82.1407 29.5148C82.5551 28.0608 82.6503 26.6264 82.7509 25.1213Z" fill="#F1EBD1"/>
<path d="M38.959 58.9229C39.3495 59.219 39.7401 59.5151 40.1425 59.8202C39.9472 60.4125 39.7519 61.0048 39.5507 61.615C39.1602 61.4176 38.7696 61.2202 38.3672 61.0167C38.6261 59.5959 38.6261 59.5959 38.959 58.9229Z" fill="#385069"/>
<path d="M63.5178 23.0276C63.7131 23.0276 63.9083 23.0276 64.1095 23.0276C63.9143 24.7057 63.719 26.3838 63.5178 28.1128C63.4201 28.1128 63.3225 28.1128 63.2219 28.1128C63.1562 27.4339 63.0955 26.7545 63.037 26.075C63.0026 25.6967 62.9683 25.3184 62.9329 24.9287C62.926 23.925 62.926 23.925 63.5178 23.0276Z" fill="#F8F6DF"/>
<path d="M31.8574 57.4272C31.9368 57.6185 32.0161 57.8098 32.0978 58.0068C32.4157 58.7229 32.4157 58.7229 33.3369 58.9229C33.3796 59.145 33.4223 59.3671 33.4663 59.5959C33.6037 60.275 33.7566 60.9443 33.9286 61.615C33.2384 60.9752 32.8081 60.3687 32.3937 59.5211C32.2919 59.3175 32.19 59.114 32.0851 58.9042C31.8574 58.3246 31.8574 58.3246 31.8574 57.4272Z" fill="#18284A"/>
<path d="M34.2246 36.4883C34.9569 36.6363 34.9569 36.6363 35.7041 36.7874C35.2987 37.733 35.1155 37.9817 34.2246 38.5822C34.2246 37.8912 34.2246 37.2002 34.2246 36.4883Z" fill="#F8F1D9"/>
<path d="M82.7508 73.5801C82.8484 73.9749 82.9461 74.3698 83.0467 74.7766C83.242 74.7766 83.4373 74.7766 83.6385 74.7766C83.6754 75.6366 83.6754 75.6366 83.6385 76.5714C83.4432 76.7688 83.2479 76.9662 83.0467 77.1696C82.756 75.9573 82.7267 74.8249 82.7508 73.5801Z" fill="#F2E7C8"/>
<path d="M64.4055 69.3923C64.6008 69.491 64.7961 69.5898 64.9973 69.6915C64.5579 70.7279 64.5579 70.7279 64.1096 71.7854C63.9143 71.7854 63.719 71.7854 63.5178 71.7854C63.4086 70.4232 63.4086 70.4232 63.9617 69.7475C64.1081 69.6303 64.2546 69.5131 64.4055 69.3923Z" fill="#E4E1CD"/>
<path d="M49.6112 38.5821C49.3183 38.6808 49.0254 38.7795 48.7236 38.8812C48.7236 39.0787 48.7236 39.2761 48.7236 39.4795C48.0401 39.5782 47.3566 39.6769 46.6523 39.7786C47.6404 38.7343 48.177 38.5439 49.6112 38.5821Z" fill="#162541"/>
</svg>
