<svg width="281" height="166" viewBox="0 0 281 166" fill="none" xmlns="http://www.w3.org/2000/svg">
<path d="M0 5.375C0 2.61357 2.23858 0.375 5 0.375H276C278.761 0.375 281 2.61358 281 5.375V165.375H0V5.375Z" fill="#E3FAFD"/>
<path d="M140.664 29.9948C140.95 29.9933 141.235 29.9919 141.529 29.9904C146.284 29.9807 150.803 30.4697 155.365 31.9537C155.74 32.0744 155.74 32.0744 156.121 32.1976C163.024 34.5158 169.434 38.3506 174.747 43.5447C175.364 44.1406 175.999 44.6919 176.649 45.2463C185.369 53.2889 190.069 66.9168 190.933 78.7675C191.55 92.7354 187.936 106.541 178.971 117.177C178.512 117.705 178.047 118.226 177.578 118.745C177.411 118.933 177.243 119.122 177.07 119.316C173.415 123.387 169.481 126.587 164.831 129.299C164.637 129.412 164.444 129.525 164.244 129.642C161.123 131.434 157.938 132.782 154.512 133.777C154.247 133.855 153.983 133.933 153.711 134.013C146.327 136.102 137.386 136.415 129.927 134.416C129.565 134.321 129.565 134.321 129.196 134.224C119.502 131.589 111.493 126.125 104.433 118.745C104.055 118.353 104.055 118.353 103.669 117.953C98.702 112.474 95.4697 105.379 93.2028 98.2766C93.0893 97.9303 92.9759 97.584 92.859 97.2272C92.218 95.1584 92.1995 95.0987 92.5624 93.9083C92.5796 93.8517 92.6433 93.8241 92.6956 93.8517C92.79 93.9014 92.8824 93.7813 92.8089 93.7039C92.7355 93.6265 92.6616 93.5487 92.587 93.47C92.5802 93.4629 92.5739 93.4547 92.5687 93.4464C91.9924 92.5256 91.9891 92.5143 92.0632 91.3233C92.0641 91.3085 92.0663 91.2928 92.0696 91.2784C92.1141 91.0788 92.1405 90.9605 92.1642 90.8545C92.2001 90.6936 92.0257 90.5619 91.9122 90.6815C91.8242 90.7742 91.6443 90.7593 91.6146 90.6349C91.0617 88.3241 90.9842 86.1428 91.0023 83.7447C91.0048 83.3466 91.0073 82.9485 91.0099 82.5383C91.1411 71.0725 94.4409 59.8074 101.094 50.6233C101.341 50.2658 101.341 50.2658 101.593 49.9012C104.576 45.7517 108.278 42.0835 112.324 39.1097C112.576 38.9239 112.576 38.9239 112.833 38.7343C115.459 36.819 118.179 35.2853 121.126 33.9926C121.34 33.8978 121.555 33.8029 121.776 33.7052C123.458 32.9754 125.161 32.3412 126.892 31.7538C127.25 31.6285 127.25 31.6285 127.615 31.5007C131.9 30.0695 136.211 30.0034 140.664 29.9948Z" fill="#0089CF"/>
<path d="M153.582 45.9059C157.469 49.4912 160.206 54.4896 160.636 59.9524C160.983 66.1548 159.73 71.6893 155.782 76.4888C154.452 77.953 153.023 79.2847 151.337 80.2718C151.23 80.3347 151.107 80.3666 150.983 80.3666C150.854 80.3666 150.725 80.3666 150.595 80.3666C150.411 80.3666 150.262 80.5133 150.262 80.6972C150.262 80.8705 150.395 81.0173 150.568 81.0313C151.771 81.1288 152.975 81.2152 154.18 81.2877C154.772 81.3235 155.364 81.3634 155.956 81.4035C157.95 81.4821 159.67 81.3662 161.296 80.3255C161.848 79.9721 162.209 79.3987 162.407 78.7737C162.606 78.1435 162.949 77.5522 163.481 77.1599C163.609 77.065 163.771 76.9499 164.01 76.7799C164.285 76.5841 164.56 76.3884 164.843 76.1868C166.368 75.1381 167.91 74.1193 169.459 73.1107C170.093 72.6966 170.727 72.2822 171.361 71.8676C171.652 71.6771 171.944 71.4867 172.245 71.2904C172.874 70.8727 173.489 70.444 174.101 69.9987C174.47 69.7481 174.77 69.5783 175.062 69.4785C176.063 69.1368 177.061 69.9088 177.684 70.7637C178.316 71.6311 178.867 72.5398 179.413 73.5229C179.581 73.8234 179.581 73.8234 179.753 74.13C180.117 74.782 180.479 75.4354 180.841 76.089C181.352 77.0094 181.865 77.9292 182.378 78.8487C182.508 79.0814 182.638 79.3141 182.772 79.5538C183.653 81.1279 184.557 82.6845 185.478 84.2332C185.718 84.6404 185.959 85.0476 186.199 85.4549C186.542 86.0347 186.886 86.6133 187.235 87.1887C187.556 87.7174 187.871 88.2502 188.185 88.7831C188.304 88.9795 188.422 89.1759 188.541 89.3748C188.666 89.5827 188.779 89.7987 188.863 90.0261C189.071 90.5844 189.173 91.0565 189.193 91.5701C189.226 92.4053 188.872 93.2142 188.275 93.7983C187.482 94.5726 186.573 95.1531 185.595 95.7392C185.407 95.8546 185.219 95.97 185.025 96.0889C184.428 96.454 183.829 96.8156 183.231 97.1772C182.832 97.4208 182.432 97.6646 182.033 97.9087C180.955 98.5675 179.874 99.2225 178.792 99.8757C178.605 99.9963 178.418 100.117 178.225 100.241C177.017 101.008 176.814 101.137 176.152 101.108C175.839 101.094 175.532 101.032 175.231 100.946C174.977 100.873 174.715 100.815 174.452 100.794C173.851 100.746 173.758 100.863 173.168 101.61C172.865 101.962 172.565 102.317 172.267 102.674C171.942 103.055 171.617 103.435 171.292 103.816C171.127 104.011 170.962 104.206 170.792 104.407C170.311 104.973 169.824 105.532 169.333 106.09C169.182 106.262 169.031 106.434 168.875 106.611C168.73 106.776 168.584 106.941 168.435 107.112C167.169 108.398 166.964 108.607 166.582 109.814C166.41 110.361 166.348 110.938 166.379 111.511C166.382 111.55 166.384 111.59 166.386 111.629C166.408 113.358 166.276 114.276 165.363 115.558C165.215 115.766 165.038 115.953 164.837 116.109C164.036 116.731 163.26 117.071 162.347 117.159C161.72 117.219 161.162 117.675 161.132 118.305C160.973 119.653 160.552 120.347 159.752 121.218C159.501 121.492 159.216 121.736 158.885 121.905C158.192 122.258 157.587 122.33 156.712 122.303C156.469 122.297 156.227 122.292 155.977 122.286C155.657 122.273 155.375 122.494 155.311 122.807C155.297 122.878 155.282 122.949 155.268 123.021C155.257 123.075 155.241 123.129 155.219 123.18C154.776 124.236 154.1 125.043 153.251 125.686C152.53 126.231 151.606 126.399 150.705 126.327C150.678 126.325 150.65 126.323 150.623 126.321C149.967 126.298 149.695 126.289 149.392 126.393C148.804 126.597 148.36 127.081 148.015 127.598C147.691 128.084 147.295 128.54 146.754 128.76C145.733 129.175 144.629 129.145 143.512 129.036C143.159 129.001 142.681 128.808 142.377 128.627C141.695 128.221 140.991 128.132 140.345 128.594C140.11 128.763 139.879 128.952 139.62 129.159C138.711 129.87 137.806 130.037 136.731 130.05C136.484 130.053 136.236 130.033 135.997 129.974C135.038 129.738 134.255 129.223 133.498 128.551C133.342 128.413 133.211 128.249 133.105 128.07C132.515 127.077 132.389 126.827 132.362 126.297C132.348 126.022 132.116 125.807 131.843 125.837C129.985 125.953 128.777 125.559 127.381 124.346C127.256 124.239 127.146 124.115 127.051 123.981C126.6 123.344 126.388 122.955 126.315 122.291C126.276 121.931 125.979 121.644 125.619 121.668C123.748 121.742 122.581 121.725 121.125 120.344C120.584 119.738 120.541 119.689 120.287 119.203C120.241 119.115 120.231 119.013 120.261 118.918C120.359 118.607 120.781 118.56 120.944 118.842C120.979 118.903 121.014 118.964 121.049 119.025C121.546 119.752 121.826 120.12 122.403 120.425C122.688 120.576 123.028 120.405 123.125 120.098C123.128 120.088 123.131 120.079 123.134 120.069C123.203 119.852 123.405 119.705 123.632 119.705C123.677 119.705 123.722 119.705 123.767 119.705C123.824 119.705 123.878 119.682 123.918 119.64C124.027 119.526 123.973 119.336 123.82 119.295C123.773 119.283 123.726 119.27 123.679 119.258C123.419 119.189 123.382 118.818 123.65 118.805C123.849 118.796 124.108 118.837 124.584 118.917C124.617 118.922 124.652 118.925 124.685 118.926C125.481 118.932 125.835 118.823 126.394 118.379C126.584 118.229 126.754 118.055 126.91 117.87C127.543 117.12 128.133 116.349 128.713 115.547C128.922 115.264 129.132 114.981 129.347 114.69C130.085 113.644 130.65 112.808 130.94 111.714C131.158 110.893 131.066 109.963 130.435 109.393C129.972 108.975 129.306 108.724 128.682 108.742C128.48 108.748 128.3 108.784 128.093 108.861C127.683 109.016 127.337 109.303 127.034 109.621C126.219 110.477 125.494 111.399 124.767 112.349C124.458 112.735 124.148 113.122 123.838 113.508C123.529 113.907 122.936 113.937 122.589 113.571C122.485 113.462 122.381 113.352 122.276 113.242C121.946 112.893 121.843 112.378 122.061 111.95C122.25 111.578 122.463 111.229 122.728 110.885C123.454 109.941 123.775 109.486 123.843 108.419C123.863 108.095 123.831 107.769 123.758 107.453C123.662 107.036 123.569 106.857 123.289 106.656C122.886 106.367 122.389 106.226 121.893 106.218C120.841 106.201 120.118 106.484 119.238 107.128C118.926 107.357 118.491 107.334 118.224 107.053C118.156 106.981 118.087 106.909 118.018 106.836C117.885 106.696 117.672 106.672 117.514 106.784C117.252 106.968 116.889 106.774 116.948 106.459C117.04 105.962 117.24 105.566 117.651 105.11C119.29 103.627 120.235 103.278 122.413 103.305C124.046 103.478 124.929 104.459 125.943 105.712C126.039 105.842 126.134 105.972 126.229 106.102C126.434 106.381 126.814 106.462 127.113 106.289C127.154 106.265 127.2 106.244 127.245 106.23C128.712 105.775 129.999 105.942 131.336 106.565C131.691 106.731 132.012 106.961 132.294 107.232C133.041 107.952 133.527 108.623 133.622 109.821C133.624 110.077 133.62 110.333 133.613 110.589C133.598 111.189 134.089 111.681 134.688 111.649C136.27 111.652 137.078 112.234 138.217 113.368C138.534 113.728 138.664 114.237 138.482 114.681C138.367 114.961 138.266 115.053 137.989 115.307C137.422 115.893 137.422 115.893 137.211 117.006C136.996 117.785 136.933 118.012 136.591 118.306C136.439 118.436 136.228 118.259 136.314 118.078C136.318 118.07 136.321 118.061 136.324 118.052C136.539 117.353 136.583 116.839 136.513 116.269C136.427 115.573 136.202 114.725 135.532 114.518C135.328 114.454 135.052 114.444 134.574 114.428C133.257 114.47 132.596 114.942 131.67 115.898C131.408 116.199 131.408 116.199 131.141 116.506C130.941 116.73 130.742 116.954 130.536 117.185C129.686 118.223 129.009 119.085 128.842 120.398C128.809 120.654 128.82 120.913 128.85 121.169C128.865 121.3 128.879 121.41 128.895 121.506C129.026 122.311 129.854 122.798 130.653 122.962C130.948 123.022 131.242 123.053 131.541 123.053C132.285 123.051 132.968 122.666 133.465 122.112C133.659 121.895 133.846 121.67 134.039 121.432C134.897 120.56 136.066 121.893 135.554 123.004C135.492 123.14 135.424 123.276 135.35 123.413C135.187 123.714 135.069 124.04 135.04 124.381C135.013 124.71 135.001 124.947 135.011 125.161C135.061 126.201 135.862 127.173 136.902 127.201C137.687 127.222 138.443 126.792 138.957 126.198C139.418 125.666 139.83 125.096 140.246 124.502C140.417 124.263 140.587 124.024 140.763 123.777C140.814 123.706 140.864 123.635 140.915 123.563C141.023 123.411 141.255 123.429 141.335 123.598C141.4 123.735 141.574 123.783 141.698 123.695C141.829 123.603 141.962 123.51 142.095 123.417C142.264 123.297 142.484 123.282 142.667 123.379C142.856 123.478 142.972 123.678 142.964 123.891C142.956 124.079 142.948 124.269 142.94 124.462C142.92 124.76 142.906 124.972 142.913 125.138C142.949 125.937 144 126.208 144.799 126.181C145.012 126.183 145.225 126.184 145.444 126.186C146.39 126.135 146.769 124.833 146.18 124.091C146.052 123.93 145.891 123.765 145.689 123.567C145.314 123.278 145.314 123.278 144.932 122.983C144.556 122.688 144.556 122.688 144.172 122.388C144.148 122.37 144.125 122.352 144.101 122.335C143.835 122.133 143.45 122.227 143.307 122.529C143.246 122.659 143.184 122.789 143.121 122.92C143.052 123.066 142.859 123.098 142.749 122.981C142.702 122.932 142.679 122.864 142.686 122.797C142.801 121.769 142.953 120.772 143.187 119.765C143.227 119.465 143.233 119.425 143.264 119.192C143.275 119.112 143.25 119.032 143.194 118.973C143.021 118.791 143.169 118.519 143.406 118.604C144.316 118.934 145.021 119.602 145.804 120.264C146.158 120.555 146.512 120.845 146.865 121.135C147.414 121.59 147.954 122.049 148.49 122.522C149.298 123.207 149.736 123.467 150.615 123.515C150.947 123.533 151.282 123.493 151.604 123.41C151.777 123.365 151.904 123.323 152.012 123.265C152.574 122.963 152.859 122.31 152.861 121.673C152.864 121.024 152.494 120.386 152.028 119.934C151.572 119.492 151.074 119.105 150.566 118.705C150.35 118.528 150.134 118.351 149.912 118.169C149.224 117.608 148.53 117.056 147.834 116.506C147.37 116.136 146.905 115.765 146.441 115.394C145.597 114.723 144.749 114.056 143.899 113.393C143.607 113.163 143.407 113.006 143.261 112.889C142.859 112.565 142.63 112.068 142.632 111.551C142.632 111.434 142.637 111.313 142.647 111.149C142.663 110.891 142.77 110.649 142.947 110.462C143.159 110.239 143.458 110.101 143.762 110.148C145.087 110.354 145.992 111.361 147.018 112.289C147.448 112.667 147.878 113.045 148.309 113.422C148.53 113.615 148.751 113.808 148.978 114.007C150.066 114.94 151.186 115.825 152.311 116.706C152.513 116.865 152.716 117.024 152.924 117.187C153.295 117.477 153.666 117.766 154.038 118.053C154.43 118.362 154.81 118.687 155.187 119.016C155.772 119.496 155.772 119.496 156.826 119.325C157.354 119.241 157.614 119.2 157.819 119.083C158.345 118.784 158.578 118.137 158.59 117.533C158.602 116.866 158.231 116.236 157.776 115.748C155.476 113.28 152.724 111.218 150.09 109.186C148.534 107.978 148.129 107.663 147.716 107.193C147.388 106.819 147.229 106.254 147.316 105.764C147.412 105.225 147.795 104.78 148.339 104.715C148.364 104.712 148.392 104.71 148.42 104.707C148.829 104.67 149.24 104.778 149.578 105.011C150.269 105.487 150.893 106.05 151.533 106.612C152.018 107.024 152.504 107.436 152.989 107.847C153.238 108.062 153.488 108.276 153.745 108.497C154.991 109.56 156.26 110.594 157.527 111.629C157.759 111.82 157.99 112.01 158.229 112.206C158.445 112.384 158.66 112.561 158.882 112.743C159.072 112.899 159.261 113.055 159.456 113.215C160.427 114.009 160.552 114.111 161.492 114.178C161.807 114.201 162.125 114.193 162.437 114.141C162.765 114.087 162.949 114.024 163.104 113.866C163.576 113.387 163.676 112.639 163.61 111.969C163.546 111.317 163.333 110.775 162.832 110.159C162.105 109.466 161.353 108.827 160.581 108.191C160.256 107.918 159.93 107.644 159.605 107.37C158.704 106.616 157.797 105.871 156.888 105.128C155.992 104.394 155.1 103.654 154.208 102.914C153.136 102.026 152.063 101.138 150.989 100.253C150.809 100.104 150.629 99.9556 150.443 99.8024C150.085 99.507 149.726 99.2123 149.367 98.9182C148.53 98.2303 147.712 97.5329 146.921 96.7874C145.687 95.6424 144.708 94.7578 143.23 94.4117C142.702 94.2881 142.144 94.3264 141.649 94.5469C140.207 95.1889 139.003 96.547 137.856 97.6169C135.479 99.8001 133.413 101.625 130.12 101.585C128.48 101.359 127.398 100.474 126.397 99.1975C126.231 98.9861 126.087 98.7573 125.974 98.5139C125.501 97.4963 125.338 96.6476 125.344 95.5746C125.346 95.0339 125.471 94.4991 125.71 94.0142C127.015 91.3715 129.218 89.393 131.333 87.4389C132.179 86.643 132.972 85.8045 133.759 84.944C133.964 84.7372 133.804 84.271 133.513 84.2912C133.26 84.3088 133.007 84.3265 132.753 84.3444C132.377 84.3704 132 84.3963 131.612 84.4231C130.589 84.4961 130.589 84.4961 129.818 84.685C128.289 84.9885 126.736 84.9438 125.185 84.964C124.843 84.976 124.502 84.9879 124.15 85.0003C122.279 85.0208 120.812 84.7238 119.272 84.0246C118.427 83.6409 117.403 83.89 116.929 84.6879C116.744 85.0001 116.559 85.3123 116.367 85.6339C115.958 86.3244 115.549 87.0153 115.14 87.7066C114.119 89.4354 113.091 91.1591 112.042 92.8696C111.859 93.1715 111.676 93.4734 111.488 93.7845C111.14 94.3578 110.789 94.9288 110.434 95.4971C110.2 95.8854 110.2 95.8854 109.962 96.2814C109.906 96.3722 109.85 96.4629 109.794 96.5541C109.628 96.8245 109.475 97.1072 109.399 97.4154C109.298 97.8229 109.306 98.1524 109.391 98.5359C109.494 99.0079 109.712 99.4531 110.018 99.8267C110.156 99.9945 110.3 100.134 110.617 100.442C110.822 100.653 111.026 100.864 111.237 101.082C111.451 101.297 111.666 101.513 111.887 101.735C112.103 101.956 112.319 102.178 112.541 102.406C112.91 102.784 113.279 103.161 113.651 103.536C113.879 103.767 113.793 104.157 113.486 104.265C113.333 104.318 113.218 104.454 113.193 104.614C113.18 104.693 113.169 104.765 113.158 104.83C113.059 105.458 112.311 105.728 111.846 105.295C110.55 104.089 109.326 102.817 108.109 101.517C107.915 101.31 107.599 101.276 107.366 101.439C107.333 101.462 107.296 101.483 107.259 101.498C106.358 101.872 105.622 102.03 104.754 101.917C104.334 101.862 103.939 101.694 103.575 101.478C102.362 100.758 101.231 99.9219 100.088 99.0761C99.7331 98.8199 99.3776 98.5642 99.0218 98.3091C97.9853 97.5626 96.9587 96.8019 95.9339 96.0378C95.6098 95.7979 95.2857 95.5579 94.9518 95.3107C94.6519 95.0856 94.3519 94.8605 94.0429 94.6286C93.7776 94.4297 93.5122 94.2308 93.2389 94.0258C93.0692 93.8818 92.9443 93.7757 92.8412 93.68C92.1493 93.0378 91.9346 92.003 92.1841 91.0926C92.5569 89.7317 93.3972 88.5485 94.1318 87.3227C94.3197 87.0036 94.5076 86.6845 94.7012 86.3557C95.1037 85.6722 95.5074 84.9894 95.9121 84.3074C96.7561 82.8814 97.5893 81.4485 98.4229 80.0158C100.007 77.2955 101.598 74.5799 103.199 71.8714C103.323 71.662 103.446 71.4525 103.574 71.2368C103.642 71.1213 103.705 71.0153 103.763 70.9181C104.336 69.9535 105.361 69.2925 106.458 69.5285C107.585 69.7709 108.485 70.4478 109.636 71.2892C109.894 71.4722 110.152 71.6553 110.418 71.8439C111.24 72.4279 112.057 73.0191 112.874 73.6104C113.429 74.006 113.984 74.4012 114.54 74.796C115.553 75.5187 116.566 76.2423 117.575 76.9721C117.778 77.1184 117.98 77.2647 118.189 77.4154C118.455 77.6211 118.582 77.7191 118.73 77.8577C119.111 78.2157 119.279 78.7473 119.221 79.2671C119.192 79.5286 119.166 79.7168 119.123 79.9764C119.055 80.3923 119.276 80.8025 119.665 80.9663C120.518 81.3261 120.518 81.3261 121.171 81.6634C122.311 82.0618 123.391 82.0606 124.578 82.0457C124.816 82.0444 125.054 82.0432 125.299 82.0419C127.358 82.0104 129.365 81.7722 131.39 81.4383C131.599 81.4039 131.639 81.1233 131.449 81.03C126.597 78.4664 123.15 74.3112 121.429 68.893C120.963 67.2544 120.597 65.7622 120.518 64.0557C120.503 63.7523 120.488 63.4489 120.472 63.1363C120.29 56.7627 122.42 51.322 126.531 46.7055C134.15 39.0528 145.494 39.3597 153.582 45.9059Z" fill="#2C415C"/>
<path d="M117.356 83.4566C117.573 83.1184 118.032 83.0681 118.379 83.2702C120.665 84.4961 122.51 84.7448 125.052 84.6643C125.382 84.6625 125.713 84.6606 126.054 84.6587C128.032 84.6277 129.917 84.4159 131.86 84.0237C132.638 83.8884 133.383 83.8526 134.146 83.8594C134.512 83.8626 134.691 84.3011 134.438 84.5669C133.86 85.176 133.284 85.7875 132.709 86.4008C129.993 89.2926 129.993 89.2926 128.58 90.541C127.096 91.8732 125.948 93.3288 125.635 95.3542C125.592 95.6351 125.591 95.9211 125.623 96.2034C125.801 97.7492 126.281 98.9424 127.406 100.073C128.757 101.093 129.964 101.391 131.616 101.285C134.262 100.82 136.141 98.7637 138.122 96.9974C138.683 96.5154 139.245 96.0355 139.81 95.5582C140.177 95.2465 140.177 95.2465 140.551 94.9286C141.432 94.2163 142.117 94.0183 143.112 94.0805C143.478 94.1034 143.84 94.1908 144.17 94.3512C145.616 95.053 146.756 96.3575 147.929 97.4807C148.72 98.2166 149.553 98.8868 150.395 99.556C150.724 99.8203 151.054 100.085 151.383 100.349C151.548 100.481 151.713 100.613 151.883 100.75C154.354 102.739 156.782 104.788 159.196 106.852C159.394 107.02 159.591 107.189 159.794 107.363C160.362 107.85 160.927 108.34 161.492 108.831C161.69 108.999 161.889 109.167 162.094 109.341C162.285 109.506 162.477 109.672 162.674 109.843C162.846 109.99 163.018 110.137 163.195 110.288C163.445 110.562 163.547 110.673 163.667 110.957C163.923 111.558 164.055 112.24 163.88 112.869C163.844 112.998 163.794 113.115 163.719 113.249C163.456 113.718 163.072 114.118 162.61 114.393C162.389 114.525 162.196 114.603 161.98 114.639C161.265 114.759 160.552 114.407 159.981 113.959C159.785 113.805 159.561 113.613 159.159 113.268C158.812 112.976 158.465 112.684 158.118 112.391C157.93 112.231 157.743 112.072 157.55 111.907C156.416 110.946 155.263 110.011 154.113 109.071C153.888 108.886 153.663 108.701 153.432 108.511C152.995 108.152 152.558 107.794 152.119 107.438C151.683 107.082 151.252 106.719 150.825 106.35C150.616 106.174 150.407 105.999 150.192 105.817C150.06 105.704 149.928 105.59 149.795 105.475C149.688 105.383 149.574 105.299 149.449 105.235C149.423 105.222 149.398 105.21 149.373 105.198C148.391 104.737 147.224 105.758 147.728 106.719C147.852 106.957 148.078 107.255 148.283 107.428C148.383 107.513 148.484 107.598 148.587 107.684C148.809 107.874 149.031 108.065 149.261 108.261C149.491 108.449 149.721 108.637 149.958 108.831C150.166 109.003 150.374 109.175 150.589 109.353C151.215 109.865 151.847 110.368 152.481 110.87C156.939 114.433 157.974 115.26 158.429 115.903C158.692 116.276 158.803 116.737 158.836 117.193C158.839 117.233 158.841 117.272 158.843 117.31C158.873 118.041 158.613 118.778 158.034 119.224C157.571 119.581 156.936 119.755 156.355 119.688C155.443 119.583 154.803 119.18 153.999 118.425C153.794 118.222 153.59 118.019 153.379 117.81C152.344 116.813 151.219 115.961 150.091 115.086C149.309 114.478 148.541 113.852 147.777 113.22C147.56 113.042 147.343 112.865 147.12 112.682C146.691 112.331 146.264 111.977 145.84 111.62C145.644 111.461 145.447 111.301 145.245 111.137C145.071 110.993 144.897 110.849 144.718 110.7C144.186 110.361 144.186 110.361 143.519 110.546C143.187 110.671 142.942 110.971 142.919 111.325C142.907 111.499 142.911 111.638 142.929 111.85C142.956 112.177 143.073 112.494 143.284 112.745C143.464 112.96 143.597 113.056 144.023 113.361C144.248 113.54 144.473 113.719 144.705 113.903C144.949 114.09 145.193 114.276 145.444 114.468C145.944 114.863 146.444 115.258 146.943 115.653C147.195 115.849 147.446 116.045 147.705 116.247C148.781 117.094 149.835 117.968 150.888 118.845C151.067 118.993 151.245 119.14 151.429 119.293C152.597 120.258 152.887 120.498 153.012 120.976C153.112 121.359 153.097 121.764 153.033 122.155C153.006 122.323 152.974 122.45 152.922 122.57C152.67 123.159 152.098 123.578 151.482 123.754C151.029 123.884 150.642 123.859 150.142 123.748C149.614 123.631 149.118 123.394 148.69 123.064C148.048 122.568 147.451 122.023 146.847 121.464C146.423 121.079 145.998 120.696 145.572 120.314C145.387 120.144 145.201 119.973 145.011 119.798C144.353 119.215 143.411 119.798 143.327 120.673C143.323 120.718 143.319 120.763 143.315 120.809C143.272 121.321 143.521 121.807 143.94 122.105C144.323 122.378 144.711 122.643 145.102 122.903C145.393 123.144 145.678 123.39 145.961 123.64C146.563 124.17 146.955 125.005 146.567 125.707C146.295 126.202 145.702 126.45 145.139 126.491C144.612 126.53 144.278 126.541 144.021 126.507C143.272 126.411 142.757 125.694 142.548 124.969C142.484 124.744 142.432 124.51 142.384 124.252C142.375 124.206 142.361 124.161 142.341 124.119C142.198 123.818 141.818 123.717 141.546 123.909C141.466 123.965 141.386 124.021 141.306 124.078C141.22 124.138 141.104 124.127 141.032 124.051C140.94 123.954 140.782 123.965 140.705 124.075C140.645 124.161 140.602 124.223 140.487 124.388C140.326 124.617 140.165 124.846 139.999 125.082C139.762 125.421 139.762 125.421 139.519 125.768C138.587 127.018 138.391 127.281 137.73 127.42C137.302 127.509 136.857 127.503 136.425 127.429C136.348 127.416 136.28 127.402 136.217 127.387C135.517 127.219 134.999 126.585 134.791 125.896C134.62 125.33 134.656 124.809 134.762 124.014C134.776 123.914 134.802 123.813 134.841 123.719C135.279 122.644 134.314 121.654 133.47 122.451C133.459 122.462 133.447 122.472 133.436 122.483C132.627 123.253 132.47 123.35 131.444 123.403C130.99 123.367 130.657 123.308 130.329 123.199C129.636 122.97 129.019 122.471 128.77 121.785C128.622 121.379 128.585 120.97 128.587 120.441C128.587 120.19 128.608 119.937 128.676 119.696C128.958 118.684 129.601 117.997 130.306 117.206C130.455 117.027 130.604 116.849 130.758 116.665C132.326 114.817 132.605 114.487 133.325 114.263C133.684 114.151 134.063 114.108 134.439 114.116C134.905 114.126 135.257 114.178 135.623 114.354C136.24 114.651 136.688 115.252 136.812 115.925C136.918 116.5 136.811 117.003 136.604 117.786C136.867 117.138 137.131 116.49 137.4 115.828C137.469 115.658 137.632 115.547 137.815 115.547C137.999 115.547 138.168 115.436 138.234 115.264C138.361 114.937 138.398 114.786 138.413 114.446C138.427 114.121 138.339 113.797 138.15 113.532C137.603 112.767 137.052 112.39 136.062 112.106C135.445 111.987 134.831 111.883 134.211 111.795C133.834 111.741 133.536 111.444 133.489 111.066C133.208 109.204 132.945 108.089 131.444 106.912C130.092 106.041 128.766 106.285 127.276 106.576C127.222 106.587 127.169 106.601 127.118 106.619C127.025 106.652 126.954 106.677 126.892 106.698C126.535 106.824 126.138 106.691 125.929 106.375C125.771 106.143 125.613 105.911 125.45 105.673C125.295 105.443 125.14 105.212 124.981 104.975C124.217 104.057 123.61 103.763 122.465 103.606C120.635 103.579 119.526 103.669 118.09 104.993C117.902 105.158 117.714 105.323 117.521 105.493C117.252 105.795 117.149 105.91 117.132 106.174C117.111 106.505 117.51 106.679 117.781 106.489C117.957 106.366 118.199 106.387 118.347 106.543C118.399 106.598 118.451 106.653 118.503 106.708C118.775 106.994 119.23 106.997 119.506 106.716C119.53 106.691 119.554 106.666 119.578 106.642C119.61 106.609 119.646 106.578 119.683 106.551C120.435 106.021 120.935 105.831 121.607 105.839C122.293 105.846 122.994 106.123 123.478 106.609C124.027 107.16 124.229 107.969 124.091 108.734C123.88 109.898 123.261 110.804 122.511 111.756C122.234 112.106 122.225 112.598 122.495 112.954C122.503 112.964 122.51 112.974 122.518 112.985C122.889 113.473 123.621 113.482 124.004 113.002C124.334 112.591 124.664 112.18 124.995 111.769C125.158 111.564 125.322 111.358 125.49 111.146C126.263 110.188 126.676 109.677 126.993 109.345C127.624 108.685 128.608 108.408 129.493 108.633C129.766 108.702 130.019 108.81 130.28 108.973C130.786 109.29 131.175 109.789 131.324 110.367C131.439 110.817 131.405 111.192 131.294 111.705C131.201 112.134 131.037 112.546 130.809 112.921C130.178 113.955 129.442 114.901 128.713 115.867C128.491 116.176 128.269 116.486 128.041 116.805C126.399 118.949 126.389 118.961 125.222 119.258C125.208 119.262 125.194 119.264 125.18 119.264C124.704 119.264 124.531 119.264 124.148 119.21C124.053 119.196 123.995 119.327 124.085 119.359C124.116 119.37 124.16 119.407 124.16 119.44C124.16 119.599 124.16 119.758 124.16 119.92C124.16 119.983 124.232 120.05 124.291 120.071C124.447 120.125 124.375 120.344 124.21 120.344C124.151 120.344 124.092 120.344 124.033 120.344C123.936 120.344 123.857 120.265 123.857 120.167C123.857 120.103 123.857 120.038 123.857 119.973C123.857 119.825 123.739 119.705 123.591 119.705C123.418 119.705 123.288 119.866 123.328 120.035C123.35 120.128 123.372 120.221 123.394 120.314C123.472 120.644 123.202 120.955 122.875 120.871C121.87 120.615 121.318 120.004 120.518 119.065C121.075 119.861 121.516 120.469 122.206 120.921C122.668 121.224 123.228 121.322 123.78 121.335C124.059 121.342 124.337 121.345 124.615 121.344C125.708 121.425 126.681 122.089 127.062 123.116C127.113 123.252 127.163 123.393 127.215 123.54C127.566 124.335 128.008 124.69 128.658 125.059C128.894 125.194 129.144 125.305 129.408 125.369C129.948 125.501 130.457 125.522 131.046 125.541C131.91 125.601 132.644 126.162 132.977 126.962C133.075 127.198 133.166 127.441 133.263 127.696C133.647 128.503 134.105 128.879 134.794 129.255C135.002 129.369 135.221 129.462 135.449 129.526C136.646 129.859 137.701 129.752 138.887 129.296C139.047 129.234 139.2 129.152 139.342 129.055C139.393 129.02 139.443 128.985 139.492 128.95C140.391 128.316 141.647 127.973 142.625 128.475C142.907 128.62 143.139 128.678 143.454 128.706C144.666 128.814 145.734 128.806 146.85 128.342C147.196 128.198 147.505 127.978 147.784 127.727C148.026 127.508 148.154 127.375 148.323 127.157C148.573 126.833 148.831 126.505 149.181 126.293C149.63 126.022 149.936 126.065 150.679 126.101C151.851 126.15 152.526 125.967 153.326 125.332C153.727 125.015 154.031 124.595 154.268 124.142C154.382 123.923 154.495 123.703 154.606 123.483C155.06 122.644 155.187 122.41 155.531 122.252C155.868 122.097 156.246 122.058 156.617 122.038C156.905 122.023 157.193 122.011 157.481 122.002C158.332 121.928 158.887 121.606 159.473 121.112C159.814 120.825 160.095 120.472 160.296 120.074C160.594 119.484 160.812 118.905 160.97 118.279C161.141 117.603 161.631 117.035 162.307 116.866C163.14 116.655 163.497 116.564 163.905 116.409C164.717 116.098 165.423 115.471 165.647 114.63C165.661 114.577 165.676 114.52 165.692 114.457C165.725 114.331 165.768 114.21 165.824 114.093C165.968 113.789 166.035 113.452 166.015 113.116C165.989 112.687 165.96 112.258 165.931 111.829C165.927 110.417 165.98 109.599 166.879 108.531C167.305 108.094 167.736 107.661 168.169 107.232C168.778 106.554 169.374 105.863 169.971 105.173C170.285 104.815 170.599 104.458 170.914 104.101C171.922 102.951 172.912 101.783 173.895 100.608C174.09 100.375 174.412 100.315 174.663 100.487C174.697 100.511 174.752 100.544 174.79 100.559C175.552 100.864 176.048 100.814 176.738 100.65C177.096 100.565 177.441 100.433 177.767 100.265C178.315 99.983 178.477 99.8785 179.292 99.3511C179.479 99.2347 179.666 99.1182 179.859 98.9983C180.453 98.6273 181.045 98.2522 181.637 97.8769C182.032 97.6297 182.427 97.3828 182.823 97.1361C183.911 96.4559 184.994 95.7684 186.076 95.0785C186.465 94.8321 186.465 94.8321 186.862 94.5806C188.074 93.8168 188.234 93.7158 189.011 92.9309C189.272 92.667 189.43 92.3158 189.451 91.945C189.482 91.4054 189.478 91.2019 189.437 90.6071C189.425 90.4312 189.562 90.2812 189.738 90.2812C189.897 90.2812 190.031 90.1593 190.044 90.0012C190.133 88.8762 190.222 87.749 190.313 86.5927C190.32 86.5084 190.389 86.4433 190.474 86.4433C190.56 86.4433 190.632 86.5111 190.637 86.5972C190.805 90.0641 190.306 93.0294 189.415 96.3578C189.35 96.6059 189.285 96.8539 189.218 97.1095C187.077 105.152 183.048 112.685 177.578 118.745C177.41 118.933 177.242 119.122 177.069 119.316C173.415 123.387 169.48 126.587 164.83 129.299C164.637 129.412 164.443 129.525 164.243 129.642C161.122 131.434 157.938 132.783 154.511 133.777C154.247 133.855 153.982 133.933 153.71 134.013C146.326 136.102 137.385 136.415 129.927 134.416C129.565 134.321 129.565 134.321 129.195 134.224C119.502 131.589 111.492 126.125 104.432 118.745C104.18 118.484 103.928 118.222 103.668 117.953C98.7014 112.474 95.4691 105.379 93.2021 98.2767C93.0887 97.9304 92.9752 97.5841 92.8583 97.2273C92.3364 95.5426 92.2272 95.1902 92.4006 94.4746C92.4785 94.1533 92.8763 94.0426 93.1263 94.2589C93.5357 94.6069 93.6745 94.7249 93.8909 94.7866C94.1775 94.8682 94.4779 94.8993 94.7522 95.0158C95.594 95.3735 96.2967 95.9481 97.0482 96.5089C97.4479 96.7996 97.8479 97.0901 98.248 97.3803C98.8744 97.8375 99.4995 98.2963 100.122 98.7596C100.725 99.2075 101.333 99.6476 101.942 100.087C102.125 100.226 102.308 100.365 102.496 100.508C103.827 101.456 104.753 101.642 106.282 101.503C106.463 101.486 106.637 101.433 106.798 101.348C107.372 101.045 108.079 101.16 108.526 101.631C109.48 102.637 110.437 103.645 111.407 104.667C111.955 105.244 112.921 105.022 113.161 104.263C113.177 104.213 113.193 104.163 113.209 104.113C113.225 104.061 113.253 104.013 113.291 103.974C113.427 103.83 113.423 103.603 113.281 103.465C113.226 103.411 113.17 103.358 113.115 103.304C112.485 102.687 111.863 102.061 111.242 101.435C111.022 101.222 110.803 101.009 110.576 100.79C109.719 99.9166 109.331 99.5213 109.137 99.1409C108.777 98.4346 109.041 97.5776 109.39 96.8657C109.82 95.9875 110.312 95.1631 110.844 94.3189C111.172 93.7844 111.501 93.2497 111.829 92.7148C112.093 92.2859 112.093 92.2859 112.363 91.8484C113.4 90.1526 114.405 88.4364 115.415 86.7232C115.805 86.0624 116.195 85.4019 116.585 84.7418C116.751 84.4606 116.917 84.1793 117.088 83.8896C117.207 83.6957 117.29 83.5601 117.356 83.4566ZM118.09 105.952C118.697 106.272 118.697 106.272 118.697 106.272L118.09 105.952Z" fill="#0089CF"/>
<path d="M152.275 48.2686C155.624 51.3624 157.917 55.8304 158.215 60.5567C158.287 66.0317 157.037 71.23 153.344 75.2634C148.818 79.5927 143.898 80.7007 137.965 80.4279C133.594 80.0738 129.817 77.2584 126.892 73.9704C123.515 69.437 122.863 64.2021 123.249 58.619C124.057 53.827 126.794 49.7236 130.477 46.8456C137.338 42.1146 145.971 42.7544 152.275 48.2686Z" fill="#FDFDFD"/>
<path d="M117.358 83.4566C117.574 83.1184 118.033 83.0681 118.38 83.2702C120.666 84.4961 122.511 84.7448 125.053 84.6643C125.384 84.6625 125.714 84.6606 126.055 84.6587C128.033 84.6277 129.919 84.4159 131.861 84.0237C132.639 83.8884 133.384 83.8526 134.147 83.8594C134.514 83.8626 134.692 84.3011 134.439 84.5669C133.861 85.176 133.285 85.7875 132.711 86.4008C129.994 89.2926 129.994 89.2926 128.581 90.541C127.097 91.8732 125.949 93.3288 125.636 95.3542C125.593 95.6351 125.592 95.9211 125.625 96.2034C125.802 97.7492 126.282 98.9424 127.407 100.073C128.758 101.093 129.966 101.391 131.617 101.285C134.263 100.82 136.143 98.7637 138.123 96.9974C138.684 96.5154 139.246 96.0355 139.811 95.5582C140.178 95.2465 140.178 95.2465 140.552 94.9286C141.433 94.2163 142.118 94.0183 143.113 94.0805C143.479 94.1034 143.841 94.1908 144.172 94.3512C145.617 95.053 146.758 96.3575 147.931 97.4807C148.721 98.2166 149.554 98.8868 150.396 99.556C150.726 99.8203 151.055 100.085 151.385 100.349C151.55 100.481 151.714 100.613 151.884 100.75C154.355 102.739 156.783 104.788 159.198 106.852C159.395 107.02 159.592 107.189 159.796 107.363C160.363 107.85 160.928 108.34 161.493 108.831C161.692 108.999 161.89 109.167 162.095 109.341C162.286 109.506 162.478 109.672 162.675 109.843C162.847 109.99 163.019 110.137 163.196 110.288C163.446 110.562 163.548 110.673 163.669 110.957C163.924 111.558 164.056 112.24 163.881 112.869C163.845 112.998 163.795 113.115 163.72 113.249C163.458 113.718 163.073 114.118 162.611 114.393C162.39 114.525 162.197 114.603 161.981 114.639C161.266 114.759 160.553 114.407 159.982 113.959C159.786 113.805 159.562 113.613 159.16 113.268C158.813 112.976 158.466 112.684 158.119 112.391C157.932 112.231 157.744 112.072 157.551 111.907C156.417 110.946 155.264 110.011 154.114 109.071C153.889 108.886 153.665 108.701 153.433 108.511C152.997 108.152 152.559 107.794 152.12 107.438C151.684 107.082 151.253 106.719 150.826 106.35C150.617 106.174 150.408 105.999 150.193 105.817C150.061 105.704 149.93 105.59 149.796 105.475C149.689 105.383 149.576 105.299 149.45 105.235C149.425 105.222 149.399 105.21 149.374 105.198C148.392 104.737 147.225 105.758 147.729 106.719C147.854 106.957 148.079 107.255 148.285 107.428C148.385 107.513 148.486 107.598 148.588 107.684C148.81 107.874 149.033 108.065 149.262 108.261C149.492 108.449 149.722 108.637 149.96 108.831C150.168 109.003 150.376 109.175 150.59 109.353C151.216 109.865 151.849 110.368 152.483 110.87C156.941 114.433 157.976 115.26 158.43 115.903C158.694 116.276 158.804 116.737 158.837 117.193C158.84 117.233 158.843 117.272 158.844 117.31C158.874 118.041 158.615 118.778 158.035 119.224C157.572 119.581 156.937 119.755 156.356 119.688C155.444 119.583 154.804 119.18 154 118.425C153.795 118.222 153.591 118.019 153.38 117.81C152.346 116.813 151.22 115.961 150.092 115.086C149.31 114.478 148.543 113.852 147.778 113.22C147.561 113.042 147.344 112.865 147.121 112.682C146.692 112.331 146.266 111.977 145.842 111.62C145.645 111.461 145.448 111.301 145.246 111.137C144.985 110.921 144.985 110.921 144.719 110.7C144.187 110.361 144.187 110.361 143.52 110.546C143.188 110.671 142.943 110.971 142.92 111.325C142.909 111.499 142.912 111.638 142.93 111.85C142.957 112.177 143.074 112.494 143.285 112.745C143.466 112.96 143.598 113.056 144.025 113.361C144.25 113.54 144.475 113.719 144.706 113.903C144.95 114.09 145.194 114.276 145.445 114.468C145.945 114.863 146.445 115.258 146.945 115.653C147.322 115.947 147.322 115.947 147.706 116.247C148.782 117.094 149.836 117.968 150.889 118.845C151.068 118.993 151.246 119.14 151.431 119.293C152.598 120.258 152.888 120.498 153.013 120.976C153.113 121.359 153.098 121.764 153.035 122.155C153.007 122.323 152.975 122.45 152.924 122.57C152.671 123.159 152.099 123.578 151.483 123.754C151.03 123.884 150.643 123.859 150.144 123.748C149.615 123.631 149.119 123.394 148.691 123.064C148.049 122.568 147.452 122.023 146.849 121.464C146.424 121.079 145.999 120.696 145.573 120.314C145.388 120.144 145.203 119.973 145.012 119.798C144.354 119.215 143.412 119.798 143.328 120.673C143.324 120.718 143.32 120.763 143.316 120.809C143.274 121.321 143.522 121.807 143.941 122.105C144.324 122.378 144.712 122.643 145.103 122.903C145.394 123.144 145.679 123.39 145.962 123.64C146.564 124.17 146.956 125.005 146.569 125.707C146.296 126.202 145.703 126.45 145.14 126.491C144.613 126.53 144.279 126.541 144.022 126.507C143.274 126.411 142.758 125.694 142.55 124.969C142.485 124.744 142.434 124.51 142.385 124.252C142.376 124.206 142.362 124.161 142.342 124.119C142.199 123.818 141.819 123.717 141.547 123.909C141.467 123.965 141.387 124.021 141.307 124.078C141.221 124.138 141.106 124.127 141.034 124.051C140.942 123.954 140.783 123.965 140.706 124.075C140.634 124.178 140.562 124.282 140.488 124.388C140.247 124.732 140.247 124.732 140.001 125.082C139.842 125.308 139.684 125.534 139.521 125.768C138.588 127.018 138.392 127.281 137.731 127.42C137.303 127.509 136.858 127.503 136.427 127.429C136.349 127.416 136.281 127.402 136.218 127.387C135.518 127.219 135.001 126.585 134.793 125.896C134.622 125.33 134.657 124.809 134.764 124.014C134.777 123.914 134.804 123.813 134.842 123.719C135.28 122.644 134.315 121.654 133.471 122.451C133.46 122.462 133.449 122.472 133.437 122.483C132.628 123.253 132.472 123.35 131.446 123.403C130.992 123.367 130.658 123.308 130.33 123.199C129.637 122.97 129.02 122.471 128.771 121.785C128.623 121.379 128.587 120.97 128.588 120.441C128.588 120.19 128.61 119.937 128.677 119.696C128.959 118.684 129.602 117.997 130.307 117.206C130.456 117.027 130.606 116.849 130.759 116.665C132.327 114.817 132.606 114.487 133.326 114.263C133.685 114.151 134.064 114.108 134.44 114.116C134.906 114.126 135.258 114.178 135.624 114.354C136.241 114.651 136.689 115.252 136.813 115.925C136.919 116.5 136.813 117.003 136.605 117.786C136.869 117.138 137.132 116.49 137.402 115.828C137.471 115.658 137.633 115.547 137.816 115.547C138 115.547 138.169 115.436 138.235 115.264C138.363 114.937 138.399 114.786 138.414 114.446C138.429 114.121 138.341 113.797 138.151 113.532C137.604 112.767 137.053 112.39 136.063 112.106C135.446 111.987 134.832 111.883 134.213 111.795C133.835 111.741 133.537 111.444 133.491 111.066C133.21 109.204 132.946 108.089 131.446 106.912C130.093 106.041 128.767 106.285 127.277 106.576C127.224 106.587 127.171 106.601 127.119 106.619C127.044 106.646 126.969 106.672 126.894 106.698C126.536 106.824 126.139 106.691 125.93 106.375C125.772 106.143 125.614 105.911 125.451 105.673C125.296 105.443 125.141 105.212 124.982 104.975C124.218 104.057 123.611 103.763 122.466 103.606C120.642 103.579 119.505 103.649 118.091 104.993C117.341 105.88 116.081 106.258 115.189 105.513C114.296 104.767 113.516 103.851 112.702 103.003C112.23 102.515 111.752 102.035 111.273 101.555C110.973 101.244 110.673 100.932 110.374 100.62C110.211 100.453 110.048 100.285 109.882 100.116C109.658 99.8858 109.452 99.6374 109.283 99.3635C109.097 99.0608 109.029 98.8882 109.009 98.6042C108.977 98.1568 109.068 97.7081 109.218 97.2855C109.409 96.7482 109.628 96.2767 109.956 95.7506C110.096 95.5217 110.236 95.2929 110.38 95.0571C110.534 94.8135 110.687 94.5699 110.845 94.3189C111.174 93.7844 111.502 93.2497 111.83 92.7148C112.006 92.4289 112.183 92.143 112.365 91.8484C113.401 90.1526 114.406 88.4364 115.416 86.7232C115.806 86.0624 116.196 85.4019 116.587 84.7418C116.753 84.4606 116.919 84.1793 117.09 83.8896C117.208 83.6957 117.291 83.5601 117.358 83.4566Z" fill="#FCFCFD"/>
<path d="M175.099 69.4724C176.099 69.2252 177.074 69.8756 177.684 70.7061C178.328 71.5833 178.861 72.5269 179.414 73.5232C179.526 73.7235 179.638 73.9238 179.754 74.1302C180.118 74.7823 180.48 75.4357 180.842 76.0892C181.353 77.0097 181.866 77.9295 182.379 78.8489C182.509 79.0816 182.639 79.3143 182.772 79.554C183.653 81.1281 184.558 82.6848 185.478 84.2334C185.719 84.6406 185.96 85.0478 186.2 85.4551C186.543 86.0349 186.887 86.6135 187.236 87.189C187.557 87.7177 187.872 88.2504 188.186 88.7834C188.375 89.0964 188.431 89.1904 188.542 89.3749C188.667 89.5828 188.78 89.7989 188.864 90.0263C189.072 90.5846 189.174 91.0568 189.194 91.5703C189.227 92.4055 188.873 93.2145 188.275 93.7985C187.483 94.5728 186.574 95.1534 185.596 95.7395C185.313 95.9125 185.313 95.9125 185.026 96.0891C184.429 96.4542 183.83 96.8159 183.232 97.1774C182.832 97.421 182.433 97.6648 182.034 97.9089C180.956 98.5677 179.875 99.2227 178.793 99.8759C178.606 99.9965 178.418 100.117 178.226 100.241C177.018 101.008 176.815 101.137 176.153 101.108C175.84 101.095 175.542 101.035 175.24 100.948C174.987 100.875 174.716 100.815 174.453 100.795C173.852 100.747 173.759 100.864 173.168 101.61C172.866 101.962 172.565 102.317 172.267 102.674C171.943 103.055 171.618 103.436 171.293 103.816C171.128 104.011 170.963 104.206 170.793 104.407C170.312 104.973 169.824 105.533 169.334 106.09C169.183 106.262 169.032 106.434 168.876 106.611C168.731 106.776 168.585 106.942 168.436 107.112C167.17 108.398 166.965 108.607 166.583 109.814C166.41 110.361 166.349 110.938 166.38 111.511C166.383 111.55 166.385 111.59 166.387 111.629C166.409 113.358 166.276 114.276 165.364 115.558C165.216 115.766 165.039 115.953 164.838 116.11C164.037 116.731 163.261 117.071 162.348 117.159C161.72 117.219 161.163 117.676 161.132 118.306C160.974 119.653 160.552 120.348 159.753 121.218C159.502 121.492 159.217 121.737 158.886 121.905C158.193 122.258 157.588 122.33 156.713 122.303C156.47 122.298 156.227 122.292 155.978 122.286C155.658 122.273 155.376 122.494 155.312 122.808C155.298 122.878 155.283 122.949 155.269 123.021C155.258 123.075 155.242 123.129 155.22 123.18C154.777 124.236 154.101 125.043 153.252 125.686C152.531 126.232 151.607 126.399 150.706 126.328C150.679 126.326 150.651 126.323 150.623 126.321C149.968 126.298 149.695 126.289 149.393 126.393C148.805 126.597 148.361 127.081 148.016 127.598C147.692 128.084 147.296 128.54 146.754 128.76C145.734 129.176 144.629 129.145 143.513 129.036C143.16 129.002 142.682 128.809 142.378 128.627C141.696 128.221 140.992 128.133 140.346 128.595C140.111 128.763 139.88 128.953 139.621 129.16C138.712 129.87 137.807 130.037 136.732 130.05C136.485 130.053 136.237 130.034 135.998 129.975C135.039 129.738 134.256 129.223 133.499 128.552C133.343 128.413 133.212 128.249 133.106 128.07C132.516 127.077 132.39 126.827 132.363 126.297C132.349 126.022 132.117 125.808 131.844 125.838C129.986 125.953 128.778 125.559 127.381 124.347C127.257 124.239 127.147 124.115 127.052 123.981C126.601 123.344 126.389 122.955 126.316 122.291C126.277 121.932 125.98 121.644 125.619 121.669C123.749 121.742 122.582 121.726 121.126 120.344C120.585 119.738 120.542 119.689 120.288 119.203C120.241 119.115 120.232 119.013 120.262 118.918C120.36 118.608 120.782 118.56 120.945 118.842C120.98 118.903 121.015 118.964 121.05 119.025C121.547 119.752 121.827 120.12 122.404 120.425C122.689 120.576 123.029 120.406 123.126 120.098C123.129 120.089 123.132 120.079 123.135 120.07C123.204 119.852 123.405 119.705 123.633 119.705C123.678 119.705 123.723 119.705 123.768 119.705C123.825 119.705 123.879 119.682 123.919 119.641C124.028 119.526 123.974 119.336 123.821 119.295C123.774 119.283 123.727 119.271 123.68 119.258C123.42 119.19 123.383 118.818 123.651 118.805C123.85 118.796 124.108 118.838 124.585 118.917C124.618 118.922 124.653 118.926 124.686 118.926C125.481 118.932 125.835 118.823 126.395 118.38C126.585 118.229 126.755 118.055 126.911 117.871C127.544 117.12 128.134 116.35 128.714 115.547C128.923 115.264 129.132 114.981 129.348 114.69C130.086 113.644 130.651 112.808 130.941 111.715C131.159 110.893 131.066 109.963 130.436 109.394C129.973 108.976 129.307 108.725 128.683 108.743C128.481 108.749 128.3 108.784 128.094 108.862C127.683 109.016 127.338 109.303 127.035 109.621C126.22 110.477 125.495 111.399 124.768 112.349C124.459 112.736 124.149 113.122 123.839 113.508C123.53 113.908 122.937 113.937 122.589 113.571C122.486 113.462 122.382 113.352 122.277 113.242C121.946 112.894 121.844 112.379 122.062 111.95C122.251 111.579 122.464 111.229 122.729 110.885C123.455 109.941 123.776 109.486 123.844 108.419C123.864 108.095 123.832 107.769 123.759 107.453C123.663 107.036 123.57 106.857 123.29 106.657C122.887 106.367 122.39 106.226 121.894 106.218C120.842 106.202 120.119 106.484 119.239 107.128C118.927 107.357 118.492 107.334 118.225 107.054C118.157 106.981 118.088 106.909 118.019 106.836C117.886 106.696 117.635 106.699 117.477 106.81C117.215 106.994 116.889 106.775 116.948 106.459C117.041 105.962 117.24 105.566 117.652 105.11C119.291 103.628 120.236 103.278 122.414 103.305C124.047 103.478 124.929 104.459 125.944 105.713C126.039 105.842 126.135 105.972 126.23 106.103C126.435 106.381 126.815 106.462 127.114 106.289C127.155 106.265 127.201 106.245 127.246 106.23C128.713 105.775 130 105.942 131.337 106.566C131.692 106.731 132.013 106.961 132.295 107.232C133.042 107.952 133.528 108.623 133.623 109.822C133.625 110.078 133.621 110.333 133.614 110.589C133.599 111.189 134.09 111.681 134.689 111.649C136.271 111.652 137.079 112.234 138.217 113.368C138.535 113.728 138.665 114.237 138.483 114.681C138.368 114.961 138.267 115.053 137.99 115.307C137.423 115.894 137.423 115.894 137.212 117.006C136.997 117.786 136.934 118.012 136.592 118.306C136.44 118.437 136.229 118.259 136.314 118.079C136.318 118.07 136.322 118.061 136.325 118.052C136.54 117.353 136.584 116.839 136.514 116.269C136.428 115.573 136.203 114.726 135.533 114.518C135.328 114.454 135.053 114.445 134.575 114.428C133.258 114.47 132.597 114.942 131.671 115.898C131.409 116.199 131.409 116.199 131.142 116.507C130.942 116.73 130.743 116.954 130.537 117.185C129.687 118.223 129.01 119.085 128.842 120.398C128.81 120.654 128.821 120.913 128.851 121.169C128.866 121.3 128.88 121.41 128.896 121.506C129.027 122.312 129.855 122.799 130.654 122.962C130.949 123.022 131.243 123.054 131.542 123.053C132.286 123.051 132.969 122.666 133.466 122.112C133.66 121.896 133.847 121.67 134.039 121.433C134.898 120.56 136.067 121.893 135.555 123.004C135.492 123.14 135.425 123.276 135.351 123.413C135.188 123.714 135.069 124.041 135.041 124.381C135.014 124.711 135.002 124.948 135.012 125.161C135.062 126.201 135.863 127.173 136.903 127.201C137.688 127.223 138.444 126.792 138.958 126.198C139.418 125.666 139.831 125.097 140.247 124.502C140.503 124.143 140.503 124.143 140.764 123.778C140.815 123.706 140.865 123.635 140.916 123.564C141.024 123.411 141.255 123.429 141.336 123.598C141.401 123.735 141.575 123.783 141.699 123.696C141.83 123.603 141.962 123.51 142.096 123.417C142.265 123.298 142.485 123.282 142.668 123.379C142.856 123.478 142.973 123.678 142.964 123.891C142.957 124.079 142.949 124.269 142.941 124.462C142.921 124.761 142.907 124.973 142.914 125.138C142.949 125.937 144.001 126.208 144.8 126.181C145.013 126.183 145.225 126.184 145.445 126.186C146.391 126.135 146.77 124.833 146.18 124.091C146.053 123.93 145.891 123.765 145.69 123.568C145.44 123.375 145.19 123.182 144.933 122.983C144.682 122.787 144.431 122.59 144.173 122.388C144.149 122.37 144.126 122.353 144.102 122.335C143.836 122.133 143.451 122.227 143.308 122.529C143.246 122.659 143.185 122.789 143.122 122.921C143.053 123.066 142.86 123.098 142.749 122.981C142.703 122.932 142.679 122.864 142.687 122.797C142.802 121.769 142.954 120.772 143.187 119.765C143.213 119.575 143.239 119.385 143.265 119.192C143.276 119.112 143.251 119.032 143.195 118.973C143.022 118.791 143.17 118.519 143.406 118.605C144.317 118.934 145.022 119.602 145.805 120.264C146.159 120.555 146.513 120.845 146.866 121.135C147.415 121.59 147.955 122.05 148.491 122.522C149.299 123.207 149.737 123.467 150.616 123.515C150.948 123.534 151.282 123.493 151.605 123.41C151.778 123.366 151.905 123.323 152.013 123.265C152.575 122.963 152.859 122.31 152.862 121.673C152.865 121.024 152.495 120.386 152.029 119.934C151.573 119.492 151.075 119.105 150.567 118.705C150.351 118.528 150.135 118.351 149.913 118.169C149.225 117.608 148.531 117.057 147.835 116.507C147.371 116.136 146.906 115.765 146.442 115.395C145.598 114.723 144.75 114.056 143.9 113.393C143.608 113.163 143.408 113.006 143.262 112.889C142.86 112.565 142.631 112.068 142.633 111.552C142.633 111.434 142.638 111.313 142.648 111.149C142.664 110.891 142.77 110.65 142.948 110.462C143.16 110.239 143.459 110.101 143.763 110.148C145.088 110.355 145.993 111.362 147.019 112.289C147.449 112.667 147.879 113.045 148.31 113.422C148.641 113.712 148.641 113.712 148.979 114.007C150.067 114.94 151.187 115.825 152.312 116.706C152.514 116.865 152.716 117.024 152.925 117.187C153.296 117.477 153.667 117.766 154.039 118.053C154.431 118.362 154.811 118.687 155.188 119.016C155.773 119.496 155.773 119.496 156.826 119.325C157.355 119.241 157.615 119.2 157.82 119.083C158.346 118.784 158.579 118.138 158.59 117.533C158.603 116.866 158.232 116.236 157.777 115.749C155.477 113.281 152.725 111.218 150.091 109.186C148.535 107.978 148.129 107.663 147.717 107.193C147.389 106.819 147.23 106.254 147.317 105.764C147.413 105.225 147.796 104.78 148.34 104.716C148.365 104.713 148.392 104.71 148.421 104.707C148.83 104.67 149.241 104.778 149.579 105.011C150.27 105.487 150.894 106.051 151.534 106.612C152.019 107.024 152.504 107.436 152.99 107.848C153.239 108.062 153.489 108.276 153.746 108.497C154.992 109.56 156.261 110.594 157.528 111.629C157.76 111.82 157.991 112.01 158.23 112.207C158.445 112.384 158.661 112.561 158.883 112.744C159.073 112.899 159.262 113.055 159.457 113.216C160.428 114.009 160.553 114.111 161.493 114.178C161.808 114.201 162.126 114.193 162.438 114.142C162.766 114.087 162.95 114.024 163.105 113.866C163.577 113.387 163.677 112.639 163.611 111.97C163.547 111.318 163.334 110.775 162.833 110.159C162.106 109.466 161.354 108.827 160.582 108.191C160.257 107.918 159.931 107.644 159.605 107.37C158.705 106.617 157.797 105.872 156.889 105.128C155.993 104.394 155.101 103.654 154.209 102.914C153.137 102.026 152.064 101.138 150.99 100.253C150.81 100.105 150.63 99.9558 150.444 99.8027C150.086 99.5072 149.727 99.2125 149.368 98.9185C148.531 98.2305 147.713 97.5332 146.922 96.7876C145.688 95.6427 144.709 94.758 143.231 94.4119C142.703 94.2883 142.145 94.3267 141.649 94.5471C140.208 95.1891 139.004 96.5472 137.857 97.6172C135.48 99.8003 133.414 101.625 130.121 101.585C128.481 101.36 127.399 100.475 126.397 99.1977C126.232 98.9864 126.088 98.7576 125.975 98.5141C125.501 97.4965 125.339 96.6478 125.344 95.5748C125.347 95.0341 125.471 94.4993 125.711 94.0145C127.024 91.3558 129.247 89.365 131.372 87.3979C132.079 86.7384 132.747 86.054 133.404 85.3437C133.502 85.2381 133.677 85.2204 133.804 85.2875C133.996 85.3886 134.014 85.6389 133.857 85.7883C133.802 85.8399 133.738 85.9009 133.635 85.9987C133.407 86.2246 133.179 86.4505 132.944 86.6833C132.715 86.9059 132.486 87.1285 132.25 87.3579C131.681 87.9758 131.664 87.9949 131.811 88.6978C131.821 88.7439 131.835 88.7891 131.853 88.8327C131.891 88.9263 131.929 89.02 131.968 89.1147C132.019 89.2399 132.139 89.3218 132.274 89.3218C132.477 89.3218 132.636 89.5017 132.593 89.6996C132.395 90.6104 131.993 91.026 131.218 91.6805C129.64 92.9767 129.383 93.1882 128.722 94.4962C128.421 95.0904 128.22 95.7476 128.29 96.4097C128.313 96.6305 128.352 96.8409 128.411 97.0495C128.62 97.791 129.191 98.4199 129.932 98.6304C130.278 98.7288 130.614 98.7418 131.021 98.7017C131.506 98.6539 131.975 98.4927 132.394 98.2437C134.154 97.1996 135.664 95.6398 137.144 94.22C138.712 92.7493 140.491 91.3695 142.675 91.4007C142.734 91.3998 142.784 91.3991 142.826 91.3985C143.192 91.3933 143.56 91.4218 143.912 91.5237C145.93 92.1077 147.502 93.5055 149.087 94.9387C149.54 95.3401 149.993 95.7411 150.447 96.1417C150.671 96.3402 150.895 96.5387 151.125 96.7431C152.081 97.581 153.057 98.391 154.038 99.1963C154.213 99.34 154.387 99.4837 154.567 99.6317C154.737 99.7709 154.906 99.91 155.08 100.053C155.907 100.734 156.729 101.422 157.547 102.115C158.053 102.541 158.559 102.968 159.065 103.394C159.237 103.539 159.41 103.685 159.587 103.835C160.158 104.315 160.731 104.794 161.303 105.273C161.484 105.425 161.665 105.578 161.851 105.735C162.465 106.247 163.058 106.726 163.716 107.123C164.183 107.405 164.773 107.27 165.13 106.858C165.41 106.536 165.69 106.214 165.97 105.893C166.118 105.722 166.266 105.551 166.419 105.375C167.229 104.444 168.041 103.515 168.857 102.589C169.018 102.406 169.179 102.223 169.345 102.035C169.655 101.683 169.965 101.332 170.276 100.981C170.553 100.666 170.825 100.349 171.093 100.029C172.15 98.7623 172.444 96.9976 171.636 95.5588C171.473 95.2685 171.3 94.979 171.116 94.6851C170.925 94.3757 170.734 94.0662 170.537 93.7475C170.132 93.0981 169.727 92.4493 169.321 91.8011C169.131 91.4929 168.941 91.1847 168.745 90.8672C168.569 90.586 168.394 90.3047 168.213 90.0149C168.203 89.9951 168.193 89.9752 168.183 89.9553C167.983 89.5554 167.978 89.086 168.17 88.6822C168.264 88.4777 168.358 88.2732 168.455 88.0625C168.696 87.569 168.757 87.4447 169.026 87.0115C169.189 86.7497 169.572 86.7542 169.731 87.0183C171.118 89.3176 172.506 91.6163 173.899 93.9113C175.278 96.1824 178.198 96.9683 180.441 95.5448C181.612 94.8023 182.768 94.0347 183.926 93.2619C184.195 93.0839 184.464 92.9058 184.741 92.7224C184.984 92.5604 185.226 92.3985 185.476 92.2316C185.754 92.0689 185.904 91.9816 186.044 91.9347C186.316 91.844 186.505 91.5701 186.361 91.3219C186.037 90.7607 185.713 90.1995 185.389 89.6384C185.009 88.9801 184.628 88.3218 184.248 87.6635C183.263 85.9573 182.277 84.251 181.292 82.5444C181.109 82.2281 180.927 81.9117 180.739 81.5858C180.38 80.9636 180.02 80.3412 179.662 79.7188C178.907 78.4105 178.15 77.1038 177.38 75.8056C177.264 75.6097 177.148 75.4137 177.028 75.2118C176.733 74.7151 176.436 74.2197 176.14 73.7243C175.977 73.4204 175.884 73.2459 175.83 73.0963C175.725 72.8044 175.41 72.6113 175.154 72.7874C174.257 73.4043 173.357 74.0172 172.457 74.63C171.987 74.9544 171.987 74.9544 171.507 75.2853C171.208 75.4883 170.909 75.6914 170.6 75.9006C170.324 76.0898 170.047 76.2791 169.762 76.4741C169.594 76.5666 169.426 76.6591 169.255 76.7531C169.146 76.8129 169.016 76.8149 168.906 76.757C168.69 76.643 168.641 76.3529 168.809 76.1754C168.907 76.0727 169.004 75.9696 169.103 75.8658C169.276 75.683 169.337 75.4204 169.261 75.1801C169.218 75.0448 169.175 74.9087 169.132 74.7712C169.1 74.6718 169.124 74.5642 169.196 74.4885C169.301 74.378 169.302 74.2034 169.197 74.0929C169.164 74.0585 169.136 74.0288 169.109 74.0001C168.933 73.8151 168.961 73.5178 169.168 73.3689C170.008 72.765 170.853 72.1678 171.698 71.5718C172.11 71.2743 172.11 71.2743 172.529 70.9708C172.797 70.7833 173.065 70.5957 173.342 70.4024C173.483 70.3019 173.624 70.2014 173.767 70.1C173.977 69.9499 174.198 69.813 174.435 69.7081C174.672 69.6027 174.888 69.5246 175.099 69.4724Z" fill="#2B3F5A"/>
<path d="M163.067 82.2271C163.203 82.0838 163.431 82.079 163.569 82.2204C164.581 83.2594 165.308 84.3012 166.027 85.6238C167.232 87.8018 168.496 89.9353 169.783 92.0602C169.965 92.3607 170.147 92.6612 170.334 92.9708C170.757 93.6683 171.181 94.3644 171.609 95.0578C172.485 96.4764 172.704 98.3009 171.641 99.5849C171.61 99.6218 171.579 99.6588 171.547 99.6959C171.36 99.9165 171.173 100.137 170.981 100.364C169.991 101.506 168.996 102.641 167.998 103.775C167.755 104.052 167.513 104.33 167.271 104.608C165.669 106.458 162.97 106.926 161.095 105.353C160.912 105.2 160.729 105.047 160.54 104.89C158.921 103.537 157.319 102.162 155.718 100.786C153.888 99.2152 152.039 97.6721 150.176 96.1451C149.638 95.7028 149.103 95.2571 148.568 94.8111C148.217 94.5204 147.865 94.2297 147.513 93.9391C147.203 93.6814 146.893 93.4238 146.573 93.1583C144.918 91.9325 143.459 91.6525 141.539 91.8383C141.285 91.8628 141.034 91.9112 140.794 91.9966C138.958 92.6501 137.648 94.1539 136.249 95.5432C133.172 98.4673 132.869 98.7553 131.307 98.9665C130.934 99.0169 130.554 99.0226 130.182 98.9713C129.892 98.9314 129.709 98.8863 129.515 98.7912C128.959 98.5187 128.535 98.024 128.259 97.4699C128.035 97.0203 127.906 96.5865 127.88 96.0475C127.861 95.6638 127.937 95.2806 128.087 94.9269C129.207 92.2806 132.33 90.0542 134.309 88.1784C134.753 87.753 135.19 87.319 135.627 86.8843C138.617 83.9316 141.387 82.7916 145.525 82.8391C147.193 82.9151 148.838 83.1677 150.491 83.405C156.989 84.5259 157.017 84.5308 162.933 82.315C162.983 82.2962 163.03 82.266 163.067 82.2271Z" fill="#FDFDFD"/>
<path d="M103.468 76.4651C104.847 74.1704 107.798 73.3975 110.024 74.8853C110.954 75.5073 111.876 76.1468 112.798 76.7889C113.166 77.0436 113.534 77.2983 113.902 77.5528C113.918 77.5639 113.934 77.575 113.95 77.5862C115.551 78.6949 116.341 80.6625 115.349 82.3383C115.059 82.8313 115.059 82.8313 114.763 83.3343C114.553 83.6875 114.343 84.0407 114.126 84.4046C113.909 84.7729 113.692 85.1414 113.475 85.5099C113.02 86.2807 112.565 87.0511 112.11 87.8211C111.42 88.989 110.736 90.1606 110.054 91.3332C109.944 91.5211 109.835 91.7091 109.722 91.9027C109.196 92.8061 108.671 93.7097 108.145 94.6134C108.086 94.7144 108.027 94.8153 107.968 94.9162C106.565 97.3194 103.449 97.9812 101.16 96.3989C100.155 95.7043 99.1534 95.0038 98.1542 94.2991C97.8218 94.0651 97.4894 93.8311 97.147 93.5901C95.7528 92.6085 95.2864 90.7509 96.0918 89.248C97.0202 87.5155 97.9844 85.8066 98.9698 84.1048C99.0806 83.9129 99.1914 83.721 99.3055 83.5233C100.672 81.1563 102.061 78.8051 103.468 76.4651Z" fill="#D9F0FD"/>
<path d="M174.305 73.0072C175.118 72.396 176.089 72.895 176.585 73.7826C176.741 74.0621 176.895 74.3441 177.048 74.6301C177.321 75.1314 177.596 75.6323 177.87 76.133C178.018 76.4036 178.167 76.6742 178.319 76.953C179.155 78.4623 180.017 79.9543 180.879 81.4463C181.057 81.7549 181.236 82.0636 181.419 82.3817C182.785 84.7402 184.18 87.0784 185.605 89.3979C185.747 89.6321 185.89 89.8663 186.037 90.1077C186.162 90.3121 186.288 90.5165 186.417 90.7271C186.767 91.4007 186.339 92.1669 185.698 92.574C185.553 92.6663 185.371 92.7797 185.12 92.9361C184.79 93.1432 184.46 93.3504 184.12 93.5638C183.767 93.7823 183.414 94.0007 183.061 94.2191C182.722 94.4316 182.383 94.6442 182.033 94.8631C181.47 95.2153 180.905 95.5651 180.339 95.912C178.113 97.2762 175.221 96.6172 173.858 94.3905C173.206 93.3259 172.572 92.249 171.945 91.1608C171.521 90.4293 171.097 89.6979 170.673 88.967C170.566 88.7838 170.46 88.6006 170.35 88.4119C169.066 86.2074 167.737 84.032 166.399 81.8632C166.232 81.5904 166.065 81.3176 165.894 81.0365C165.746 80.798 165.599 80.5595 165.448 80.3138C165.065 79.597 165.505 78.7823 166.188 78.3427C166.339 78.2452 166.528 78.1255 166.786 77.962C166.956 77.8531 167.127 77.7442 167.302 77.632C167.849 77.2821 168.398 76.9354 168.948 76.589C169.663 76.135 170.378 75.6796 171.092 75.2235C171.429 75.0084 171.766 74.7934 172.113 74.5718C172.867 74.0751 173.589 73.562 174.305 73.0072Z" fill="#FDFDFD"/>
<path d="M112.773 104.946C113.02 104.335 113.69 104.151 114.27 104.465C115.219 104.979 115.992 105.739 116.791 106.529C117.016 106.751 117.364 106.783 117.623 106.601C117.889 106.413 118.256 106.447 118.48 106.684C118.488 106.692 118.496 106.7 118.504 106.708C118.775 106.994 119.23 106.998 119.506 106.716C119.53 106.691 119.554 106.667 119.578 106.642C119.61 106.609 119.646 106.578 119.684 106.552C120.435 106.021 120.935 105.831 121.607 105.839C122.293 105.846 122.994 106.123 123.478 106.609C124.027 107.16 124.23 107.969 124.091 108.734C123.88 109.899 123.261 110.804 122.511 111.756C122.235 112.106 122.225 112.599 122.495 112.954C122.503 112.964 122.511 112.975 122.518 112.985C122.889 113.473 123.621 113.482 124.004 113.002C124.334 112.591 124.665 112.18 124.995 111.769C125.159 111.564 125.322 111.358 125.491 111.147C126.263 110.188 126.676 109.677 126.993 109.345C127.624 108.685 128.608 108.408 129.493 108.633C129.766 108.703 130.019 108.81 130.28 108.973C130.786 109.29 131.175 109.789 131.324 110.368C131.44 110.818 131.405 111.192 131.294 111.705C131.201 112.134 131.038 112.546 130.809 112.921C130.178 113.955 129.442 114.902 128.713 115.867C128.491 116.177 128.269 116.486 128.041 116.805C126.399 118.949 126.389 118.961 125.222 119.259C125.209 119.262 125.194 119.264 125.18 119.264C124.704 119.265 124.531 119.264 124.148 119.21C124.053 119.197 124.016 119.335 124.107 119.366C124.138 119.377 124.16 119.407 124.16 119.441C124.16 119.599 124.16 119.759 124.16 119.921C124.16 119.983 124.199 120.038 124.258 120.059C124.413 120.114 124.375 120.345 124.21 120.345C124.151 120.345 124.093 120.345 124.034 120.345C123.936 120.345 123.857 120.265 123.857 120.168C123.857 120.103 123.857 120.038 123.857 119.973C123.857 119.825 123.739 119.705 123.591 119.705C123.418 119.705 123.288 119.867 123.328 120.035C123.355 120.15 123.376 120.238 123.397 120.325C123.475 120.653 123.212 120.972 122.88 120.911C122.409 120.825 122.018 120.647 121.597 120.238C120.675 119.097 120.541 118.932 120.522 118.41C120.515 118.242 120.385 118.106 120.217 118.106C120.049 118.106 119.911 117.971 119.911 117.804C119.911 117.624 119.757 117.48 119.579 117.495C119.388 117.512 119.196 117.529 119.001 117.546C117.788 117.544 116.818 117.147 115.835 116.511C115.513 116.303 115.226 116.045 114.986 115.747C114.059 114.599 113.794 113.766 113.784 112.089C113.78 111.757 113.775 111.425 113.771 111.083C113.812 110.519 113.898 110.05 114.039 109.584C114.242 108.911 114.161 108.17 113.708 107.632C112.775 106.442 112.671 106.309 112.638 105.608C112.628 105.414 112.7 105.126 112.773 104.946ZM118.09 105.953C118.697 106.272 118.697 106.272 118.697 106.272L118.09 105.953Z" fill="#2F445E"/>
<path d="M134.82 51.5364C135.218 51.5334 135.218 51.5334 135.624 51.5302C136.057 51.5297 136.057 51.5297 136.498 51.5291C136.94 51.5276 136.94 51.5276 137.391 51.5259C138.015 51.5243 138.64 51.5236 139.264 51.5236C140.222 51.5229 141.18 51.5171 142.138 51.511C142.743 51.5101 143.348 51.5095 143.953 51.5092C144.241 51.5069 144.529 51.5046 144.826 51.5022C145.093 51.5032 145.359 51.5042 145.633 51.5052C145.868 51.5047 146.103 51.5043 146.345 51.5038C146.627 51.5424 146.772 51.5622 146.916 51.6467C147.379 51.9174 147.535 52.5311 147.432 53.0573C147.334 53.5519 146.982 53.9788 146.496 54.1138C146.046 54.2388 145.602 54.2705 145.064 54.3213C144.788 54.3481 144.512 54.3749 144.227 54.4025C143.933 54.4294 143.772 54.7573 143.93 55.0065C143.986 55.096 144.043 55.1858 144.1 55.2763C144.16 55.3706 144.192 55.48 144.192 55.5916C144.192 55.6622 144.192 55.7328 144.192 55.8035C144.192 56.1183 144.453 56.37 144.768 56.3577C145.016 56.3519 145.264 56.3462 145.52 56.3402C145.766 56.3328 146.012 56.3254 146.266 56.3177C146.429 56.3332 146.551 56.3448 146.652 56.3632C147.35 56.4902 147.519 57.4333 147.383 58.1293C147.372 58.1832 147.361 58.2318 147.35 58.2764C147.22 58.7733 146.638 58.9587 146.124 58.9618C145.861 58.9634 145.599 58.9602 145.336 58.9554C144.846 58.9465 144.416 59.2803 144.305 59.7583C143.498 61.8848 142.229 63.1615 140.284 64.1433C139.275 64.5069 138.816 65.759 139.552 66.5396C139.701 66.6979 139.85 66.856 139.999 67.0142C140.204 67.2323 140.408 67.4504 140.619 67.6751C141.476 68.5831 142.306 69.4402 143.269 70.2249C143.794 70.6887 143.874 70.7594 143.967 71.3788C144.006 71.6388 143.992 72.0076 143.944 72.266C143.782 73.1254 142.724 73.3575 141.978 72.9017C141.565 72.6491 141.196 72.3049 140.777 71.9115C140.563 71.714 140.348 71.5165 140.127 71.3131C139.86 71.0173 139.739 70.8833 139.685 70.718C139.571 70.3765 139.431 70.035 139.105 69.8823C137.863 69.1708 136.937 68.0566 135.94 67.0142C135.716 66.7891 135.493 66.564 135.262 66.3321C134.433 65.4669 133.83 64.8348 133.408 63.7907C133.277 63.4655 133.215 63.0498 133.273 62.704C133.397 61.9739 134.278 61.7741 135.018 61.7318C135.634 61.6964 136.25 61.6767 136.872 61.6641C138.258 61.6084 139.251 61.3967 140.432 60.6173C140.51 60.5653 140.579 60.5002 140.638 60.4261C140.874 60.1246 141.108 59.8206 141.339 59.5136C141.516 59.278 141.344 58.9447 141.049 58.9489C139.985 58.9622 138.92 58.9705 137.856 58.9787C137.485 58.9841 137.113 58.9894 136.731 58.995C136.2 58.9981 136.2 58.9981 135.658 59.0012C135.33 59.0046 135.003 59.0079 134.666 59.0114C134.454 58.992 134.298 58.9778 134.173 58.9551C133.459 58.8264 133.231 57.5703 133.493 56.8939C133.709 56.3384 134.2 56.3472 134.795 56.314C135.05 56.2998 135.306 56.2885 135.562 56.279C135.903 56.2656 136.245 56.2522 136.596 56.2384C137.135 56.2195 137.135 56.2195 137.685 56.2003C138.046 56.1865 138.406 56.1727 138.778 56.1584C139.744 56.1216 140.087 54.9998 139.166 54.7048C138.139 54.3755 137.06 54.3437 135.715 54.2957C134.596 54.2418 134.181 54.2218 133.86 54.0375C133.41 53.7793 133.222 53.2047 133.223 52.6856C133.223 52.1692 133.445 51.605 133.957 51.5381C134.21 51.505 134.486 51.5381 134.82 51.5364Z" fill="#2B405C"/>
<path d="M134.709 114.139C135.362 114.152 136.02 114.448 136.42 114.965C136.837 115.504 136.92 116.229 136.814 116.902C136.776 117.142 136.719 117.357 136.605 117.786C136.87 117.135 137.135 116.483 137.406 115.816C137.473 115.654 137.629 115.547 137.804 115.547C137.993 115.547 138.161 115.425 138.218 115.246C138.262 115.109 138.305 114.971 138.349 114.832C138.395 114.687 138.528 114.588 138.681 114.588C138.874 114.588 139.033 114.745 139.033 114.938C139.033 115.561 139.033 116.186 139.033 116.821C139.033 117.186 139.312 117.492 139.676 117.525C139.952 117.552 140.228 117.578 140.513 117.606C140.788 117.632 141.062 117.658 141.345 117.685C141.947 117.769 142.048 117.783 142.414 117.97C142.576 118.052 142.676 118.217 142.676 118.398C142.676 118.605 142.806 118.791 143.001 118.86C143.029 118.87 143.056 118.879 143.083 118.889C143.371 118.99 143.54 119.288 143.479 119.587C143.464 119.659 143.449 119.732 143.434 119.805C143.2 120.94 143.817 122.037 144.777 122.685C144.886 122.758 144.995 122.831 145.104 122.903C145.394 123.144 145.679 123.391 145.962 123.64C146.564 124.171 146.956 125.005 146.569 125.708C146.296 126.202 145.703 126.45 145.14 126.492C144.613 126.53 144.279 126.541 144.022 126.508C143.274 126.411 142.758 125.694 142.55 124.969C142.485 124.744 142.434 124.51 142.385 124.252C142.376 124.206 142.351 124.139 142.331 124.096C142.188 123.795 141.82 123.718 141.547 123.909C141.467 123.965 141.387 124.021 141.307 124.078C141.221 124.138 141.106 124.127 141.034 124.051C140.942 123.954 140.783 123.965 140.707 124.075C140.634 124.178 140.562 124.283 140.488 124.389C140.327 124.617 140.167 124.846 140.001 125.082C139.842 125.308 139.684 125.535 139.521 125.768C138.588 127.018 138.392 127.281 137.731 127.42C137.303 127.51 136.858 127.503 136.427 127.429C136.35 127.416 136.281 127.402 136.218 127.387C135.518 127.219 135.001 126.585 134.793 125.896C134.622 125.33 134.657 124.809 134.764 124.015C134.777 123.914 134.804 123.814 134.842 123.72C135.281 122.644 134.315 121.655 133.471 122.452C133.46 122.462 133.449 122.473 133.437 122.483C132.628 123.253 132.472 123.35 131.446 123.403C130.992 123.367 130.659 123.308 130.331 123.199C129.637 122.97 129.021 122.472 128.771 121.785C128.623 121.379 128.587 120.971 128.588 120.441C128.589 120.19 128.61 119.938 128.677 119.696C128.959 118.684 129.602 117.998 130.308 117.206C130.457 117.028 130.606 116.849 130.759 116.665C132.034 115.163 133.022 114.104 134.709 114.139Z" fill="#2D425D"/>
<path d="M128.348 108.534C128.9 108.46 129.47 108.553 129.973 108.792C130.267 108.932 130.497 109.089 130.702 109.298C131.326 109.933 131.462 110.912 131.216 111.768C130.766 113.329 129.753 114.493 128.713 115.867C128.488 116.177 128.263 116.486 128.031 116.805C126.827 118.358 126.509 118.768 125.994 119.033C125.56 119.256 125.062 119.348 124.577 119.29C124.345 119.261 124.125 119.211 123.91 119.14C123.132 118.882 122.52 118.23 122.322 117.434C122.204 116.96 122.18 116.484 122.228 115.971C122.275 115.475 122.453 115 122.721 114.579C123.21 113.814 123.778 113.131 124.369 112.429C124.559 112.192 124.749 111.955 124.945 111.711C127.009 109.173 127.431 108.655 128.348 108.534Z" fill="#FAFBFB"/>
<path d="M134.687 114.138C135.354 114.149 136.025 114.446 136.429 114.977C136.833 115.509 136.918 116.223 136.763 116.873C136.223 119.138 134.346 120.891 132.773 122.503C132.212 122.98 131.951 123.141 131.491 123.201C130.913 123.277 130.323 123.157 129.778 122.948C129.554 122.861 129.396 122.788 129.273 122.707C128.745 122.357 128.665 121.621 128.634 120.988C128.586 119.987 128.712 119.21 129.401 118.259C129.697 117.903 129.999 117.552 130.307 117.206C130.456 117.028 130.605 116.849 130.758 116.665C132.027 115.169 133.013 114.113 134.687 114.138Z" fill="#FAFBFB"/>
<path d="M121.598 105.903C122.283 105.88 122.996 106.124 123.479 106.61C124.023 107.158 124.194 107.97 124.052 108.729C123.813 110.01 123.182 110.86 122.225 111.969C122.074 112.152 121.924 112.335 121.769 112.523C120.328 114.25 120.127 114.492 119.125 114.638C118.753 114.692 118.374 114.693 118.003 114.641C117.818 114.615 117.681 114.588 117.56 114.549C116.972 114.356 116.56 113.816 116.281 113.264C116.165 113.033 116.082 112.815 116.029 112.576C115.858 111.811 116.156 111.027 116.609 110.386C117.068 109.736 117.573 109.128 118.089 108.511C118.263 108.289 118.437 108.068 118.616 107.84C119.654 106.521 120.266 105.949 121.598 105.903Z" fill="#FBFBFB"/>
<path d="M127.755 121.844C127.79 121.41 128.404 121.295 128.41 121.73C128.411 121.87 128.482 121.99 128.602 122.06C129.53 122.601 130.504 122.84 131.539 122.876C132.105 122.896 132.727 122.838 133.132 122.442C133.268 122.309 133.422 122.114 133.684 121.783C134.706 120.758 136.037 122.143 135.349 123.416C135.195 123.701 135.068 124.029 135.035 124.351C134.991 124.789 134.977 125.063 135.013 125.329C135.137 126.231 135.819 127.088 136.729 127.135C136.977 127.148 137.248 127.134 137.573 127.12C137.846 127.112 138.12 127.103 138.401 127.094C138.503 127.089 138.604 127.083 138.705 127.078C138.884 127.068 139.033 127.208 139.033 127.386C139.033 127.558 138.894 127.7 138.722 127.7C138.713 127.7 138.704 127.7 138.694 127.7C138.537 127.7 138.401 127.808 138.364 127.961C138.296 128.248 138.228 128.537 138.158 128.831C138.137 128.918 138.177 129.008 138.256 129.05C138.418 129.135 138.386 129.373 138.207 129.405C136.807 129.655 135.547 129.604 134.179 129.099C133.976 129.024 133.792 128.903 133.643 128.746C132.941 128.002 132.604 127.321 132.433 126.333C132.38 126.028 132.11 125.801 131.801 125.826C130.027 125.911 129.821 125.92 129.182 125.41C128.995 125.261 128.833 125.084 128.692 124.89C128.647 124.828 128.607 124.773 128.55 124.694C128.458 124.567 128.347 124.457 128.219 124.367C127.779 124.058 127.55 123.527 127.629 122.996C127.637 122.945 127.644 122.894 127.652 122.843C127.694 122.502 127.729 122.172 127.755 121.844Z" fill="#2F4560"/>
<path d="M138.781 119.978C139.347 119.915 139.904 120.12 140.302 120.528C140.727 120.964 140.921 121.612 140.974 122.219C141.046 123.043 140.953 123.679 140.475 124.563C140.019 125.214 139.55 125.823 139.032 126.421C138.96 126.508 138.888 126.596 138.815 126.684C138.66 126.871 138.499 127.057 138.305 127.204C138.148 127.322 138.013 127.375 137.731 127.426C137.3 127.503 136.857 127.503 136.426 127.429C136.349 127.416 136.28 127.402 136.217 127.387C135.517 127.219 135.002 126.585 134.787 125.897C134.666 125.509 134.642 125.142 134.677 124.697C134.72 124.142 134.911 123.608 135.194 123.128C136.045 121.682 137.238 120.149 138.781 119.978Z" fill="#FAFBFB"/>
<path d="M173.69 95.6569C173.838 95.5006 174.068 95.4443 174.262 95.5385C175.175 95.9824 175.626 96.6833 176.148 97.5835C176.278 97.8084 176.533 97.9315 176.79 97.8929C177.022 97.8579 177.189 97.8327 177.35 97.8086C177.739 97.7499 178.029 98.1564 177.747 98.4317C177.668 98.5088 177.516 98.5966 177.405 98.5966C177.391 98.5966 177.376 98.5966 177.361 98.5966C177.129 98.5966 176.921 98.7474 176.855 98.9703C176.821 99.0844 176.795 99.1815 176.776 99.269C176.641 99.8934 176.328 100.54 175.69 100.498C175.309 100.473 174.935 100.427 174.552 100.349C174.189 100.274 173.81 100.429 173.636 100.755C173.503 100.993 173.37 101.23 173.234 101.475C173.117 101.688 173 101.9 172.881 102.118C172.853 102.169 172.821 102.218 172.786 102.265C172.724 102.347 172.662 102.429 172.6 102.512C172.485 102.665 172.306 102.754 172.115 102.754C172.048 102.754 171.981 102.754 171.913 102.754C171.689 102.754 171.507 102.576 171.507 102.352C171.507 102.007 171.104 101.815 170.84 102.038C170.616 102.226 170.392 102.416 170.164 102.607C170.059 102.696 169.912 102.713 169.79 102.649C169.588 102.543 169.545 102.271 169.705 102.109C169.887 101.927 170.069 101.743 170.255 101.555C170.867 100.915 171.263 100.35 171.639 99.5966C171.756 99.3612 171.913 99.1466 172.113 98.975C172.268 98.8415 172.372 98.754 172.478 98.6721C172.804 98.4182 172.984 98.0181 172.919 97.6098C172.874 97.3242 172.829 97.0373 172.783 96.7472C172.751 96.5428 172.906 96.3579 173.113 96.3579C173.243 96.3579 173.364 96.283 173.42 96.1656C173.478 96.0432 173.536 95.9203 173.595 95.7954C173.62 95.7443 173.651 95.6979 173.69 95.6569Z" fill="#324862"/>
<path d="M159.974 60.5953C159.974 59.9683 160.608 59.8564 160.7 60.4766C161.123 63.3444 160.503 66.6874 159.775 69.2529C159.361 70.4696 159.055 71.3714 158.795 72.0622C158.345 73.261 157.434 72.6198 158.001 71.4717C158.598 70.2442 159.085 69.0794 159.416 67.802C159.568 67.2144 159.061 66.6661 158.479 66.837C158.411 66.8572 158.334 66.88 158.247 66.906C158.187 66.9241 158.135 66.9627 158.101 67.016C157.956 67.2457 157.6 67.1297 157.619 66.8586C157.791 64.4041 157.964 61.9418 158.142 59.4166C158.148 59.3276 158.221 59.2585 158.31 59.2585C158.394 59.2585 158.466 59.3193 158.479 59.4019C158.543 59.8073 158.608 60.2134 158.673 60.625C158.723 60.9432 158.997 61.1775 159.319 61.1775C159.342 61.1775 159.364 61.1775 159.386 61.1775C159.711 61.1775 159.974 60.9199 159.974 60.5953Z" fill="#233451"/>
<path d="M156.933 53.9773C157.002 52.9271 158.282 52.6899 158.705 53.6539C158.723 53.6952 158.742 53.7378 158.761 53.7818C159.006 54.3276 159.249 54.8185 159.526 55.3101C159.81 55.8142 160.048 56.3481 160.132 56.9207C160.314 58.1593 160.312 59.3859 160.298 60.6579C160.296 60.8933 160.295 61.1287 160.293 61.3713C160.29 61.893 160.285 62.4147 160.28 62.9364C160.279 63.0251 160.208 63.0966 160.12 63.0966C160.038 63.0966 159.968 63.0355 159.958 62.9542C159.926 62.6915 159.894 62.4276 159.861 62.1571C159.81 61.8932 159.759 61.6294 159.707 61.3602C159.685 61.2448 159.611 61.1458 159.507 61.0909C159.451 61.0612 159.394 61.0314 159.337 61.0014C159.199 60.9287 159.03 61.0029 158.994 61.1548C158.936 61.3997 158.587 61.4025 158.529 61.1576C158.416 60.6842 158.303 60.2078 158.189 59.7238C158.168 59.6387 158.093 59.5785 158.006 59.5785C157.916 59.5785 157.838 59.5154 157.82 59.4274C157.509 57.8997 157.219 56.3695 157.016 54.8212C156.993 54.646 156.969 54.4708 156.946 54.2924C156.932 54.1937 156.926 54.0767 156.933 53.9773Z" fill="#314863"/>
<path d="M152.617 48.9917C152.286 48.6143 152.618 48.3461 153.062 48.5802C153.221 48.6638 153.38 48.7474 153.539 48.8311C153.773 48.9546 154.048 48.9799 154.299 48.8967C154.389 48.8671 154.479 48.8369 154.568 48.8064C155.262 48.5701 156.04 48.7729 156.484 49.3561C157.647 50.8853 158.703 52.4971 159.334 54.3597C159.357 54.4255 159.357 54.4957 159.336 54.562C159.243 54.8556 158.835 54.8755 158.715 54.5918C158.609 54.34 158.502 54.0875 158.396 53.834C158.184 53.3314 157.424 53.3002 157.316 53.8348C157.247 54.1737 157.283 54.5033 157.357 55.1807C157.407 55.4927 157.028 55.6466 156.862 55.378C156.486 54.7698 156.161 54.1413 155.84 53.4617C154.97 51.7391 153.893 50.3977 152.617 48.9917Z" fill="#263A55"/>
<path d="M121.34 82.1301C121.558 82.0331 121.81 82.1316 121.912 82.3467C121.987 82.5032 122.145 82.6055 122.319 82.6055C124.472 82.6055 126.628 82.6055 128.844 82.6055C128.939 82.6055 129.016 82.6812 129.016 82.7761C129.016 82.8612 128.954 82.9346 128.869 82.9473C128.699 82.973 128.529 82.9986 128.358 83.0243C127.74 83.1174 127.616 83.718 128.237 83.7886C128.546 83.8237 128.862 83.8357 129.155 83.8656C129.249 83.8752 129.319 83.9543 129.319 84.049C129.319 84.1388 129.256 84.2176 129.168 84.2349C127.537 84.5556 125.91 84.666 124.254 84.7643C123.822 84.797 123.822 84.797 123.381 84.8305C122.967 84.8546 122.967 84.8546 122.544 84.8792C122.452 84.8852 122.359 84.8912 122.267 84.8973C121.946 84.9183 121.619 84.9295 121.306 84.8545C121.186 84.8257 121.096 84.7869 120.989 84.7181C120.702 84.5316 120.444 84.2802 120.301 83.9689C120.247 83.8539 120.23 83.7492 120.227 83.5842C120.223 83.3474 120.277 83.1097 120.4 82.9071C120.647 82.4986 120.924 82.3158 121.34 82.1301Z" fill="#364E68"/>
<path d="M131.802 81.9587C131.972 81.9595 132.012 82.1933 131.852 82.2495C131.792 82.2708 131.749 82.3287 131.749 82.3931C131.749 82.6309 131.749 82.869 131.749 83.1097C131.749 83.3611 131.953 83.565 132.205 83.565C132.237 83.565 132.269 83.565 132.301 83.565C132.499 83.565 132.66 83.7233 132.66 83.9215C132.66 84.0864 132.548 84.2329 132.387 84.2704C129.121 85.0334 125.836 84.9105 122.504 84.8473C122.413 84.8456 122.341 84.7728 122.341 84.6821C122.341 84.5942 122.411 84.5201 122.498 84.5147C123.612 84.4456 124.22 84.4079 124.807 84.3715C126.057 84.2941 126.754 82.8172 125.505 82.7304C125.089 82.7093 124.673 82.6945 124.257 82.6855C124.043 82.676 123.83 82.6665 123.611 82.6567C123.141 82.6365 122.671 82.6223 122.2 82.6098C122.11 82.6074 122.037 82.5343 122.037 82.4434C122.037 82.3553 122.105 82.281 122.193 82.275C125.402 82.0569 128.591 81.9432 131.802 81.9587Z" fill="#233550"/>
<path d="M143.117 122.43C143.195 122.046 143.638 121.866 143.956 122.094C144.652 122.594 145.317 123.115 145.97 123.668C146.571 124.176 146.947 125.023 146.566 125.712C146.562 125.719 146.557 125.726 146.553 125.733C146.274 126.224 145.702 126.45 145.139 126.492C144.625 126.53 144.297 126.541 144.045 126.513C143.313 126.432 142.729 125.742 142.697 125.005C142.678 124.545 142.805 124.081 142.921 123.483C142.986 123.135 143.05 122.788 143.117 122.43Z" fill="#F6F7F8"/>
<path d="M157.941 66.6454C158.036 66.3441 158.418 66.2539 158.636 66.4831C158.714 66.5657 158.825 66.6143 158.938 66.6143C158.968 66.6143 158.997 66.6143 159.027 66.6143C159.378 66.6143 159.662 66.9068 159.627 67.2568C159.415 69.3857 158.576 71.1555 157.658 73.0947C157.59 73.2386 157.447 73.3305 157.287 73.3305C157.087 73.3305 156.914 73.1866 156.879 72.9895C156.855 72.8514 156.831 72.7123 156.806 72.5709C156.8 72.5327 156.794 72.4962 156.789 72.4613C156.638 71.5338 156.434 70.5841 156.73 69.6925C156.811 69.446 156.891 69.1995 156.973 68.9454C157.229 68.2491 157.531 67.6003 157.85 66.9341C157.88 66.8379 157.91 66.7418 157.941 66.6454Z" fill="#354D68"/>
<path d="M124.149 107.378C124.156 107.296 124.223 107.232 124.306 107.232C124.393 107.232 124.464 107.302 124.464 107.389C124.464 108.363 124.464 109.339 124.464 110.341C124.464 110.396 124.494 110.446 124.543 110.471C124.59 110.496 124.637 110.521 124.685 110.546C124.785 110.599 124.749 110.75 124.637 110.75C124.558 110.75 124.503 110.832 124.537 110.904C124.586 111.008 124.636 111.112 124.686 111.218C124.73 111.311 124.842 111.35 124.934 111.302C125.084 111.223 125.248 111.371 125.174 111.523C124.841 112.213 124.424 112.804 123.965 113.387C123.592 113.86 122.884 113.882 122.47 113.445C122.409 113.381 122.347 113.317 122.286 113.252C121.95 112.898 121.847 112.374 122.075 111.941C122.376 111.369 122.723 110.851 123.117 110.31C123.79 109.345 124.052 108.557 124.149 107.378Z" fill="#2B405A"/>
<path d="M134.113 51.5442C134.349 51.5449 134.586 51.5456 134.829 51.5463C135.23 51.5464 135.23 51.5464 135.64 51.5464C135.93 51.5481 136.221 51.5497 136.52 51.5514C136.964 51.5521 136.964 51.5521 137.417 51.5528C138.366 51.5546 139.316 51.5586 140.265 51.5627C140.907 51.5643 141.549 51.5657 142.191 51.567C143.716 51.5704 145.24 51.5756 146.764 51.582C146.852 51.5823 146.924 51.6528 146.924 51.741C146.924 51.8295 146.852 51.9025 146.763 51.9025C143.011 51.9025 139.257 51.9025 135.416 51.9025C134.792 51.9025 134.637 52.3106 135.257 52.2423C135.534 52.237 135.662 52.2345 135.803 52.2318C136.047 52.2271 136.225 52.4603 136.152 52.6934C136.077 52.9294 136.258 53.1716 136.505 53.1619C136.528 53.161 136.551 53.1602 136.573 53.1593C136.821 53.1535 137.069 53.1477 137.325 53.1418C137.572 53.1344 137.818 53.1269 138.072 53.1193C138.61 53.1705 138.37 53.7649 137.831 53.7333C136.809 53.6734 135.781 53.6133 134.739 53.5523C134.212 53.5214 133.754 53.1898 133.567 52.6959C133.384 52.2145 133.479 51.5913 133.992 51.5528C134.029 51.5501 134.069 51.5473 134.113 51.5442Z" fill="#1D2B48"/>
<path d="M122.689 103.348C123.029 103.375 123.317 103.603 123.419 103.928C123.503 104.192 123.457 104.489 123.267 104.69C122.643 105.352 122.055 105.517 121.069 105.693C120.796 105.743 120.522 105.794 120.24 105.846C120.125 105.866 120.052 105.878 119.99 105.888C119.791 105.922 119.609 105.77 119.609 105.568C119.609 105.419 119.508 105.287 119.364 105.249C119.304 105.233 119.243 105.217 119.182 105.201C118.799 105.1 118.63 104.646 118.901 104.356C119.964 103.217 121.095 103.221 122.689 103.348Z" fill="#314862"/>
<path d="M151.824 46.742C152.094 46.2336 152.727 45.8255 153.241 46.0858C153.456 46.1934 153.67 46.301 153.892 46.4118C154.328 46.6748 154.672 46.9257 154.994 47.2515C155.288 47.5489 155.41 48.0179 155.314 48.425C155.217 48.8392 154.913 49.1664 154.499 49.2651C154.437 49.2799 154.373 49.2911 154.299 49.3C153.849 49.3552 153.396 49.2068 153.045 48.9193C152.66 48.6033 152.299 48.2629 151.945 47.907C151.661 47.6214 151.598 47.1848 151.78 46.8254C151.796 46.7963 151.81 46.7685 151.824 46.742Z" fill="#334964"/>
<path d="M119.151 103.808C119.248 103.748 119.366 103.735 119.474 103.773C119.773 103.878 119.821 104.283 119.552 104.453C119.47 104.505 119.392 104.554 119.306 104.609C119.06 104.764 119.102 105.135 119.376 105.231C119.393 105.237 119.41 105.243 119.428 105.249C119.536 105.288 119.609 105.388 119.609 105.503C119.609 105.706 119.825 105.839 120.005 105.744C120.078 105.705 120.151 105.667 120.225 105.628C120.244 105.618 120.264 105.609 120.284 105.602C121.255 105.274 121.857 105.33 122.806 105.593C122.896 105.618 122.97 105.681 123.01 105.765C123.013 105.773 123.017 105.781 123.021 105.789C123.123 106.003 122.954 106.247 122.717 106.227C121.19 106.153 120.329 106.309 119.239 107.115C118.927 107.347 118.487 107.33 118.22 107.048C118.153 106.978 118.086 106.907 118.019 106.836C117.886 106.696 117.673 106.673 117.515 106.784C117.252 106.968 116.891 106.775 116.95 106.46C117.045 105.96 117.245 105.556 117.642 105.088C118.6 104.178 118.688 104.094 119.151 103.808Z" fill="#20314D"/>
<path d="M167.264 84.9821C167.383 85.0078 167.6 85.0699 167.709 85.1246C168.44 85.4906 168.782 85.8178 169.099 86.4421C169.301 86.8405 169.278 87.3232 169.05 87.7076C168.604 88.4584 167.557 88.609 167.091 87.8712C166.823 87.4479 166.632 86.9827 166.461 86.4818C166.202 85.7248 166.482 84.8138 167.264 84.9821Z" fill="#344A65"/>
<path d="M169.169 74.1555C169.437 74.2237 169.577 74.5219 169.458 74.7721C169.411 74.8722 169.402 74.9887 169.436 75.0944C169.454 75.1512 169.472 75.2081 169.49 75.2651C169.607 75.6368 169.47 76.0418 169.151 76.2659C168.908 76.437 168.663 76.6087 168.417 76.782C168.079 77.0194 167.585 77.1096 167.299 76.8113C167.208 76.7166 167.142 76.5972 167.043 76.3934C166.989 76.2815 166.878 76.2093 166.754 76.2093C166.478 76.2093 166.324 75.8812 166.517 75.6828C166.597 75.5993 166.69 75.5086 166.83 75.3721C166.91 75.2936 167.017 75.2498 167.129 75.2498C167.368 75.2498 167.562 75.0565 167.562 74.8181C167.562 74.7627 167.562 74.7071 167.562 74.6514C167.562 74.4293 167.683 74.2179 167.893 74.1439C168.352 73.9814 168.712 74.0396 169.169 74.1555Z" fill="#344A64"/>
<path d="M150.85 108.371C151.502 108.245 152.194 107.996 152.831 108.188C152.936 108.22 153.042 108.252 153.148 108.284C153.613 108.423 153.961 108.81 154.051 109.286C154.067 109.369 154.083 109.453 154.099 109.537C154.165 109.886 154.024 110.239 153.733 110.443C153.466 110.631 153.113 110.665 152.823 110.514C151.997 110.085 151.323 109.628 150.669 108.958C150.475 108.76 150.581 108.435 150.85 108.371Z" fill="#364D67"/>
<path d="M148.466 104.721C148.623 104.739 148.777 104.778 148.922 104.839C149.577 105.119 150.061 105.494 150.641 105.972C150.855 106.148 151.07 106.323 151.291 106.503C151.456 106.642 151.358 106.912 151.142 106.912C150.795 106.912 150.448 106.912 150.101 106.912C149.835 106.912 149.6 106.74 149.52 106.486C149.491 106.395 149.462 106.303 149.433 106.211C149.381 106.047 149.258 105.916 149.098 105.856C149.087 105.852 149.077 105.848 149.067 105.844C148.672 105.697 148.347 106.126 148.541 106.5C148.614 106.642 148.69 106.78 148.768 106.914C149.034 107.372 148.6 107.873 148.213 107.511C148.027 107.339 147.841 107.167 147.649 106.989C147.384 106.74 147.254 106.377 147.313 106.019C147.329 105.918 147.345 105.83 147.364 105.736C147.458 105.262 147.748 104.74 148.231 104.71C148.299 104.706 148.373 104.71 148.466 104.721Z" fill="#24314C"/>
<path d="M91.3384 90.2391C91.3527 90.0078 91.6349 89.9081 91.7945 90.0762C91.8127 90.0954 91.831 90.1146 91.8493 90.1339C91.9253 90.214 92.0529 90.214 92.1289 90.1339C92.1502 90.1115 92.1715 90.089 92.1928 90.0665C92.3082 89.945 92.5106 90.051 92.4763 90.215C92.4241 90.5301 92.3791 90.8322 92.3459 91.1325C92.2462 92.0343 92.4845 92.9963 93.1619 93.5999C93.3072 93.7294 93.4873 93.8696 93.7563 94.0775C93.7916 94.1048 93.8367 94.1611 93.8605 94.1988C94.0523 94.5019 93.7483 94.8396 93.4268 94.6805C92.6922 94.3168 92.1236 93.8396 91.5667 93.0965C91.4423 92.9305 91.3682 92.7322 91.3499 92.5256C91.2816 91.7566 91.291 91.0052 91.3384 90.2391Z" fill="#EFF9FB"/>
<path d="M141.873 70.6557C141.99 70.5326 142.169 70.4886 142.329 70.5448C142.461 70.591 142.593 70.6374 142.727 70.6843C142.877 70.737 142.977 70.8786 142.977 71.0375C142.977 71.069 142.977 71.1006 142.977 71.1322C142.977 71.2866 143.1 71.4119 143.254 71.4119C143.426 71.4119 143.56 71.5654 143.533 71.7352C143.497 71.9594 143.462 72.1841 143.426 72.41C143.347 72.9067 142.857 73.2519 142.377 73.1014C142.25 73.0615 142.161 73.0243 142.086 72.9797C141.845 72.8362 141.756 72.5364 141.746 72.2562C141.728 71.7412 141.731 71.5823 141.756 70.9343C141.761 70.83 141.802 70.7315 141.873 70.6557Z" fill="#354B65"/>
<path d="M124.153 107.39C124.159 107.302 124.23 107.232 124.319 107.232C124.402 107.232 124.474 107.293 124.484 107.375C124.606 108.304 124.652 109.159 124.524 110.073C124.491 110.309 124.392 110.53 124.24 110.713C124.127 110.849 124.012 110.979 123.893 111.105C123.194 111.847 122.294 111.288 122.929 110.49C123.701 109.454 124.067 108.693 124.153 107.39Z" fill="#1C2B48"/>
<path d="M163.591 114.5C163.794 114.357 164.057 114.339 164.277 114.455C164.436 114.539 164.557 114.685 164.606 114.859C164.664 115.063 164.697 115.186 164.727 115.324C164.797 115.643 164.63 115.969 164.328 116.093C163.671 116.365 163.084 116.502 162.384 116.518C162.218 116.522 162.168 116.311 162.315 116.233C162.369 116.205 162.404 116.148 162.404 116.087C162.404 116.009 162.404 115.93 162.404 115.85C162.404 115.683 162.538 115.547 162.705 115.547C162.873 115.547 163.011 115.411 163.011 115.243C163.011 115.204 163.011 115.165 163.011 115.126C163.011 114.989 163.078 114.86 163.19 114.781C163.323 114.688 163.456 114.594 163.591 114.5Z" fill="#344B64"/>
<path d="M180.968 79.3338C181.102 79.0075 181.471 78.8551 181.804 78.972C182.009 79.0439 182.171 79.2091 182.237 79.4159C182.258 79.4821 182.279 79.5485 182.3 79.6151C182.387 79.8918 182.363 80.1922 182.231 80.4504C182.155 80.5984 182.095 80.7116 182.038 80.8148C181.788 81.2676 181.213 81.432 180.886 81.0306C180.745 80.8563 180.626 80.5607 180.667 80.3396C180.733 79.9753 180.834 79.6608 180.968 79.3338Z" fill="#344C67"/>
<path d="M103.061 72.1641C103.259 71.8387 103.736 71.8606 103.899 72.2043C104.021 72.4617 103.896 72.7732 103.627 72.8676C103.597 72.8781 103.567 72.8885 103.538 72.899C103.342 72.9678 103.199 73.1386 103.167 73.3438C103.107 73.7234 103.047 74.1041 102.985 74.4902C102.951 74.7058 102.715 74.824 102.522 74.7223C102.508 74.7148 102.494 74.7073 102.48 74.6998C102.379 74.6466 102.256 74.6657 102.177 74.7485C101.99 74.9456 101.693 74.7635 101.802 74.5146C102.161 73.694 102.597 72.9296 103.061 72.1641Z" fill="#1F2F4C"/>
<path d="M127.903 90.8263C128.023 90.6938 128.215 90.6582 128.373 90.7415C128.562 90.8405 128.639 91.0737 128.539 91.2613C128.053 92.1713 127.64 92.6249 126.697 93.106C126.628 93.1408 126.576 93.2009 126.553 93.2739C126.552 93.2779 126.551 93.2819 126.549 93.286C126.468 93.5434 126.104 93.5454 126.023 93.288C125.998 93.2081 126.009 93.1189 126.056 93.0492C126.42 92.5038 126.454 92.4653 127.026 91.8204C127.226 91.5916 127.426 91.3628 127.632 91.127C127.722 91.0271 127.812 90.9272 127.903 90.8263Z" fill="#2A3953"/>
<path d="M138.123 115.016C138.123 114.779 138.311 114.587 138.548 114.587C138.804 114.587 139.007 114.811 138.976 115.066C138.917 115.567 138.857 116.069 138.797 116.579C138.759 116.902 138.489 117.146 138.163 117.146C137.808 117.146 137.516 116.858 137.516 116.503C137.516 116.287 137.516 116.07 137.516 115.85C137.516 115.683 137.649 115.547 137.817 115.547C137.984 115.547 138.123 115.411 138.123 115.243C138.123 115.168 138.123 115.092 138.123 115.016Z" fill="#374E68"/>
<path d="M147.116 125.752C147.364 125.578 147.692 125.575 147.94 125.75C148.227 125.951 148.33 126.333 148.18 126.65C148.122 126.771 148.065 126.892 148.007 127.015C147.901 127.238 147.679 127.38 147.432 127.38C147.135 127.38 146.874 127.177 146.806 126.888C146.786 126.803 146.766 126.718 146.745 126.633C146.669 126.312 146.796 125.977 147.066 125.787C147.083 125.775 147.099 125.764 147.116 125.752Z" fill="#374F69"/>
<path d="M115.006 78.6643C114.902 78.4449 115.094 78.2003 115.332 78.2503C115.527 78.2916 115.674 78.3224 115.935 78.3775C116.13 78.4185 116.27 78.588 116.27 78.787C116.27 78.9656 116.382 79.1273 116.551 79.1865C116.686 79.2338 116.821 79.2812 116.957 79.3292C117.081 79.3728 117.149 79.505 117.109 79.6304C117.038 79.8573 116.716 79.8595 116.644 79.6326C116.633 79.5974 116.622 79.5621 116.611 79.5267C116.587 79.4508 116.532 79.3888 116.459 79.3565C116.03 79.1662 115.598 78.9841 115.163 78.8105C115.094 78.783 115.038 78.7315 115.006 78.6643Z" fill="#1D304D"/>
<path d="M99.5059 79.0825C99.6699 78.782 100.089 78.7776 100.272 79.0669C100.394 79.2608 100.36 79.5187 100.188 79.6701C100.177 79.6791 100.167 79.688 100.157 79.6967C99.7595 80.0461 99.2022 79.6522 99.4508 79.1847C99.4689 79.1507 99.4873 79.1166 99.5059 79.0825Z" fill="#374F69"/>
</svg>
