<svg width="1128" height="100" viewBox="0 0 1128 100" fill="none" xmlns="http://www.w3.org/2000/svg">
<g filter="url(#filter0_d_2329_21748)">
<circle cx="73" cy="24" r="20" fill="white"/>
<path d="M93 24C93 35.0457 84.0457 44 73 44C61.9543 44 53 35.0457 53 24C53 12.9543 61.9543 4 73 4C84.0457 4 93 12.9543 93 24ZM55.8811 24C55.8811 33.4545 63.5455 41.1189 73 41.1189C82.4545 41.1189 90.1189 33.4545 90.1189 24C90.1189 14.5455 82.4545 6.88111 73 6.88111C63.5455 6.88111 55.8811 14.5455 55.8811 24Z" fill="white"/>
<path d="M64 33C63.4477 33 63 32.5523 63 32V16C63 15.4477 63.4477 15 64 15H71.4142L73.4142 17H81C81.5523 17 82 17.4477 82 18V21H80V19H72.5858L70.5858 17H65V28.998L66.5 23H83.5L81.1894 32.2425C81.0781 32.6877 80.6781 33 80.2192 33H64ZM80.9384 25H68.0616L66.5616 31H79.4384L80.9384 25Z" fill="#0089CF"/>
<path d="M93 24C93 35.0457 84.0457 44 73 44C61.9543 44 53 35.0457 53 24C53 12.9543 61.9543 4 73 4C84.0457 4 93 12.9543 93 24ZM55.8811 24C55.8811 33.4545 63.5455 41.1189 73 41.1189C82.4545 41.1189 90.1189 33.4545 90.1189 24C90.1189 14.5455 82.4545 6.88111 73 6.88111C63.5455 6.88111 55.8811 14.5455 55.8811 24Z" fill="#0089CF"/>
</g>
<line x1="97" y1="23" x2="328" y2="23" stroke="#0089CF" stroke-width="2"/>
<path d="M21.2186 75V63.08H28.7706V64.52H22.7866V68.376H28.2106V69.816H22.7866V75H21.2186ZM30.3708 75V66.376H31.8588V75H30.3708ZM30.3708 65V63.08H31.8588V65H30.3708ZM34.1676 75V62.888H35.6556V75H34.1676ZM41.9325 75.192C41.1005 75.192 40.3592 74.9947 39.7085 74.6C39.0578 74.2053 38.5458 73.6667 38.1725 72.984C37.7992 72.2907 37.6125 71.5173 37.6125 70.664C37.6125 69.8 37.7938 69.032 38.1565 68.36C38.5298 67.688 39.0312 67.16 39.6605 66.776C40.3005 66.3813 41.0152 66.184 41.8045 66.184C42.4445 66.184 43.0098 66.3013 43.5005 66.536C44.0018 66.76 44.4232 67.0693 44.7645 67.464C45.1165 67.848 45.3832 68.2907 45.5645 68.792C45.7565 69.2827 45.8525 69.7947 45.8525 70.328C45.8525 70.4453 45.8418 70.5787 45.8205 70.728C45.8098 70.8667 45.7938 71 45.7725 71.128H38.7005V69.848H44.9085L44.2045 70.424C44.3005 69.8693 44.2472 69.3733 44.0445 68.936C43.8418 68.4987 43.5432 68.152 43.1485 67.896C42.7538 67.64 42.3058 67.512 41.8045 67.512C41.3032 67.512 40.8445 67.64 40.4285 67.896C40.0125 68.152 39.6872 68.52 39.4525 69C39.2285 69.4693 39.1378 70.0293 39.1805 70.68C39.1378 71.3093 39.2338 71.864 39.4685 72.344C39.7138 72.8133 40.0552 73.1813 40.4925 73.448C40.9405 73.704 41.4258 73.832 41.9485 73.832C42.5245 73.832 43.0098 73.6987 43.4045 73.432C43.7992 73.1653 44.1192 72.824 44.3645 72.408L45.6125 73.048C45.4418 73.4427 45.1752 73.8053 44.8125 74.136C44.4605 74.456 44.0392 74.712 43.5485 74.904C43.0685 75.096 42.5298 75.192 41.9325 75.192ZM55.0543 75.192C54.1903 75.192 53.4223 75.0107 52.7503 74.648C52.0889 74.2853 51.5716 73.7893 51.1983 73.16C50.8356 72.52 50.6543 71.7947 50.6543 70.984V63.08H52.2383V70.952C52.2383 71.496 52.3556 71.9813 52.5903 72.408C52.8356 72.824 53.1663 73.1493 53.5823 73.384C54.0089 73.6187 54.4996 73.736 55.0543 73.736C55.6089 73.736 56.0943 73.6187 56.5103 73.384C56.9369 73.1493 57.2676 72.824 57.5023 72.408C57.7476 71.9813 57.8703 71.496 57.8703 70.952V63.08H59.4543V70.984C59.4543 71.7947 59.2676 72.52 58.8943 73.16C58.5316 73.7893 58.0196 74.2853 57.3583 74.648C56.6969 75.0107 55.9289 75.192 55.0543 75.192ZM61.8551 78.2V66.376H63.3111V68.232L63.1191 67.864C63.4391 67.352 63.8765 66.9467 64.4311 66.648C64.9858 66.3387 65.6205 66.184 66.3351 66.184C67.1458 66.184 67.8711 66.3813 68.5111 66.776C69.1618 67.1707 69.6738 67.7093 70.0471 68.392C70.4205 69.064 70.6071 69.832 70.6071 70.696C70.6071 71.5387 70.4205 72.3013 70.0471 72.984C69.6738 73.6667 69.1618 74.2053 68.5111 74.6C67.8711 74.9947 67.1405 75.192 66.3191 75.192C65.6258 75.192 64.9911 75.0373 64.4151 74.728C63.8498 74.4187 63.4125 73.9813 63.1031 73.416L63.3431 73.16V78.2H61.8551ZM66.2071 73.752C66.7511 73.752 67.2365 73.6187 67.6631 73.352C68.0898 73.0853 68.4205 72.7227 68.6551 72.264C68.9005 71.7947 69.0231 71.272 69.0231 70.696C69.0231 70.0987 68.9005 69.576 68.6551 69.128C68.4205 68.6693 68.0898 68.3067 67.6631 68.04C67.2365 67.7627 66.7511 67.624 66.2071 67.624C65.6631 67.624 65.1725 67.7573 64.7351 68.024C64.3085 68.2907 63.9671 68.6587 63.7111 69.128C63.4658 69.5867 63.3431 70.1093 63.3431 70.696C63.3431 71.272 63.4658 71.7947 63.7111 72.264C63.9671 72.7227 64.3085 73.0853 64.7351 73.352C65.1725 73.6187 65.6631 73.752 66.2071 73.752ZM72.5583 75V62.888H74.0463V75H72.5583ZM80.4511 75.192C79.6191 75.192 78.8671 75 78.1951 74.616C77.5231 74.2213 76.9898 73.6827 76.5951 73C76.2005 72.3173 76.0031 71.544 76.0031 70.68C76.0031 69.816 76.1951 69.048 76.5791 68.376C76.9738 67.704 77.5071 67.1707 78.1791 66.776C78.8511 66.3813 79.6085 66.184 80.4511 66.184C81.2831 66.184 82.0351 66.3813 82.7071 66.776C83.3791 67.16 83.9071 67.688 84.2911 68.36C84.6858 69.032 84.8831 69.8053 84.8831 70.68C84.8831 71.5547 84.6805 72.3333 84.2751 73.016C83.8698 73.688 83.3311 74.2213 82.6591 74.616C81.9978 75 81.2618 75.192 80.4511 75.192ZM80.4511 73.752C80.9845 73.752 81.4645 73.6187 81.8911 73.352C82.3285 73.0853 82.6698 72.7173 82.9151 72.248C83.1711 71.7787 83.2991 71.256 83.2991 70.68C83.2991 70.0933 83.1711 69.576 82.9151 69.128C82.6698 68.6693 82.3285 68.3067 81.8911 68.04C81.4645 67.7627 80.9845 67.624 80.4511 67.624C79.9071 67.624 79.4165 67.7627 78.9791 68.04C78.5525 68.3067 78.2111 68.6693 77.9551 69.128C77.6991 69.576 77.5711 70.0933 77.5711 70.68C77.5711 71.256 77.6991 71.7787 77.9551 72.248C78.2111 72.7173 78.5525 73.0853 78.9791 73.352C79.4165 73.6187 79.9071 73.752 80.4511 73.752ZM89.3519 75.192C88.7865 75.192 88.2852 75.0907 87.8479 74.888C87.4212 74.6747 87.0852 74.3867 86.8399 74.024C86.5945 73.6507 86.4719 73.224 86.4719 72.744C86.4719 72.2853 86.5679 71.8747 86.7599 71.512C86.9625 71.1387 87.2719 70.824 87.6879 70.568C88.1145 70.312 88.6479 70.1307 89.2879 70.024L92.4879 69.496V70.744L89.6239 71.224C89.0692 71.32 88.6639 71.496 88.4079 71.752C88.1625 72.008 88.0399 72.3227 88.0399 72.696C88.0399 73.048 88.1785 73.3413 88.4559 73.576C88.7439 73.8107 89.1012 73.928 89.5279 73.928C90.0719 73.928 90.5412 73.816 90.9359 73.592C91.3412 73.3573 91.6559 73.0427 91.8799 72.648C92.1145 72.2533 92.2319 71.816 92.2319 71.336V69.144C92.2319 68.6747 92.0559 68.296 91.7039 68.008C91.3625 67.7093 90.9092 67.56 90.3439 67.56C89.8532 67.56 89.4159 67.688 89.0319 67.944C88.6585 68.1893 88.3812 68.52 88.1999 68.936L86.9039 68.264C87.0639 67.8693 87.3199 67.5173 87.6719 67.208C88.0239 66.888 88.4345 66.6373 88.9039 66.456C89.3732 66.2747 89.8639 66.184 90.3759 66.184C91.0372 66.184 91.6185 66.312 92.1199 66.568C92.6212 66.8133 93.0105 67.16 93.2879 67.608C93.5759 68.0453 93.7199 68.5573 93.7199 69.144V75H92.2639V73.368L92.5359 73.464C92.3545 73.8053 92.1092 74.104 91.7999 74.36C91.4905 74.616 91.1279 74.8187 90.7119 74.968C90.2959 75.1173 89.8425 75.192 89.3519 75.192ZM99.947 75.192C99.1363 75.192 98.4057 74.9947 97.755 74.6C97.115 74.2053 96.6083 73.6667 96.235 72.984C95.8617 72.3013 95.675 71.5387 95.675 70.696C95.675 69.832 95.8617 69.064 96.235 68.392C96.6083 67.7093 97.115 67.1707 97.755 66.776C98.4057 66.3813 99.1363 66.184 99.947 66.184C100.662 66.184 101.296 66.3387 101.851 66.648C102.406 66.9467 102.843 67.352 103.163 67.864L102.923 68.232V62.888H104.427V75H102.971V73.16L103.163 73.416C102.864 73.9813 102.427 74.4187 101.851 74.728C101.286 75.0373 100.651 75.192 99.947 75.192ZM100.075 73.752C100.619 73.752 101.104 73.6187 101.531 73.352C101.958 73.0853 102.294 72.7227 102.539 72.264C102.795 71.7947 102.923 71.272 102.923 70.696C102.923 70.1093 102.795 69.5867 102.539 69.128C102.294 68.6587 101.958 68.2907 101.531 68.024C101.104 67.7573 100.619 67.624 100.075 67.624C99.5417 67.624 99.0563 67.7627 98.619 68.04C98.1923 68.3067 97.8563 68.6693 97.611 69.128C97.3657 69.576 97.243 70.0987 97.243 70.696C97.243 71.272 97.3657 71.7947 97.611 72.264C97.8563 72.7227 98.1923 73.0853 98.619 73.352C99.0457 73.6187 99.531 73.752 100.075 73.752ZM110.698 75.192C109.866 75.192 109.125 74.9947 108.474 74.6C107.823 74.2053 107.311 73.6667 106.938 72.984C106.565 72.2907 106.378 71.5173 106.378 70.664C106.378 69.8 106.559 69.032 106.922 68.36C107.295 67.688 107.797 67.16 108.426 66.776C109.066 66.3813 109.781 66.184 110.57 66.184C111.21 66.184 111.775 66.3013 112.266 66.536C112.767 66.76 113.189 67.0693 113.53 67.464C113.882 67.848 114.149 68.2907 114.33 68.792C114.522 69.2827 114.618 69.7947 114.618 70.328C114.618 70.4453 114.607 70.5787 114.586 70.728C114.575 70.8667 114.559 71 114.538 71.128H107.466V69.848H113.674L112.97 70.424C113.066 69.8693 113.013 69.3733 112.81 68.936C112.607 68.4987 112.309 68.152 111.914 67.896C111.519 67.64 111.071 67.512 110.57 67.512C110.069 67.512 109.61 67.64 109.194 67.896C108.778 68.152 108.453 68.52 108.218 69C107.994 69.4693 107.903 70.0293 107.946 70.68C107.903 71.3093 107.999 71.864 108.234 72.344C108.479 72.8133 108.821 73.1813 109.258 73.448C109.706 73.704 110.191 73.832 110.714 73.832C111.29 73.832 111.775 73.6987 112.17 73.432C112.565 73.1653 112.885 72.824 113.13 72.408L114.378 73.048C114.207 73.4427 113.941 73.8053 113.578 74.136C113.226 74.456 112.805 74.712 112.314 74.904C111.834 75.096 111.295 75.192 110.698 75.192ZM120.478 75.192C119.668 75.192 118.937 74.9947 118.286 74.6C117.646 74.2053 117.14 73.6667 116.766 72.984C116.393 72.3013 116.206 71.5387 116.206 70.696C116.206 69.832 116.393 69.064 116.766 68.392C117.14 67.7093 117.646 67.1707 118.286 66.776C118.937 66.3813 119.668 66.184 120.478 66.184C121.193 66.184 121.828 66.3387 122.382 66.648C122.937 66.9467 123.374 67.352 123.694 67.864L123.454 68.232V62.888H124.958V75H123.502V73.16L123.694 73.416C123.396 73.9813 122.958 74.4187 122.382 74.728C121.817 75.0373 121.182 75.192 120.478 75.192ZM120.606 73.752C121.15 73.752 121.636 73.6187 122.062 73.352C122.489 73.0853 122.825 72.7227 123.07 72.264C123.326 71.7947 123.454 71.272 123.454 70.696C123.454 70.1093 123.326 69.5867 123.07 69.128C122.825 68.6587 122.489 68.2907 122.062 68.024C121.636 67.7573 121.15 67.624 120.606 67.624C120.073 67.624 119.588 67.7627 119.15 68.04C118.724 68.3067 118.388 68.6693 118.142 69.128C117.897 69.576 117.774 70.0987 117.774 70.696C117.774 71.272 117.897 71.7947 118.142 72.264C118.388 72.7227 118.724 73.0853 119.15 73.352C119.577 73.6187 120.062 73.752 120.606 73.752Z" fill="#010814"/>
<path d="M16.0005 96V95.3L18.9125 92.094C19.4818 91.4687 19.9438 90.9507 20.2985 90.54C20.6625 90.1293 20.9331 89.756 21.1105 89.42C21.2878 89.084 21.3765 88.72 21.3765 88.328C21.3765 87.7027 21.1945 87.222 20.8305 86.886C20.4665 86.55 19.9811 86.382 19.3745 86.382C18.7491 86.382 18.2218 86.5593 17.7925 86.914C17.3725 87.2687 17.0878 87.7633 16.9385 88.398L15.9165 88.174C16.0378 87.6047 16.2571 87.1147 16.5745 86.704C16.8918 86.2933 17.2885 85.976 17.7645 85.752C18.2405 85.5187 18.7725 85.402 19.3605 85.402C19.9858 85.402 20.5318 85.528 20.9985 85.78C21.4651 86.032 21.8291 86.3773 22.0905 86.816C22.3611 87.2547 22.4965 87.7587 22.4965 88.328C22.4965 88.72 22.4125 89.098 22.2445 89.462C22.0858 89.826 21.8431 90.218 21.5165 90.638C21.1898 91.058 20.7698 91.548 20.2565 92.108L17.6105 95.02H22.7765V96H16.0005ZM24.395 96V95.3L27.307 92.094C27.8763 91.4687 28.3383 90.9507 28.693 90.54C29.057 90.1293 29.3277 89.756 29.505 89.42C29.6823 89.084 29.771 88.72 29.771 88.328C29.771 87.7027 29.589 87.222 29.225 86.886C28.861 86.55 28.3757 86.382 27.769 86.382C27.1437 86.382 26.6163 86.5593 26.187 86.914C25.767 87.2687 25.4823 87.7633 25.333 88.398L24.311 88.174C24.4323 87.6047 24.6517 87.1147 24.969 86.704C25.2863 86.2933 25.683 85.976 26.159 85.752C26.635 85.5187 27.167 85.402 27.755 85.402C28.3803 85.402 28.9263 85.528 29.393 85.78C29.8597 86.032 30.2237 86.3773 30.485 86.816C30.7557 87.2547 30.891 87.7587 30.891 88.328C30.891 88.72 30.807 89.098 30.639 89.462C30.4803 89.826 30.2377 90.218 29.911 90.638C29.5843 91.058 29.1643 91.548 28.651 92.108L26.005 95.02H31.171V96H24.395ZM35.5884 96V85.57H36.5684L42.6864 94.348H42.3084V85.57H43.4284V96H42.4484L36.3304 87.166H36.7084V96H35.5884ZM49.257 96.168C48.5477 96.168 47.9037 96 47.325 95.664C46.7464 95.3187 46.2844 94.852 45.939 94.264C45.603 93.6667 45.435 92.99 45.435 92.234C45.435 91.4873 45.603 90.82 45.939 90.232C46.275 89.644 46.7277 89.182 47.297 88.846C47.8757 88.5007 48.529 88.328 49.257 88.328C49.985 88.328 50.6337 88.496 51.203 88.832C51.7817 89.168 52.2344 89.63 52.561 90.218C52.897 90.806 53.065 91.478 53.065 92.234C53.065 92.9993 52.8924 93.6807 52.547 94.278C52.2017 94.866 51.7397 95.328 51.161 95.664C50.5917 96 49.957 96.168 49.257 96.168ZM49.257 95.118C49.761 95.118 50.2137 94.992 50.615 94.74C51.0257 94.488 51.3477 94.1427 51.581 93.704C51.8237 93.2653 51.945 92.7753 51.945 92.234C51.945 91.6927 51.8237 91.2073 51.581 90.778C51.3477 90.3487 51.0257 90.008 50.615 89.756C50.2137 89.504 49.761 89.378 49.257 89.378C48.753 89.378 48.2957 89.504 47.885 89.756C47.4837 90.008 47.1617 90.3487 46.919 90.778C46.6764 91.2073 46.555 91.6927 46.555 92.234C46.555 92.7753 46.6764 93.2653 46.919 93.704C47.1617 94.1427 47.4837 94.488 47.885 94.74C48.2957 94.992 48.753 95.118 49.257 95.118ZM56.7821 96L53.8561 88.496H55.0321L57.4961 95.076H57.1181L59.5961 88.496H60.7861L57.8321 96H56.7821ZM61.494 97.82V97.33C61.774 97.2553 61.9794 97.1107 62.11 96.896C62.2407 96.6813 62.306 96.3827 62.306 96H61.774V94.46H62.894V95.636C62.894 96.2427 62.7774 96.728 62.544 97.092C62.3107 97.4653 61.9607 97.708 61.494 97.82ZM67.3384 96V95.3L70.2504 92.094C70.8197 91.4687 71.2817 90.9507 71.6364 90.54C72.0004 90.1293 72.271 89.756 72.4484 89.42C72.6257 89.084 72.7144 88.72 72.7144 88.328C72.7144 87.7027 72.5324 87.222 72.1684 86.886C71.8044 86.55 71.319 86.382 70.7124 86.382C70.087 86.382 69.5597 86.5593 69.1304 86.914C68.7104 87.2687 68.4257 87.7633 68.2764 88.398L67.2544 88.174C67.3757 87.6047 67.595 87.1147 67.9124 86.704C68.2297 86.2933 68.6264 85.976 69.1024 85.752C69.5784 85.5187 70.1104 85.402 70.6984 85.402C71.3237 85.402 71.8697 85.528 72.3364 85.78C72.803 86.032 73.167 86.3773 73.4284 86.816C73.699 87.2547 73.8344 87.7587 73.8344 88.328C73.8344 88.72 73.7504 89.098 73.5824 89.462C73.4237 89.826 73.181 90.218 72.8544 90.638C72.5277 91.058 72.1077 91.548 71.5944 92.108L68.9484 95.02H74.1144V96H67.3384ZM80.0589 96.168C79.2376 96.168 78.5142 95.944 77.8889 95.496C77.2729 95.0387 76.7922 94.4087 76.4469 93.606C76.1016 92.794 75.9289 91.8513 75.9289 90.778C75.9289 89.7047 76.1016 88.7667 76.4469 87.964C76.7922 87.152 77.2729 86.522 77.8889 86.074C78.5049 85.626 79.2236 85.402 80.0449 85.402C80.8662 85.402 81.5849 85.626 82.2009 86.074C82.8169 86.522 83.2976 87.152 83.6429 87.964C83.9882 88.7667 84.1609 89.7047 84.1609 90.778C84.1609 91.8513 83.9882 92.794 83.6429 93.606C83.3069 94.418 82.8309 95.048 82.2149 95.496C81.5989 95.944 80.8802 96.168 80.0589 96.168ZM80.0589 95.118C80.6562 95.118 81.1789 94.936 81.6269 94.572C82.0749 94.208 82.4249 93.704 82.6769 93.06C82.9289 92.4067 83.0549 91.646 83.0549 90.778C83.0549 89.91 82.9289 89.154 82.6769 88.51C82.4249 87.8567 82.0749 87.3527 81.6269 86.998C81.1789 86.634 80.6516 86.452 80.0449 86.452C79.4476 86.452 78.9249 86.634 78.4769 86.998C78.0289 87.3527 77.6789 87.8567 77.4269 88.51C77.1749 89.154 77.0489 89.91 77.0489 90.778C77.0489 91.6367 77.1749 92.3927 77.4269 93.046C77.6789 93.6993 78.0289 94.208 78.4769 94.572C78.9342 94.936 79.4616 95.118 80.0589 95.118ZM85.9868 96V95.3L88.8988 92.094C89.4681 91.4687 89.9301 90.9507 90.2848 90.54C90.6488 90.1293 90.9195 89.756 91.0968 89.42C91.2741 89.084 91.3628 88.72 91.3628 88.328C91.3628 87.7027 91.1808 87.222 90.8168 86.886C90.4528 86.55 89.9675 86.382 89.3608 86.382C88.7355 86.382 88.2081 86.5593 87.7788 86.914C87.3588 87.2687 87.0741 87.7633 86.9248 88.398L85.9028 88.174C86.0241 87.6047 86.2435 87.1147 86.5608 86.704C86.8781 86.2933 87.2748 85.976 87.7508 85.752C88.2268 85.5187 88.7588 85.402 89.3468 85.402C89.9721 85.402 90.5181 85.528 90.9848 85.78C91.4515 86.032 91.8155 86.3773 92.0768 86.816C92.3475 87.2547 92.4828 87.7587 92.4828 88.328C92.4828 88.72 92.3988 89.098 92.2308 89.462C92.0721 89.826 91.8295 90.218 91.5028 90.638C91.1761 91.058 90.7561 91.548 90.2428 92.108L87.5968 95.02H92.7628V96H85.9868ZM99.3826 96V93.536H94.0766V92.626L99.3826 85.57H100.363V92.626H101.637V93.536H100.363V96H99.3826ZM94.9306 93.032L94.8046 92.626H99.3826V86.536L99.7326 86.634L94.9306 93.032ZM106.66 96L110.286 91.254L110.496 91.128C110.356 91.352 110.193 91.5293 110.006 91.66C109.819 91.7907 109.614 91.884 109.39 91.94C109.166 91.996 108.919 92.024 108.648 92.024C108.041 92.024 107.495 91.884 107.01 91.604C106.525 91.3147 106.137 90.9227 105.848 90.428C105.568 89.924 105.428 89.35 105.428 88.706C105.428 88.0713 105.573 87.5067 105.862 87.012C106.161 86.5173 106.562 86.1253 107.066 85.836C107.579 85.5467 108.153 85.402 108.788 85.402C109.441 85.402 110.02 85.5513 110.524 85.85C111.028 86.1393 111.425 86.5453 111.714 87.068C112.003 87.5813 112.148 88.174 112.148 88.846C112.148 89.2193 112.101 89.588 112.008 89.952C111.924 90.316 111.793 90.6753 111.616 91.03C111.439 91.3847 111.215 91.7393 110.944 92.094L108.004 96H106.66ZM108.788 91.016C109.227 91.016 109.614 90.918 109.95 90.722C110.286 90.5167 110.547 90.2413 110.734 89.896C110.93 89.5413 111.028 89.1447 111.028 88.706C111.028 88.258 110.93 87.8613 110.734 87.516C110.538 87.1613 110.272 86.886 109.936 86.69C109.6 86.4847 109.217 86.382 108.788 86.382C108.359 86.382 107.976 86.4847 107.64 86.69C107.304 86.886 107.038 87.1613 106.842 87.516C106.646 87.8613 106.548 88.258 106.548 88.706C106.548 89.1447 106.641 89.5413 106.828 89.896C107.024 90.2413 107.29 90.5167 107.626 90.722C107.971 90.918 108.359 91.016 108.788 91.016ZM114.425 96V94.46H115.545V96H114.425ZM114.425 90.036V88.496H115.545V90.036H114.425ZM119.523 96V86.55H117.563V85.57H120.643V96H119.523ZM126.413 96.168C125.871 96.168 125.367 96.0747 124.901 95.888C124.443 95.7013 124.042 95.4353 123.697 95.09C123.351 94.7447 123.09 94.334 122.913 93.858L123.767 93.438C123.981 93.9793 124.331 94.4087 124.817 94.726C125.311 95.034 125.843 95.188 126.413 95.188C126.87 95.188 127.276 95.0807 127.631 94.866C127.995 94.6513 128.279 94.362 128.485 93.998C128.69 93.6247 128.793 93.2093 128.793 92.752C128.793 92.276 128.685 91.856 128.471 91.492C128.265 91.128 127.985 90.8433 127.631 90.638C127.276 90.4233 126.875 90.316 126.427 90.316C125.969 90.316 125.545 90.4233 125.153 90.638C124.77 90.8433 124.49 91.0953 124.313 91.394L123.431 91.226L124.215 85.57H129.493V86.55H124.621L125.055 86.172L124.425 90.624L123.991 90.428C124.317 90.0267 124.7 89.742 125.139 89.574C125.577 89.3967 126.025 89.308 126.483 89.308C127.155 89.308 127.747 89.4667 128.261 89.784C128.774 90.092 129.175 90.5073 129.465 91.03C129.763 91.5433 129.913 92.1173 129.913 92.752C129.913 93.396 129.759 93.9793 129.451 94.502C129.152 95.0153 128.737 95.4213 128.205 95.72C127.682 96.0187 127.085 96.168 126.413 96.168Z" fill="#353637"/>
<g filter="url(#filter1_d_2329_21748)">
<circle cx="400.333" cy="24" r="20" fill="white"/>
<path d="M420.333 24C420.333 35.0457 411.379 44 400.333 44C389.288 44 380.333 35.0457 380.333 24C380.333 12.9543 389.288 4 400.333 4C411.379 4 420.333 12.9543 420.333 24ZM383.214 24C383.214 33.4545 390.879 41.1189 400.333 41.1189C409.788 41.1189 417.452 33.4545 417.452 24C417.452 14.5455 409.788 6.88111 400.333 6.88111C390.879 6.88111 383.214 14.5455 383.214 24Z" fill="white"/>
<path d="M396.583 17.4375H394.708C394.211 17.4375 393.734 17.635 393.382 17.9867C393.031 18.3383 392.833 18.8152 392.833 19.3125V30.5625C392.833 31.0598 393.031 31.5367 393.382 31.8883C393.734 32.24 394.211 32.4375 394.708 32.4375H400.049" stroke="#0089CF" stroke-width="1.5" stroke-linecap="round" stroke-linejoin="round"/>
<path d="M405.958 25.875V29.625H409.708" stroke="#0089CF" stroke-width="1.5" stroke-linecap="round" stroke-linejoin="round"/>
<path d="M405.958 23.0625V19.3125C405.958 18.8152 405.761 18.3383 405.409 17.9867C405.058 17.635 404.581 17.4375 404.083 17.4375H402.208" stroke="#0089CF" stroke-width="1.5" stroke-linecap="round" stroke-linejoin="round"/>
<path d="M396.583 17.4375C396.583 16.9402 396.781 16.4633 397.132 16.1117C397.484 15.76 397.961 15.5625 398.458 15.5625H400.333C400.831 15.5625 401.308 15.76 401.659 16.1117C402.011 16.4633 402.208 16.9402 402.208 17.4375C402.208 17.9348 402.011 18.4117 401.659 18.7633C401.308 19.115 400.831 19.3125 400.333 19.3125H398.458C397.961 19.3125 397.484 19.115 397.132 18.7633C396.781 18.4117 396.583 17.9348 396.583 17.4375Z" stroke="#0089CF" stroke-width="1.5" stroke-linecap="round" stroke-linejoin="round"/>
<path d="M402.208 29.625C402.208 30.6196 402.603 31.5734 403.307 32.2767C404.01 32.9799 404.964 33.375 405.958 33.375C406.953 33.375 407.907 32.9799 408.61 32.2767C409.313 31.5734 409.708 30.6196 409.708 29.625C409.708 28.6304 409.313 27.6766 408.61 26.9733C407.907 26.2701 406.953 25.875 405.958 25.875C404.964 25.875 404.01 26.2701 403.307 26.9733C402.603 27.6766 402.208 28.6304 402.208 29.625Z" stroke="#0089CF" stroke-width="1.5" stroke-linecap="round" stroke-linejoin="round"/>
<path d="M396.583 23.0625H400.333" stroke="#0089CF" stroke-width="1.5" stroke-linecap="round" stroke-linejoin="round"/>
<path d="M396.583 26.8125H399.396" stroke="#0089CF" stroke-width="1.5" stroke-linecap="round" stroke-linejoin="round"/>
<path d="M420.333 24C420.333 35.0457 411.379 44 400.333 44C389.288 44 380.333 35.0457 380.333 24C380.333 12.9543 389.288 4 400.333 4C411.379 4 420.333 12.9543 420.333 24ZM383.214 24C383.214 33.4545 390.879 41.1189 400.333 41.1189C409.788 41.1189 417.452 33.4545 417.452 24C417.452 14.5455 409.788 6.88111 400.333 6.88111C390.879 6.88111 383.214 14.5455 383.214 24Z" fill="#0089CF"/>
</g>
<line x1="424" y1="23" x2="655" y2="23" stroke="#0089CF" stroke-width="2"/>
<line x1="327.333" y1="23" x2="376.333" y2="23" stroke="#0089CF" stroke-width="2"/>
<path d="M345.544 75V63.08H353.096V64.52H347.112V68.376H352.536V69.816H347.112V75H345.544ZM354.696 75V66.376H356.184V75H354.696ZM354.696 65V63.08H356.184V65H354.696ZM358.493 75V62.888H359.981V75H358.493ZM366.258 75.192C365.426 75.192 364.685 74.9947 364.034 74.6C363.383 74.2053 362.871 73.6667 362.498 72.984C362.125 72.2907 361.938 71.5173 361.938 70.664C361.938 69.8 362.119 69.032 362.482 68.36C362.855 67.688 363.357 67.16 363.986 66.776C364.626 66.3813 365.341 66.184 366.13 66.184C366.77 66.184 367.335 66.3013 367.826 66.536C368.327 66.76 368.749 67.0693 369.09 67.464C369.442 67.848 369.709 68.2907 369.89 68.792C370.082 69.2827 370.178 69.7947 370.178 70.328C370.178 70.4453 370.167 70.5787 370.146 70.728C370.135 70.8667 370.119 71 370.098 71.128H363.026V69.848H369.234L368.53 70.424C368.626 69.8693 368.573 69.3733 368.37 68.936C368.167 68.4987 367.869 68.152 367.474 67.896C367.079 67.64 366.631 67.512 366.13 67.512C365.629 67.512 365.17 67.64 364.754 67.896C364.338 68.152 364.013 68.52 363.778 69C363.554 69.4693 363.463 70.0293 363.506 70.68C363.463 71.3093 363.559 71.864 363.794 72.344C364.039 72.8133 364.381 73.1813 364.818 73.448C365.266 73.704 365.751 73.832 366.274 73.832C366.85 73.832 367.335 73.6987 367.73 73.432C368.125 73.1653 368.445 72.824 368.69 72.408L369.938 73.048C369.767 73.4427 369.501 73.8053 369.138 74.136C368.786 74.456 368.365 74.712 367.874 74.904C367.394 75.096 366.855 75.192 366.258 75.192ZM375.06 75V63.08H379.268C380.057 63.08 380.75 63.2293 381.348 63.528C381.945 63.8267 382.409 64.2533 382.74 64.808C383.081 65.3627 383.252 66.0133 383.252 66.76C383.252 67.5067 383.081 68.1573 382.74 68.712C382.409 69.256 381.945 69.6827 381.348 69.992C380.761 70.2907 380.068 70.44 379.268 70.44H376.628V75H375.06ZM376.628 69H379.316C379.796 69 380.212 68.9093 380.564 68.728C380.916 68.5467 381.188 68.2853 381.38 67.944C381.572 67.6027 381.668 67.208 381.668 66.76C381.668 66.3013 381.572 65.9067 381.38 65.576C381.188 65.2347 380.916 64.9733 380.564 64.792C380.212 64.6107 379.796 64.52 379.316 64.52H376.628V69ZM385.196 75V66.376H386.652V67.96L386.492 67.736C386.695 67.2453 387.004 66.8827 387.42 66.648C387.836 66.4027 388.343 66.28 388.94 66.28H389.468V67.688H388.716C388.108 67.688 387.618 67.88 387.244 68.264C386.871 68.6373 386.684 69.1707 386.684 69.864V75H385.196ZM394.886 75.192C394.054 75.192 393.302 75 392.63 74.616C391.958 74.2213 391.425 73.6827 391.03 73C390.635 72.3173 390.438 71.544 390.438 70.68C390.438 69.816 390.63 69.048 391.014 68.376C391.409 67.704 391.942 67.1707 392.614 66.776C393.286 66.3813 394.043 66.184 394.886 66.184C395.718 66.184 396.47 66.3813 397.142 66.776C397.814 67.16 398.342 67.688 398.726 68.36C399.121 69.032 399.318 69.8053 399.318 70.68C399.318 71.5547 399.115 72.3333 398.71 73.016C398.305 73.688 397.766 74.2213 397.094 74.616C396.433 75 395.697 75.192 394.886 75.192ZM394.886 73.752C395.419 73.752 395.899 73.6187 396.326 73.352C396.763 73.0853 397.105 72.7173 397.35 72.248C397.606 71.7787 397.734 71.256 397.734 70.68C397.734 70.0933 397.606 69.576 397.35 69.128C397.105 68.6693 396.763 68.3067 396.326 68.04C395.899 67.7627 395.419 67.624 394.886 67.624C394.342 67.624 393.851 67.7627 393.414 68.04C392.987 68.3067 392.646 68.6693 392.39 69.128C392.134 69.576 392.006 70.0933 392.006 70.68C392.006 71.256 392.134 71.7787 392.39 72.248C392.646 72.7173 392.987 73.0853 393.414 73.352C393.851 73.6187 394.342 73.752 394.886 73.752ZM405.259 75.192C404.416 75.192 403.664 74.9947 403.003 74.6C402.352 74.2053 401.84 73.6667 401.467 72.984C401.093 72.3013 400.907 71.5333 400.907 70.68C400.907 69.816 401.093 69.048 401.467 68.376C401.84 67.704 402.352 67.1707 403.003 66.776C403.664 66.3813 404.416 66.184 405.259 66.184C405.824 66.184 406.352 66.2853 406.843 66.488C407.333 66.6907 407.765 66.9627 408.139 67.304C408.512 67.6453 408.784 68.0453 408.955 68.504L407.627 69.144C407.424 68.696 407.115 68.3333 406.699 68.056C406.283 67.768 405.803 67.624 405.259 67.624C404.736 67.624 404.261 67.7573 403.835 68.024C403.419 68.2907 403.088 68.6533 402.843 69.112C402.597 69.5707 402.475 70.0987 402.475 70.696C402.475 71.272 402.597 71.7947 402.843 72.264C403.088 72.7227 403.419 73.0853 403.835 73.352C404.261 73.6187 404.736 73.752 405.259 73.752C405.803 73.752 406.283 73.6133 406.699 73.336C407.115 73.048 407.424 72.6693 407.627 72.2L408.955 72.872C408.784 73.32 408.512 73.72 408.139 74.072C407.765 74.4133 407.333 74.6853 406.843 74.888C406.352 75.0907 405.824 75.192 405.259 75.192ZM414.867 75.192C414.035 75.192 413.294 74.9947 412.643 74.6C411.993 74.2053 411.481 73.6667 411.107 72.984C410.734 72.2907 410.547 71.5173 410.547 70.664C410.547 69.8 410.729 69.032 411.091 68.36C411.465 67.688 411.966 67.16 412.595 66.776C413.235 66.3813 413.95 66.184 414.739 66.184C415.379 66.184 415.945 66.3013 416.435 66.536C416.937 66.76 417.358 67.0693 417.699 67.464C418.051 67.848 418.318 68.2907 418.499 68.792C418.691 69.2827 418.787 69.7947 418.787 70.328C418.787 70.4453 418.777 70.5787 418.755 70.728C418.745 70.8667 418.729 71 418.707 71.128H411.635V69.848H417.843L417.139 70.424C417.235 69.8693 417.182 69.3733 416.979 68.936C416.777 68.4987 416.478 68.152 416.083 67.896C415.689 67.64 415.241 67.512 414.739 67.512C414.238 67.512 413.779 67.64 413.363 67.896C412.947 68.152 412.622 68.52 412.387 69C412.163 69.4693 412.073 70.0293 412.115 70.68C412.073 71.3093 412.169 71.864 412.403 72.344C412.649 72.8133 412.99 73.1813 413.427 73.448C413.875 73.704 414.361 73.832 414.883 73.832C415.459 73.832 415.945 73.6987 416.339 73.432C416.734 73.1653 417.054 72.824 417.299 72.408L418.547 73.048C418.377 73.4427 418.11 73.8053 417.747 74.136C417.395 74.456 416.974 74.712 416.483 74.904C416.003 75.096 415.465 75.192 414.867 75.192ZM423.816 75.192C422.952 75.192 422.2 74.9787 421.56 74.552C420.92 74.1253 420.466 73.5493 420.2 72.824L421.384 72.248C421.629 72.76 421.965 73.1653 422.392 73.464C422.818 73.7627 423.293 73.912 423.816 73.912C424.285 73.912 424.674 73.8 424.984 73.576C425.293 73.352 425.448 73.0587 425.448 72.696C425.448 72.44 425.373 72.2373 425.224 72.088C425.085 71.928 424.914 71.8053 424.712 71.72C424.509 71.624 424.322 71.5547 424.152 71.512L422.856 71.144C422.077 70.92 421.506 70.6 421.144 70.184C420.792 69.768 420.616 69.2827 420.616 68.728C420.616 68.216 420.744 67.7733 421 67.4C421.266 67.016 421.624 66.7173 422.072 66.504C422.53 66.2907 423.042 66.184 423.608 66.184C424.365 66.184 425.042 66.376 425.64 66.76C426.248 67.144 426.68 67.6827 426.936 68.376L425.72 68.936C425.528 68.488 425.24 68.136 424.856 67.88C424.472 67.6133 424.04 67.48 423.56 67.48C423.122 67.48 422.776 67.592 422.52 67.816C422.264 68.0293 422.136 68.3013 422.136 68.632C422.136 68.8773 422.2 69.08 422.328 69.24C422.456 69.3893 422.61 69.5067 422.792 69.592C422.973 69.6667 423.149 69.7307 423.32 69.784L424.728 70.2C425.432 70.4027 425.976 70.7173 426.36 71.144C426.754 71.5707 426.952 72.0827 426.952 72.68C426.952 73.16 426.818 73.592 426.552 73.976C426.285 74.36 425.917 74.6587 425.448 74.872C424.978 75.0853 424.434 75.192 423.816 75.192ZM431.987 75.192C431.123 75.192 430.371 74.9787 429.731 74.552C429.091 74.1253 428.638 73.5493 428.371 72.824L429.555 72.248C429.801 72.76 430.137 73.1653 430.563 73.464C430.99 73.7627 431.465 73.912 431.987 73.912C432.457 73.912 432.846 73.8 433.155 73.576C433.465 73.352 433.619 73.0587 433.619 72.696C433.619 72.44 433.545 72.2373 433.395 72.088C433.257 71.928 433.086 71.8053 432.883 71.72C432.681 71.624 432.494 71.5547 432.323 71.512L431.027 71.144C430.249 70.92 429.678 70.6 429.315 70.184C428.963 69.768 428.787 69.2827 428.787 68.728C428.787 68.216 428.915 67.7733 429.171 67.4C429.438 67.016 429.795 66.7173 430.243 66.504C430.702 66.2907 431.214 66.184 431.779 66.184C432.537 66.184 433.214 66.376 433.811 66.76C434.419 67.144 434.851 67.6827 435.107 68.376L433.891 68.936C433.699 68.488 433.411 68.136 433.027 67.88C432.643 67.6133 432.211 67.48 431.731 67.48C431.294 67.48 430.947 67.592 430.691 67.816C430.435 68.0293 430.307 68.3013 430.307 68.632C430.307 68.8773 430.371 69.08 430.499 69.24C430.627 69.3893 430.782 69.5067 430.963 69.592C431.145 69.6667 431.321 69.7307 431.491 69.784L432.899 70.2C433.603 70.4027 434.147 70.7173 434.531 71.144C434.926 71.5707 435.123 72.0827 435.123 72.68C435.123 73.16 434.99 73.592 434.723 73.976C434.457 74.36 434.089 74.6587 433.619 74.872C433.15 75.0853 432.606 75.192 431.987 75.192ZM441.039 75.192C440.207 75.192 439.466 74.9947 438.815 74.6C438.165 74.2053 437.653 73.6667 437.279 72.984C436.906 72.2907 436.719 71.5173 436.719 70.664C436.719 69.8 436.901 69.032 437.263 68.36C437.637 67.688 438.138 67.16 438.767 66.776C439.407 66.3813 440.122 66.184 440.911 66.184C441.551 66.184 442.117 66.3013 442.607 66.536C443.109 66.76 443.53 67.0693 443.871 67.464C444.223 67.848 444.49 68.2907 444.671 68.792C444.863 69.2827 444.959 69.7947 444.959 70.328C444.959 70.4453 444.949 70.5787 444.927 70.728C444.917 70.8667 444.901 71 444.879 71.128H437.807V69.848H444.015L443.311 70.424C443.407 69.8693 443.354 69.3733 443.151 68.936C442.949 68.4987 442.65 68.152 442.255 67.896C441.861 67.64 441.413 67.512 440.911 67.512C440.41 67.512 439.951 67.64 439.535 67.896C439.119 68.152 438.794 68.52 438.559 69C438.335 69.4693 438.245 70.0293 438.287 70.68C438.245 71.3093 438.341 71.864 438.575 72.344C438.821 72.8133 439.162 73.1813 439.599 73.448C440.047 73.704 440.533 73.832 441.055 73.832C441.631 73.832 442.117 73.6987 442.511 73.432C442.906 73.1653 443.226 72.824 443.471 72.408L444.719 73.048C444.549 73.4427 444.282 73.8053 443.919 74.136C443.567 74.456 443.146 74.712 442.655 74.904C442.175 75.096 441.637 75.192 441.039 75.192ZM450.819 75.192C450.009 75.192 449.278 74.9947 448.627 74.6C447.987 74.2053 447.481 73.6667 447.107 72.984C446.734 72.3013 446.547 71.5387 446.547 70.696C446.547 69.832 446.734 69.064 447.107 68.392C447.481 67.7093 447.987 67.1707 448.627 66.776C449.278 66.3813 450.009 66.184 450.819 66.184C451.534 66.184 452.169 66.3387 452.723 66.648C453.278 66.9467 453.715 67.352 454.035 67.864L453.795 68.232V62.888H455.299V75H453.843V73.16L454.035 73.416C453.737 73.9813 453.299 74.4187 452.723 74.728C452.158 75.0373 451.523 75.192 450.819 75.192ZM450.947 73.752C451.491 73.752 451.977 73.6187 452.403 73.352C452.83 73.0853 453.166 72.7227 453.411 72.264C453.667 71.7947 453.795 71.272 453.795 70.696C453.795 70.1093 453.667 69.5867 453.411 69.128C453.166 68.6587 452.83 68.2907 452.403 68.024C451.977 67.7573 451.491 67.624 450.947 67.624C450.414 67.624 449.929 67.7627 449.491 68.04C449.065 68.3067 448.729 68.6693 448.483 69.128C448.238 69.576 448.115 70.0987 448.115 70.696C448.115 71.272 448.238 71.7947 448.483 72.264C448.729 72.7227 449.065 73.0853 449.491 73.352C449.918 73.6187 450.403 73.752 450.947 73.752Z" fill="#010814"/>
<path d="M336.443 96V95.3L339.355 92.094C339.924 91.4687 340.386 90.9507 340.741 90.54C341.105 90.1293 341.376 89.756 341.553 89.42C341.73 89.084 341.819 88.72 341.819 88.328C341.819 87.7027 341.637 87.222 341.273 86.886C340.909 86.55 340.424 86.382 339.817 86.382C339.192 86.382 338.664 86.5593 338.235 86.914C337.815 87.2687 337.53 87.7633 337.381 88.398L336.359 88.174C336.48 87.6047 336.7 87.1147 337.017 86.704C337.334 86.2933 337.731 85.976 338.207 85.752C338.683 85.5187 339.215 85.402 339.803 85.402C340.428 85.402 340.974 85.528 341.441 85.78C341.908 86.032 342.272 86.3773 342.533 86.816C342.804 87.2547 342.939 87.7587 342.939 88.328C342.939 88.72 342.855 89.098 342.687 89.462C342.528 89.826 342.286 90.218 341.959 90.638C341.632 91.058 341.212 91.548 340.699 92.108L338.053 95.02H343.219V96H336.443ZM344.838 96V95.3L347.75 92.094C348.319 91.4687 348.781 90.9507 349.136 90.54C349.5 90.1293 349.77 89.756 349.948 89.42C350.125 89.084 350.214 88.72 350.214 88.328C350.214 87.7027 350.032 87.222 349.668 86.886C349.304 86.55 348.818 86.382 348.212 86.382C347.586 86.382 347.059 86.5593 346.63 86.914C346.21 87.2687 345.925 87.7633 345.776 88.398L344.754 88.174C344.875 87.6047 345.094 87.1147 345.412 86.704C345.729 86.2933 346.126 85.976 346.602 85.752C347.078 85.5187 347.61 85.402 348.198 85.402C348.823 85.402 349.369 85.528 349.836 85.78C350.302 86.032 350.666 86.3773 350.928 86.816C351.198 87.2547 351.334 87.7587 351.334 88.328C351.334 88.72 351.25 89.098 351.082 89.462C350.923 89.826 350.68 90.218 350.354 90.638C350.027 91.058 349.607 91.548 349.094 92.108L346.448 95.02H351.614V96H344.838ZM356.031 96V85.57H357.011L363.129 94.348H362.751V85.57H363.871V96H362.891L356.773 87.166H357.151V96H356.031ZM369.7 96.168C368.99 96.168 368.346 96 367.768 95.664C367.189 95.3187 366.727 94.852 366.382 94.264C366.046 93.6667 365.878 92.99 365.878 92.234C365.878 91.4873 366.046 90.82 366.382 90.232C366.718 89.644 367.17 89.182 367.74 88.846C368.318 88.5007 368.972 88.328 369.7 88.328C370.428 88.328 371.076 88.496 371.646 88.832C372.224 89.168 372.677 89.63 373.004 90.218C373.34 90.806 373.508 91.478 373.508 92.234C373.508 92.9993 373.335 93.6807 372.99 94.278C372.644 94.866 372.182 95.328 371.604 95.664C371.034 96 370.4 96.168 369.7 96.168ZM369.7 95.118C370.204 95.118 370.656 94.992 371.058 94.74C371.468 94.488 371.79 94.1427 372.024 93.704C372.266 93.2653 372.388 92.7753 372.388 92.234C372.388 91.6927 372.266 91.2073 372.024 90.778C371.79 90.3487 371.468 90.008 371.058 89.756C370.656 89.504 370.204 89.378 369.7 89.378C369.196 89.378 368.738 89.504 368.328 89.756C367.926 90.008 367.604 90.3487 367.362 90.778C367.119 91.2073 366.998 91.6927 366.998 92.234C366.998 92.7753 367.119 93.2653 367.362 93.704C367.604 94.1427 367.926 94.488 368.328 94.74C368.738 94.992 369.196 95.118 369.7 95.118ZM377.225 96L374.299 88.496H375.475L377.939 95.076H377.561L380.039 88.496H381.229L378.275 96H377.225ZM381.937 97.82V97.33C382.217 97.2553 382.422 97.1107 382.553 96.896C382.683 96.6813 382.749 96.3827 382.749 96H382.217V94.46H383.337V95.636C383.337 96.2427 383.22 96.728 382.987 97.092C382.753 97.4653 382.403 97.708 381.937 97.82ZM387.781 96V95.3L390.693 92.094C391.262 91.4687 391.724 90.9507 392.079 90.54C392.443 90.1293 392.714 89.756 392.891 89.42C393.068 89.084 393.157 88.72 393.157 88.328C393.157 87.7027 392.975 87.222 392.611 86.886C392.247 86.55 391.762 86.382 391.155 86.382C390.53 86.382 390.002 86.5593 389.573 86.914C389.153 87.2687 388.868 87.7633 388.719 88.398L387.697 88.174C387.818 87.6047 388.038 87.1147 388.355 86.704C388.672 86.2933 389.069 85.976 389.545 85.752C390.021 85.5187 390.553 85.402 391.141 85.402C391.766 85.402 392.312 85.528 392.779 85.78C393.246 86.032 393.61 86.3773 393.871 86.816C394.142 87.2547 394.277 87.7587 394.277 88.328C394.277 88.72 394.193 89.098 394.025 89.462C393.866 89.826 393.624 90.218 393.297 90.638C392.97 91.058 392.55 91.548 392.037 92.108L389.391 95.02H394.557V96H387.781ZM400.502 96.168C399.68 96.168 398.957 95.944 398.332 95.496C397.716 95.0387 397.235 94.4087 396.89 93.606C396.544 92.794 396.372 91.8513 396.372 90.778C396.372 89.7047 396.544 88.7667 396.89 87.964C397.235 87.152 397.716 86.522 398.332 86.074C398.948 85.626 399.666 85.402 400.488 85.402C401.309 85.402 402.028 85.626 402.644 86.074C403.26 86.522 403.74 87.152 404.086 87.964C404.431 88.7667 404.604 89.7047 404.604 90.778C404.604 91.8513 404.431 92.794 404.086 93.606C403.75 94.418 403.274 95.048 402.658 95.496C402.042 95.944 401.323 96.168 400.502 96.168ZM400.502 95.118C401.099 95.118 401.622 94.936 402.07 94.572C402.518 94.208 402.868 93.704 403.12 93.06C403.372 92.4067 403.498 91.646 403.498 90.778C403.498 89.91 403.372 89.154 403.12 88.51C402.868 87.8567 402.518 87.3527 402.07 86.998C401.622 86.634 401.094 86.452 400.488 86.452C399.89 86.452 399.368 86.634 398.92 86.998C398.472 87.3527 398.122 87.8567 397.87 88.51C397.618 89.154 397.492 89.91 397.492 90.778C397.492 91.6367 397.618 92.3927 397.87 93.046C398.122 93.6993 398.472 94.208 398.92 94.572C399.377 94.936 399.904 95.118 400.502 95.118ZM406.429 96V95.3L409.341 92.094C409.911 91.4687 410.373 90.9507 410.727 90.54C411.091 90.1293 411.362 89.756 411.539 89.42C411.717 89.084 411.805 88.72 411.805 88.328C411.805 87.7027 411.623 87.222 411.259 86.886C410.895 86.55 410.41 86.382 409.803 86.382C409.178 86.382 408.651 86.5593 408.221 86.914C407.801 87.2687 407.517 87.7633 407.367 88.398L406.345 88.174C406.467 87.6047 406.686 87.1147 407.003 86.704C407.321 86.2933 407.717 85.976 408.193 85.752C408.669 85.5187 409.201 85.402 409.789 85.402C410.415 85.402 410.961 85.528 411.427 85.78C411.894 86.032 412.258 86.3773 412.519 86.816C412.79 87.2547 412.925 87.7587 412.925 88.328C412.925 88.72 412.841 89.098 412.673 89.462C412.515 89.826 412.272 90.218 411.945 90.638C411.619 91.058 411.199 91.548 410.685 92.108L408.039 95.02H413.205V96H406.429ZM419.825 96V93.536H414.519V92.626L419.825 85.57H420.805V92.626H422.079V93.536H420.805V96H419.825ZM415.373 93.032L415.247 92.626H419.825V86.536L420.175 86.634L415.373 93.032ZM427.607 96V86.55H425.647V85.57H428.727V96H427.607ZM435.406 96.168C434.585 96.168 433.861 95.944 433.236 95.496C432.62 95.0387 432.139 94.4087 431.794 93.606C431.449 92.794 431.276 91.8513 431.276 90.778C431.276 89.7047 431.449 88.7667 431.794 87.964C432.139 87.152 432.62 86.522 433.236 86.074C433.852 85.626 434.571 85.402 435.392 85.402C436.213 85.402 436.932 85.626 437.548 86.074C438.164 86.522 438.645 87.152 438.99 87.964C439.335 88.7667 439.508 89.7047 439.508 90.778C439.508 91.8513 439.335 92.794 438.99 93.606C438.654 94.418 438.178 95.048 437.562 95.496C436.946 95.944 436.227 96.168 435.406 96.168ZM435.406 95.118C436.003 95.118 436.526 94.936 436.974 94.572C437.422 94.208 437.772 93.704 438.024 93.06C438.276 92.4067 438.402 91.646 438.402 90.778C438.402 89.91 438.276 89.154 438.024 88.51C437.772 87.8567 437.422 87.3527 436.974 86.998C436.526 86.634 435.999 86.452 435.392 86.452C434.795 86.452 434.272 86.634 433.824 86.998C433.376 87.3527 433.026 87.8567 432.774 88.51C432.522 89.154 432.396 89.91 432.396 90.778C432.396 91.6367 432.522 92.3927 432.774 93.046C433.026 93.6993 433.376 94.208 433.824 94.572C434.281 94.936 434.809 95.118 435.406 95.118ZM441.964 96V94.46H443.084V96H441.964ZM441.964 90.036V88.496H443.084V90.036H441.964ZM449.666 96.168C448.844 96.168 448.121 95.944 447.496 95.496C446.88 95.0387 446.399 94.4087 446.054 93.606C445.708 92.794 445.536 91.8513 445.536 90.778C445.536 89.7047 445.708 88.7667 446.054 87.964C446.399 87.152 446.88 86.522 447.496 86.074C448.112 85.626 448.83 85.402 449.652 85.402C450.473 85.402 451.192 85.626 451.808 86.074C452.424 86.522 452.904 87.152 453.25 87.964C453.595 88.7667 453.768 89.7047 453.768 90.778C453.768 91.8513 453.595 92.794 453.25 93.606C452.914 94.418 452.438 95.048 451.822 95.496C451.206 95.944 450.487 96.168 449.666 96.168ZM449.666 95.118C450.263 95.118 450.786 94.936 451.234 94.572C451.682 94.208 452.032 93.704 452.284 93.06C452.536 92.4067 452.662 91.646 452.662 90.778C452.662 89.91 452.536 89.154 452.284 88.51C452.032 87.8567 451.682 87.3527 451.234 86.998C450.786 86.634 450.258 86.452 449.652 86.452C449.054 86.452 448.532 86.634 448.084 86.998C447.636 87.3527 447.286 87.8567 447.034 88.51C446.782 89.154 446.656 89.91 446.656 90.778C446.656 91.6367 446.782 92.3927 447.034 93.046C447.286 93.6993 447.636 94.208 448.084 94.572C448.541 94.936 449.068 95.118 449.666 95.118ZM459.92 96.168C459.098 96.168 458.375 95.944 457.75 95.496C457.134 95.0387 456.653 94.4087 456.308 93.606C455.962 92.794 455.79 91.8513 455.79 90.778C455.79 89.7047 455.962 88.7667 456.308 87.964C456.653 87.152 457.134 86.522 457.75 86.074C458.366 85.626 459.084 85.402 459.906 85.402C460.727 85.402 461.446 85.626 462.062 86.074C462.678 86.522 463.158 87.152 463.504 87.964C463.849 88.7667 464.022 89.7047 464.022 90.778C464.022 91.8513 463.849 92.794 463.504 93.606C463.168 94.418 462.692 95.048 462.076 95.496C461.46 95.944 460.741 96.168 459.92 96.168ZM459.92 95.118C460.517 95.118 461.04 94.936 461.488 94.572C461.936 94.208 462.286 93.704 462.538 93.06C462.79 92.4067 462.916 91.646 462.916 90.778C462.916 89.91 462.79 89.154 462.538 88.51C462.286 87.8567 461.936 87.3527 461.488 86.998C461.04 86.634 460.512 86.452 459.906 86.452C459.308 86.452 458.786 86.634 458.338 86.998C457.89 87.3527 457.54 87.8567 457.288 88.51C457.036 89.154 456.91 89.91 456.91 90.778C456.91 91.6367 457.036 92.3927 457.288 93.046C457.54 93.6993 457.89 94.208 458.338 94.572C458.795 94.936 459.322 95.118 459.92 95.118Z" fill="#353637"/>
<g filter="url(#filter2_d_2329_21748)">
<circle cx="727.667" cy="24" r="20" fill="white"/>
<path d="M747.667 24C747.667 35.0457 738.712 44 727.667 44C716.621 44 707.667 35.0457 707.667 24C707.667 12.9543 716.621 4 727.667 4C738.712 4 747.667 12.9543 747.667 24ZM710.548 24C710.548 33.4545 718.212 41.1189 727.667 41.1189C737.121 41.1189 744.786 33.4545 744.786 24C744.786 14.5455 737.121 6.88111 727.667 6.88111C718.212 6.88111 710.548 14.5455 710.548 24Z" fill="white"/>
<path d="M727.667 32.4375L720.167 28.2188V19.7812L727.667 15.5625L735.167 19.7812V24" stroke="#04147C" stroke-width="1.5" stroke-linecap="round" stroke-linejoin="round"/>
<path d="M727.667 24L735.167 19.7812" stroke="#04147C" stroke-width="1.5" stroke-linecap="round" stroke-linejoin="round"/>
<path d="M727.667 24V32.4375" stroke="#04147C" stroke-width="1.5" stroke-linecap="round" stroke-linejoin="round"/>
<path d="M727.667 24L720.167 19.7812" stroke="#04147C" stroke-width="1.5" stroke-linecap="round" stroke-linejoin="round"/>
<path d="M737.042 29.625H730.479" stroke="#04147C" stroke-width="1.5" stroke-linecap="round" stroke-linejoin="round"/>
<path d="M733.292 26.8125L730.479 29.625L733.292 32.4375" stroke="#04147C" stroke-width="1.5" stroke-linecap="round" stroke-linejoin="round"/>
<path d="M747.667 24C747.667 26.6264 747.149 29.2272 746.144 31.6537C745.139 34.0802 743.666 36.285 741.809 38.1421C739.952 39.9993 737.747 41.4725 735.32 42.4776C732.894 43.4827 730.293 44 727.667 44V41.1189C729.915 41.1189 732.141 40.6761 734.218 39.8158C736.295 38.9555 738.182 37.6945 739.772 36.1049C741.361 34.5153 742.622 32.6281 743.482 30.5511C744.343 28.4742 744.786 26.2481 744.786 24H747.667Z" fill="#0089CF"/>
</g>
<line x1="752" y1="23" x2="982" y2="23" stroke="#A0A3B2" stroke-width="2" stroke-dasharray="6 6"/>
<line x1="654.667" y1="23" x2="703.667" y2="23" stroke="#0089CF" stroke-width="2"/>
<path d="M689.768 75V63.08H691.08L697.928 72.712L697.336 72.776V63.08H698.92V75H697.608L690.792 65.304L691.336 65.24V75H689.768ZM701.581 75V63.08H706.589C707.303 63.08 707.917 63.208 708.429 63.464C708.951 63.72 709.351 64.0827 709.629 64.552C709.917 65.0107 710.061 65.56 710.061 66.2C710.061 66.7867 709.906 67.32 709.597 67.8C709.298 68.2693 708.855 68.6373 708.269 68.904L708.253 68.312C708.765 68.504 709.186 68.76 709.517 69.08C709.858 69.3893 710.114 69.752 710.285 70.168C710.455 70.5733 710.541 71.0053 710.541 71.464C710.541 72.5627 710.189 73.4267 709.485 74.056C708.781 74.6853 707.821 75 706.605 75H701.581ZM703.149 73.56H706.669C707.362 73.56 707.917 73.3733 708.333 73C708.749 72.6267 708.957 72.12 708.957 71.48C708.957 70.84 708.749 70.3333 708.333 69.96C707.917 69.576 707.362 69.384 706.669 69.384H703.149V73.56ZM703.149 67.976H706.557C707.133 67.976 707.597 67.8107 707.949 67.48C708.301 67.1387 708.477 66.7067 708.477 66.184C708.477 65.64 708.301 65.224 707.949 64.936C707.597 64.648 707.133 64.504 706.557 64.504H703.149V67.976ZM712.659 75V63.08H720.211V64.52H714.227V68.376H719.651V69.816H714.227V75H712.659ZM727.319 75.192C726.476 75.192 725.697 75.0427 724.983 74.744C724.279 74.4347 723.66 74.0027 723.127 73.448C722.604 72.8933 722.199 72.2427 721.911 71.496C721.623 70.7493 721.479 69.9333 721.479 69.048C721.479 68.152 721.623 67.3307 721.911 66.584C722.199 65.8373 722.604 65.1867 723.127 64.632C723.649 64.0773 724.268 63.6507 724.983 63.352C725.697 63.0427 726.476 62.888 727.319 62.888C728.14 62.888 728.876 63.032 729.527 63.32C730.188 63.608 730.743 63.9813 731.191 64.44C731.649 64.8987 731.975 65.3893 732.167 65.912L730.727 66.568C730.449 65.9067 730.017 65.3733 729.431 64.968C728.844 64.552 728.14 64.344 727.319 64.344C726.487 64.344 725.745 64.5413 725.095 64.936C724.455 65.3307 723.953 65.88 723.591 66.584C723.228 67.288 723.047 68.1093 723.047 69.048C723.047 69.976 723.228 70.792 723.591 71.496C723.953 72.2 724.455 72.7493 725.095 73.144C725.745 73.5387 726.487 73.736 727.319 73.736C728.14 73.736 728.844 73.5333 729.431 73.128C730.017 72.712 730.449 72.1733 730.727 71.512L732.167 72.168C731.975 72.6907 731.649 73.1813 731.191 73.64C730.743 74.0987 730.188 74.472 729.527 74.76C728.876 75.048 728.14 75.192 727.319 75.192ZM737.065 75V63.08H742.073C742.788 63.08 743.401 63.208 743.913 63.464C744.436 63.72 744.836 64.0827 745.113 64.552C745.401 65.0107 745.545 65.56 745.545 66.2C745.545 66.7867 745.39 67.32 745.081 67.8C744.782 68.2693 744.34 68.6373 743.753 68.904L743.737 68.312C744.249 68.504 744.67 68.76 745.001 69.08C745.342 69.3893 745.598 69.752 745.769 70.168C745.94 70.5733 746.025 71.0053 746.025 71.464C746.025 72.5627 745.673 73.4267 744.969 74.056C744.265 74.6853 743.305 75 742.089 75H737.065ZM738.633 73.56H742.153C742.846 73.56 743.401 73.3733 743.817 73C744.233 72.6267 744.441 72.12 744.441 71.48C744.441 70.84 744.233 70.3333 743.817 69.96C743.401 69.576 742.846 69.384 742.153 69.384H738.633V73.56ZM738.633 67.976H742.041C742.617 67.976 743.081 67.8107 743.433 67.48C743.785 67.1387 743.961 66.7067 743.961 66.184C743.961 65.64 743.785 65.224 743.433 64.936C743.081 64.648 742.617 64.504 742.041 64.504H738.633V67.976ZM748.143 75V63.08H752.351C753.14 63.08 753.834 63.2293 754.431 63.528C755.028 63.8267 755.492 64.2533 755.823 64.808C756.164 65.3627 756.335 66.0133 756.335 66.76C756.335 67.6027 756.122 68.3173 755.695 68.904C755.268 69.4907 754.692 69.912 753.967 70.168L756.735 75H754.911L751.999 69.832L753.039 70.44H749.711V75H748.143ZM749.711 69H752.399C752.868 69 753.279 68.9093 753.631 68.728C753.983 68.5467 754.255 68.2853 754.447 67.944C754.65 67.6027 754.751 67.208 754.751 66.76C754.751 66.3013 754.65 65.9067 754.447 65.576C754.255 65.2347 753.983 64.9733 753.631 64.792C753.279 64.6107 752.868 64.52 752.399 64.52H749.711V69ZM758.518 75V63.08H766.278V64.52H760.086V68.296H765.958V69.736H760.086V73.56H766.278V75H758.518Z" fill="#010814"/>
<g filter="url(#filter3_d_2329_21748)">
<circle cx="1055" cy="24" r="20" fill="#EFEFF0"/>
<path d="M1075 24C1075 35.0457 1066.05 44 1055 44C1043.95 44 1035 35.0457 1035 24C1035 12.9543 1043.95 4 1055 4C1066.05 4 1075 12.9543 1075 24ZM1037.88 24C1037.88 33.4545 1045.55 41.1189 1055 41.1189C1064.45 41.1189 1072.12 33.4545 1072.12 24C1072.12 14.5455 1064.45 6.88111 1055 6.88111C1045.55 6.88111 1037.88 14.5455 1037.88 24Z" fill="white"/>
<path d="M1046.56 24C1046.56 26.2378 1047.45 28.3839 1049.03 29.9662C1050.62 31.5486 1052.76 32.4375 1055 32.4375C1057.24 32.4375 1059.38 31.5486 1060.97 29.9662C1062.55 28.3839 1063.44 26.2378 1063.44 24C1063.44 21.7622 1062.55 19.6161 1060.97 18.0338C1059.38 16.4514 1057.24 15.5625 1055 15.5625C1052.76 15.5625 1050.62 16.4514 1049.03 18.0338C1047.45 19.6161 1046.56 21.7622 1046.56 24Z" stroke="#6C6E76" stroke-width="1.5" stroke-linecap="round" stroke-linejoin="round"/>
<path d="M1052.19 24L1054.06 25.875L1057.81 22.125" stroke="#6C6E76" stroke-width="1.5" stroke-linecap="round" stroke-linejoin="round"/>
</g>
<line x1="982" y1="23" x2="1031" y2="23" stroke="#A0A3B2" stroke-width="2" stroke-dasharray="6 6"/>
<path d="M1017.27 75V63.08H1021.18C1022.38 63.08 1023.43 63.3253 1024.33 63.816C1025.23 64.3067 1025.92 65 1026.41 65.896C1026.9 66.7813 1027.15 67.8267 1027.15 69.032C1027.15 70.2267 1026.9 71.272 1026.41 72.168C1025.92 73.064 1025.23 73.7627 1024.33 74.264C1023.43 74.7547 1022.38 75 1021.18 75H1017.27ZM1018.84 73.56H1021.19C1022.08 73.56 1022.84 73.3733 1023.48 73C1024.13 72.6267 1024.63 72.104 1024.99 71.432C1025.34 70.7493 1025.51 69.9493 1025.51 69.032C1025.51 68.104 1025.33 67.304 1024.97 66.632C1024.62 65.96 1024.12 65.4427 1023.47 65.08C1022.83 64.7067 1022.07 64.52 1021.19 64.52H1018.84V73.56ZM1028.96 75V66.376H1030.44V75H1028.96ZM1028.96 65V63.08H1030.44V65H1028.96ZM1035.84 75.192C1034.98 75.192 1034.23 74.9787 1033.59 74.552C1032.95 74.1253 1032.49 73.5493 1032.23 72.824L1033.41 72.248C1033.65 72.76 1033.99 73.1653 1034.42 73.464C1034.84 73.7627 1035.32 73.912 1035.84 73.912C1036.31 73.912 1036.7 73.8 1037.01 73.576C1037.32 73.352 1037.47 73.0587 1037.47 72.696C1037.47 72.44 1037.4 72.2373 1037.25 72.088C1037.11 71.928 1036.94 71.8053 1036.74 71.72C1036.53 71.624 1036.35 71.5547 1036.18 71.512L1034.88 71.144C1034.1 70.92 1033.53 70.6 1033.17 70.184C1032.82 69.768 1032.64 69.2827 1032.64 68.728C1032.64 68.216 1032.77 67.7733 1033.03 67.4C1033.29 67.016 1033.65 66.7173 1034.1 66.504C1034.56 66.2907 1035.07 66.184 1035.63 66.184C1036.39 66.184 1037.07 66.376 1037.67 66.76C1038.27 67.144 1038.71 67.6827 1038.96 68.376L1037.75 68.936C1037.55 68.488 1037.27 68.136 1036.88 67.88C1036.5 67.6133 1036.07 67.48 1035.59 67.48C1035.15 67.48 1034.8 67.592 1034.55 67.816C1034.29 68.0293 1034.16 68.3013 1034.16 68.632C1034.16 68.8773 1034.23 69.08 1034.35 69.24C1034.48 69.3893 1034.64 69.5067 1034.82 69.592C1035 69.6667 1035.17 69.7307 1035.35 69.784L1036.75 70.2C1037.46 70.4027 1038 70.7173 1038.39 71.144C1038.78 71.5707 1038.98 72.0827 1038.98 72.68C1038.98 73.16 1038.84 73.592 1038.58 73.976C1038.31 74.36 1037.94 74.6587 1037.47 74.872C1037 75.0853 1036.46 75.192 1035.84 75.192ZM1045.39 75.192C1044.7 75.192 1044.06 75.0373 1043.49 74.728C1042.92 74.4187 1042.48 73.9813 1042.17 73.416L1042.38 73.16V75H1040.93V62.888H1042.41V68.232L1042.19 67.864C1042.51 67.352 1042.95 66.9467 1043.5 66.648C1044.06 66.3387 1044.69 66.184 1045.41 66.184C1046.22 66.184 1046.94 66.3813 1047.58 66.776C1048.23 67.1707 1048.74 67.7093 1049.12 68.392C1049.49 69.064 1049.68 69.832 1049.68 70.696C1049.68 71.5387 1049.49 72.3013 1049.12 72.984C1048.74 73.6667 1048.23 74.2053 1047.58 74.6C1046.94 74.9947 1046.21 75.192 1045.39 75.192ZM1045.28 73.752C1045.82 73.752 1046.31 73.6187 1046.73 73.352C1047.16 73.0853 1047.49 72.7227 1047.73 72.264C1047.97 71.7947 1048.09 71.272 1048.09 70.696C1048.09 70.0987 1047.97 69.576 1047.73 69.128C1047.49 68.6693 1047.16 68.3067 1046.73 68.04C1046.31 67.7627 1045.82 67.624 1045.28 67.624C1044.73 67.624 1044.24 67.7573 1043.81 68.024C1043.38 68.2907 1043.04 68.6587 1042.78 69.128C1042.54 69.5867 1042.41 70.1093 1042.41 70.696C1042.41 71.272 1042.54 71.7947 1042.78 72.264C1043.04 72.7227 1043.38 73.0853 1043.81 73.352C1044.24 73.6187 1044.73 73.752 1045.28 73.752ZM1054.68 75.192C1054.07 75.192 1053.51 75.048 1053 74.76C1052.51 74.472 1052.13 74.072 1051.85 73.56C1051.59 73.0373 1051.45 72.44 1051.45 71.768V66.376H1052.94V71.608C1052.94 72.0347 1053.03 72.408 1053.2 72.728C1053.38 73.048 1053.62 73.2987 1053.93 73.48C1054.25 73.6613 1054.62 73.752 1055.02 73.752C1055.43 73.752 1055.78 73.6613 1056.09 73.48C1056.41 73.2987 1056.66 73.0373 1056.83 72.696C1057.01 72.3547 1057.1 71.9493 1057.1 71.48V66.376H1058.6V75H1057.15V73.32L1057.39 73.464C1057.19 74.008 1056.84 74.4347 1056.35 74.744C1055.87 75.0427 1055.31 75.192 1054.68 75.192ZM1060.91 75V66.376H1062.37V67.96L1062.21 67.736C1062.41 67.2453 1062.72 66.8827 1063.13 66.648C1063.55 66.4027 1064.06 66.28 1064.65 66.28H1065.18V67.688H1064.43C1063.82 67.688 1063.33 67.88 1062.96 68.264C1062.58 68.6373 1062.4 69.1707 1062.4 69.864V75H1060.91ZM1069.59 75.192C1068.73 75.192 1067.98 74.9787 1067.34 74.552C1066.7 74.1253 1066.24 73.5493 1065.98 72.824L1067.16 72.248C1067.4 72.76 1067.74 73.1653 1068.17 73.464C1068.59 73.7627 1069.07 73.912 1069.59 73.912C1070.06 73.912 1070.45 73.8 1070.76 73.576C1071.07 73.352 1071.22 73.0587 1071.22 72.696C1071.22 72.44 1071.15 72.2373 1071 72.088C1070.86 71.928 1070.69 71.8053 1070.49 71.72C1070.28 71.624 1070.1 71.5547 1069.93 71.512L1068.63 71.144C1067.85 70.92 1067.28 70.6 1066.92 70.184C1066.57 69.768 1066.39 69.2827 1066.39 68.728C1066.39 68.216 1066.52 67.7733 1066.78 67.4C1067.04 67.016 1067.4 66.7173 1067.85 66.504C1068.31 66.2907 1068.82 66.184 1069.38 66.184C1070.14 66.184 1070.82 66.376 1071.42 66.76C1072.02 67.144 1072.46 67.6827 1072.71 68.376L1071.5 68.936C1071.3 68.488 1071.02 68.136 1070.63 67.88C1070.25 67.6133 1069.82 67.48 1069.34 67.48C1068.9 67.48 1068.55 67.592 1068.3 67.816C1068.04 68.0293 1067.91 68.3013 1067.91 68.632C1067.91 68.8773 1067.98 69.08 1068.1 69.24C1068.23 69.3893 1068.39 69.5067 1068.57 69.592C1068.75 69.6667 1068.92 69.7307 1069.1 69.784L1070.5 70.2C1071.21 70.4027 1071.75 70.7173 1072.14 71.144C1072.53 71.5707 1072.73 72.0827 1072.73 72.68C1072.73 73.16 1072.59 73.592 1072.33 73.976C1072.06 74.36 1071.69 74.6587 1071.22 74.872C1070.75 75.0853 1070.21 75.192 1069.59 75.192ZM1078.64 75.192C1077.81 75.192 1077.07 74.9947 1076.42 74.6C1075.77 74.2053 1075.26 73.6667 1074.88 72.984C1074.51 72.2907 1074.32 71.5173 1074.32 70.664C1074.32 69.8 1074.5 69.032 1074.87 68.36C1075.24 67.688 1075.74 67.16 1076.37 66.776C1077.01 66.3813 1077.73 66.184 1078.52 66.184C1079.16 66.184 1079.72 66.3013 1080.21 66.536C1080.71 66.76 1081.13 67.0693 1081.48 67.464C1081.83 67.848 1082.09 68.2907 1082.28 68.792C1082.47 69.2827 1082.56 69.7947 1082.56 70.328C1082.56 70.4453 1082.55 70.5787 1082.53 70.728C1082.52 70.8667 1082.5 71 1082.48 71.128H1075.41V69.848H1081.62L1080.92 70.424C1081.01 69.8693 1080.96 69.3733 1080.76 68.936C1080.55 68.4987 1080.25 68.152 1079.86 67.896C1079.46 67.64 1079.02 67.512 1078.52 67.512C1078.01 67.512 1077.56 67.64 1077.14 67.896C1076.72 68.152 1076.4 68.52 1076.16 69C1075.94 69.4693 1075.85 70.0293 1075.89 70.68C1075.85 71.3093 1075.94 71.864 1076.18 72.344C1076.42 72.8133 1076.77 73.1813 1077.2 73.448C1077.65 73.704 1078.14 73.832 1078.66 73.832C1079.24 73.832 1079.72 73.6987 1080.12 73.432C1080.51 73.1653 1080.83 72.824 1081.08 72.408L1082.32 73.048C1082.15 73.4427 1081.89 73.8053 1081.52 74.136C1081.17 74.456 1080.75 74.712 1080.26 74.904C1079.78 75.096 1079.24 75.192 1078.64 75.192ZM1088.42 75.192C1087.61 75.192 1086.88 74.9947 1086.23 74.6C1085.59 74.2053 1085.08 73.6667 1084.71 72.984C1084.34 72.3013 1084.15 71.5387 1084.15 70.696C1084.15 69.832 1084.34 69.064 1084.71 68.392C1085.08 67.7093 1085.59 67.1707 1086.23 66.776C1086.88 66.3813 1087.61 66.184 1088.42 66.184C1089.14 66.184 1089.77 66.3387 1090.33 66.648C1090.88 66.9467 1091.32 67.352 1091.64 67.864L1091.4 68.232V62.888H1092.9V75H1091.45V73.16L1091.64 73.416C1091.34 73.9813 1090.9 74.4187 1090.33 74.728C1089.76 75.0373 1089.13 75.192 1088.42 75.192ZM1088.55 73.752C1089.1 73.752 1089.58 73.6187 1090.01 73.352C1090.43 73.0853 1090.77 72.7227 1091.02 72.264C1091.27 71.7947 1091.4 71.272 1091.4 70.696C1091.4 70.1093 1091.27 69.5867 1091.02 69.128C1090.77 68.6587 1090.43 68.2907 1090.01 68.024C1089.58 67.7573 1089.1 67.624 1088.55 67.624C1088.02 67.624 1087.53 67.7627 1087.1 68.04C1086.67 68.3067 1086.33 68.6693 1086.09 69.128C1085.84 69.576 1085.72 70.0987 1085.72 70.696C1085.72 71.272 1085.84 71.7947 1086.09 72.264C1086.33 72.7227 1086.67 73.0853 1087.1 73.352C1087.52 73.6187 1088.01 73.752 1088.55 73.752Z" fill="#6C6E76"/>
<defs>
<filter id="filter0_d_2329_21748" x="49" y="2" width="48" height="48" filterUnits="userSpaceOnUse" color-interpolation-filters="sRGB">
<feFlood flood-opacity="0" result="BackgroundImageFix"/>
<feColorMatrix in="SourceAlpha" type="matrix" values="0 0 0 0 0 0 0 0 0 0 0 0 0 0 0 0 0 0 127 0" result="hardAlpha"/>
<feOffset dy="2"/>
<feGaussianBlur stdDeviation="2"/>
<feComposite in2="hardAlpha" operator="out"/>
<feColorMatrix type="matrix" values="0 0 0 0 0.0156863 0 0 0 0 0.0784314 0 0 0 0 0.486275 0 0 0 0.15 0"/>
<feBlend mode="normal" in2="BackgroundImageFix" result="effect1_dropShadow_2329_21748"/>
<feBlend mode="normal" in="SourceGraphic" in2="effect1_dropShadow_2329_21748" result="shape"/>
</filter>
<filter id="filter1_d_2329_21748" x="376.333" y="2" width="48" height="48" filterUnits="userSpaceOnUse" color-interpolation-filters="sRGB">
<feFlood flood-opacity="0" result="BackgroundImageFix"/>
<feColorMatrix in="SourceAlpha" type="matrix" values="0 0 0 0 0 0 0 0 0 0 0 0 0 0 0 0 0 0 127 0" result="hardAlpha"/>
<feOffset dy="2"/>
<feGaussianBlur stdDeviation="2"/>
<feComposite in2="hardAlpha" operator="out"/>
<feColorMatrix type="matrix" values="0 0 0 0 0.0156863 0 0 0 0 0.0784314 0 0 0 0 0.486275 0 0 0 0.15 0"/>
<feBlend mode="normal" in2="BackgroundImageFix" result="effect1_dropShadow_2329_21748"/>
<feBlend mode="normal" in="SourceGraphic" in2="effect1_dropShadow_2329_21748" result="shape"/>
</filter>
<filter id="filter2_d_2329_21748" x="703.667" y="2" width="48" height="48" filterUnits="userSpaceOnUse" color-interpolation-filters="sRGB">
<feFlood flood-opacity="0" result="BackgroundImageFix"/>
<feColorMatrix in="SourceAlpha" type="matrix" values="0 0 0 0 0 0 0 0 0 0 0 0 0 0 0 0 0 0 127 0" result="hardAlpha"/>
<feOffset dy="2"/>
<feGaussianBlur stdDeviation="2"/>
<feComposite in2="hardAlpha" operator="out"/>
<feColorMatrix type="matrix" values="0 0 0 0 0.0156863 0 0 0 0 0.0784314 0 0 0 0 0.486275 0 0 0 0.15 0"/>
<feBlend mode="normal" in2="BackgroundImageFix" result="effect1_dropShadow_2329_21748"/>
<feBlend mode="normal" in="SourceGraphic" in2="effect1_dropShadow_2329_21748" result="shape"/>
</filter>
<filter id="filter3_d_2329_21748" x="1031" y="2" width="48" height="48" filterUnits="userSpaceOnUse" color-interpolation-filters="sRGB">
<feFlood flood-opacity="0" result="BackgroundImageFix"/>
<feColorMatrix in="SourceAlpha" type="matrix" values="0 0 0 0 0 0 0 0 0 0 0 0 0 0 0 0 0 0 127 0" result="hardAlpha"/>
<feOffset dy="2"/>
<feGaussianBlur stdDeviation="2"/>
<feComposite in2="hardAlpha" operator="out"/>
<feColorMatrix type="matrix" values="0 0 0 0 0.0156863 0 0 0 0 0.0784314 0 0 0 0 0.486275 0 0 0 0.15 0"/>
<feBlend mode="normal" in2="BackgroundImageFix" result="effect1_dropShadow_2329_21748"/>
<feBlend mode="normal" in="SourceGraphic" in2="effect1_dropShadow_2329_21748" result="shape"/>
</filter>
</defs>
</svg>
