<svg width="20" height="20" viewBox="0 0 20 20" fill="none" xmlns="http://www.w3.org/2000/svg">
<path d="M16 0.635742H4C1.79086 0.635742 0 2.29001 0 4.33066V15.4154C0 17.456 1.79086 19.1103 4 19.1103H16C18.2091 19.1103 20 17.456 20 15.4154V4.33066C20 2.29001 18.2091 0.635742 16 0.635742Z" fill="#F59E0B"/>
<path d="M12.4132 8.33523L12.1234 9.32386H6.60067L6.89045 8.33523H12.4132ZM9.82227 15L6.70295 11.1818L6.6859 10.4659H8.23704C8.64045 10.4659 8.9842 10.4091 9.26829 10.2955C9.55238 10.179 9.76971 10.0057 9.92028 9.77557C10.0708 9.54261 10.1461 9.25 10.1461 8.89773C10.1461 8.37784 9.98988 7.97017 9.67738 7.67472C9.36488 7.37642 8.88477 7.22727 8.23704 7.22727H6.60067L6.89045 6.27273H8.23704C8.93022 6.27273 9.4984 6.38778 9.94158 6.6179C10.3876 6.84517 10.7172 7.15767 10.9302 7.5554C11.1461 7.95028 11.2541 8.39773 11.2541 8.89773C11.2541 9.34943 11.1547 9.76562 10.9558 10.1463C10.7598 10.5241 10.4444 10.8281 10.0098 11.0582C9.57795 11.2884 9.00692 11.4034 8.2967 11.4034H8.27113L11.1518 14.9318V15H9.82227ZM12.4132 6.27273L12.1234 7.26136L7.77681 7.22727L8.06658 6.27273H12.4132Z" fill="white"/>
</svg>
