<svg width="20" height="20" viewBox="0 0 20 20" fill="none" xmlns="http://www.w3.org/2000/svg">
<path d="M7.49999 0.833496V2.50016H12.5V0.833496H14.1667V2.50016H17.5C17.9602 2.50016 18.3333 2.87326 18.3333 3.3335V16.6668C18.3333 17.1271 17.9602 17.5002 17.5 17.5002H2.49999C2.03976 17.5002 1.66666 17.1271 1.66666 16.6668V3.3335C1.66666 2.87326 2.03976 2.50016 2.49999 2.50016H5.83332V0.833496H7.49999ZM16.6667 9.16683H3.33332V15.8335H16.6667V9.16683ZM6.66666 10.8335V12.5002H4.99999V10.8335H6.66666ZM10.8333 10.8335V12.5002H9.16666V10.8335H10.8333ZM15 10.8335V12.5002H13.3333V10.8335H15ZM5.83332 4.16683H3.33332V7.50016H16.6667V4.16683H14.1667V5.8335H12.5V4.16683H7.49999V5.8335H5.83332V4.16683Z" fill="#62748E"/>
</svg>
