<svg width="25" height="24" viewBox="0 0 25 24" fill="none" xmlns="http://www.w3.org/2000/svg">
<path d="M8.58331 5.4375H6.70831C6.21103 5.4375 5.73412 5.63504 5.38249 5.98667C5.03086 6.33831 4.83331 6.81522 4.83331 7.3125V18.5625C4.83331 19.0598 5.03086 19.5367 5.38249 19.8883C5.73412 20.24 6.21103 20.4375 6.70831 20.4375H12.0493" stroke="#0089CF" stroke-width="1.5" stroke-linecap="round" stroke-linejoin="round"/>
<path d="M17.9583 13.875V17.625H21.7083" stroke="#0089CF" stroke-width="1.5" stroke-linecap="round" stroke-linejoin="round"/>
<path d="M17.9583 11.0625V7.3125C17.9583 6.81522 17.7608 6.33831 17.4091 5.98667C17.0575 5.63504 16.5806 5.4375 16.0833 5.4375H14.2083" stroke="#0089CF" stroke-width="1.5" stroke-linecap="round" stroke-linejoin="round"/>
<path d="M8.58331 5.4375C8.58331 4.94022 8.78086 4.46331 9.13249 4.11167C9.48412 3.76004 9.96103 3.5625 10.4583 3.5625H12.3333C12.8306 3.5625 13.3075 3.76004 13.6591 4.11167C14.0108 4.46331 14.2083 4.94022 14.2083 5.4375C14.2083 5.93478 14.0108 6.41169 13.6591 6.76333C13.3075 7.11496 12.8306 7.3125 12.3333 7.3125H10.4583C9.96103 7.3125 9.48412 7.11496 9.13249 6.76333C8.78086 6.41169 8.58331 5.93478 8.58331 5.4375Z" stroke="#0089CF" stroke-width="1.5" stroke-linecap="round" stroke-linejoin="round"/>
<path d="M14.2083 17.625C14.2083 18.6196 14.6034 19.5734 15.3067 20.2767C16.0099 20.9799 16.9638 21.375 17.9583 21.375C18.9529 21.375 19.9067 20.9799 20.61 20.2767C21.3132 19.5734 21.7083 18.6196 21.7083 17.625C21.7083 16.6304 21.3132 15.6766 20.61 14.9733C19.9067 14.2701 18.9529 13.875 17.9583 13.875C16.9638 13.875 16.0099 14.2701 15.3067 14.9733C14.6034 15.6766 14.2083 16.6304 14.2083 17.625Z" stroke="#0089CF" stroke-width="1.5" stroke-linecap="round" stroke-linejoin="round"/>
<path d="M8.58331 11.0625H12.3333" stroke="#0089CF" stroke-width="1.5" stroke-linecap="round" stroke-linejoin="round"/>
<path d="M8.58331 14.8125H11.3958" stroke="#0089CF" stroke-width="1.5" stroke-linecap="round" stroke-linejoin="round"/>
</svg>
