<svg width="24" height="24" viewBox="0 0 24 24" fill="none" xmlns="http://www.w3.org/2000/svg">
<mask id="mask0_2127_8830" style="mask-type:alpha" maskUnits="userSpaceOnUse" x="0" y="0" width="24" height="24">
<rect width="24" height="24" fill="#D9D9D9"/>
</mask>
<g mask="url(#mask0_2127_8830)">
<path d="M12.3463 18.5H11.5C9.2725 18.5 7.38233 17.7237 5.8295 16.171C4.2765 14.6185 3.5 12.7288 3.5 10.502C3.5 8.275 4.27633 6.38458 5.829 4.83075C7.38183 3.27692 9.27183 2.5 11.499 2.5C12.6125 2.5 13.6529 2.708 14.6202 3.124C15.5876 3.54 16.4347 4.1115 17.1615 4.8385C17.8885 5.56533 18.46 6.41183 18.876 7.378C19.292 8.344 19.5 9.38467 19.5 10.5C19.5 12.573 18.9398 14.4878 17.8193 16.2443C16.6988 18.0006 15.2795 19.414 13.5615 20.4845C13.4333 20.5518 13.3052 20.5888 13.177 20.5955C13.0488 20.6023 12.9308 20.5737 12.823 20.5095C12.7153 20.4455 12.6243 20.3628 12.55 20.2615C12.4757 20.1602 12.4333 20.0371 12.423 19.8923L12.3463 18.5ZM14 18.35C15.1833 17.35 16.1458 16.1792 16.8875 14.8375C17.6292 13.4958 18 12.05 18 10.5C18 8.68333 17.3708 7.14583 16.1125 5.8875C14.8542 4.62917 13.3167 4 11.5 4C9.68333 4 8.14583 4.62917 6.8875 5.8875C5.62917 7.14583 5 8.68333 5 10.5C5 12.3167 5.62917 13.8542 6.8875 15.1125C8.14583 16.3708 9.68333 17 11.5 17H14V18.35ZM11.5052 15.773C11.7493 15.773 11.9568 15.6869 12.128 15.5147C12.299 15.3426 12.3845 15.1346 12.3845 14.8907C12.3845 14.6469 12.2985 14.4394 12.1265 14.2683C11.9543 14.0971 11.7463 14.0115 11.5022 14.0115C11.2584 14.0115 11.0509 14.0976 10.8798 14.2698C10.7086 14.4419 10.623 14.6499 10.623 14.8938C10.623 15.1376 10.7091 15.3451 10.8812 15.5163C11.0534 15.6874 11.2614 15.773 11.5052 15.773ZM9.3795 8.2885C9.529 8.3525 9.67842 8.35308 9.82775 8.29025C9.97708 8.22742 10.0992 8.12617 10.1942 7.9865C10.3377 7.77367 10.5223 7.60667 10.748 7.4855C10.9737 7.36433 11.2308 7.30375 11.5192 7.30375C11.9648 7.30375 12.3268 7.42433 12.6053 7.6655C12.8837 7.9065 13.023 8.22375 13.023 8.61725C13.023 8.86092 12.9589 9.09583 12.8307 9.322C12.7026 9.54833 12.4802 9.81983 12.1635 10.1365C11.7403 10.5288 11.432 10.8811 11.2385 11.1932C11.0448 11.5054 10.948 11.8153 10.948 12.123C10.948 12.2885 11.0049 12.4299 11.1188 12.5473C11.2324 12.6644 11.3696 12.723 11.5302 12.723C11.6909 12.723 11.8251 12.6624 11.9327 12.5413C12.0404 12.4201 12.1147 12.2756 12.1558 12.1077C12.2134 11.8629 12.3442 11.619 12.548 11.376C12.7518 11.133 12.9679 10.8974 13.1962 10.6693C13.5589 10.3064 13.8246 9.95425 13.9932 9.61275C14.1619 9.27142 14.2462 8.93 14.2462 8.5885C14.2462 7.86233 13.9965 7.27825 13.497 6.83625C12.9977 6.39408 12.3448 6.173 11.5385 6.173C11.0267 6.173 10.5548 6.29742 10.1228 6.54625C9.69092 6.79492 9.35225 7.11467 9.10675 7.5055C9.02025 7.66467 9.00325 7.81892 9.05575 7.96825C9.10842 8.11758 9.21633 8.22433 9.3795 8.2885Z" fill="#7C7C7A"/>
</g>
</svg>
