<svg width="22" height="22" viewBox="0 0 22 22" fill="none" xmlns="http://www.w3.org/2000/svg">
<path d="M14.6666 18.3334V3.66671H3.66659V17.4167C3.66659 17.923 4.077 18.3334 4.58325 18.3334H14.6666ZM17.4166 20.1667H4.58325C3.06447 20.1667 1.83325 18.9355 1.83325 17.4167V2.75004C1.83325 2.24378 2.24366 1.83337 2.74992 1.83337H15.5833C16.0895 1.83337 16.4999 2.24378 16.4999 2.75004V9.16671H20.1666V17.4167C20.1666 18.9355 18.9354 20.1667 17.4166 20.1667ZM16.4999 11V17.4167C16.4999 17.923 16.9103 18.3334 17.4166 18.3334C17.9229 18.3334 18.3333 17.923 18.3333 17.4167V11H16.4999ZM5.49992 5.50004H10.9999V11H5.49992V5.50004ZM7.33325 7.33337V9.16671H9.16659V7.33337H7.33325ZM5.49992 11.9167H12.8333V13.75H5.49992V11.9167ZM5.49992 14.6667H12.8333V16.5H5.49992V14.6667Z" fill="#7C7C7A"/>
</svg>
