<svg width="14" height="15" viewBox="0 0 14 15" fill="none" xmlns="http://www.w3.org/2000/svg">
<path d="M7 10.1667V10.1733M7 8.16668C7.29983 8.16758 7.59122 8.0674 7.8271 7.8823C8.06299 7.69721 8.2296 7.43801 8.30003 7.14657C8.37046 6.85512 8.34061 6.54844 8.21529 6.27606C8.08996 6.00367 7.87649 5.78147 7.60933 5.64535C7.34412 5.50949 7.04074 5.46737 6.74854 5.52583C6.45634 5.58429 6.19252 5.7399 6 5.96735M12.25 3.68001C12.7167 3.94534 13.0033 4.44201 13 4.97868V9.83468C13 10.374 12.7047 10.8713 12.228 11.1333L7.728 13.98C7.5049 14.1025 7.25451 14.1667 7 14.1667C6.74549 14.1667 6.4951 14.1025 6.272 13.98L1.772 11.1333C1.53878 11.0059 1.34408 10.8181 1.20827 10.5897C1.07247 10.3612 1.00053 10.1005 1 9.83468V4.97801C1 4.43868 1.29533 3.94201 1.772 3.68001L6.272 1.02668C6.50169 0.900036 6.75971 0.833618 7.022 0.833618C7.28429 0.833618 7.54231 0.900036 7.772 1.02668L12.272 3.68001H12.25Z" stroke="#5A6769" stroke-linecap="round" stroke-linejoin="round"/>
</svg>
