<svg width="22" height="22" viewBox="0 0 22 22" fill="none" xmlns="http://www.w3.org/2000/svg">
<path d="M2.02885 12.8884C1.76024 11.6192 1.77112 10.3347 2.02962 9.11197C3.04705 9.2318 3.9351 8.89483 4.22549 8.19378C4.51588 7.49272 4.12618 6.62651 3.32205 5.9918C4.00389 4.94437 4.90443 4.02844 5.9918 3.32094C6.62656 4.1255 7.49303 4.51547 8.19427 4.225C8.8955 3.93454 9.23239 3.04612 9.11237 2.02837C10.3815 1.75975 11.666 1.77063 12.8888 2.02913C12.769 3.04656 13.1059 3.93461 13.8069 4.225C14.508 4.51539 15.3742 4.12569 16.0089 3.32156C17.0563 4.0034 17.9723 4.90394 18.6797 5.99131C17.8752 6.62607 17.4852 7.49255 17.7757 8.19378C18.0662 8.89501 18.9547 9.23198 19.9723 9.11188C20.241 10.381 20.2301 11.6655 19.9716 12.8883C18.9542 12.7685 18.0661 13.1055 17.7757 13.8064C17.4853 14.5075 17.875 15.3737 18.6792 16.0084C17.9974 17.0558 17.0967 17.9718 16.0094 18.6793C15.3747 17.8748 14.5082 17.4847 13.8069 17.7752C13.1057 18.0657 12.7688 18.9542 12.8889 19.9718C11.6197 20.2405 10.3352 20.2296 9.11246 19.9711C9.2323 18.9537 8.89532 18.0656 8.19427 17.7752C7.49321 17.4848 6.627 17.8745 5.99228 18.6787C4.94486 17.9969 4.02893 17.0963 3.32143 16.0089C4.12599 15.3742 4.51595 14.5077 4.22549 13.8064C3.93503 13.1053 3.0466 12.7683 2.02885 12.8884ZM3.66734 11.1928C4.67549 11.4719 5.50747 12.1107 5.91927 13.1049C6.33107 14.099 6.1945 15.1391 5.67892 16.0492C5.76744 16.1425 5.85838 16.2334 5.95164 16.3218C6.86178 15.8062 7.90176 15.6697 8.89585 16.0815C9.88992 16.4933 10.5287 17.3251 10.8079 18.3332C10.9363 18.3367 11.0648 18.3368 11.1933 18.3334C11.4724 17.3252 12.1112 16.4933 13.1054 16.0815C14.0995 15.6696 15.1396 15.8062 16.0497 16.3219C16.143 16.2333 16.2338 16.1424 16.3222 16.0491C15.8067 15.139 15.6701 14.0989 16.0819 13.1049C16.4937 12.1108 17.3256 11.472 18.3337 11.1929C18.3372 11.0645 18.3373 10.9359 18.3339 10.8074C17.3257 10.5284 16.4938 9.88951 16.0819 8.89536C15.6701 7.9012 15.8067 6.86115 16.3223 5.951C16.2338 5.85774 16.1429 5.76689 16.0496 5.67852C15.1395 6.19403 14.0994 6.33055 13.1054 5.91878C12.1113 5.50702 11.4724 4.67511 11.1934 3.66703C11.065 3.66356 10.9364 3.6635 10.8079 3.66685C10.5288 4.675 9.89001 5.50699 8.89585 5.91878C7.90168 6.33058 6.86164 6.19401 5.95148 5.67843C5.85822 5.76695 5.76738 5.85789 5.67901 5.95116C6.19452 6.86129 6.33104 7.90127 5.91927 8.89536C5.50751 9.88942 4.6756 10.5283 3.66751 10.8074C3.66405 10.9358 3.66399 11.0643 3.66734 11.1928ZM11.0006 13.7501C9.48182 13.7501 8.2506 12.5189 8.2506 11.0001C8.2506 9.48132 9.48182 8.25012 11.0006 8.25012C12.5194 8.25012 13.7506 9.48132 13.7506 11.0001C13.7506 12.5189 12.5194 13.7501 11.0006 13.7501ZM11.0006 11.9168C11.5068 11.9168 11.9173 11.5064 11.9173 11.0001C11.9173 10.4939 11.5068 10.0835 11.0006 10.0835C10.4944 10.0835 10.084 10.4939 10.084 11.0001C10.084 11.5064 10.4944 11.9168 11.0006 11.9168Z" fill="#7C7C7A"/>
</svg>
