<svg width="22" height="22" viewBox="0 0 22 22" fill="none" xmlns="http://www.w3.org/2000/svg">
<mask id="mask0_2127_8825" style="mask-type:alpha" maskUnits="userSpaceOnUse" x="0" y="0" width="22" height="22">
<rect width="22" height="22" fill="#D9D9D9"/>
</mask>
<g mask="url(#mask0_2127_8825)">
<path d="M4.86536 18.7915C4.40229 18.7915 4.01034 18.631 3.6895 18.3102C3.36867 17.9894 3.20825 17.5974 3.20825 17.1344V4.86523C3.20825 4.40216 3.36867 4.01021 3.6895 3.68938C4.01034 3.36855 4.40229 3.20813 4.86536 3.20813H17.1345C17.5976 3.20813 17.9895 3.36855 18.3103 3.68938C18.6312 4.01021 18.7916 4.40216 18.7916 4.86523V17.1344C18.7916 17.5974 18.6312 17.9894 18.3103 18.3102C17.9895 18.631 17.5976 18.7915 17.1345 18.7915H4.86536ZM4.86536 17.4165H17.1345C17.2051 17.4165 17.2697 17.3871 17.3284 17.3282C17.3872 17.2696 17.4166 17.2049 17.4166 17.1344V4.86523C17.4166 4.79465 17.3872 4.73003 17.3284 4.67136C17.2697 4.61254 17.2051 4.58313 17.1345 4.58313H4.86536C4.79477 4.58313 4.73015 4.61254 4.67148 4.67136C4.61266 4.73003 4.58325 4.79465 4.58325 4.86523V17.1344C4.58325 17.2049 4.61266 17.2696 4.67148 17.3282C4.73015 17.3871 4.79477 17.4165 4.86536 17.4165ZM7.43913 9.39563C7.24403 9.39563 7.08063 9.46148 6.94894 9.59317C6.8174 9.72471 6.75163 9.88803 6.75163 10.0831V14.6665C6.75163 14.8616 6.8174 15.0249 6.94894 15.1564C7.08063 15.2881 7.24403 15.354 7.43913 15.354C7.63407 15.354 7.79739 15.2881 7.92909 15.1564C8.06063 15.0249 8.1264 14.8616 8.1264 14.6665V10.0831C8.1264 9.88803 8.06063 9.72471 7.92909 9.59317C7.79739 9.46148 7.63407 9.39563 7.43913 9.39563ZM10.9999 6.64563C10.8048 6.64563 10.6415 6.71148 10.51 6.84317C10.3783 6.97471 10.3124 7.13803 10.3124 7.33313V14.6665C10.3124 14.8616 10.3783 15.0249 10.51 15.1564C10.6415 15.2881 10.8048 15.354 10.9999 15.354C11.195 15.354 11.3583 15.2881 11.4899 15.1564C11.6216 15.0249 11.6874 14.8616 11.6874 14.6665V7.33313C11.6874 7.13803 11.6216 6.97471 11.4899 6.84317C11.3583 6.71148 11.195 6.64563 10.9999 6.64563ZM14.5607 12.1456C14.3658 12.1456 14.2024 12.2115 14.0708 12.3432C13.9392 12.4747 13.8734 12.638 13.8734 12.8331V14.6665C13.8734 14.8616 13.9392 15.0249 14.0708 15.1564C14.2024 15.2881 14.3658 15.354 14.5607 15.354C14.7558 15.354 14.9192 15.2881 15.0509 15.1564C15.1824 15.0249 15.2482 14.8616 15.2482 14.6665V12.8331C15.2482 12.638 15.1824 12.4747 15.0509 12.3432C14.9192 12.2115 14.7558 12.1456 14.5607 12.1456Z" fill="#7C7C7A"/>
</g>
</svg>
