<svg width="20" height="20" viewBox="0 0 20 20" fill="none" xmlns="http://www.w3.org/2000/svg">
<path d="M3.33334 18.3335C3.33334 14.6516 6.31811 11.6668 10 11.6668C13.6819 11.6668 16.6667 14.6516 16.6667 18.3335H3.33334ZM10.8333 13.4027V16.6668H14.7155C14.1186 14.9781 12.6403 13.7057 10.8333 13.4027ZM9.16668 16.6668V13.4027C7.35972 13.7057 5.88139 14.9781 5.28452 16.6668H9.16668ZM10 10.8335C7.23751 10.8335 5.00001 8.596 5.00001 5.8335C5.00001 3.071 7.23751 0.833496 10 0.833496C12.7625 0.833496 15 3.071 15 5.8335C15 8.596 12.7625 10.8335 10 10.8335ZM10 9.16683C11.842 9.16683 13.3333 7.67552 13.3333 5.8335C13.3333 3.99147 11.842 2.50016 10 2.50016C8.15799 2.50016 6.66668 3.99147 6.66668 5.8335C6.66668 7.67552 8.15799 9.16683 10 9.16683Z" fill="#62748E"/>
</svg>
