<svg width="16" height="16" viewBox="0 0 16 16" fill="none" xmlns="http://www.w3.org/2000/svg">
<path d="M8.99996 4.33345L11.6666 7.00012M2.66663 13.3335H5.33329L12.3333 6.33345C12.5084 6.15836 12.6473 5.95049 12.742 5.72171C12.8368 5.49294 12.8856 5.24774 12.8856 5.00012C12.8856 4.7525 12.8368 4.5073 12.742 4.27853C12.6473 4.04975 12.5084 3.84188 12.3333 3.66679C12.1582 3.49169 11.9503 3.3528 11.7216 3.25804C11.4928 3.16328 11.2476 3.1145 11 3.1145C10.7523 3.1145 10.5071 3.16328 10.2784 3.25804C10.0496 3.3528 9.84172 3.49169 9.66663 3.66679L2.66663 10.6668V13.3335Z" stroke="#1678F5" stroke-linecap="round" stroke-linejoin="round"/>
</svg>
